<svg width="28" height="28" viewBox="0 0 28 28" fill="none" xmlns="http://www.w3.org/2000/svg">
<g clip-path="url(#clip0_3644_13849)">
<path fill-rule="evenodd" clip-rule="evenodd" d="M14 3.96997C12.626 3.96997 9.756 4.06597 6.576 4.38997C5.07206 4.53666 3.66713 5.20592 2.6056 6.28133C1.54408 7.35674 0.893129 8.77025 0.766 10.276C0.607034 12.1199 0.518303 13.9693 0.5 15.82C0.5 16.812 0.562 18.98 0.766 21.364C0.894019 22.869 1.54536 24.2815 2.6068 25.3561C3.66825 26.4307 5.07269 27.0994 6.576 27.246C9.756 27.572 12.626 27.668 14 27.668C15.374 27.668 18.244 27.572 21.424 27.248C22.9276 27.1014 24.3323 26.4324 25.3938 25.3574C26.4553 24.2824 27.1064 22.8693 27.234 21.364C27.393 19.52 27.4817 17.6707 27.5 15.82C27.5 14.828 27.438 12.658 27.234 10.272C27.106 8.76697 26.4546 7.3544 25.3932 6.2798C24.3318 5.2052 22.9273 4.53651 21.424 4.38997C18.9571 4.13546 16.4798 3.99531 14 3.96997Z" fill="#FAAF8F"/>
<path fill-rule="evenodd" clip-rule="evenodd" d="M6.00594 4.47408V1.83008C6.00594 1.6331 6.04474 1.43804 6.12013 1.25605C6.19551 1.07406 6.306 0.908706 6.44528 0.769418C6.58457 0.63013 6.74993 0.519641 6.93192 0.444259C7.11391 0.368877 7.30896 0.330078 7.50595 0.330078C7.70293 0.330078 7.89798 0.368877 8.07997 0.444259C8.26196 0.519641 8.42732 0.63013 8.56661 0.769418C8.70589 0.908706 8.81638 1.07406 8.89176 1.25605C8.96715 1.43804 9.00594 1.6331 9.00594 1.83008V4.18008C10.6678 4.05399 12.3334 3.98395 13.9999 3.97008C15.0099 3.97008 16.8259 4.02208 18.9799 4.17808V1.83008C18.9799 1.6331 19.0187 1.43804 19.0941 1.25605C19.1695 1.07406 19.28 0.908706 19.4193 0.769418C19.5586 0.63013 19.7239 0.519641 19.9059 0.444259C20.0879 0.368877 20.283 0.330078 20.4799 0.330078C20.6769 0.330078 20.872 0.368877 21.054 0.444259C21.236 0.519641 21.4013 0.63013 21.5406 0.769418C21.6799 0.908706 21.7904 1.07406 21.8658 1.25605C21.9411 1.43804 21.9799 1.6331 21.9799 1.83008V4.47008C23.3245 4.7193 24.5552 5.38917 25.4945 6.38308C26.4338 7.37698 27.0331 8.64355 27.2059 10.0001H0.793945C0.966791 8.64621 1.56439 7.38199 2.50087 6.38909C3.43735 5.39619 4.66449 4.72574 6.00594 4.47408Z" fill="#FAAF8F"/>
<path d="M1 12H27" stroke="white"/>
</g>
<defs>
<clipPath id="clip0_3644_13849">
<rect width="28" height="28" fill="white"/>
</clipPath>
</defs>
</svg>
