<svg width="32" height="32" viewBox="0 0 32 32" fill="none" xmlns="http://www.w3.org/2000/svg">
<circle cx="16" cy="16" r="16" fill="#FF955A"/>
<path fill-rule="evenodd" clip-rule="evenodd" d="M11 7.5C9.067 7.5 7.5 9.067 7.5 11V21C7.5 22.933 9.067 24.5 11 24.5H21C22.933 24.5 24.5 22.9332 24.5 21.0003V17.5C24.5 17.2239 24.7239 17 25 17C25.2761 17 25.5 17.2239 25.5 17.5V21.0003C25.5 23.4856 23.4852 25.5 21 25.5H11C8.51472 25.5 6.5 23.4853 6.5 21V11C6.5 8.51472 8.51472 6.5 11 6.5H16C16.2761 6.5 16.5 6.72386 16.5 7C16.5 7.27614 16.2761 7.5 16 7.5H11Z" fill="white"/>
<path fill-rule="evenodd" clip-rule="evenodd" d="M24.495 8.00483C24.7683 8.2782 24.7683 8.72141 24.495 8.99478L15.995 17.4948C15.7216 17.7681 15.2784 17.7681 15.005 17.4948C14.7317 17.2214 14.7317 16.7782 15.005 16.5048L23.505 8.00483C23.7784 7.73146 24.2216 7.73146 24.495 8.00483Z" fill="white"/>
<path d="M16.7122 20.1385C15.6568 21.4157 11.2146 22.0818 11.2146 22.0818C11.2146 22.0818 11.0316 17.5937 12.087 16.3165C13.1424 15.0393 15.0334 14.8595 16.3106 15.9149C17.5878 16.9703 17.7676 18.8613 16.7122 20.1385Z" fill="white"/>
</svg>
