<svg width="32" height="33" viewBox="0 0 32 33" fill="none" xmlns="http://www.w3.org/2000/svg">
<path d="M15.9999 3.16675C20.4133 3.16675 23.9999 6.71341 23.9999 11.1001C23.9999 17.0467 15.9999 25.8334 15.9999 25.8334C15.9999 25.8334 7.99992 17.0467 7.99992 11.1001C7.99992 6.71341 11.5866 3.16675 15.9999 3.16675ZM15.9999 8.50008C15.2927 8.50008 14.6144 8.78103 14.1143 9.28113C13.6142 9.78123 13.3333 10.4595 13.3333 11.1667C13.3333 11.874 13.6142 12.5523 14.1143 13.0524C14.6144 13.5525 15.2927 13.8334 15.9999 13.8334C16.7072 13.8334 17.3854 13.5525 17.8855 13.0524C18.3856 12.5523 18.6666 11.874 18.6666 11.1667C18.6666 10.4595 18.3856 9.78123 17.8855 9.28113C17.3854 8.78103 16.7072 8.50008 15.9999 8.50008ZM26.6666 25.8334C26.6666 28.7801 21.8933 31.1667 15.9999 31.1667C10.1066 31.1667 5.33325 28.7801 5.33325 25.8334C5.33325 24.1134 6.95992 22.5801 9.47992 21.6067L10.3333 22.8201C8.89325 23.4201 7.99992 24.2467 7.99992 25.1667C7.99992 27.0067 11.5866 28.5001 15.9999 28.5001C20.4133 28.5001 23.9999 27.0067 23.9999 25.1667C23.9999 24.2467 23.1066 23.4201 21.6666 22.8201L22.5199 21.6067C25.0399 22.5801 26.6666 24.1134 26.6666 25.8334Z" fill="#FEB389"/>
</svg>
