<svg width="187" height="69" viewBox="0 0 187 69" fill="none" xmlns="http://www.w3.org/2000/svg">
<g clip-path="url(#clip0_3740_8045)">
<g opacity="0.67">
<rect width="187" height="42" fill="#AC5AFF"/>
<path d="M0 11L187 11" stroke="#FFF0FF" stroke-width="2"/>
<path d="M0 32L187 32" stroke="#FFF0FF" stroke-width="2"/>
<path d="M15 0L15 42" stroke="#FFF0FF" stroke-width="2"/>
<path d="M31 0L31 42" stroke="#FFF0FF" stroke-width="2"/>
<path d="M47 0V42" stroke="#FFF0FF" stroke-width="2"/>
<path d="M63 0V42" stroke="#FFF0FF" stroke-width="2"/>
<path d="M79 0V42" stroke="#FFF0FF" stroke-width="2"/>
<path d="M95 0V42" stroke="#FFF0FF" stroke-width="2"/>
<path d="M111 0V42" stroke="#FFF0FF" stroke-width="2"/>
<path d="M127 0V42" stroke="#FFF0FF" stroke-width="2"/>
<path d="M143 0V42" stroke="#FFF0FF" stroke-width="2"/>
<path d="M159 0V42" stroke="#FFF0FF" stroke-width="2"/>
<path d="M175 0V42" stroke="#FFF0FF" stroke-width="2"/>
</g>
<rect x="97.0459" y="35.7095" width="12" height="12" rx="1" transform="rotate(38.1896 97.0459 35.7095)" fill="#FF955A"/>
<path fill-rule="evenodd" clip-rule="evenodd" d="M79.3542 49.4586C79.7788 48.2936 80.3926 47.1751 81.2009 46.1474C85.2984 40.9385 92.8428 40.0375 98.0517 44.135C103.261 48.2325 104.162 55.7769 100.064 60.9858C99.2558 62.0134 98.3133 62.8734 97.2811 63.5604C93.1299 64.3878 88.6559 63.4626 85.0682 60.6404C81.4805 57.8182 79.5277 53.6878 79.3542 49.4586Z" fill="#FF955A"/>
<path d="M80.4315 66.5351L82.459 56.6792L89.5327 62.2436L80.4315 66.5351Z" fill="#757575"/>
</g>
<defs>
<clipPath id="clip0_3740_8045">
<rect width="187" height="69" fill="white"/>
</clipPath>
</defs>
</svg>
