<svg width="390" height="540" viewBox="0 0 390 540" fill="none" xmlns="http://www.w3.org/2000/svg">
<g filter="url(#filter0_d_3063_16772)">
<path fill-rule="evenodd" clip-rule="evenodd" d="M338 32.9043C343.523 32.9043 348 28.1156 348 22.2086C348 20.5838 349.17 19 350.794 19H360.386C365.695 19 370 23.3045 370 28.6144V491C370 502.046 361.046 511 350 511H40C28.9543 511 20 502.046 20 491V27.7581C20 22.9211 23.9211 19 28.7581 19H37.2056C38.8305 19 40 20.5838 40 22.2086C40 28.1156 44.4772 32.9043 50 32.9043C55.5228 32.9043 60 28.1156 60 22.2086C60 20.5838 61.1695 19 62.7944 19H73.2056C74.8305 19 76 20.5838 76 22.2086C76 28.1156 80.4772 32.9043 86 32.9043C91.5229 32.9043 96 28.1156 96 22.2086C96 20.5838 97.1695 19 98.7944 19H109.206C110.83 19 112 20.5838 112 22.2086C112 28.1156 116.477 32.9043 122 32.9043C127.523 32.9043 132 28.1156 132 22.2086C132 20.5838 133.17 19 134.794 19H145.206C146.83 19 148 20.5838 148 22.2086C148 28.1156 152.477 32.9043 158 32.9043C163.523 32.9043 168 28.1156 168 22.2086C168 20.5838 169.17 19 170.794 19H181.206C182.83 19 184 20.5838 184 22.2086C184 28.1156 188.477 32.9043 194 32.9043C199.523 32.9043 204 28.1156 204 22.2086C204 20.5838 205.17 19 206.794 19H217.206C218.83 19 220 20.5838 220 22.2086C220 28.1156 224.477 32.9043 230 32.9043C235.523 32.9043 240 28.1156 240 22.2086C240 20.5838 241.17 19 242.794 19H253.206C254.83 19 256 20.5838 256 22.2086C256 28.1156 260.477 32.9043 266 32.9043C271.523 32.9043 276 28.1156 276 22.2086C276 20.5838 277.17 19 278.794 19H289.206C290.83 19 292 20.5838 292 22.2086C292 28.1156 296.477 32.9043 302 32.9043C307.523 32.9043 312 28.1156 312 22.2086C312 20.5838 313.17 19 314.794 19H325.206C326.83 19 328 20.5838 328 22.2086C328 28.1156 332.477 32.9043 338 32.9043Z" fill="white"/>
</g>
<g opacity="0.67">
<rect x="98" width="187" height="42" fill="#AC5AFF"/>
<path d="M98 11L285 11" stroke="#FFF0FF" stroke-width="2"/>
<path d="M98 32L285 32" stroke="#FFF0FF" stroke-width="2"/>
<path d="M113 0V42" stroke="#FFF0FF" stroke-width="2"/>
<path d="M129 0V42" stroke="#FFF0FF" stroke-width="2"/>
<path d="M145 0V42" stroke="#FFF0FF" stroke-width="2"/>
<path d="M161 0V42" stroke="#FFF0FF" stroke-width="2"/>
<path d="M177 0V42" stroke="#FFF0FF" stroke-width="2"/>
<path d="M193 0V42" stroke="#FFF0FF" stroke-width="2"/>
<path d="M209 0V42" stroke="#FFF0FF" stroke-width="2"/>
<path d="M225 0V42" stroke="#FFF0FF" stroke-width="2"/>
<path d="M241 0V42" stroke="#FFF0FF" stroke-width="2"/>
<path d="M257 0V42" stroke="#FFF0FF" stroke-width="2"/>
<path d="M273 0V42" stroke="#FFF0FF" stroke-width="2"/>
</g>
<g opacity="0.5">
<path opacity="0.1" d="M20 59H370" stroke="#111111"/>
<path opacity="0.1" d="M20 42H370" stroke="#111111"/>
<path opacity="0.1" d="M20 80H370" stroke="#111111"/>
<path opacity="0.1" d="M20 118H370" stroke="#111111"/>
<path opacity="0.1" d="M20 156H370" stroke="#111111"/>
<path opacity="0.1" d="M20 198H370" stroke="#111111"/>
<path opacity="0.1" d="M20 238H370" stroke="#111111"/>
<path opacity="0.1" d="M20 278H370" stroke="#111111"/>
<path opacity="0.1" d="M20 321H370" stroke="#111111"/>
<path opacity="0.1" d="M20 358H370" stroke="#111111"/>
<path opacity="0.1" d="M20 399H370" stroke="#111111"/>
<path opacity="0.1" d="M20 99H370" stroke="#111111"/>
<path opacity="0.1" d="M20 139H370" stroke="#111111"/>
<path opacity="0.1" d="M50 33L50 511" stroke="#111111"/>
<path opacity="0.1" d="M34 19L34 510" stroke="#111111"/>
<path opacity="0.1" d="M86 33L86 511" stroke="#111111"/>
<path opacity="0.1" d="M67 19L67 510" stroke="#111111"/>
<path opacity="0.1" d="M103 19L103 510" stroke="#111111"/>
<path opacity="0.1" d="M140 19L140 510" stroke="#111111"/>
<path opacity="0.1" d="M177 19L177 510" stroke="#111111"/>
<path opacity="0.1" d="M212 19L212 510" stroke="#111111"/>
<path opacity="0.1" d="M248 19L248 510" stroke="#111111"/>
<path opacity="0.1" d="M285 19L285 510" stroke="#111111"/>
<path opacity="0.1" d="M320 19L320 510" stroke="#111111"/>
<path opacity="0.1" d="M355 19L355 510" stroke="#111111"/>
<path opacity="0.1" d="M122 33L122 511" stroke="#111111"/>
<path opacity="0.1" d="M158 33L158 511" stroke="#111111"/>
<path opacity="0.1" d="M194 33L194 511" stroke="#111111"/>
<path opacity="0.1" d="M230 33L230 511" stroke="#111111"/>
<path opacity="0.1" d="M266 33L266 511" stroke="#111111"/>
<path opacity="0.1" d="M302 33L302 511" stroke="#111111"/>
<path opacity="0.1" d="M338 33L338 511" stroke="#111111"/>
<path opacity="0.1" d="M20 179H370" stroke="#111111"/>
<path opacity="0.1" d="M20 219H370" stroke="#111111"/>
<path opacity="0.1" d="M20 259H370" stroke="#111111"/>
<path opacity="0.1" d="M20 299H370" stroke="#111111"/>
<path opacity="0.1" d="M20 339H370" stroke="#111111"/>
<path opacity="0.1" d="M20 379H370" stroke="#111111"/>
<path opacity="0.1" d="M20 419H370" stroke="#111111"/>
<path opacity="0.1" d="M20 438H370" stroke="#111111"/>
<path opacity="0.1" d="M20 484H370" stroke="#111111"/>
<path opacity="0.1" d="M20 459H370" stroke="#111111"/>
<path opacity="0.1" d="M20 499H370" stroke="#111111"/>
</g>
<rect x="200.949" y="35.7095" width="12" height="12" rx="1" transform="rotate(38.1896 200.949 35.7095)" fill="#FF955A"/>
<path fill-rule="evenodd" clip-rule="evenodd" d="M183.258 49.4586C183.682 48.2936 184.296 47.1751 185.104 46.1474C189.202 40.9385 196.746 40.0375 201.955 44.135C207.164 48.2325 208.065 55.7769 203.967 60.9858C203.159 62.0134 202.217 62.8734 201.184 63.5604C197.033 64.3878 192.559 63.4626 188.971 60.6404C185.384 57.8182 183.431 53.6878 183.258 49.4586Z" fill="#FF955A"/>
<path d="M184.335 66.5351L186.362 56.6792L193.436 62.2436L184.335 66.5351Z" fill="#757575"/>
<defs>
<filter id="filter0_d_3063_16772" x="-1" y="6" width="392" height="534" filterUnits="userSpaceOnUse" color-interpolation-filters="sRGB">
<feFlood flood-opacity="0" result="BackgroundImageFix"/>
<feColorMatrix in="SourceAlpha" type="matrix" values="0 0 0 0 0 0 0 0 0 0 0 0 0 0 0 0 0 0 127 0" result="hardAlpha"/>
<feOffset dy="8"/>
<feGaussianBlur stdDeviation="10.5"/>
<feComposite in2="hardAlpha" operator="out"/>
<feColorMatrix type="matrix" values="0 0 0 0 0.727181 0 0 0 0 0.727181 0 0 0 0 0.727181 0 0 0 1 0"/>
<feBlend mode="normal" in2="BackgroundImageFix" result="effect1_dropShadow_3063_16772"/>
<feBlend mode="normal" in="SourceGraphic" in2="effect1_dropShadow_3063_16772" result="shape"/>
</filter>
</defs>
</svg>
