<svg width="350" height="423" viewBox="0 0 350 423" fill="none" xmlns="http://www.w3.org/2000/svg">
<rect width="350" height="423" rx="20" fill="#FFFFE1"/>
<path d="M37.0703 60.793H34.5508V69.7578H32.0508V52.0234H34.5508V58.7617H37.0703V60.793ZM21.0938 53.7227H23.5742V63.3613C26.0938 63.3158 28.5221 63.0586 30.8594 62.5898L31.1133 64.6602C29.7266 64.9401 28.3333 65.1387 26.9336 65.2559C25.5339 65.3665 24.1016 65.4219 22.6367 65.4219H21.0938V53.7227ZM46.755 62.0234H38.2198V53.4883H46.755V62.0234ZM40.2706 63.7227H42.7511V67.4922H52.4386V69.4844H40.2706V63.7227ZM44.2941 60.0703V55.4805H40.6808V60.0703H44.2941ZM49.2941 52.0234H51.7941V57.1406H54.1964V59.1914H51.7941V64.9922H49.2941V52.0234ZM60.6194 53.2148C61.5504 53.2148 62.3902 53.4004 63.1389 53.7715C63.8876 54.1426 64.4735 54.6602 64.8967 55.3242C65.3264 55.9818 65.5412 56.7305 65.5412 57.5703C65.5412 58.4102 65.3264 59.1621 64.8967 59.8262C64.4735 60.4902 63.8876 61.0111 63.1389 61.3887C62.3902 61.7598 61.5504 61.9453 60.6194 61.9453C59.6949 61.9453 58.8551 61.7598 58.0998 61.3887C57.3446 61.0111 56.7522 60.4902 56.3225 59.8262C55.8928 59.1621 55.678 58.4102 55.678 57.5703C55.678 56.737 55.8928 55.9883 56.3225 55.3242C56.7522 54.6602 57.3446 54.1426 58.0998 53.7715C58.8551 53.4004 59.6949 53.2148 60.6194 53.2148ZM55.6682 64.1719C57.6213 64.1719 59.4866 64.1328 61.2639 64.0547C63.0478 63.9766 64.7274 63.8268 66.303 63.6055L66.4983 65.4023C64.7535 65.7409 62.9794 65.959 61.176 66.0566C59.3791 66.1543 57.3967 66.2031 55.2287 66.2031L54.9358 64.1719H55.6682ZM58.1584 57.5703C58.1584 58.026 58.2626 58.4232 58.4709 58.7617C58.6858 59.0938 58.9787 59.3477 59.3498 59.5234C59.7274 59.6992 60.1506 59.7839 60.6194 59.7773C61.0946 59.7839 61.5211 59.6992 61.8987 59.5234C62.2763 59.3477 62.5725 59.0938 62.7873 58.7617C63.0087 58.4232 63.1194 58.026 63.1194 57.5703C63.1194 57.1211 63.0087 56.7305 62.7873 56.3984C62.5725 56.0599 62.2763 55.8027 61.8987 55.627C61.5211 55.4512 61.0946 55.3633 60.6194 55.3633C60.1506 55.3633 59.7274 55.4512 59.3498 55.627C58.9787 55.8027 58.6858 56.0599 58.4709 56.3984C58.2626 56.7305 58.1584 57.1211 58.1584 57.5703ZM67.3186 52.0234H69.7991V69.8359H67.3186V52.0234ZM91.4927 65.0117H89.0122V58.6445H86.102V56.6328H89.0122V52.043H91.4927V65.0117ZM76.4145 61.0078C77.3585 60.7148 78.1496 60.2852 78.7876 59.7188C79.4256 59.1458 79.9009 58.498 80.2134 57.7754C80.5259 57.0462 80.6854 56.2878 80.6919 55.5V55.2266H77.1177V53.2344H86.7661V55.2266H83.2309V55.5195C83.2244 56.2292 83.3709 56.9258 83.6704 57.6094C83.9699 58.2865 84.4256 58.8984 85.0376 59.4453C85.6496 59.9857 86.408 60.4023 87.313 60.6953L86.0825 62.668C85.1255 62.3555 84.3019 61.8965 83.6118 61.291C82.9282 60.679 82.3878 59.9629 81.9907 59.1426C81.5805 60.0605 81.0141 60.8548 80.2915 61.5254C79.5688 62.196 78.6997 62.7005 77.6841 63.0391L76.4145 61.0078ZM79.6958 63.8789H82.1958V67.4922H91.9223V69.4844H79.6958V63.8789ZM100.591 56.0469C100.585 57.1602 100.751 58.2344 101.089 59.2695C101.428 60.3047 101.936 61.2259 102.613 62.0332C103.29 62.8405 104.114 63.4492 105.084 63.8594L103.619 65.8516C102.629 65.4023 101.776 64.7578 101.06 63.918C100.351 63.0781 99.7874 62.0918 99.3707 60.959C98.9605 62.196 98.3844 63.2734 97.6422 64.1914C96.9 65.1029 96.0016 65.7995 94.9469 66.2812L93.443 64.2109C94.4456 63.7878 95.2919 63.1595 95.982 62.3262C96.6786 61.4863 97.1995 60.526 97.5445 59.4453C97.8896 58.3581 98.0654 57.2253 98.0719 56.0469V53.3906H100.591V56.0469ZM106.041 52.0234H108.56V69.8359H106.041V52.0234ZM125.784 69.7969H123.303V52.0234H125.784V69.7969ZM110.921 64.7773C111.324 64.7773 111.63 64.7741 111.839 64.7676C113.121 64.7676 114.326 64.7546 115.452 64.7285V63.2246C114.807 63.1074 114.241 62.8991 113.753 62.5996C113.271 62.3001 112.9 61.929 112.639 61.4863C112.379 61.0371 112.249 60.5391 112.249 59.9922C112.249 59.3411 112.434 58.7617 112.805 58.2539C113.176 57.7461 113.694 57.3522 114.358 57.0723C115.029 56.7923 115.797 56.6523 116.663 56.6523C117.535 56.6523 118.31 56.7923 118.987 57.0723C119.664 57.3522 120.191 57.7461 120.569 58.2539C120.947 58.7617 121.135 59.3411 121.135 59.9922C121.135 60.5391 121.002 61.0371 120.735 61.4863C120.475 61.929 120.1 62.3001 119.612 62.5996C119.13 62.8991 118.564 63.1074 117.913 63.2246V64.6406C119.521 64.569 120.992 64.4453 122.327 64.2695L122.503 66.1055C120.875 66.3854 119.192 66.5742 117.454 66.6719C115.716 66.763 113.876 66.8086 111.936 66.8086H111.253L110.921 64.7773ZM111.272 53.9961H115.452V52.1016H117.932V53.9961H122.073V55.9492H111.272V53.9961ZM114.612 59.9922C114.606 60.4479 114.791 60.8027 115.169 61.0566C115.546 61.3105 116.044 61.4375 116.663 61.4375C117.301 61.4375 117.809 61.3138 118.186 61.0664C118.564 60.8125 118.753 60.4544 118.753 59.9922C118.753 59.543 118.564 59.1914 118.186 58.9375C117.809 58.6836 117.301 58.5534 116.663 58.5469C116.044 58.5534 115.546 58.6836 115.169 58.9375C114.791 59.1914 114.606 59.543 114.612 59.9922ZM146.989 61.9062H134.313V53.5664H136.813V59.875H146.989V61.9062ZM132.497 65.6172H148.767V67.6875H132.497V65.6172ZM155.15 53.0586C155.144 54.3672 155.02 55.5163 154.779 56.5059C154.545 57.4889 154.145 58.3939 153.578 59.2207C153.018 60.041 152.247 60.8125 151.264 61.5352L149.643 59.9727C150.313 59.5104 150.86 59.0417 151.283 58.5664C151.706 58.0911 152.035 57.5736 152.27 57.0137C152.51 56.4473 152.677 55.793 152.768 55.0508H150.365V53.0586H155.15ZM152.514 62.8828H164.525V69.6016H152.514V62.8828ZM154.838 60.6953C155.821 59.888 156.547 59.0482 157.016 58.1758C157.484 57.3034 157.777 56.2617 157.895 55.0508H155.775V53.0586H160.268C160.261 54.4193 160.147 55.6204 159.926 56.6621C159.711 57.6973 159.337 58.6608 158.803 59.5527C158.269 60.4447 157.533 61.2812 156.596 62.0625L154.838 60.6953ZM162.084 67.6094V64.8555H154.955V67.6094H162.084ZM162.006 52.043H164.525V62.1406H162.006V52.043ZM174.933 52.2773C176.293 52.2773 177.456 52.3945 178.419 52.6289C179.389 52.8633 180.128 53.2083 180.636 53.6641C181.144 54.1133 181.398 54.6602 181.398 55.3047C181.398 55.9622 181.144 56.5189 180.636 56.9746C180.128 57.4238 179.392 57.7656 178.429 58C177.465 58.2344 176.3 58.3516 174.933 58.3516C173.566 58.3516 172.397 58.2344 171.427 58C170.457 57.7656 169.718 57.4238 169.21 56.9746C168.702 56.5189 168.448 55.9622 168.448 55.3047C168.448 54.6602 168.702 54.1133 169.21 53.6641C169.718 53.2083 170.457 52.8633 171.427 52.6289C172.397 52.3945 173.566 52.2773 174.933 52.2773ZM166.827 59.1914H183.038V61.1641H166.827V59.1914ZM168.702 62.1992H181.066V66.7305H171.163V67.8047H181.534V69.6797H168.722V64.9922H178.605V64.0156H168.702V62.1992ZM171.066 55.3047C171.059 55.7344 171.368 56.0436 171.993 56.2324C172.625 56.4212 173.605 56.5156 174.933 56.5156C176.267 56.5156 177.247 56.4212 177.872 56.2324C178.504 56.0436 178.82 55.7344 178.82 55.3047C178.82 54.4974 177.524 54.0938 174.933 54.0938C173.637 54.0938 172.667 54.1979 172.023 54.4062C171.378 54.6081 171.059 54.9076 171.066 55.3047ZM195.044 56.8672C195.038 57.7982 195.201 58.7324 195.533 59.6699C195.865 60.6074 196.356 61.4635 197.007 62.2383C197.665 63.013 198.462 63.6185 199.4 64.0547L198.013 66.0078C197.056 65.5651 196.223 64.9238 195.513 64.084C194.803 63.2376 194.24 62.2611 193.824 61.1543C193.414 62.3652 192.841 63.4362 192.105 64.3672C191.376 65.2917 190.513 65.9883 189.517 66.457L188.072 64.4844C189.022 64.0417 189.833 63.4134 190.503 62.5996C191.174 61.7858 191.678 60.8809 192.017 59.8848C192.362 58.8822 192.538 57.8763 192.544 56.8672V55.7734H188.775V53.7422H198.619V55.7734H195.044V56.8672ZM200.005 52.0234H202.505V58.8008H205.122V60.8906H202.505V69.7969H200.005V52.0234ZM221.897 63.918H218.088V69.7969H215.549V63.918H211.917V69.7969H209.358V63.918H205.628V61.9062H221.897V63.918ZM207.268 56.6328C207.268 55.8255 207.538 55.1191 208.079 54.5137C208.619 53.9082 209.374 53.4395 210.344 53.1074C211.321 52.7754 212.444 52.6094 213.713 52.6094C214.983 52.6094 216.106 52.7754 217.083 53.1074C218.066 53.4395 218.831 53.9082 219.378 54.5137C219.924 55.1191 220.198 55.8255 220.198 56.6328C220.198 57.4206 219.924 58.1107 219.378 58.7031C218.831 59.2891 218.066 59.7415 217.083 60.0605C216.106 60.3796 214.983 60.5391 213.713 60.5391C212.45 60.5391 211.331 60.3796 210.354 60.0605C209.378 59.7415 208.619 59.2891 208.079 58.7031C207.538 58.1107 207.268 57.4206 207.268 56.6328ZM209.827 56.6328C209.82 57.2513 210.162 57.7298 210.852 58.0684C211.549 58.4069 212.503 58.5794 213.713 58.5859C214.931 58.5794 215.885 58.4069 216.575 58.0684C217.271 57.7298 217.62 57.2513 217.62 56.6328C217.62 55.9883 217.271 55.4902 216.575 55.1387C215.885 54.7871 214.931 54.6081 213.713 54.6016C212.503 54.6081 211.549 54.7871 210.852 55.1387C210.162 55.4902 209.82 55.9883 209.827 56.6328ZM239.062 62.8242H222.793V60.8516H229.687V59.7773H224.824V55.1094H234.59V54.1914H224.785V52.2773H237.09V56.8867H227.304V57.8828H237.422V59.7773H232.168V60.8516H239.062V62.8242ZM224.843 63.4688H227.324V64.6406H234.687V63.4688H237.148V69.6016H224.843V63.4688ZM234.687 67.6875V66.4961H227.324V67.6875H234.687ZM255.387 69.7969H253.044V52.0234H255.387V69.7969ZM239.762 64.3477C241.527 63.2995 242.842 62.1146 243.708 60.793C244.58 59.4714 245.104 57.9219 245.28 56.1445H240.739V54.1328H247.751C247.751 55.8971 247.546 57.4792 247.136 58.8789H249.274V52.4141H251.598V69.0156H249.274V60.8516H246.364C245.843 61.8932 245.156 62.8503 244.304 63.7227C243.451 64.5951 242.406 65.3893 241.169 66.1055L239.762 64.3477ZM34.6289 90.0273H37.0312V92.0781H34.6289V96.0039H32.1289V86.0234H34.6289V90.0273ZM21.2109 87.1367H29.1406V89.1094H23.7109V93.3477C25.3451 93.3346 26.6699 93.2891 27.6855 93.2109C28.7077 93.1328 29.707 92.9961 30.6836 92.8008L30.9375 94.7539C29.8828 95.0013 28.7793 95.1608 27.627 95.2324C26.4811 95.304 24.8438 95.3398 22.7148 95.3398H21.2109V87.1367ZM23.0078 96.7461H34.6289V103.582H23.0078V96.7461ZM32.168 101.629V98.7188H25.4688V101.629H32.168ZM52.6925 103.836H50.2316V97.0195H46.9308V99.6172H38.3566V87.3906H40.837V91.707H44.4894V87.3906H46.9308V90.2031H50.2316V86.0234H52.6925V103.836ZM44.4894 97.625V93.6602H40.837V97.625H44.4894ZM50.2316 94.9883V92.1953H46.9308V94.9883H50.2316ZM63.6467 92.4688H57.9827V94.168C59.5517 94.1549 60.8733 94.1126 61.9475 94.041C63.0217 93.9694 64.0959 93.8359 65.1702 93.6406L65.4436 95.6328C64.2522 95.8477 63.0478 95.9974 61.8303 96.082C60.6194 96.1602 59.1448 96.1992 57.4065 96.1992H57.0061H55.5022V90.5742H61.2248V89.0117H55.4827V87.0195H63.6467V92.4688ZM56.9866 97.6445H68.9592V103.777H66.4592V99.6367H56.9866V97.6445ZM66.4592 86.043H68.9592V90.2812H71.3616V92.332H68.9592V96.8242H66.4592V86.043ZM87.433 103.797H85.0502V86.0234H87.433V103.797ZM72.1791 93.7188C72.1791 92.4102 72.3353 91.2708 72.6478 90.3008C72.9668 89.3307 73.416 88.5885 73.9955 88.0742C74.5814 87.5534 75.265 87.293 76.0462 87.293C76.7559 87.293 77.3841 87.5046 77.931 87.9277C78.4844 88.3509 78.9304 88.9629 79.2689 89.7637C79.614 90.5579 79.8321 91.5052 79.9232 92.6055H81.3783V86.2773H83.722V102.977H81.3783V94.5781H79.9427C79.8711 95.7305 79.666 96.7298 79.3275 97.5762C78.989 98.416 78.5365 99.0605 77.9701 99.5098C77.4102 99.959 76.7689 100.184 76.0462 100.184C75.265 100.184 74.5814 99.9232 73.9955 99.4023C73.416 98.875 72.9668 98.1263 72.6478 97.1562C72.3353 96.1797 72.1791 95.0339 72.1791 93.7188ZM74.4837 93.7188C74.4772 95.0664 74.6074 96.0853 74.8744 96.7754C75.1478 97.459 75.5384 97.7943 76.0462 97.7812C76.5606 97.7943 76.9577 97.4622 77.2377 96.7852C77.5241 96.1081 77.6673 95.1087 77.6673 93.7871C77.6673 92.4134 77.5274 91.3783 77.2474 90.6816C76.9675 89.985 76.5671 89.6367 76.0462 89.6367C75.5384 89.6367 75.1478 89.9818 74.8744 90.6719C74.6074 91.362 74.4772 92.3776 74.4837 93.7188ZM108.033 98.3281H98.1109V99.2656H107.701V100.945H98.1109V101.863H108.345V103.68H95.65V96.5898H100.513V95.3203H93.6773V93.3672H109.888V95.3203H103.013V96.5898H108.033V98.3281ZM95.7477 86.3164H98.2086V87.5859H105.338V86.3164H107.818V92.3906H95.7477V86.3164ZM105.338 90.4961V89.4219H98.2086V90.4961H105.338ZM115.745 87.2734C116.546 87.2734 117.268 87.4818 117.913 87.8984C118.557 88.3151 119.081 88.9076 119.485 89.6758H123.382V86.0234H125.842V103.836H123.382V97.1758H119.671C119.273 98.0547 118.733 98.7383 118.05 99.2266C117.372 99.7083 116.604 99.9492 115.745 99.9492C114.846 99.9492 114.046 99.6921 113.342 99.1777C112.646 98.6569 112.102 97.918 111.712 96.9609C111.321 95.9974 111.129 94.8776 111.135 93.6016C111.129 92.332 111.321 91.2188 111.712 90.2617C112.102 89.3047 112.646 88.569 113.342 88.0547C114.046 87.5339 114.846 87.2734 115.745 87.2734ZM113.518 93.6016C113.518 94.4674 113.609 95.2096 113.792 95.8281C113.974 96.4401 114.234 96.9056 114.573 97.2246C114.912 97.5371 115.302 97.6901 115.745 97.6836C116.194 97.6901 116.585 97.5371 116.917 97.2246C117.255 96.9056 117.516 96.4401 117.698 95.8281C117.88 95.2096 117.971 94.4674 117.971 93.6016C117.971 92.7357 117.88 91.9967 117.698 91.3848C117.516 90.7728 117.255 90.3105 116.917 89.998C116.585 89.679 116.194 89.5195 115.745 89.5195C115.302 89.5195 114.912 89.679 114.573 89.998C114.234 90.3105 113.974 90.776 113.792 91.3945C113.609 92.0065 113.518 92.7422 113.518 93.6016ZM120.178 91.6875C120.296 92.2734 120.354 92.9115 120.354 93.6016C120.354 94.1549 120.315 94.6823 120.237 95.1836H123.382V91.6875H120.178ZM144.277 101.727H128.008V99.6953H134.863V96.4141H129.726V87.1562H132.226V89.9102H139.98V87.1562H142.461V96.4141H137.344V99.6953H144.277V101.727ZM139.98 94.4219V91.9023H132.226V94.4219H139.98ZM150.876 90.4961C150.869 92.0846 151.12 93.5332 151.628 94.8418C152.136 96.1504 152.959 97.1693 154.099 97.8984L152.751 99.832C151.325 98.9727 150.3 97.5436 149.675 95.5449C149.343 96.5931 148.903 97.5176 148.356 98.3184C147.81 99.1191 147.145 99.7539 146.364 100.223L144.841 98.3867C146.084 97.6185 146.996 96.541 147.575 95.1543C148.161 93.7676 148.454 92.2539 148.454 90.6133V87.5469H150.876V90.4961ZM152.224 92.0195H154.528V86.2773H156.853V102.977H154.528V94.0508H152.224V92.0195ZM158.2 86.0234H160.583V103.797H158.2V86.0234ZM178.607 101.727H162.338V99.6758H165.971V95.3203C165.268 94.8971 164.724 94.3763 164.34 93.7578C163.956 93.1328 163.764 92.4362 163.764 91.668C163.764 90.724 164.05 89.8906 164.623 89.168C165.196 88.4453 165.987 87.8854 166.996 87.4883C168.012 87.0846 169.161 86.8828 170.443 86.8828C171.719 86.8828 172.865 87.0846 173.881 87.4883C174.897 87.8854 175.694 88.4453 176.274 89.168C176.853 89.8906 177.143 90.724 177.143 91.668C177.136 92.4232 176.947 93.1068 176.576 93.7188C176.205 94.3307 175.678 94.8483 174.994 95.2715V99.6758H178.607V101.727ZM166.225 91.668C166.225 92.2409 166.397 92.7389 166.742 93.1621C167.094 93.5853 167.585 93.9108 168.217 94.1387C168.855 94.3665 169.597 94.4805 170.443 94.4805C171.277 94.4805 172.012 94.3665 172.65 94.1387C173.288 93.9108 173.787 93.5853 174.145 93.1621C174.503 92.7389 174.682 92.2409 174.682 91.668C174.682 91.082 174.503 90.5775 174.145 90.1543C173.793 89.7311 173.298 89.4089 172.66 89.1875C172.022 88.9596 171.283 88.849 170.443 88.8555C169.597 88.8555 168.855 88.9661 168.217 89.1875C167.585 89.4089 167.094 89.7311 166.742 90.1543C166.397 90.5775 166.225 91.082 166.225 91.668ZM172.475 99.6758V96.2188C171.824 96.349 171.147 96.4141 170.443 96.4141C169.76 96.4141 169.089 96.3522 168.432 96.2285V99.6758H172.475Z" fill="#252525"/>
<g filter="url(#filter0_d_1706_9446)">
<rect x="20" y="165" width="110" height="112" rx="7.6032" fill="white" shape-rendering="crispEdges"/>
<path d="M29.4745 198.642H32.2861C32.8207 198.642 33.2811 198.738 33.6672 198.929C34.0533 199.12 34.347 199.393 34.5483 199.746C34.7496 200.096 34.8502 200.506 34.8502 200.978C34.8502 201.467 34.7413 201.886 34.5235 202.236C34.3057 202.585 33.9922 202.848 33.583 203.023L35.1076 205.81H33.4642L32.0931 203.265H30.9595V205.81H29.4745V198.642ZM32.0089 202.057C32.8867 202.057 33.3223 201.698 33.3157 200.978C33.319 200.615 33.2118 200.34 32.994 200.152C32.7762 199.96 32.4478 199.863 32.0089 199.86H30.9595V202.057H32.0089ZM35.819 198.642H40.6304V199.87H37.304V201.612H40.3829V202.84H37.304V204.582H40.6403V205.81H35.819V198.642ZM44.7276 204.107H44.7969L46.5492 198.642H48.1926L45.7176 205.81H43.8069L41.322 198.642H42.9852L44.7276 204.107ZM50.4285 205.81H48.9435V198.642H50.4285V205.81ZM51.5755 198.642H56.3869V199.87H53.0605V201.612H56.1394V202.84H53.0605V204.582H56.3968V205.81H51.5755V198.642ZM57.0389 198.642H58.6625L59.8703 203.651H59.9297L61.2464 198.642H62.6423L63.959 203.661H64.0184L65.2262 198.642H66.8498L64.8005 205.81H63.3452L61.979 201.077H61.9196L60.5435 205.81H59.0882L57.0389 198.642Z" fill="#111111"/>
<g opacity="0.67">
<rect x="65.6191" y="175.664" width="18.7495" height="7.98336" transform="rotate(-69.2156 65.6191 175.664)" fill="#AC5AFF"/>
<path d="M67.5737 176.406L74.4892 158.857" stroke="#FFF0FF" stroke-width="0.38016"/>
<path d="M71.3062 177.823L77.6576 160.124" stroke="#FFF0FF" stroke-width="0.38016"/>
<path d="M66.541 173.235L74.0048 176.068" stroke="#FFF0FF" stroke-width="0.38016"/>
<path d="M67.5244 170.644L74.9882 173.477" stroke="#FFF0FF" stroke-width="0.38016"/>
<path d="M68.5078 168.053L75.9716 170.886" stroke="#FFF0FF" stroke-width="0.38016"/>
<path d="M69.4912 165.462L76.955 168.294" stroke="#FFF0FF" stroke-width="0.38016"/>
<path d="M70.4751 162.87L77.9389 165.703" stroke="#FFF0FF" stroke-width="0.38016"/>
<path d="M71.4585 160.279L78.9223 163.112" stroke="#FFF0FF" stroke-width="0.38016"/>
</g>
</g>
<path d="M28.9126 218.55H114.886" stroke="#C5C5C5" stroke-width="1.2672"/>
<path d="M28.9126 231.339H114.886" stroke="#C5C5C5" stroke-width="1.2672"/>
<path d="M28.916 243.974H83.0476" stroke="#C5C5C5" stroke-width="1.2672"/>
<g filter="url(#filter1_d_1706_9446)">
<rect x="137" y="166" width="44" height="44" rx="3.04128" fill="white" shape-rendering="crispEdges"/>
<g opacity="0.67">
<rect x="155.248" y="170.266" width="7.4998" height="3.19334" transform="rotate(-69.2156 155.248 170.266)" fill="#AC5AFF"/>
<path d="M156.03 170.562L158.796 163.543" stroke="#FFF0FF" stroke-width="0.152064"/>
<path d="M157.522 171.129L160.063 164.05" stroke="#FFF0FF" stroke-width="0.152064"/>
<path d="M155.617 169.294L158.602 170.427" stroke="#FFF0FF" stroke-width="0.152064"/>
<path d="M156.01 168.258L158.995 169.391" stroke="#FFF0FF" stroke-width="0.152064"/>
<path d="M156.403 167.221L159.389 168.354" stroke="#FFF0FF" stroke-width="0.152064"/>
<path d="M156.796 166.185L159.782 167.318" stroke="#FFF0FF" stroke-width="0.152064"/>
<path d="M157.19 165.148L160.175 166.281" stroke="#FFF0FF" stroke-width="0.152064"/>
<path d="M157.583 164.112L160.569 165.245" stroke="#FFF0FF" stroke-width="0.152064"/>
</g>
</g>
<g filter="url(#filter2_d_1706_9446)">
<rect x="137" y="232" width="44" height="44" rx="3.04128" fill="white" shape-rendering="crispEdges"/>
<g opacity="0.67">
<rect x="155.248" y="236.266" width="7.4998" height="3.19334" transform="rotate(-69.2156 155.248 236.266)" fill="#AC5AFF"/>
<path d="M156.03 236.562L158.796 229.543" stroke="#FFF0FF" stroke-width="0.152064"/>
<path d="M157.522 237.129L160.063 230.05" stroke="#FFF0FF" stroke-width="0.152064"/>
<path d="M155.617 235.294L158.602 236.427" stroke="#FFF0FF" stroke-width="0.152064"/>
<path d="M156.01 234.258L158.995 235.391" stroke="#FFF0FF" stroke-width="0.152064"/>
<path d="M156.403 233.221L159.389 234.354" stroke="#FFF0FF" stroke-width="0.152064"/>
<path d="M156.796 232.185L159.782 233.318" stroke="#FFF0FF" stroke-width="0.152064"/>
<path d="M157.19 231.148L160.175 232.281" stroke="#FFF0FF" stroke-width="0.152064"/>
<path d="M157.583 230.112L160.569 231.245" stroke="#FFF0FF" stroke-width="0.152064"/>
</g>
</g>
<mask id="mask0_1706_9446" style="mask-type:alpha" maskUnits="userSpaceOnUse" x="-1" y="15" width="350" height="423">
<rect x="-1" y="15" width="350" height="423" rx="20" fill="#FFFFE1"/>
</mask>
<g mask="url(#mask0_1706_9446)">
<g clip-path="url(#clip0_1706_9446)">
<path d="M261.026 150.699C267.027 144.893 272.986 137.343 281.407 135.109C291.021 132.565 300.218 138.725 307.913 144.644C327.01 159.328 345.865 174.454 362.593 191.838C372.445 202.076 381.651 213.245 387.393 226.401C390.024 232.444 391.925 239.054 391.229 245.752C389.827 259.208 379.369 272.388 371.315 282.636C366.429 288.847 361.315 295.734 354.062 299.34C348.034 302.338 341.18 302.869 334.6 302.518C320.273 301.742 306.593 297.023 293.559 291.373C271.428 281.781 250.666 269.404 230.233 256.645C221.998 251.506 213.001 245.035 212.028 235.142C211.161 226.347 214.857 217.707 218.792 210.066C226.423 195.244 235.296 180.53 245.844 167.381C250.556 161.514 255.61 155.916 261.034 150.688L261.026 150.699Z" fill="white" stroke="#644319" stroke-width="3" stroke-miterlimit="10"/>
<path d="M298.916 213.699C295.383 211.247 286.527 224.016 290.06 226.469C293.592 228.921 298.434 228.05 300.881 224.522C303.328 220.995 302.448 216.152 298.916 213.699Z" fill="#644319"/>
<path d="M274.875 196.56C277.982 197.242 281.294 182.051 278.187 181.369C275.08 180.687 271.819 183.537 270.903 187.727C269.988 191.917 271.768 195.878 274.864 196.553L274.875 196.56Z" fill="#644319"/>
<path d="M266.506 208.626C268.232 211.299 255.168 219.72 253.442 217.047C251.716 214.374 253.243 210.32 256.846 207.996C260.448 205.671 264.78 205.953 266.495 208.619L266.506 208.626Z" fill="#644319"/>
<path d="M279.269 286.887C279.269 286.887 331.46 251.634 353.443 179.939C353.443 179.939 385.111 211.59 386.834 222.438C386.834 222.438 374.55 264.153 330.747 303.306C330.747 303.306 313.175 304.638 279.269 286.887Z" fill="#F19A65" stroke="#644319" stroke-width="3" stroke-linecap="round" stroke-linejoin="round"/>
<path d="M369.285 292.321C364.967 292.69 360.52 294.797 357.239 297.537C353.958 300.278 351.556 304.157 350.362 308.378C349.121 312.807 348.167 317.932 349.131 322.514C350.594 329.477 354.989 328.696 358.806 324.164C362.101 320.247 364.565 315.722 367.438 311.511C369.356 308.675 371.455 305.996 373.042 302.945C375.403 298.429 376.763 291.677 369.296 292.329L369.285 292.321Z" fill="#644319"/>
<path d="M299.048 204.412C301.465 200.928 299.945 195.689 295.654 192.71C291.363 189.731 285.925 190.141 283.509 193.625C281.092 197.109 282.612 202.349 286.903 205.327C291.194 208.306 296.631 207.897 299.048 204.412Z" fill="#644319"/>
<path d="M281.358 229.918C283.775 226.434 282.255 221.195 277.964 218.216C273.673 215.237 268.236 215.647 265.819 219.131C263.402 222.615 264.922 227.855 269.213 230.834C273.504 233.812 278.942 233.403 281.358 229.918Z" fill="#644319"/>
<path d="M259.811 252.907C260.426 254.151 261.504 254.772 262.603 255.502C263.64 256.206 264.627 257.052 265.743 257.618C267.091 258.313 268.755 258.09 269.62 256.75C270.36 255.613 270.019 254.206 270.016 253.146C270.014 251.83 269.994 250.517 269.87 249.213C269.868 249.147 269.902 248.033 269.87 248.011C270.102 248.139 268.829 248.955 268.857 248.846L268.762 248.844C268.846 248.839 268.933 248.851 269.01 248.857C269.145 248.87 269.291 248.891 269.426 248.905C270.55 249.044 271.732 249.191 272.858 249.187C274.061 249.189 275.398 249.46 276.457 248.72C278.016 247.654 277.307 245.574 276.622 244.201C276.364 243.67 276.073 243.163 275.723 242.696C275.537 242.454 275.337 242.235 275.151 241.993C275.09 241.919 275.018 241.837 274.965 241.752C275.172 242.056 274.868 241.429 274.985 241.862C274.703 240.833 273.806 240.066 272.688 240.267C271.715 240.442 270.804 241.525 271.096 242.562C271.42 243.716 272.135 244.421 272.791 245.373C272.562 245.054 272.822 245.443 272.857 245.532C272.985 245.764 273.094 246 273.203 246.237C273.295 246.428 273.35 246.627 273.442 246.819C273.386 246.668 273.382 246.697 273.44 246.914C273.451 246.713 273.451 246.713 273.44 246.914L274.573 245.28C274.2 245.47 274.967 245.313 274.463 245.3C274.255 245.299 274.061 245.277 273.85 245.258C273.36 245.223 272.873 245.254 272.384 245.219C271.384 245.134 270.387 245.019 269.384 244.915C268.208 244.805 267.058 245.144 266.395 246.192C265.733 247.239 265.842 248.517 265.931 249.685C265.95 249.89 265.96 250.106 265.989 250.319C266.007 250.571 266.018 250.579 265.999 250.374C266.004 250.505 266.002 250.648 266.007 250.78C266.018 251.365 266.022 251.961 266.027 252.557C266.037 253.189 266.048 253.822 266.125 254.452C266.134 254.507 266.213 255.043 266.151 254.807C266.117 255.088 266.124 255.077 266.214 254.787C266.314 254.295 266.698 254.065 267.363 254.078C267.604 254.148 267.622 254.145 267.4 254.071C267.599 254.178 267.632 254.2 267.513 254.117C267.328 253.99 267.133 253.854 266.949 253.726C266.472 253.395 266.006 253.072 265.53 252.741C265.053 252.41 264.579 252.097 264.098 251.795C263.914 251.667 263.722 251.55 263.535 251.404C263.337 251.25 263.293 251.22 263.427 251.329C263.269 251.139 263.244 251.106 263.362 251.236C262.229 248.958 258.646 250.607 259.782 252.903L259.811 252.907Z" fill="#F19A65"/>
<path d="M304.316 193.16C305.391 193.554 306.371 193.993 307.525 194.089C308.284 194.151 308.619 194.224 309.305 194.507C310.884 195.171 313.042 195.578 314.165 193.889C315.224 192.316 314.402 190.399 313.584 188.917C313.216 188.244 312.844 187.553 312.406 186.912C312.121 186.49 311.839 186.086 311.565 185.671C311.43 185.449 311.28 185.249 311.126 185.03C311.048 184.912 311.048 184.912 311.105 185.015C311.006 184.787 310.985 184.772 311.04 184.97L310.721 186.448C310.646 186.556 310.578 186.654 310.457 186.714C310.32 186.795 310.331 186.803 310.486 186.718L310.298 186.78C310.408 186.76 310.518 186.74 310.621 186.731C310.342 186.763 310.573 186.73 310.727 186.741C310.88 186.751 311.033 186.761 311.187 186.772C311.793 186.824 312.394 186.952 312.999 187.052C313.867 187.189 314.745 187.174 315.618 187.235C315.147 187.196 315.658 187.246 315.774 187.263C316.033 187.33 316.361 187.413 316.638 187.43C317.16 187.488 317.714 187.407 318.185 187.189C319.373 186.635 319.97 185.334 319.619 184.081C319.385 183.261 318.762 182.539 318.31 181.825C317.819 181.051 316.976 180.37 316.643 179.738C316.145 178.767 315.656 177.851 314.724 177.204C312.633 175.752 310.374 179.009 312.473 180.45C312.646 180.571 312.653 180.607 312.685 180.677C312.83 180.954 312.956 181.235 313.101 181.512C313.473 182.203 313.942 182.753 314.481 183.319C314.951 183.822 315.205 184.335 315.593 184.909C315.682 185.035 315.772 185.161 315.864 185.305C316.007 185.517 315.832 185.235 315.832 185.235L315.907 185.383L317.113 183.527C317.113 183.527 316.599 183.459 316.825 183.503C317.051 183.548 316.686 183.472 316.636 183.452C316.417 183.397 316.199 183.341 315.976 183.315C315.684 183.273 315.399 183.267 315.111 183.243C314.471 183.216 313.854 183.204 313.219 183.101C312.341 182.956 311.474 182.77 310.581 182.808C309.158 182.846 307.253 183.463 307.116 185.164C307.058 185.989 307.505 186.733 307.947 187.392C308 187.477 308.36 188 308.186 187.719C308.45 188.126 308.684 188.529 308.966 188.933C309.461 189.63 309.894 190.395 310.271 191.17C310.363 191.362 310.466 191.561 310.55 191.764C310.599 191.878 310.637 191.985 310.686 192.099C310.662 192.019 310.568 191.761 310.686 192.099C310.693 192.136 310.74 192.393 310.74 192.393C310.664 192.34 310.781 191.893 310.781 191.893C310.824 191.762 310.907 191.643 311 191.532C311.157 191.352 311.985 191.061 311.551 191.177C311.849 191.095 311.84 191.153 311.65 191.149C311.223 191.141 311.883 191.231 311.65 191.149C311.421 191.087 311.199 191.013 310.974 190.921C310.597 190.771 310.242 190.588 309.849 190.46C309.104 190.215 308.365 190.215 307.599 190.116C307.026 190.039 306.258 189.666 305.626 189.42C303.239 188.533 301.926 192.254 304.324 193.149L304.316 193.16Z" fill="#F19A65"/>
<path d="M277.401 222.361C278.184 221.232 277.903 219.679 276.771 218.894C275.64 218.109 274.088 218.388 273.304 219.518C272.521 220.647 272.803 222.2 273.934 222.985C275.065 223.77 276.617 223.491 277.401 222.361Z" fill="white"/>
<path d="M295.083 196.866C295.867 195.737 295.585 194.184 294.454 193.399C293.323 192.614 291.771 192.893 290.987 194.022C290.204 195.152 290.485 196.705 291.617 197.49C292.748 198.275 294.3 197.996 295.083 196.866Z" fill="white"/>
<path d="M285.802 244.065C285.802 244.065 306.708 242.37 300.9 224.519" stroke="#644319" stroke-width="3" stroke-miterlimit="10" stroke-linecap="round"/>
<path d="M300.655 222.65C300.655 222.65 321.561 220.955 315.753 203.103" stroke="#644319" stroke-width="3" stroke-miterlimit="10" stroke-linecap="round"/>
<path d="M301.98 234.904C302.622 235.206 322.962 237.382 312.749 220.465" stroke="#644319" stroke-width="3" stroke-miterlimit="10" stroke-linecap="round"/>
<path d="M342.844 292.739C342.844 292.739 355.002 296.642 361.592 295.173L342.844 292.739Z" fill="white"/>
<path d="M342.844 292.739C342.844 292.739 355.002 296.642 361.592 295.173" stroke="#644319" stroke-width="3" stroke-linecap="round" stroke-linejoin="round"/>
<path d="M239.449 183.799C232.25 178 226.587 168.041 231.402 159.039C235.66 151.093 243.925 146.699 252.193 143.99C259.086 141.737 269.041 138.564 267.356 129.234C268.195 133.857 269.352 137.883 268.733 142.711C268.185 146.996 266.591 151.1 264.003 154.577C260.055 159.853 253.524 162.533 248.865 167.122C246.085 169.857 241.534 175.307 246.194 178.542" fill="#F19A65"/>
<path d="M239.449 183.799C232.25 178 226.587 168.041 231.402 159.039C235.66 151.093 243.925 146.699 252.193 143.99C259.086 141.737 269.041 138.564 267.356 129.234C268.195 133.857 269.352 137.883 268.733 142.711C268.185 146.996 266.591 151.1 264.003 154.577C260.055 159.853 253.524 162.533 248.865 167.122C246.085 169.857 241.534 175.307 246.194 178.542" stroke="#644319" stroke-width="3" stroke-linecap="round" stroke-linejoin="round"/>
<path d="M239.45 183.799C231.5 179.082 220.193 177.26 213.45 184.923C207.501 191.695 206.279 200.979 206.637 209.676C206.94 216.924 207.453 227.364 198.128 229.051C202.75 228.22 206.924 227.895 211.228 225.625C215.048 223.611 218.333 220.681 220.683 217.038C224.24 211.492 224.464 204.433 227.13 198.46C228.718 194.898 232.228 188.726 236.888 191.96" fill="#F19A65"/>
<path d="M239.45 183.799C231.5 179.082 220.193 177.26 213.45 184.923C207.501 191.695 206.279 200.979 206.637 209.676C206.94 216.924 207.453 227.364 198.128 229.051C202.75 228.22 206.924 227.895 211.228 225.625C215.048 223.611 218.333 220.681 220.683 217.038C224.24 211.492 224.464 204.433 227.13 198.46C228.718 194.898 232.228 188.726 236.888 191.96" stroke="#644319" stroke-width="3" stroke-linecap="round" stroke-linejoin="round"/>
<path d="M318.199 280.035C318.199 280.035 320.067 307.965 296.145 304.846C291.481 304.243 287.279 302.268 282.871 300.782C277.904 299.112 272.872 297.422 268.713 294.103C266.301 292.173 264.446 288.998 267.252 286.515C271.536 282.749 276.711 286.516 281.17 288.24C282.396 288.713 291.934 292.949 292.276 289.98" fill="#F19A65"/>
<path d="M318.199 280.035C318.199 280.035 320.067 307.965 296.145 304.846C291.481 304.243 287.279 302.268 282.871 300.782C277.904 299.112 272.872 297.422 268.713 294.103C266.301 292.173 264.446 288.998 267.252 286.515C271.536 282.749 276.711 286.516 281.17 288.24C282.396 288.713 291.934 292.949 292.276 289.98" stroke="#644319" stroke-width="3" stroke-miterlimit="10" stroke-linecap="round"/>
<path d="M348.593 211.329C348.593 211.329 376.295 207.426 368.26 184.662C366.686 180.219 363.899 176.505 361.524 172.5C358.847 167.98 356.15 163.398 352.049 160.006C349.666 158.047 346.159 156.879 344.335 160.133C341.552 165.095 346.309 169.392 348.922 173.402C349.645 174.513 355.766 182.978 352.944 183.921" fill="#F19A65"/>
<path d="M348.593 211.329C348.593 211.329 376.295 207.426 368.26 184.662C366.686 180.219 363.899 176.505 361.524 172.5C358.847 167.98 356.15 163.398 352.049 160.006C349.666 158.047 346.159 156.879 344.335 160.133C341.552 165.095 346.309 169.392 348.922 173.402C349.645 174.513 355.766 182.978 352.944 183.921" stroke="#644319" stroke-width="3" stroke-miterlimit="10" stroke-linecap="round"/>
<path d="M322.601 240.402C322.601 240.402 298.597 253.509 318.854 260.133C318.854 260.133 334.596 266.091 322.601 240.402Z" fill="#644319"/>
<path d="M322.601 240.402C322.601 240.402 326.472 213.318 339.764 229.984C339.764 229.984 350.852 242.652 322.601 240.402Z" fill="#644319"/>
</g>
</g>
<defs>
<filter id="filter0_d_1706_9446" x="17.4656" y="155.601" width="115.069" height="123.934" filterUnits="userSpaceOnUse" color-interpolation-filters="sRGB">
<feFlood flood-opacity="0" result="BackgroundImageFix"/>
<feColorMatrix in="SourceAlpha" type="matrix" values="0 0 0 0 0 0 0 0 0 0 0 0 0 0 0 0 0 0 127 0" result="hardAlpha"/>
<feOffset/>
<feGaussianBlur stdDeviation="1.2672"/>
<feComposite in2="hardAlpha" operator="out"/>
<feColorMatrix type="matrix" values="0 0 0 0 0.890299 0 0 0 0 0.890299 0 0 0 0 0.890299 0 0 0 1 0"/>
<feBlend mode="normal" in2="BackgroundImageFix" result="effect1_dropShadow_1706_9446"/>
<feBlend mode="normal" in="SourceGraphic" in2="effect1_dropShadow_1706_9446" result="shape"/>
</filter>
<filter id="filter1_d_1706_9446" x="135.986" y="162.24" width="46.0275" height="48.7735" filterUnits="userSpaceOnUse" color-interpolation-filters="sRGB">
<feFlood flood-opacity="0" result="BackgroundImageFix"/>
<feColorMatrix in="SourceAlpha" type="matrix" values="0 0 0 0 0 0 0 0 0 0 0 0 0 0 0 0 0 0 127 0" result="hardAlpha"/>
<feOffset/>
<feGaussianBlur stdDeviation="0.50688"/>
<feComposite in2="hardAlpha" operator="out"/>
<feColorMatrix type="matrix" values="0 0 0 0 0.890299 0 0 0 0 0.890299 0 0 0 0 0.890299 0 0 0 1 0"/>
<feBlend mode="normal" in2="BackgroundImageFix" result="effect1_dropShadow_1706_9446"/>
<feBlend mode="normal" in="SourceGraphic" in2="effect1_dropShadow_1706_9446" result="shape"/>
</filter>
<filter id="filter2_d_1706_9446" x="135.986" y="228.24" width="46.0275" height="48.7735" filterUnits="userSpaceOnUse" color-interpolation-filters="sRGB">
<feFlood flood-opacity="0" result="BackgroundImageFix"/>
<feColorMatrix in="SourceAlpha" type="matrix" values="0 0 0 0 0 0 0 0 0 0 0 0 0 0 0 0 0 0 127 0" result="hardAlpha"/>
<feOffset/>
<feGaussianBlur stdDeviation="0.50688"/>
<feComposite in2="hardAlpha" operator="out"/>
<feColorMatrix type="matrix" values="0 0 0 0 0.890299 0 0 0 0 0.890299 0 0 0 0 0.890299 0 0 0 1 0"/>
<feBlend mode="normal" in2="BackgroundImageFix" result="effect1_dropShadow_1706_9446"/>
<feBlend mode="normal" in="SourceGraphic" in2="effect1_dropShadow_1706_9446" result="shape"/>
</filter>
<clipPath id="clip0_1706_9446">
<rect width="166.909" height="203.149" fill="white" transform="matrix(0.569904 -0.821711 0.821458 0.570269 174 237.151)"/>
</clipPath>
</defs>
</svg>
