<svg width="96" height="66" viewBox="0 0 96 66" fill="none" xmlns="http://www.w3.org/2000/svg">
<path d="M45.3499 0.556195L16.3499 25.3673C16.1278 25.5573 16 25.8349 16 26.1272V65C16 65.5523 16.4477 66 17 66H75C75.5523 66 76 65.5523 76 65V26.1272C76 25.8349 75.8722 25.5573 75.6501 25.3673L46.6501 0.556193C46.2758 0.235996 45.7242 0.235998 45.3499 0.556195Z" fill="#CA78FF"/>
<path d="M39 49C39 45.134 42.134 42 46 42C49.866 42 53 45.134 53 49V66H39V49Z" fill="white"/>
<ellipse cx="75.2402" cy="24.8068" rx="5.5519" ry="14.8225" transform="rotate(150 75.2402 24.8068)" fill="#FFB378"/>
<ellipse cx="75.5" cy="24.5" rx="5.5" ry="14.5" transform="rotate(90 75.5 24.5)" fill="#FFB378"/>
<ellipse cx="75.2402" cy="24.8068" rx="5.5519" ry="14.8225" transform="rotate(30 75.2402 24.8068)" fill="#FFB378"/>
<path d="M22.7261 51.239H21.4162L20.952 50.7913C22.5769 48.9011 23.5552 46.4471 23.5552 43.7776C23.5552 37.825 18.7301 33 12.7776 33C6.82504 33 2 37.825 2 43.7776C2 49.7301 6.82504 54.5552 12.7776 54.5552C15.4471 54.5552 17.9011 53.5769 19.7913 51.952L20.239 52.4162V53.7261L28.5294 62L31 59.5294L22.7261 51.239ZM12.7776 51.239C8.64894 51.239 5.31618 47.9062 5.31618 43.7776C5.31618 39.6489 8.64894 36.3162 12.7776 36.3162C16.9062 36.3162 20.239 39.6489 20.239 43.7776C20.239 47.9062 16.9062 51.239 12.7776 51.239Z" fill="#A13DE2"/>
</svg>
