<svg width="62" height="44" viewBox="0 0 62 44" fill="none" xmlns="http://www.w3.org/2000/svg">
<path d="M31.3499 0.556193L12.3499 16.8117C12.1278 17.0017 12 17.2794 12 17.5716V43C12 43.5523 12.4477 44 13 44H51C51.5523 44 52 43.5523 52 43V17.5716C52 17.2794 51.8722 17.0017 51.6501 16.8117L32.6501 0.556193C32.2758 0.235996 31.7242 0.235996 31.3499 0.556193Z" fill="#CA78FF"/>
<path d="M27 33C27 30.2386 29.2386 28 32 28C34.7614 28 37 30.2386 37 33V44H27V33Z" fill="white"/>
<ellipse cx="51.513" cy="16.513" rx="3.69567" ry="9.86671" transform="rotate(150 51.513 16.513)" fill="#FFB378"/>
<ellipse cx="51.513" cy="16.5129" rx="3.69567" ry="9.86671" transform="rotate(90 51.513 16.5129)" fill="#FFB378"/>
<ellipse cx="51.513" cy="16.5129" rx="3.69567" ry="9.86671" transform="rotate(30 51.513 16.5129)" fill="#FFB378"/>
</svg>
