<svg width="55" height="76" viewBox="0 0 55 76" fill="none" xmlns="http://www.w3.org/2000/svg">
<g clip-path="url(#clip0_4176_21289)">
<path d="M27.5 51C41.3071 51 52.5 39.8071 52.5 26C52.5 12.1929 41.3071 1 27.5 1C13.6929 1 2.5 12.1929 2.5 26C2.5 39.8071 13.6929 51 27.5 51Z" fill="white" stroke="#FF955A" stroke-width="2" stroke-miterlimit="10" stroke-linecap="round"/>
<path d="M31.9168 17.5469C32.8328 18.7436 38.6932 14.2615 37.7772 13.0648C36.8612 11.8681 34.8067 11.8999 33.1897 13.1388C31.5721 14.3758 31.0008 16.3502 31.9168 17.5469Z" fill="#644319"/>
<path d="M23.7037 17.5461C22.7877 18.7428 16.9273 14.2608 17.8433 13.0641C18.7593 11.8674 20.8138 11.8992 22.4309 13.138C24.0484 14.375 24.6197 16.3494 23.7037 17.5461Z" fill="#644319"/>
<path d="M34.7761 28.2835C36.7885 28.2835 38.4199 26.2757 38.4199 23.799C38.4199 21.3222 36.7885 19.3145 34.7761 19.3145C32.7637 19.3145 31.1323 21.3222 31.1323 23.799C31.1323 26.2757 32.7637 28.2835 34.7761 28.2835Z" fill="#644319"/>
<path d="M20.0417 28.2835C22.0542 28.2835 23.6855 26.2757 23.6855 23.799C23.6855 21.3222 22.0542 19.3145 20.0417 19.3145C18.0293 19.3145 16.3979 21.3222 16.3979 23.799C16.3979 26.2757 18.0293 28.2835 20.0417 28.2835Z" fill="#644319"/>
<path d="M5.32035 26.1427C4.99203 26.7082 5.07174 27.3117 5.07554 27.9342C5.07933 28.5567 5.0167 29.1773 5.11349 29.7789C5.23305 30.5133 5.91627 30.9954 6.64882 30.8455C6.97335 30.779 7.23904 30.5893 7.48955 30.3805C7.50853 30.3653 7.75145 30.185 7.74575 30.1585L7.66415 30.2192C7.71159 30.185 7.76094 30.149 7.80838 30.1148C7.8805 30.0636 7.95262 30.0123 8.02663 29.9611C8.51627 29.6157 8.99072 29.2589 9.45378 28.8793C9.47466 28.8623 9.66824 28.7218 9.50882 28.8338C9.55627 28.7996 9.60371 28.7655 9.65495 28.7332C9.70619 28.7009 9.75364 28.6763 9.80108 28.6459C9.96809 28.5377 9.68722 28.6744 9.79729 28.6459C9.88079 28.625 9.59612 28.6326 9.57904 28.6269C9.54678 28.6174 9.30196 28.4333 9.39875 28.5396C9.37977 28.5188 9.29627 28.3726 9.35889 28.496C9.39305 28.5624 9.43101 28.6269 9.46707 28.6933C9.7043 29.1526 9.9586 29.6309 10.2452 30.0598C10.5317 30.4887 10.7955 31.0428 11.27 31.3199C12.1183 31.8115 12.7996 30.8625 13.1526 30.2154C13.2912 29.9611 13.4107 29.6973 13.4923 29.4202C13.5265 29.3025 13.5569 29.183 13.5948 29.0653C13.61 29.016 13.6214 28.9552 13.6479 28.9097C13.4866 29.1773 13.8301 28.7218 13.6081 28.9799C13.9004 28.6421 13.9649 28.0993 13.6081 27.7729C13.2874 27.4787 12.7123 27.4123 12.4011 27.7729C12.1923 28.0158 12.0595 28.2739 11.9589 28.5795C11.9247 28.6858 11.8963 28.7939 11.8659 28.9021C11.8488 28.9647 11.8298 29.0274 11.8109 29.09L11.79 29.1488C11.7615 29.2228 11.7615 29.2247 11.79 29.1564C11.8147 29.0995 11.8166 29.0919 11.7976 29.1298C11.7862 29.1526 11.7748 29.1754 11.7615 29.1982C11.7387 29.2418 11.716 29.2836 11.6932 29.3272C11.642 29.4221 11.5888 29.517 11.5319 29.61C11.5015 29.6574 11.4693 29.7049 11.4389 29.7523C11.3535 29.8833 11.5015 29.703 11.4313 29.7637C11.3933 29.796 11.3592 29.8396 11.325 29.8757C11.215 29.999 11.4617 29.7922 11.3193 29.8719H12.1809C12.0367 29.7998 12.2227 29.9155 12.2151 29.9174C12.2037 29.9174 12.1297 29.8339 12.1316 29.8358C12.1145 29.8188 12.0652 29.739 12.1202 29.8244C12.1847 29.9231 12.1107 29.8036 12.0955 29.7789C12.0063 29.6404 11.9266 29.4942 11.8317 29.3576C11.5907 29.0122 11.4085 28.6402 11.1979 28.2758C11.0195 27.9684 10.8639 27.6192 10.6247 27.3554C10.2774 26.972 9.74225 26.8468 9.26021 27.0328C8.82181 27.2017 8.46882 27.4882 8.11203 27.7881C8.0513 27.8393 7.99057 27.8887 7.93174 27.9399C7.81218 28.0405 7.94313 27.9342 7.96211 27.919C7.91656 27.957 7.86532 27.9912 7.81787 28.0253C7.62619 28.1658 7.43262 28.3024 7.23904 28.439C7.04546 28.5757 6.85758 28.7085 6.67349 28.8509C6.59378 28.9116 6.51787 28.9761 6.44196 29.0425C6.4078 29.0729 6.37174 29.1033 6.33758 29.1336C6.21992 29.238 6.39831 29.1071 6.3167 29.1526C6.29203 29.1659 6.25218 29.1887 6.2294 29.2077C6.31101 29.1336 6.33948 29.1792 6.25597 29.1944C6.41729 29.164 6.56342 29.1906 6.68488 29.3101C6.73422 29.3576 6.7532 29.4107 6.78546 29.4677C6.84809 29.5777 6.79875 29.4999 6.78546 29.4563C6.73802 29.2779 6.78926 29.6385 6.78167 29.405C6.76838 28.9344 6.78546 28.458 6.78357 27.9874C6.78357 27.7691 6.76459 27.5509 6.76079 27.3307C6.76079 27.2339 6.76079 27.1371 6.77028 27.0385C6.757 27.2131 6.76269 27.1011 6.77597 27.0574C6.82532 26.8866 6.70006 27.177 6.79685 27.0119C7.02079 26.6247 6.89933 26.0592 6.4913 25.8428C6.08327 25.6265 5.56138 25.7366 5.32225 26.1484L5.32035 26.1427Z" fill="#FFA469"/>
<path d="M40.6727 27.2657C40.7828 27.687 40.8549 28.1007 41.0409 28.4974C41.1111 28.6492 41.2022 28.7897 41.2876 28.9339C41.3331 29.0117 41.3787 29.0895 41.4166 29.1711C41.3635 29.0553 41.4147 29.1844 41.428 29.2356C41.5609 29.7442 41.6197 30.268 41.9537 30.6988C42.4718 31.3688 43.3657 31.3783 43.9597 30.7994C44.3582 30.4104 44.6049 29.8771 44.8403 29.3818C45.0016 29.0402 45.1496 28.6986 45.2768 28.3418C45.2768 28.338 45.328 28.2127 45.2957 28.2886C45.2578 28.374 45.3356 28.2108 45.3451 28.1899C45.4001 28.0685 45.4514 27.9432 45.4988 27.8161C45.5102 27.7857 45.5216 27.7553 45.533 27.7231C45.5406 27.7041 45.5937 27.5656 45.5501 27.6699C45.5064 27.7743 45.5614 27.6529 45.5747 27.6263C45.607 27.5618 45.6924 27.501 45.5595 27.6396L44.956 27.8901C44.9693 27.8901 44.7492 27.8502 44.8346 27.8749C44.92 27.8996 44.7207 27.8199 44.7321 27.8256C44.8574 27.8882 44.7549 27.8654 44.7131 27.7914C44.7321 27.8275 44.7928 27.8635 44.8232 27.8939C44.8403 27.9129 44.8573 27.9356 44.8763 27.9527C44.9503 28.0191 44.789 27.8199 44.8441 27.9091C44.9693 28.1159 45.0946 28.3133 45.2009 28.5315C45.2863 28.708 45.3622 28.8902 45.4495 29.0667C45.6089 29.3837 45.8252 29.6645 45.9998 29.972C46.0169 30.0023 46.0321 30.0403 46.053 30.0688C46.0985 30.1295 46.0131 29.9891 46.0169 29.9796C46.0074 30.0024 46.07 30.1143 46.0795 30.1409C46.1592 30.3383 46.2333 30.5167 46.3623 30.6856C46.683 31.0993 47.2524 31.3024 47.7515 31.0917C48.169 30.9152 48.3683 30.5736 48.5144 30.1599C48.5277 30.1238 48.5846 29.9587 48.541 30.0707C48.5714 29.9929 48.6112 29.9169 48.6473 29.841C48.7403 29.6323 48.8371 29.4216 48.8921 29.1996C48.9395 29.0041 48.9604 28.801 49.0192 28.6075C49.0306 28.5714 49.0439 28.5372 49.0534 28.5012C49.0306 28.5714 49.0079 28.5961 49.0534 28.5145C49.0933 28.4405 49.1312 28.3664 49.173 28.2943C49.3874 27.9034 49.5696 27.4953 49.5582 27.0399C49.5468 26.5844 49.1749 26.165 48.7042 26.1859C48.2336 26.2067 47.8369 26.5616 47.8502 27.0399C47.8559 27.2524 47.9204 26.888 47.8559 27.0873C47.8445 27.1196 47.7648 27.3302 47.8483 27.1461C47.7895 27.2771 47.7155 27.4005 47.6471 27.5257C47.4725 27.8502 47.3606 28.1729 47.2903 28.5315C47.2581 28.7005 47.222 28.8675 47.1556 29.0269C47.2182 28.8732 47.1063 29.1256 47.1044 29.1294C47.0512 29.247 46.9981 29.3666 46.9506 29.488C46.9222 29.5583 46.8937 29.6304 46.8728 29.7044C46.8216 29.8847 46.9772 29.5753 46.8709 29.7139C46.9943 29.5545 47.0569 29.5507 47.2638 29.5203C47.3776 29.4615 47.482 29.4653 47.5769 29.5317C47.6471 29.5696 47.7041 29.6228 47.7458 29.6892C47.7667 29.6778 47.5731 29.4463 47.7306 29.6835C47.7022 29.6399 47.687 29.5715 47.668 29.5222C47.5997 29.3495 47.5295 29.1901 47.4346 29.0326C47.2657 28.7498 47.0664 28.4822 46.9203 28.1861C46.7324 27.8085 46.5825 27.4137 46.3395 27.0683C45.9277 26.4838 45.049 25.7702 44.3582 26.4307C44.102 26.6755 43.9692 27.0304 43.8591 27.3587C43.8079 27.5124 43.8724 27.3454 43.8781 27.3245C43.8629 27.391 43.8117 27.4631 43.7832 27.5257C43.6845 27.744 43.6048 27.9698 43.527 28.1956C43.4416 28.4386 43.601 28.0647 43.4814 28.2943C43.4663 28.3247 43.4511 28.3532 43.4359 28.3835C43.396 28.4632 43.36 28.5448 43.322 28.6245C43.2252 28.8295 43.1247 29.0326 43.0127 29.228C42.9538 29.3286 42.8912 29.4235 42.8267 29.5203C42.7223 29.6797 42.9576 29.3875 42.8267 29.5146C42.8058 29.5355 42.7792 29.5621 42.7584 29.5867C42.654 29.7139 42.9273 29.4937 42.7925 29.5659C42.6578 29.638 43.0013 29.5089 42.8552 29.5431L43.0032 29.5222C42.9121 29.5203 42.9463 29.526 43.1095 29.5393C43.2518 29.6076 43.2841 29.6209 43.2082 29.5791C43.3258 29.6778 43.3524 29.6968 43.2898 29.638C43.1835 29.5355 43.3695 29.8183 43.3201 29.674C43.3049 29.6475 43.2898 29.6209 43.2765 29.5924C43.2385 29.5127 43.248 29.5355 43.3049 29.6626C43.3049 29.5791 43.2366 29.4539 43.2138 29.3723C43.1607 29.1692 43.1322 28.9623 43.0772 28.7593C42.9785 28.393 42.7698 28.097 42.5933 27.7686C42.5838 27.7515 42.4946 27.5257 42.5496 27.6832C42.5136 27.5788 42.4851 27.4745 42.4585 27.3663C42.413 27.1803 42.3769 26.9905 42.3276 26.8045C42.2137 26.3718 41.7127 26.0682 41.2762 26.2086C40.8397 26.3491 40.5588 26.7951 40.6803 27.26L40.6727 27.2657Z" fill="#FFA469"/>
<path d="M36.6531 24.692C37.304 24.692 37.8317 24.1644 37.8317 23.5135C37.8317 22.8626 37.304 22.335 36.6531 22.335C36.0023 22.335 35.4746 22.8626 35.4746 23.5135C35.4746 24.1644 36.0023 24.692 36.6531 24.692Z" fill="white"/>
<path d="M35.5146 21.9764C35.9233 21.9764 36.2547 21.645 36.2547 21.2362C36.2547 20.8275 35.9233 20.4961 35.5146 20.4961C35.1058 20.4961 34.7744 20.8275 34.7744 21.2362C34.7744 21.645 35.1058 21.9764 35.5146 21.9764Z" fill="white"/>
<path d="M34.9243 25.8106C35.2388 25.8106 35.4937 25.5557 35.4937 25.2412C35.4937 24.9268 35.2388 24.6719 34.9243 24.6719C34.6099 24.6719 34.355 24.9268 34.355 25.2412C34.355 25.5557 34.6099 25.8106 34.9243 25.8106Z" fill="white"/>
<path d="M21.8504 24.692C22.5013 24.692 23.029 24.1644 23.029 23.5135C23.029 22.8626 22.5013 22.335 21.8504 22.335C21.1995 22.335 20.6719 22.8626 20.6719 23.5135C20.6719 24.1644 21.1995 24.692 21.8504 24.692Z" fill="white"/>
<path d="M20.7113 21.9764C21.1201 21.9764 21.4515 21.645 21.4515 21.2362C21.4515 20.8275 21.1201 20.4961 20.7113 20.4961C20.3026 20.4961 19.9712 20.8275 19.9712 21.2362C19.9712 21.645 20.3026 21.9764 20.7113 21.9764Z" fill="white"/>
<path d="M20.1211 25.8106C20.4355 25.8106 20.6904 25.5557 20.6904 25.2412C20.6904 24.9268 20.4355 24.6719 20.1211 24.6719C19.8067 24.6719 19.5518 24.9268 19.5518 25.2412C19.5518 25.5557 19.8067 25.8106 20.1211 25.8106Z" fill="white"/>
<path d="M24.0648 37.1968C23.6871 37.3809 28.0692 47.0654 32.2443 36.8059C32.2443 36.8059 27.5947 35.2041 27.7845 32.9268C27.7845 32.9268 28.1261 35.2041 24.0648 37.1968Z" fill="#644319"/>
<path d="M31.1248 30.7386C31.1248 28.7004 23.7461 28.7004 23.7461 30.7386C23.7461 32.7769 25.3972 34.428 27.4354 34.428C29.4737 34.428 31.1248 32.7769 31.1248 30.7386Z" fill="#644319"/>
<path d="M15.1587 33.8281C15.1587 33.8281 21.4803 41.5105 26.8663 34.4278" stroke="#644319" stroke-width="1.13869" stroke-miterlimit="10" stroke-linecap="round"/>
<path d="M28.1055 33.8281C28.1055 33.8281 34.4271 41.5105 39.8131 34.4278" stroke="#644319" stroke-width="1.13869" stroke-miterlimit="10" stroke-linecap="round"/>
<path d="M29.6732 31.6843C29.9992 31.6843 30.2634 31.4201 30.2634 31.0941C30.2634 30.7682 29.9992 30.5039 29.6732 30.5039C29.3473 30.5039 29.083 30.7682 29.083 31.0941C29.083 31.4201 29.3473 31.6843 29.6732 31.6843Z" fill="white"/>
<path d="M28.521 30.9189C28.7253 30.9189 28.891 30.7532 28.891 30.5488C28.891 30.3444 28.7253 30.1787 28.521 30.1787C28.3166 30.1787 28.1509 30.3444 28.1509 30.5488C28.1509 30.7532 28.3166 30.9189 28.521 30.9189Z" fill="white"/>
<path d="M29.5269 32.5908C29.6841 32.5908 29.8115 32.4634 29.8115 32.3062C29.8115 32.1489 29.6841 32.0215 29.5269 32.0215C29.3696 32.0215 29.2422 32.1489 29.2422 32.3062C29.2422 32.4634 29.3696 32.5908 29.5269 32.5908Z" fill="white"/>
</g>
<path d="M11.5781 69.6172V70.8359H1.81641V69.6172H5.92969V67.6484H2.84766V62.0938H4.34766V63.7461H9V62.0938H10.4883V67.6484H7.41797V69.6172H11.5781ZM4.34766 66.4531H9V64.9414H4.34766V66.4531ZM20.9766 62.3398V63.3477C20.9766 64.6836 20.9766 66.1836 20.543 68.4453L19.043 68.293C19.4473 66.2773 19.4648 64.7773 19.4766 63.5234H13.1953V62.3398H20.9766ZM21.9141 69.5586V70.7773H12.1875V69.5586H15.668V65.8906H17.1562V69.5586H21.9141ZM31.4883 61.4258V67.332H29.9883V61.4258H31.4883ZM26.6484 62.8203C26.6367 64.0859 27.4102 65.3398 29.1562 65.8203L28.4414 67.0039C27.2109 66.6406 26.3613 65.9023 25.875 64.9531C25.3887 65.9844 24.5156 66.7988 23.2383 67.1797L22.5234 66.0078C24.3047 65.4688 25.0898 64.1445 25.0898 62.8203V61.7891H26.6484V62.8203ZM31.5469 67.8125V68.9961H30.2695V70.7656H31.6406V71.9609H24.1289V70.7656H25.5117V68.9961H24.2227V67.8125H31.5469ZM26.9883 70.7656H28.793V68.9961H26.9883V70.7656ZM35.8711 62.1641C37.3125 62.1641 38.3848 63.3535 38.6016 65.2695H40.4531V61.4141H41.9297V72.1016H40.4531V66.4648H38.6133C38.4551 68.5156 37.3594 69.7695 35.8711 69.7695C34.2539 69.7695 33.0938 68.3047 33.1055 65.9609C33.0938 63.6406 34.2539 62.1641 35.8711 62.1641ZM35.8711 63.5117C35.0742 63.5117 34.5234 64.3789 34.5352 65.9609C34.5234 67.5547 35.0742 68.4102 35.8711 68.4102C36.6797 68.4102 37.207 67.5547 37.207 65.9609C37.207 64.3789 36.6797 63.5117 35.8711 63.5117ZM53.0625 69.6055V70.8359H43.3008V69.6055H45.4805V66.9922C44.6543 66.5 44.1562 65.7441 44.1562 64.8008C44.1562 63.0781 45.8438 61.9297 48.1641 61.9297C50.4727 61.9297 52.1719 63.0781 52.1836 64.8008C52.1777 65.7207 51.6914 66.4707 50.8945 66.9688V69.6055H53.0625ZM48.1641 63.1133C46.6406 63.1133 45.6328 63.7227 45.6328 64.8008C45.6328 65.8438 46.6406 66.4883 48.1641 66.4883C49.6758 66.4883 50.6953 65.8438 50.707 64.8008C50.6953 63.7227 49.6758 63.1133 48.1641 63.1133ZM46.957 69.6055H49.3828V67.5312C49.002 67.6074 48.5918 67.6484 48.1641 67.6484C47.7363 67.6484 47.332 67.6133 46.957 67.5312V69.6055Z" fill="#111111"/>
<defs>
<clipPath id="clip0_4176_21289">
<rect width="52" height="52" fill="white" transform="translate(1.5)"/>
</clipPath>
</defs>
</svg>
