<svg width="61" height="88" viewBox="0 0 61 88" fill="none" xmlns="http://www.w3.org/2000/svg">
<g opacity="0.5" clip-path="url(#clip0_4252_15398)">
<path d="M30.5 51C44.3071 51 55.5 39.8071 55.5 26C55.5 12.1929 44.3071 1 30.5 1C16.6929 1 5.5 12.1929 5.5 26C5.5 39.8071 16.6929 51 30.5 51Z" fill="#EDEDED" stroke="#898989" stroke-width="1.2" stroke-miterlimit="10" stroke-linecap="round"/>
<path d="M34.2956 16.7464C34.8707 18.1393 41.6914 15.3268 41.1164 13.9338C40.5413 12.5408 38.5486 12.0398 36.666 12.8179C34.7834 13.5941 33.7206 15.3534 34.2956 16.7464Z" fill="#757575"/>
<path d="M27.325 16.7464C26.7499 18.1393 19.9292 15.3268 20.5042 13.9338C21.0793 12.5408 23.072 12.0398 24.9546 12.8179C26.8372 13.5941 27.9 15.3534 27.325 16.7464Z" fill="#757575"/>
<path d="M37.7762 28.2835C39.7886 28.2835 41.42 26.2757 41.42 23.799C41.42 21.3222 39.7886 19.3145 37.7762 19.3145C35.7638 19.3145 34.1324 21.3222 34.1324 23.799C34.1324 26.2757 35.7638 28.2835 37.7762 28.2835Z" fill="#757575"/>
<path d="M23.0416 28.2835C25.054 28.2835 26.6854 26.2757 26.6854 23.799C26.6854 21.3222 25.054 19.3145 23.0416 19.3145C21.0292 19.3145 19.3978 21.3222 19.3978 23.799C19.3978 26.2757 21.0292 28.2835 23.0416 28.2835Z" fill="#757575"/>
<path d="M8.32029 26.1427C7.99197 26.7082 8.07168 27.3117 8.07547 27.9342C8.07927 28.5567 8.01664 29.1773 8.11343 29.7789C8.23299 30.5133 8.9162 30.9954 9.64876 30.8455C9.97328 30.779 10.239 30.5893 10.4895 30.3805C10.5085 30.3653 10.7514 30.185 10.7457 30.1585L10.6641 30.2192C10.7115 30.185 10.7609 30.149 10.8083 30.1148C10.8804 30.0636 10.9526 30.0123 11.0266 29.9611C11.5162 29.6157 11.9907 29.2589 12.4537 28.8793C12.4746 28.8623 12.6682 28.7218 12.5088 28.8338C12.5562 28.7996 12.6037 28.7655 12.6549 28.7332C12.7061 28.7009 12.7536 28.6763 12.801 28.6459C12.968 28.5377 12.6872 28.6744 12.7972 28.6459C12.8807 28.625 12.5961 28.6326 12.579 28.6269C12.5467 28.6174 12.3019 28.4333 12.3987 28.5396C12.3797 28.5188 12.2962 28.3726 12.3588 28.496C12.393 28.5624 12.4309 28.6269 12.467 28.6933C12.7042 29.1526 12.9585 29.6309 13.2451 30.0598C13.5317 30.4887 13.7955 31.0428 14.2699 31.3199C15.1182 31.8114 15.7996 30.8625 16.1526 30.2154C16.2911 29.9611 16.4107 29.6973 16.4923 29.4202C16.5264 29.3025 16.5568 29.183 16.5947 29.0653C16.6099 29.016 16.6213 28.9552 16.6479 28.9097C16.4866 29.1773 16.8301 28.7218 16.608 28.9799C16.9003 28.6421 16.9648 28.0993 16.608 27.7729C16.2873 27.4787 15.7123 27.4123 15.401 27.7729C15.1923 28.0158 15.0594 28.2739 14.9588 28.5795C14.9247 28.6858 14.8962 28.7939 14.8658 28.9021C14.8488 28.9647 14.8298 29.0274 14.8108 29.09L14.7899 29.1488C14.7615 29.2228 14.7615 29.2247 14.7899 29.1564C14.8146 29.0995 14.8165 29.0919 14.7975 29.1298C14.7861 29.1526 14.7747 29.1754 14.7615 29.1982C14.7387 29.2418 14.7159 29.2836 14.6931 29.3272C14.6419 29.4221 14.5888 29.517 14.5318 29.61C14.5015 29.6574 14.4692 29.7049 14.4388 29.7523C14.3534 29.8833 14.5015 29.703 14.4312 29.7637C14.3933 29.796 14.3591 29.8396 14.325 29.8757C14.2149 29.999 14.4616 29.7922 14.3193 29.8719H15.1809C15.0366 29.7998 15.2226 29.9155 15.215 29.9174C15.2037 29.9174 15.1296 29.8339 15.1315 29.8358C15.1145 29.8188 15.0651 29.739 15.1201 29.8244C15.1847 29.9231 15.1107 29.8036 15.0955 29.7789C15.0063 29.6404 14.9266 29.4942 14.8317 29.3576C14.5907 29.0122 14.4085 28.6402 14.1978 28.2758C14.0194 27.9684 13.8638 27.6192 13.6247 27.3554C13.2774 26.972 12.7422 26.8468 12.2601 27.0328C11.8218 27.2017 11.4688 27.4882 11.112 27.7881C11.0512 27.8393 10.9905 27.8887 10.9317 27.9399C10.8121 28.0405 10.9431 27.9342 10.962 27.919C10.9165 27.957 10.8653 27.9912 10.8178 28.0253C10.6261 28.1658 10.4326 28.3024 10.239 28.439C10.0454 28.5757 9.85752 28.7085 9.67343 28.8509C9.59372 28.9116 9.51781 28.9761 9.4419 29.0425C9.40774 29.0729 9.37168 29.1033 9.33752 29.1336C9.21985 29.238 9.39825 29.1071 9.31664 29.1526C9.29197 29.1659 9.25212 29.1887 9.22934 29.2077C9.31095 29.1336 9.33942 29.1792 9.25591 29.1944C9.41723 29.164 9.56336 29.1906 9.68482 29.3101C9.73416 29.3576 9.75314 29.4107 9.7854 29.4677C9.84803 29.5777 9.79869 29.4999 9.7854 29.4563C9.73796 29.2779 9.7892 29.6385 9.78161 29.405C9.76832 28.9344 9.7854 28.458 9.7835 27.9874C9.7835 27.7691 9.76453 27.5509 9.76073 27.3307C9.76073 27.2339 9.76073 27.1371 9.77022 27.0385C9.75693 27.2131 9.76263 27.1011 9.77591 27.0574C9.82526 26.8866 9.7 27.177 9.79679 27.0119C10.0207 26.6247 9.89927 26.0592 9.49124 25.8428C9.08321 25.6265 8.56131 25.7366 8.32219 26.1484L8.32029 26.1427Z" fill="#D9D9D9"/>
<path d="M43.6727 27.2657C43.7828 27.687 43.8549 28.1007 44.0409 28.4974C44.1111 28.6492 44.2022 28.7897 44.2876 28.9339C44.3331 29.0117 44.3787 29.0895 44.4167 29.1711C44.3635 29.0553 44.4148 29.1844 44.428 29.2356C44.5609 29.7442 44.6197 30.268 44.9537 30.6988C45.4718 31.3688 46.3657 31.3783 46.9597 30.7994C47.3583 30.4104 47.605 29.8771 47.8403 29.3818C48.0016 29.0402 48.1496 28.6986 48.2768 28.3418C48.2768 28.338 48.328 28.2127 48.2958 28.2886C48.2578 28.374 48.3356 28.2108 48.3451 28.1899C48.4002 28.0685 48.4514 27.9432 48.4988 27.8161C48.5102 27.7857 48.5216 27.7553 48.533 27.7231C48.5406 27.7041 48.5937 27.5656 48.5501 27.6699C48.5064 27.7743 48.5615 27.6529 48.5748 27.6263C48.607 27.5618 48.6924 27.501 48.5596 27.6396L47.9561 27.8901C47.9694 27.8901 47.7492 27.8502 47.8346 27.8749C47.92 27.8996 47.7207 27.8199 47.7321 27.8256C47.8574 27.8882 47.7549 27.8654 47.7131 27.7914C47.7321 27.8275 47.7929 27.8635 47.8232 27.8939C47.8403 27.9129 47.8574 27.9356 47.8764 27.9527C47.9504 28.0191 47.7891 27.8199 47.8441 27.9091C47.9694 28.1159 48.0946 28.3133 48.2009 28.5315C48.2863 28.708 48.3622 28.8902 48.4495 29.0667C48.6089 29.3837 48.8253 29.6645 48.9999 29.972C49.0169 30.0023 49.0321 30.0403 49.053 30.0688C49.0985 30.1295 49.0131 29.9891 49.0169 29.9796C49.0075 30.0024 49.0701 30.1143 49.0796 30.1409C49.1593 30.3383 49.2333 30.5167 49.3623 30.6856C49.6831 31.0993 50.2524 31.3024 50.7515 31.0917C51.1691 30.9152 51.3683 30.5736 51.5145 30.1599C51.5277 30.1238 51.5847 29.9587 51.541 30.0707C51.5714 29.9929 51.6112 29.9169 51.6473 29.841C51.7403 29.6323 51.8371 29.4216 51.8921 29.1996C51.9396 29.0041 51.9604 28.801 52.0193 28.6075C52.0307 28.5714 52.044 28.5372 52.0534 28.5012C52.0307 28.5714 52.0079 28.5961 52.0534 28.5145C52.0933 28.4405 52.1312 28.3664 52.173 28.2943C52.3875 27.9034 52.5696 27.4953 52.5583 27.0399C52.5469 26.5844 52.1749 26.165 51.7042 26.1859C51.2336 26.2067 50.8369 26.5616 50.8502 27.0399C50.8559 27.2524 50.9204 26.888 50.8559 27.0873C50.8445 27.1196 50.7648 27.3302 50.8483 27.1461C50.7895 27.2771 50.7155 27.4005 50.6472 27.5257C50.4726 27.8502 50.3606 28.1729 50.2904 28.5315C50.2581 28.7005 50.2221 28.8675 50.1556 29.0269C50.2183 28.8732 50.1063 29.1256 50.1044 29.1294C50.0513 29.247 49.9981 29.3666 49.9507 29.488C49.9222 29.5583 49.8937 29.6304 49.8729 29.7044C49.8216 29.8847 49.9772 29.5753 49.871 29.7139C49.9943 29.5545 50.0569 29.5507 50.2638 29.5203C50.3777 29.4615 50.4821 29.4653 50.5769 29.5317C50.6472 29.5696 50.7041 29.6228 50.7458 29.6892C50.7667 29.6778 50.5731 29.4463 50.7307 29.6835C50.7022 29.6399 50.687 29.5715 50.668 29.5222C50.5997 29.3495 50.5295 29.1901 50.4346 29.0326C50.2657 28.7498 50.0664 28.4822 49.9203 28.1861C49.7324 27.8085 49.5825 27.4137 49.3396 27.0683C48.9277 26.4838 48.0491 25.7702 47.3583 26.4307C47.1021 26.6755 46.9692 27.0304 46.8591 27.3587C46.8079 27.5124 46.8724 27.3454 46.8781 27.3245C46.8629 27.391 46.8117 27.4631 46.7832 27.5257C46.6845 27.744 46.6048 27.9698 46.527 28.1956C46.4416 28.4386 46.601 28.0647 46.4815 28.2943C46.4663 28.3247 46.4511 28.3532 46.4359 28.3835C46.3961 28.4632 46.36 28.5448 46.3221 28.6245C46.2253 28.8295 46.1247 29.0326 46.0127 29.228C45.9539 29.3286 45.8912 29.4235 45.8267 29.5203C45.7223 29.6797 45.9577 29.3875 45.8267 29.5146C45.8058 29.5355 45.7793 29.5621 45.7584 29.5867C45.654 29.7139 45.9273 29.4937 45.7926 29.5659C45.6578 29.638 46.0013 29.5089 45.8552 29.5431L46.0032 29.5222C45.9121 29.5203 45.9463 29.526 46.1095 29.5393C46.2518 29.6076 46.2841 29.6209 46.2082 29.5791C46.3258 29.6778 46.3524 29.6968 46.2898 29.638C46.1835 29.5355 46.3695 29.8183 46.3202 29.674C46.305 29.6475 46.2898 29.6209 46.2765 29.5924C46.2385 29.5127 46.248 29.5355 46.305 29.6626C46.305 29.5791 46.2367 29.4539 46.2139 29.3723C46.1607 29.1692 46.1323 28.9623 46.0772 28.7593C45.9785 28.393 45.7698 28.097 45.5933 27.7686C45.5838 27.7515 45.4946 27.5257 45.5496 27.6832C45.5136 27.5788 45.4851 27.4745 45.4586 27.3663C45.413 27.1803 45.3769 26.9905 45.3276 26.8045C45.2137 26.3718 44.7127 26.0682 44.2762 26.2086C43.8397 26.3491 43.5588 26.7951 43.6803 27.26L43.6727 27.2657Z" fill="#D9D9D9"/>
<path d="M39.6531 24.692C40.304 24.692 40.8317 24.1644 40.8317 23.5135C40.8317 22.8626 40.304 22.335 39.6531 22.335C39.0023 22.335 38.4746 22.8626 38.4746 23.5135C38.4746 24.1644 39.0023 24.692 39.6531 24.692Z" fill="white"/>
<path d="M38.5144 21.9764C38.9232 21.9764 39.2546 21.645 39.2546 21.2362C39.2546 20.8275 38.9232 20.4961 38.5144 20.4961C38.1057 20.4961 37.7743 20.8275 37.7743 21.2362C37.7743 21.645 38.1057 21.9764 38.5144 21.9764Z" fill="white"/>
<path d="M37.9242 25.8106C38.2387 25.8106 38.4936 25.5557 38.4936 25.2412C38.4936 24.9268 38.2387 24.6719 37.9242 24.6719C37.6098 24.6719 37.3549 24.9268 37.3549 25.2412C37.3549 25.5557 37.6098 25.8106 37.9242 25.8106Z" fill="white"/>
<path d="M24.8502 24.692C25.5011 24.692 26.0288 24.1644 26.0288 23.5135C26.0288 22.8626 25.5011 22.335 24.8502 22.335C24.1993 22.335 23.6717 22.8626 23.6717 23.5135C23.6717 24.1644 24.1993 24.692 24.8502 24.692Z" fill="white"/>
<path d="M23.7115 21.9764C24.1203 21.9764 24.4517 21.645 24.4517 21.2362C24.4517 20.8275 24.1203 20.4961 23.7115 20.4961C23.3028 20.4961 22.9714 20.8275 22.9714 21.2362C22.9714 21.645 23.3028 21.9764 23.7115 21.9764Z" fill="white"/>
<path d="M23.1213 25.8106C23.4358 25.8106 23.6907 25.5557 23.6907 25.2412C23.6907 24.9268 23.4358 24.6719 23.1213 24.6719C22.8069 24.6719 22.552 24.9268 22.552 25.2412C22.552 25.5557 22.8069 25.8106 23.1213 25.8106Z" fill="white"/>
<path d="M27.065 37.1968C26.6873 37.3809 31.0693 47.0654 35.2445 36.8059C35.2445 36.8059 30.5949 35.2041 30.7847 32.9268C30.7847 32.9268 31.1263 35.2041 27.065 37.1968Z" fill="#757575"/>
<path d="M34.1248 30.7386C34.1248 28.7004 26.7461 28.7004 26.7461 30.7386C26.7461 32.7769 28.3972 34.428 30.4355 34.428C32.4737 34.428 34.1248 32.7769 34.1248 30.7386Z" fill="#757575"/>
<path d="M18.1585 33.8281C18.1585 33.8281 24.4801 41.5105 29.8661 34.4278" stroke="#757575" stroke-width="1.13869" stroke-miterlimit="10" stroke-linecap="round"/>
<path d="M31.1054 33.8281C31.1054 33.8281 37.427 41.5105 42.813 34.4278" stroke="#757575" stroke-width="1.13869" stroke-miterlimit="10" stroke-linecap="round"/>
<path d="M32.673 31.6843C32.999 31.6843 33.2632 31.4201 33.2632 31.0941C33.2632 30.7682 32.999 30.5039 32.673 30.5039C32.347 30.5039 32.0828 30.7682 32.0828 31.0941C32.0828 31.4201 32.347 31.6843 32.673 31.6843Z" fill="white"/>
<path d="M31.521 30.9189C31.7254 30.9189 31.8911 30.7532 31.8911 30.5488C31.8911 30.3444 31.7254 30.1787 31.521 30.1787C31.3166 30.1787 31.1509 30.3444 31.1509 30.5488C31.1509 30.7532 31.3166 30.9189 31.521 30.9189Z" fill="white"/>
<path d="M32.5269 32.5908C32.6841 32.5908 32.8115 32.4634 32.8115 32.3062C32.8115 32.1489 32.6841 32.0215 32.5269 32.0215C32.3696 32.0215 32.2422 32.1489 32.2422 32.3062C32.2422 32.4634 32.3696 32.5908 32.5269 32.5908Z" fill="white"/>
</g>
<path d="M11.6621 81.6445H0.451172V80.5645H5.38672V78.0488H1.73633V71.7461H3.03516V73.8516H9.05078V71.7461H10.3359V78.0488H6.67188V80.5645H11.6621V81.6445ZM9.05078 76.9961V74.9043H3.03516V76.9961H9.05078ZM22.3789 73.291C22.3743 73.9974 22.3629 74.6012 22.3447 75.1025C22.331 75.5993 22.29 76.1803 22.2217 76.8457C22.1579 77.5111 22.0553 78.2311 21.914 79.0059L20.6015 78.8691C20.7474 78.1354 20.8545 77.445 20.9228 76.7979C20.9912 76.1462 21.0322 75.5719 21.0459 75.0752C21.0641 74.5785 21.0755 73.9837 21.0801 73.291V73.1406H13.6426V72.0879H22.3789V73.291ZM12.4668 80.4277H16.7187V76.1074H18.0039V80.4277H23.6367V81.5078H12.4668V80.4277ZM34.6406 77.7207H33.3418V70.9258H34.6406V77.7207ZM24.5234 76.4629C25.1478 76.2578 25.6924 75.957 26.1572 75.5605C26.6266 75.1595 26.9866 74.6992 27.2373 74.1797C27.4879 73.6602 27.6133 73.1178 27.6133 72.5527V71.3633H28.9394V72.5527C28.9394 73.0905 29.0625 73.6077 29.3086 74.1045C29.5547 74.5967 29.9078 75.0296 30.3681 75.4033C30.833 75.777 31.373 76.0573 31.9883 76.2441L31.3593 77.2695C30.6484 77.0371 30.0286 76.6908 29.5 76.2305C28.9713 75.7702 28.5657 75.2279 28.2832 74.6035C28.0052 75.278 27.5973 75.8659 27.0595 76.3672C26.5218 76.8685 25.8906 77.2422 25.166 77.4883L24.5234 76.4629ZM26.3144 81.959H28.0644V79.4297H26.4238V78.3906H34.7226V79.4297H33.1093V81.959H34.8457V83.0117H26.3144V81.959ZM31.8242 81.959V79.4297H29.3496V81.959H31.8242ZM39.8203 71.8281C40.3717 71.8281 40.8684 71.9785 41.3105 72.2793C41.7526 72.5801 42.1103 73.0062 42.3837 73.5576C42.6617 74.109 42.8326 74.7585 42.8964 75.5059H45.4257V70.9121H46.7109V83.1895H45.4257V76.5586H42.9101C42.8645 77.347 42.705 78.0329 42.4316 78.6162C42.1582 79.1995 41.7959 79.6484 41.3447 79.9629C40.8935 80.2728 40.3854 80.4277 39.8203 80.4277C39.2141 80.4277 38.6741 80.2523 38.2001 79.9014C37.7307 79.5505 37.3639 79.0492 37.0996 78.3975C36.8398 77.7458 36.7122 76.987 36.7168 76.1211C36.7122 75.2643 36.8398 74.5124 37.0996 73.8652C37.3639 73.2135 37.7307 72.7122 38.2001 72.3613C38.6741 72.0059 39.2141 71.8281 39.8203 71.8281ZM37.9472 76.1211C37.9472 76.7591 38.0247 77.3151 38.1796 77.7891C38.3391 78.263 38.5602 78.6276 38.8427 78.8828C39.1253 79.138 39.4511 79.2656 39.8203 79.2656C40.1894 79.2656 40.5153 79.138 40.7978 78.8828C41.0804 78.6276 41.2991 78.263 41.4541 77.7891C41.6136 77.3151 41.6933 76.7591 41.6933 76.1211C41.6933 75.4922 41.6136 74.943 41.4541 74.4736C41.2946 73.9997 41.0735 73.6351 40.791 73.3799C40.513 73.1201 40.1894 72.9902 39.8203 72.9902C39.4511 72.9902 39.1253 73.1201 38.8427 73.3799C38.5647 73.6351 38.346 73.9997 38.1865 74.4736C38.027 74.943 37.9472 75.4922 37.9472 76.1211ZM59.7245 81.6309H48.5136V80.5508H51.1933V77.3516C50.6783 77.069 50.2796 76.7113 49.997 76.2783C49.7145 75.8454 49.5755 75.36 49.58 74.8223C49.58 74.1888 49.7714 73.6305 50.1542 73.1475C50.537 72.6644 51.0703 72.2907 51.7538 72.0264C52.442 71.7575 53.2213 71.623 54.0917 71.623C54.9622 71.623 55.7415 71.7575 56.4296 72.0264C57.1178 72.2907 57.6533 72.6644 58.0361 73.1475C58.4234 73.6305 58.6171 74.1888 58.6171 74.8223C58.6171 75.3555 58.4804 75.8363 58.207 76.2646C57.9335 76.6885 57.5462 77.0417 57.0449 77.3242V80.5508H59.7245V81.6309ZM50.8378 74.8223C50.8378 75.2552 50.9745 75.6357 51.248 75.9639C51.5214 76.292 51.9042 76.5472 52.3964 76.7295C52.8886 76.9072 53.4537 76.9961 54.0917 76.9961C54.7252 76.9961 55.288 76.9049 55.7802 76.7227C56.277 76.5404 56.6643 76.2874 56.9423 75.9639C57.2203 75.6357 57.3593 75.2552 57.3593 74.8223C57.3593 74.3893 57.2203 74.0111 56.9423 73.6875C56.6643 73.3594 56.277 73.1064 55.7802 72.9287C55.288 72.751 54.7252 72.6621 54.0917 72.6621C53.4537 72.6621 52.8886 72.751 52.3964 72.9287C51.9042 73.1064 51.5214 73.3594 51.248 73.6875C50.9745 74.0111 50.8378 74.3893 50.8378 74.8223ZM55.7324 80.5508V77.8301C55.2219 77.9486 54.6751 78.0078 54.0917 78.0078C53.5175 78.0078 52.9798 77.9486 52.4785 77.8301V80.5508H55.7324Z" fill="#898989"/>
<defs>
<clipPath id="clip0_4252_15398">
<rect width="52" height="52" fill="white" transform="translate(4.5)"/>
</clipPath>
</defs>
</svg>
