<svg width="61" height="88" viewBox="0 0 61 88" fill="none" xmlns="http://www.w3.org/2000/svg">
<g clip-path="url(#clip0_2594_11403)">
<path d="M30.5 51C44.3071 51 55.5 39.8071 55.5 26C55.5 12.1929 44.3071 1 30.5 1C16.6929 1 5.5 12.1929 5.5 26C5.5 39.8071 16.6929 51 30.5 51Z" fill="white" stroke="#FF955A" stroke-width="1.2" stroke-miterlimit="10" stroke-linecap="round"/>
<path d="M34.2958 16.7464C34.8709 18.1393 41.6916 15.3268 41.1165 13.9338C40.5415 12.5408 38.5488 12.0398 36.6662 12.8179C34.7836 13.5941 33.7208 15.3534 34.2958 16.7464Z" fill="#644319"/>
<path d="M27.3248 16.7464C26.7498 18.1393 19.9291 15.3268 20.5041 13.9338C21.0791 12.5408 23.0718 12.0398 24.9545 12.8179C26.8371 13.5941 27.8999 15.3534 27.3248 16.7464Z" fill="#644319"/>
<path d="M37.7761 28.283C39.7885 28.283 41.4199 26.2752 41.4199 23.7985C41.4199 21.3218 39.7885 19.314 37.7761 19.314C35.7637 19.314 34.1323 21.3218 34.1323 23.7985C34.1323 26.2752 35.7637 28.283 37.7761 28.283Z" fill="#644319"/>
<path d="M23.0417 28.283C25.0542 28.283 26.6855 26.2752 26.6855 23.7985C26.6855 21.3218 25.0542 19.314 23.0417 19.314C21.0293 19.314 19.3979 21.3218 19.3979 23.7985C19.3979 26.2752 21.0293 28.283 23.0417 28.283Z" fill="#644319"/>
<path d="M8.32035 26.1422C7.99203 26.7078 8.07174 27.3113 8.07554 27.9337C8.07933 28.5562 8.0167 29.1768 8.11349 29.7784C8.23305 30.5129 8.91627 30.9949 9.64882 30.845C9.97335 30.7786 10.239 30.5888 10.4896 30.38C10.5085 30.3648 10.7514 30.1845 10.7458 30.158L10.6641 30.2187C10.7116 30.1845 10.7609 30.1485 10.8084 30.1143C10.8805 30.0631 10.9526 30.0118 11.0266 29.9606C11.5163 29.6152 11.9907 29.2584 12.4538 28.8788C12.4747 28.8618 12.6682 28.7213 12.5088 28.8333C12.5563 28.7991 12.6037 28.765 12.655 28.7327C12.7062 28.7004 12.7536 28.6758 12.8011 28.6454C12.9681 28.5372 12.6872 28.6739 12.7973 28.6454C12.8808 28.6245 12.5961 28.6321 12.579 28.6264C12.5468 28.6169 12.302 28.4329 12.3987 28.5391C12.3798 28.5183 12.2963 28.3721 12.3589 28.4955C12.3931 28.5619 12.431 28.6264 12.4671 28.6929C12.7043 29.1521 12.9586 29.6304 13.2452 30.0593C13.5317 30.4882 13.7955 31.0423 14.27 31.3194C15.1183 31.811 15.7996 30.8621 16.1526 30.2149C16.2912 29.9606 16.4107 29.6968 16.4923 29.4197C16.5265 29.3021 16.5569 29.1825 16.5948 29.0648C16.61 29.0155 16.6214 28.9548 16.6479 28.9092C16.4866 29.1768 16.8301 28.7213 16.6081 28.9794C16.9004 28.6416 16.9649 28.0988 16.6081 27.7724C16.2874 27.4783 15.7123 27.4118 15.4011 27.7724C15.1923 28.0153 15.0595 28.2734 14.9589 28.579C14.9247 28.6853 14.8963 28.7934 14.8659 28.9016C14.8488 28.9642 14.8298 29.0269 14.8109 29.0895L14.79 29.1483C14.7615 29.2223 14.7615 29.2242 14.79 29.1559C14.8147 29.099 14.8166 29.0914 14.7976 29.1294C14.7862 29.1521 14.7748 29.1749 14.7615 29.1977C14.7387 29.2413 14.716 29.2831 14.6932 29.3267C14.642 29.4216 14.5888 29.5165 14.5319 29.6095C14.5015 29.6569 14.4693 29.7044 14.4389 29.7518C14.3535 29.8828 14.5015 29.7025 14.4313 29.7632C14.3933 29.7955 14.3592 29.8391 14.325 29.8752C14.215 29.9986 14.4617 29.7917 14.3193 29.8714H15.1809C15.0367 29.7993 15.2227 29.915 15.2151 29.9169C15.2037 29.9169 15.1297 29.8334 15.1316 29.8353C15.1145 29.8183 15.0652 29.7386 15.1202 29.824C15.1847 29.9226 15.1107 29.8031 15.0955 29.7784C15.0063 29.6399 14.9266 29.4937 14.8317 29.3571C14.5907 29.0117 14.4085 28.6397 14.1979 28.2753C14.0195 27.9679 13.8639 27.6187 13.6247 27.3549C13.2774 26.9715 12.7423 26.8463 12.2602 27.0323C11.8218 27.2012 11.4688 27.4877 11.112 27.7876C11.0513 27.8388 10.9906 27.8882 10.9317 27.9394C10.8122 28.04 10.9431 27.9337 10.9621 27.9186C10.9166 27.9565 10.8653 27.9907 10.8179 28.0248C10.6262 28.1653 10.4326 28.3019 10.239 28.4386C10.0455 28.5752 9.85758 28.708 9.67349 28.8504C9.59378 28.9111 9.51787 28.9756 9.44196 29.0421C9.4078 29.0724 9.37174 29.1028 9.33758 29.1332C9.21992 29.2375 9.39831 29.1066 9.3167 29.1521C9.29203 29.1654 9.25218 29.1882 9.2294 29.2072C9.31101 29.1332 9.33948 29.1787 9.25597 29.1939C9.41729 29.1635 9.56342 29.1901 9.68488 29.3096C9.73422 29.3571 9.7532 29.4102 9.78546 29.4672C9.84809 29.5772 9.79875 29.4994 9.78546 29.4558C9.73802 29.2774 9.78926 29.638 9.78167 29.4045C9.76838 28.9339 9.78546 28.4575 9.78357 27.9869C9.78357 27.7686 9.76459 27.5504 9.76079 27.3302C9.76079 27.2334 9.76079 27.1367 9.77028 27.038C9.757 27.2126 9.76269 27.1006 9.77597 27.0569C9.82532 26.8861 9.70006 27.1765 9.79685 27.0114C10.0208 26.6242 9.89933 26.0587 9.4913 25.8423C9.08327 25.626 8.56138 25.7361 8.32225 26.1479L8.32035 26.1422Z" fill="#FFA469"/>
<path d="M43.6727 27.2657C43.7828 27.687 43.8549 28.1007 44.0409 28.4974C44.1111 28.6492 44.2022 28.7897 44.2876 28.9339C44.3331 29.0117 44.3787 29.0895 44.4166 29.1711C44.3635 29.0553 44.4147 29.1844 44.428 29.2356C44.5609 29.7442 44.6197 30.268 44.9537 30.6988C45.4718 31.3688 46.3657 31.3783 46.9597 30.7994C47.3582 30.4104 47.6049 29.8771 47.8403 29.3818C48.0016 29.0402 48.1496 28.6986 48.2768 28.3418C48.2768 28.338 48.328 28.2127 48.2957 28.2886C48.2578 28.374 48.3356 28.2108 48.3451 28.1899C48.4001 28.0685 48.4514 27.9432 48.4988 27.8161C48.5102 27.7857 48.5216 27.7553 48.533 27.7231C48.5406 27.7041 48.5937 27.5656 48.5501 27.6699C48.5064 27.7743 48.5614 27.6529 48.5747 27.6263C48.607 27.5618 48.6924 27.501 48.5595 27.6396L47.956 27.8901C47.9693 27.8901 47.7492 27.8502 47.8346 27.8749C47.92 27.8996 47.7207 27.8199 47.7321 27.8256C47.8574 27.8882 47.7549 27.8654 47.7131 27.7914C47.7321 27.8275 47.7928 27.8635 47.8232 27.8939C47.8403 27.9129 47.8573 27.9356 47.8763 27.9527C47.9503 28.0191 47.789 27.8199 47.8441 27.9091C47.9693 28.1159 48.0946 28.3133 48.2009 28.5315C48.2863 28.708 48.3622 28.8902 48.4495 29.0667C48.6089 29.3837 48.8252 29.6645 48.9998 29.972C49.0169 30.0023 49.0321 30.0403 49.053 30.0688C49.0985 30.1295 49.0131 29.9891 49.0169 29.9796C49.0074 30.0024 49.07 30.1143 49.0795 30.1409C49.1592 30.3383 49.2333 30.5167 49.3623 30.6856C49.683 31.0993 50.2524 31.3024 50.7515 31.0917C51.169 30.9152 51.3683 30.5736 51.5144 30.1599C51.5277 30.1238 51.5846 29.9587 51.541 30.0707C51.5714 29.9929 51.6112 29.9169 51.6473 29.841C51.7403 29.6323 51.8371 29.4216 51.8921 29.1996C51.9395 29.0041 51.9604 28.801 52.0192 28.6075C52.0306 28.5714 52.0439 28.5372 52.0534 28.5012C52.0306 28.5714 52.0079 28.5961 52.0534 28.5145C52.0933 28.4405 52.1312 28.3664 52.173 28.2943C52.3874 27.9034 52.5696 27.4953 52.5582 27.0399C52.5468 26.5844 52.1749 26.165 51.7042 26.1859C51.2336 26.2067 50.8369 26.5616 50.8502 27.0399C50.8559 27.2524 50.9204 26.888 50.8559 27.0873C50.8445 27.1196 50.7648 27.3302 50.8483 27.1461C50.7895 27.2771 50.7155 27.4005 50.6471 27.5257C50.4725 27.8502 50.3606 28.1729 50.2903 28.5315C50.2581 28.7005 50.222 28.8675 50.1556 29.0269C50.2182 28.8732 50.1063 29.1256 50.1044 29.1294C50.0512 29.247 49.9981 29.3666 49.9506 29.488C49.9222 29.5583 49.8937 29.6304 49.8728 29.7044C49.8216 29.8847 49.9772 29.5753 49.8709 29.7139C49.9943 29.5545 50.0569 29.5507 50.2638 29.5203C50.3776 29.4615 50.482 29.4653 50.5769 29.5317C50.6471 29.5696 50.7041 29.6228 50.7458 29.6892C50.7667 29.6778 50.5731 29.4463 50.7306 29.6835C50.7022 29.6399 50.687 29.5715 50.668 29.5222C50.5997 29.3495 50.5295 29.1901 50.4346 29.0326C50.2657 28.7498 50.0664 28.4822 49.9203 28.1861C49.7324 27.8085 49.5825 27.4137 49.3395 27.0683C48.9277 26.4838 48.049 25.7702 47.3582 26.4307C47.102 26.6755 46.9692 27.0304 46.8591 27.3587C46.8079 27.5124 46.8724 27.3454 46.8781 27.3245C46.8629 27.391 46.8117 27.4631 46.7832 27.5257C46.6845 27.744 46.6048 27.9698 46.527 28.1956C46.4416 28.4386 46.601 28.0647 46.4814 28.2943C46.4663 28.3247 46.4511 28.3532 46.4359 28.3835C46.396 28.4632 46.36 28.5448 46.322 28.6245C46.2252 28.8295 46.1247 29.0326 46.0127 29.228C45.9538 29.3286 45.8912 29.4235 45.8267 29.5203C45.7223 29.6797 45.9576 29.3875 45.8267 29.5146C45.8058 29.5355 45.7792 29.5621 45.7584 29.5867C45.654 29.7139 45.9273 29.4937 45.7925 29.5659C45.6578 29.638 46.0013 29.5089 45.8552 29.5431L46.0032 29.5222C45.9121 29.5203 45.9463 29.526 46.1095 29.5393C46.2518 29.6076 46.2841 29.6209 46.2082 29.5791C46.3258 29.6778 46.3524 29.6968 46.2898 29.638C46.1835 29.5355 46.3695 29.8183 46.3201 29.674C46.3049 29.6475 46.2898 29.6209 46.2765 29.5924C46.2385 29.5127 46.248 29.5355 46.3049 29.6626C46.3049 29.5791 46.2366 29.4539 46.2138 29.3723C46.1607 29.1692 46.1322 28.9623 46.0772 28.7593C45.9785 28.393 45.7698 28.097 45.5933 27.7686C45.5838 27.7515 45.4946 27.5257 45.5496 27.6832C45.5136 27.5788 45.4851 27.4745 45.4585 27.3663C45.413 27.1803 45.3769 26.9905 45.3276 26.8045C45.2137 26.3718 44.7127 26.0682 44.2762 26.2086C43.8397 26.3491 43.5588 26.7951 43.6803 27.26L43.6727 27.2657Z" fill="#FFA469"/>
<path d="M39.6531 24.6925C40.304 24.6925 40.8317 24.1649 40.8317 23.514C40.8317 22.8631 40.304 22.3354 39.6531 22.3354C39.0023 22.3354 38.4746 22.8631 38.4746 23.514C38.4746 24.1649 39.0023 24.6925 39.6531 24.6925Z" fill="white"/>
<path d="M38.5146 21.9769C38.9233 21.9769 39.2547 21.6455 39.2547 21.2367C39.2547 20.828 38.9233 20.4966 38.5146 20.4966C38.1058 20.4966 37.7744 20.828 37.7744 21.2367C37.7744 21.6455 38.1058 21.9769 38.5146 21.9769Z" fill="white"/>
<path d="M37.9243 25.8101C38.2388 25.8101 38.4937 25.5552 38.4937 25.2407C38.4937 24.9263 38.2388 24.6714 37.9243 24.6714C37.6099 24.6714 37.355 24.9263 37.355 25.2407C37.355 25.5552 37.6099 25.8101 37.9243 25.8101Z" fill="white"/>
<path d="M24.8504 24.6925C25.5013 24.6925 26.029 24.1649 26.029 23.514C26.029 22.8631 25.5013 22.3354 24.8504 22.3354C24.1995 22.3354 23.6719 22.8631 23.6719 23.514C23.6719 24.1649 24.1995 24.6925 24.8504 24.6925Z" fill="white"/>
<path d="M23.7113 21.9769C24.1201 21.9769 24.4515 21.6455 24.4515 21.2367C24.4515 20.828 24.1201 20.4966 23.7113 20.4966C23.3026 20.4966 22.9712 20.828 22.9712 21.2367C22.9712 21.6455 23.3026 21.9769 23.7113 21.9769Z" fill="white"/>
<path d="M23.1211 25.8101C23.4355 25.8101 23.6904 25.5552 23.6904 25.2407C23.6904 24.9263 23.4355 24.6714 23.1211 24.6714C22.8067 24.6714 22.5518 24.9263 22.5518 25.2407C22.5518 25.5552 22.8067 25.8101 23.1211 25.8101Z" fill="white"/>
<path d="M27.0648 37.1973C26.6871 37.3814 31.0692 47.0659 35.2443 36.8064C35.2443 36.8064 30.5947 35.2046 30.7845 32.9272C30.7845 32.9272 31.1261 35.2046 27.0648 37.1973Z" fill="#644319"/>
<path d="M34.1248 30.7386C34.1248 28.7004 26.7461 28.7004 26.7461 30.7386C26.7461 32.7769 28.3972 34.428 30.4354 34.428C32.4737 34.428 34.1248 32.7769 34.1248 30.7386Z" fill="#644319"/>
<path d="M18.1587 33.8286C18.1587 33.8286 24.4803 41.5109 29.8663 34.4283" stroke="#644319" stroke-width="1.13869" stroke-miterlimit="10" stroke-linecap="round"/>
<path d="M31.1055 33.8286C31.1055 33.8286 37.4271 41.5109 42.8131 34.4283" stroke="#644319" stroke-width="1.13869" stroke-miterlimit="10" stroke-linecap="round"/>
<path d="M32.6732 31.6839C32.9992 31.6839 33.2634 31.4196 33.2634 31.0936C33.2634 30.7677 32.9992 30.5034 32.6732 30.5034C32.3473 30.5034 32.083 30.7677 32.083 31.0936C32.083 31.4196 32.3473 31.6839 32.6732 31.6839Z" fill="white"/>
<path d="M31.521 30.9193C31.7253 30.9193 31.891 30.7537 31.891 30.5493C31.891 30.3449 31.7253 30.1792 31.521 30.1792C31.3166 30.1792 31.1509 30.3449 31.1509 30.5493C31.1509 30.7537 31.3166 30.9193 31.521 30.9193Z" fill="white"/>
<path d="M32.5269 32.5913C32.6841 32.5913 32.8115 32.4639 32.8115 32.3066C32.8115 32.1494 32.6841 32.022 32.5269 32.022C32.3696 32.022 32.2422 32.1494 32.2422 32.3066C32.2422 32.4639 32.3696 32.5913 32.5269 32.5913Z" fill="white"/>
</g>
<path d="M11.6621 81.6445H0.451172V80.5645H5.38672V78.0488H1.73633V71.7461H3.03516V73.8516H9.05078V71.7461H10.3359V78.0488H6.67188V80.5645H11.6621V81.6445ZM9.05078 76.9961V74.9043H3.03516V76.9961H9.05078ZM22.3789 73.291C22.3743 73.9974 22.3629 74.6012 22.3447 75.1025C22.331 75.5993 22.29 76.1803 22.2217 76.8457C22.1579 77.5111 22.0553 78.2311 21.914 79.0059L20.6015 78.8691C20.7474 78.1354 20.8545 77.445 20.9228 76.7979C20.9912 76.1462 21.0322 75.5719 21.0459 75.0752C21.0641 74.5785 21.0755 73.9837 21.0801 73.291V73.1406H13.6426V72.0879H22.3789V73.291ZM12.4668 80.4277H16.7187V76.1074H18.0039V80.4277H23.6367V81.5078H12.4668V80.4277ZM34.6406 77.7207H33.3418V70.9258H34.6406V77.7207ZM24.5234 76.4629C25.1478 76.2578 25.6924 75.957 26.1572 75.5605C26.6266 75.1595 26.9866 74.6992 27.2373 74.1797C27.4879 73.6602 27.6133 73.1178 27.6133 72.5527V71.3633H28.9394V72.5527C28.9394 73.0905 29.0625 73.6077 29.3086 74.1045C29.5547 74.5967 29.9078 75.0296 30.3681 75.4033C30.833 75.777 31.373 76.0573 31.9883 76.2441L31.3593 77.2695C30.6484 77.0371 30.0286 76.6908 29.5 76.2305C28.9713 75.7702 28.5657 75.2279 28.2832 74.6035C28.0052 75.278 27.5973 75.8659 27.0595 76.3672C26.5218 76.8685 25.8906 77.2422 25.166 77.4883L24.5234 76.4629ZM26.3144 81.959H28.0644V79.4297H26.4238V78.3906H34.7226V79.4297H33.1093V81.959H34.8457V83.0117H26.3144V81.959ZM31.8242 81.959V79.4297H29.3496V81.959H31.8242ZM39.8203 71.8281C40.3717 71.8281 40.8684 71.9785 41.3105 72.2793C41.7526 72.5801 42.1103 73.0062 42.3837 73.5576C42.6617 74.109 42.8326 74.7585 42.8964 75.5059H45.4257V70.9121H46.7109V83.1895H45.4257V76.5586H42.9101C42.8645 77.347 42.705 78.0329 42.4316 78.6162C42.1582 79.1995 41.7959 79.6484 41.3447 79.9629C40.8935 80.2728 40.3854 80.4277 39.8203 80.4277C39.2141 80.4277 38.6741 80.2523 38.2001 79.9014C37.7307 79.5505 37.3639 79.0492 37.0996 78.3975C36.8398 77.7458 36.7122 76.987 36.7168 76.1211C36.7122 75.2643 36.8398 74.5124 37.0996 73.8652C37.3639 73.2135 37.7307 72.7122 38.2001 72.3613C38.6741 72.0059 39.2141 71.8281 39.8203 71.8281ZM37.9472 76.1211C37.9472 76.7591 38.0247 77.3151 38.1796 77.7891C38.3391 78.263 38.5602 78.6276 38.8427 78.8828C39.1253 79.138 39.4511 79.2656 39.8203 79.2656C40.1894 79.2656 40.5153 79.138 40.7978 78.8828C41.0804 78.6276 41.2991 78.263 41.4541 77.7891C41.6136 77.3151 41.6933 76.7591 41.6933 76.1211C41.6933 75.4922 41.6136 74.943 41.4541 74.4736C41.2946 73.9997 41.0735 73.6351 40.791 73.3799C40.513 73.1201 40.1894 72.9902 39.8203 72.9902C39.4511 72.9902 39.1253 73.1201 38.8427 73.3799C38.5647 73.6351 38.346 73.9997 38.1865 74.4736C38.027 74.943 37.9472 75.4922 37.9472 76.1211ZM59.7245 81.6309H48.5136V80.5508H51.1933V77.3516C50.6783 77.069 50.2796 76.7113 49.997 76.2783C49.7145 75.8454 49.5755 75.36 49.58 74.8223C49.58 74.1888 49.7714 73.6305 50.1542 73.1475C50.537 72.6644 51.0703 72.2907 51.7538 72.0264C52.442 71.7575 53.2213 71.623 54.0917 71.623C54.9622 71.623 55.7415 71.7575 56.4296 72.0264C57.1178 72.2907 57.6533 72.6644 58.0361 73.1475C58.4234 73.6305 58.6171 74.1888 58.6171 74.8223C58.6171 75.3555 58.4804 75.8363 58.207 76.2646C57.9335 76.6885 57.5462 77.0417 57.0449 77.3242V80.5508H59.7245V81.6309ZM50.8378 74.8223C50.8378 75.2552 50.9745 75.6357 51.248 75.9639C51.5214 76.292 51.9042 76.5472 52.3964 76.7295C52.8886 76.9072 53.4537 76.9961 54.0917 76.9961C54.7252 76.9961 55.288 76.9049 55.7802 76.7227C56.277 76.5404 56.6643 76.2874 56.9423 75.9639C57.2203 75.6357 57.3593 75.2552 57.3593 74.8223C57.3593 74.3893 57.2203 74.0111 56.9423 73.6875C56.6643 73.3594 56.277 73.1064 55.7802 72.9287C55.288 72.751 54.7252 72.6621 54.0917 72.6621C53.4537 72.6621 52.8886 72.751 52.3964 72.9287C51.9042 73.1064 51.5214 73.3594 51.248 73.6875C50.9745 74.0111 50.8378 74.3893 50.8378 74.8223ZM55.7324 80.5508V77.8301C55.2219 77.9486 54.6751 78.0078 54.0917 78.0078C53.5175 78.0078 52.9798 77.9486 52.4785 77.8301V80.5508H55.7324Z" fill="#111111"/>
<defs>
<clipPath id="clip0_2594_11403">
<rect width="52" height="52" fill="white" transform="translate(4.5)"/>
</clipPath>
</defs>
</svg>
