<svg width="52" height="88" viewBox="0 0 52 88" fill="none" xmlns="http://www.w3.org/2000/svg">
<g clip-path="url(#clip0_2594_11428)">
<path d="M26 51C39.8071 51 51 39.8071 51 26C51 12.1929 39.8071 1 26 1C12.1929 1 1 12.1929 1 26C1 39.8071 12.1929 51 26 51Z" fill="white" stroke="#FF955A" stroke-width="1.2" stroke-miterlimit="10" stroke-linecap="round"/>
<path d="M29.7958 16.7464C30.3709 18.1393 37.1916 15.3268 36.6165 13.9338C36.0415 12.5408 34.0488 12.0398 32.1662 12.8179C30.2836 13.5941 29.2208 15.3534 29.7958 16.7464Z" fill="#644319"/>
<path d="M22.8248 16.7464C22.2498 18.1393 15.4291 15.3268 16.0041 13.9338C16.5791 12.5408 18.5718 12.0398 20.4545 12.8179C22.3371 13.5941 23.3999 15.3534 22.8248 16.7464Z" fill="#644319"/>
<path d="M22.4036 20.9632C21.5401 19.8624 19.9403 20.0712 18.6308 21.3636C17.3706 20.2325 15.9169 20.0579 15.1312 21.058C14.2013 22.2442 14.56 24.624 15.934 26.3757C16.9683 27.6928 18.2797 28.2773 19.2627 27.9832C20.0712 27.8522 20.9461 27.3037 21.6749 26.3757C23.0489 24.624 23.3753 22.2005 22.4036 20.9632Z" fill="#644319"/>
<path d="M37.5862 20.9632C36.7227 19.8624 35.1229 20.0712 33.8134 21.3636C32.5532 20.2325 31.0995 20.0579 30.3138 21.058C29.3839 22.2442 29.7426 24.624 31.1166 26.3757C32.1509 27.6928 33.4623 28.2773 34.4454 27.9832C35.2538 27.8522 36.1287 27.3037 36.8575 26.3757C38.2315 24.624 38.5579 22.2005 37.5862 20.9632Z" fill="#644319"/>
<path d="M35.7225 24.6925C36.3734 24.6925 36.901 24.1649 36.901 23.514C36.901 22.8631 36.3734 22.3354 35.7225 22.3354C35.0716 22.3354 34.5439 22.8631 34.5439 23.514C34.5439 24.1649 35.0716 24.6925 35.7225 24.6925Z" fill="white"/>
<path d="M20.5399 24.6925C21.1908 24.6925 21.7184 24.1649 21.7184 23.514C21.7184 22.8631 21.1908 22.3354 20.5399 22.3354C19.889 22.3354 19.3613 22.8631 19.3613 23.514C19.3613 24.1649 19.889 24.6925 20.5399 24.6925Z" fill="white"/>
<path d="M22.5648 37.1973C22.1871 37.3814 26.5692 47.0659 30.7443 36.8064C30.7443 36.8064 26.0947 35.2046 26.2845 32.9272C26.2845 32.9272 26.6261 35.2046 22.5648 37.1973Z" fill="#644319"/>
<path d="M29.6248 30.7386C29.6248 28.7004 22.2461 28.7004 22.2461 30.7386C22.2461 32.7769 23.8972 34.428 25.9354 34.428C27.9737 34.428 29.6248 32.7769 29.6248 30.7386Z" fill="#644319"/>
<path d="M13.6587 33.8286C13.6587 33.8286 19.9803 41.5109 25.3663 34.4283" stroke="#644319" stroke-width="1.13869" stroke-miterlimit="10" stroke-linecap="round"/>
<path d="M26.6055 33.8286C26.6055 33.8286 32.9271 41.5109 38.3131 34.4283" stroke="#644319" stroke-width="1.13869" stroke-miterlimit="10" stroke-linecap="round"/>
<path d="M7.87603 31.5984C10.3915 31.5984 12.4308 30.4938 12.4308 29.1312C12.4308 27.7686 10.3915 26.6641 7.87603 26.6641C5.36052 26.6641 3.32129 27.7686 3.32129 29.1312C3.32129 30.4938 5.36052 31.5984 7.87603 31.5984Z" fill="#F19A65"/>
<path d="M44.5987 31.6936C47.1142 31.6936 49.1534 30.589 49.1534 29.2264C49.1534 27.8639 47.1142 26.7593 44.5987 26.7593C42.0832 26.7593 40.0439 27.8639 40.0439 29.2264C40.0439 30.589 42.0832 31.6936 44.5987 31.6936Z" fill="#F19A65"/>
<path d="M24.4456 25.2505L22.394 28.6058" stroke="#F19A65" stroke-width="0.569343" stroke-linecap="round" stroke-linejoin="round"/>
<path d="M27.1028 25.2505L25.0513 28.6058" stroke="#F19A65" stroke-width="0.569343" stroke-linecap="round" stroke-linejoin="round"/>
<path d="M29.7595 25.2505L27.708 28.6058" stroke="#F19A65" stroke-width="0.569343" stroke-linecap="round" stroke-linejoin="round"/>
</g>
<path d="M8.17188 75.9023H13.1484V76.9551H1.9375V75.9023H6.88672V74.5625H8.17188V75.9023ZM2.51172 74.3164C3.23177 74.2663 3.89258 74.1455 4.49414 73.9541C5.10026 73.7627 5.59245 73.5212 5.9707 73.2295C6.35352 72.9333 6.5791 72.612 6.64746 72.2656H2.97656V71.2676H12.123V72.2656H8.41113C8.47949 72.612 8.7028 72.9333 9.08105 73.2295C9.45931 73.5212 9.9515 73.7627 10.5576 73.9541C11.1637 74.1455 11.8314 74.2663 12.5605 74.3164L12.1367 75.2871C11.4121 75.2233 10.7399 75.0957 10.1201 74.9043C9.50488 74.7129 8.97396 74.4645 8.52734 74.1592C8.08073 73.8493 7.7526 73.4938 7.54297 73.0928C7.32878 73.4938 6.99609 73.8493 6.54492 74.1592C6.09831 74.4645 5.5651 74.7129 4.94531 74.9043C4.33008 75.0957 3.66016 75.2233 2.93555 75.2871L2.51172 74.3164ZM2.97656 78.459H6.88672V77.3789H8.17188V78.459H12.082V79.457H2.97656V78.459ZM3.81055 81.5898C3.80599 81.0658 4.12272 80.667 4.76074 80.3936C5.39876 80.1201 6.31706 79.9811 7.51562 79.9766C8.71419 79.9811 9.63704 80.1201 10.2842 80.3936C10.9313 80.667 11.2572 81.0658 11.2617 81.5898C11.2572 82.1185 10.9336 82.5218 10.291 82.7998C9.65299 83.0778 8.74154 83.2168 7.55664 83.2168C6.3444 83.2168 5.41471 83.0778 4.76758 82.7998C4.125 82.5264 3.80599 82.123 3.81055 81.5898ZM5.13672 81.5898C5.13216 81.8359 5.33496 82.0228 5.74512 82.1504C6.15527 82.278 6.74544 82.3372 7.51562 82.3281C8.29492 82.3327 8.88965 82.2712 9.2998 82.1436C9.70996 82.0205 9.91732 81.8359 9.92188 81.5898C9.91732 81.1159 9.11523 80.8743 7.51562 80.8652C5.91602 80.8743 5.12305 81.1159 5.13672 81.5898ZM17.248 71.8281C17.8542 71.8281 18.3942 72.0059 18.8681 72.3613C19.3467 72.7122 19.7204 73.2135 19.9892 73.8652C20.2581 74.5124 20.3926 75.2643 20.3926 76.1211C20.3926 76.987 20.2581 77.7458 19.9892 78.3975C19.7204 79.0492 19.3489 79.5505 18.875 79.9014C18.401 80.2523 17.8587 80.4277 17.248 80.4277C16.6374 80.4277 16.095 80.2523 15.6211 79.9014C15.1471 79.5505 14.778 79.0492 14.5137 78.3975C14.2493 77.7458 14.1172 76.987 14.1172 76.1211C14.1172 75.2643 14.2493 74.5124 14.5137 73.8652C14.778 73.2135 15.1471 72.7122 15.6211 72.3613C16.095 72.0059 16.6374 71.8281 17.248 71.8281ZM15.3613 76.1211C15.3613 76.7591 15.4388 77.3151 15.5937 77.7891C15.7532 78.263 15.9765 78.6276 16.2637 78.8828C16.5508 79.138 16.8789 79.2656 17.248 79.2656C17.6263 79.2656 17.959 79.1403 18.2461 78.8896C18.5332 78.6344 18.7542 78.2699 18.9092 77.7959C19.0687 77.3174 19.1484 76.7591 19.1484 76.1211C19.1484 75.4876 19.0687 74.9362 18.9092 74.4668C18.7542 73.9928 18.5332 73.6283 18.2461 73.373C17.959 73.1178 17.6263 72.9902 17.248 72.9902C16.8789 72.9902 16.5508 73.1201 16.2637 73.3799C15.9765 73.6351 15.7532 73.9997 15.5937 74.4736C15.4388 74.943 15.3613 75.4922 15.3613 76.1211ZM22.2109 70.9121H23.5098V75.7109H25.4785V76.8047H23.5098V83.1621H22.2109V70.9121ZM32.039 73.9883H25.955V72.9355H28.3613V71.2676H29.6465V72.9355H32.039V73.9883ZM26.3515 77.543C26.3515 77.0007 26.4632 76.5153 26.6865 76.0869C26.9144 75.6585 27.2311 75.3258 27.6367 75.0889C28.0423 74.8473 28.498 74.7266 29.0039 74.7266C29.5143 74.7266 29.97 74.8473 30.3711 75.0889C30.7767 75.3258 31.0934 75.6585 31.3213 76.0869C31.5537 76.5153 31.6699 77.0007 31.6699 77.543C31.6699 78.0944 31.5537 78.5866 31.3213 79.0195C31.0934 79.4525 30.7767 79.7897 30.3711 80.0312C29.97 80.2682 29.5143 80.3867 29.0039 80.3867C28.498 80.3867 28.0423 80.2682 27.6367 80.0312C27.2311 79.7897 26.9144 79.4525 26.6865 79.0195C26.4632 78.5866 26.3515 78.0944 26.3515 77.543ZM27.5 77.543C27.5 77.8848 27.5638 78.1878 27.6914 78.4521C27.819 78.7119 27.9967 78.9147 28.2246 79.0605C28.4524 79.2064 28.7122 79.2793 29.0039 79.2793C29.2955 79.2793 29.5553 79.2064 29.7832 79.0605C30.0156 78.9147 30.1956 78.7119 30.3232 78.4521C30.4554 78.1878 30.5215 77.8848 30.5215 77.543C30.5215 77.2103 30.4554 76.9118 30.3232 76.6475C30.1956 76.3831 30.0156 76.1781 29.7832 76.0322C29.5553 75.8818 29.2955 75.8066 29.0039 75.8066C28.7122 75.8066 28.4524 75.8818 28.2246 76.0322C27.9967 76.1781 27.819 76.3831 27.6914 76.6475C27.5638 76.9118 27.5 77.2103 27.5 77.543ZM32.5996 71.1855H33.83V76.0117H35.2383V70.9121H36.4687V83.1621H35.2383V77.0781H33.83V82.5879H32.5996V71.1855ZM49.2089 81.6309H37.998V80.5508H40.6777V77.3516C40.1627 77.069 39.764 76.7113 39.4814 76.2783C39.1988 75.8454 39.0599 75.36 39.0644 74.8223C39.0644 74.1888 39.2558 73.6305 39.6386 73.1475C40.0214 72.6644 40.5546 72.2907 41.2382 72.0264C41.9264 71.7575 42.7057 71.623 43.5761 71.623C44.4466 71.623 45.2259 71.7575 45.914 72.0264C46.6022 72.2907 47.1376 72.6644 47.5205 73.1475C47.9078 73.6305 48.1015 74.1888 48.1015 74.8223C48.1015 75.3555 47.9648 75.8363 47.6914 76.2646C47.4179 76.6885 47.0306 77.0417 46.5293 77.3242V80.5508H49.2089V81.6309ZM40.3222 74.8223C40.3222 75.2552 40.4589 75.6357 40.7324 75.9639C41.0058 76.292 41.3886 76.5472 41.8808 76.7295C42.373 76.9072 42.9381 76.9961 43.5761 76.9961C44.2096 76.9961 44.7724 76.9049 45.2646 76.7227C45.7613 76.5404 46.1487 76.2874 46.4267 75.9639C46.7047 75.6357 46.8437 75.2552 46.8437 74.8223C46.8437 74.3893 46.7047 74.0111 46.4267 73.6875C46.1487 73.3594 45.7613 73.1064 45.2646 72.9287C44.7724 72.751 44.2096 72.6621 43.5761 72.6621C42.9381 72.6621 42.373 72.751 41.8808 72.9287C41.3886 73.1064 41.0058 73.3594 40.7324 73.6875C40.4589 74.0111 40.3222 74.3893 40.3222 74.8223ZM45.2168 80.5508V77.8301C44.7063 77.9486 44.1595 78.0078 43.5761 78.0078C43.0019 78.0078 42.4641 77.9486 41.9628 77.8301V80.5508H45.2168Z" fill="#111111"/>
<defs>
<clipPath id="clip0_2594_11428">
<rect width="52" height="52" fill="white"/>
</clipPath>
</defs>
</svg>
