<svg width="52" height="88" viewBox="0 0 52 88" fill="none" xmlns="http://www.w3.org/2000/svg">
<g opacity="0.45" clip-path="url(#clip0_2599_11491)">
<path d="M26 51C39.8071 51 51 39.8071 51 26C51 12.1929 39.8071 1 26 1C12.1929 1 1 12.1929 1 26C1 39.8071 12.1929 51 26 51Z" fill="#D9D9D9" stroke="#9D9D9D" stroke-width="1.2" stroke-miterlimit="10" stroke-linecap="round"/>
<path d="M28.5044 16.6479C28.5044 18.1474 35.8472 18.1474 35.8472 16.6479C35.8472 15.1484 34.2041 13.9321 32.1758 13.9321C30.1475 13.9321 28.5044 15.1484 28.5044 16.6479Z" fill="#757575"/>
<path d="M22.729 16.6479C22.729 18.1474 15.3862 18.1474 15.3862 16.6479C15.3862 15.1484 17.0293 13.9321 19.0576 13.9321C21.0859 13.9321 22.729 15.1484 22.729 16.6479Z" fill="#757575"/>
<path d="M3.2351 27.337C2.90837 27.8998 2.98769 28.5004 2.99147 29.1198C2.99525 29.7393 2.93293 30.3568 3.02924 30.9555C3.14822 31.6864 3.82811 32.1661 4.5571 32.0169C4.88005 31.9508 5.14445 31.7619 5.39374 31.5542C5.41262 31.5391 5.65436 31.3597 5.6487 31.3332L5.56749 31.3936C5.6147 31.3597 5.6638 31.3238 5.71102 31.2898C5.78278 31.2388 5.85455 31.1878 5.9282 31.1368C6.41546 30.7931 6.8876 30.438 7.34841 30.0603C7.36919 30.0433 7.56182 29.9036 7.40318 30.015C7.4504 29.981 7.49761 29.947 7.5486 29.9149C7.59959 29.8828 7.64681 29.8582 7.69402 29.828C7.86022 29.7204 7.58071 29.8564 7.69024 29.828C7.77334 29.8072 7.49006 29.8148 7.47306 29.8091C7.44095 29.7997 7.19733 29.6165 7.29364 29.7223C7.27476 29.7015 7.19166 29.5561 7.25398 29.6788C7.28798 29.7449 7.32575 29.8091 7.36163 29.8752C7.5977 30.3323 7.85077 30.8082 8.13595 31.235C8.42112 31.6618 8.68363 32.2133 9.15578 32.489C9.99997 32.9782 10.678 32.0339 11.0292 31.3899C11.1671 31.1368 11.2861 30.8743 11.3673 30.5986C11.4013 30.4815 11.4315 30.3625 11.4693 30.2454C11.4844 30.1963 11.4957 30.1359 11.5222 30.0905C11.3616 30.3568 11.7035 29.9036 11.4825 30.1604C11.7733 29.8242 11.8376 29.2841 11.4825 28.9593C11.1633 28.6665 10.5911 28.6004 10.2814 28.9593C10.0736 29.201 9.94142 29.4579 9.84133 29.7619C9.80734 29.8677 9.77901 29.9753 9.74879 30.083C9.73179 30.1453 9.71291 30.2076 9.69402 30.2699L9.67325 30.3285C9.64492 30.4021 9.64492 30.404 9.67325 30.336C9.6978 30.2794 9.69969 30.2718 9.6808 30.3096C9.66947 30.3323 9.65814 30.3549 9.64492 30.3776C9.62225 30.421 9.59959 30.4626 9.57693 30.506C9.52594 30.6004 9.47306 30.6949 9.4164 30.7874C9.38618 30.8346 9.35408 30.8818 9.32386 30.9291C9.23887 31.0594 9.38618 30.88 9.31631 30.9404C9.27853 30.9725 9.24454 31.0159 9.21055 31.0518C9.10101 31.1746 9.34652 30.9687 9.20488 31.048H10.0623C9.91876 30.9763 10.1038 31.0915 10.0963 31.0934C10.085 31.0934 10.0113 31.0103 10.0132 31.0122C9.99619 30.9952 9.94709 30.9158 10.0019 31.0008C10.0661 31.099 9.99242 30.9801 9.97731 30.9555C9.88854 30.8176 9.80922 30.6722 9.7148 30.5362C9.47495 30.1925 9.29364 29.8224 9.08401 29.4598C8.90649 29.1538 8.75162 28.8063 8.51366 28.5438C8.16805 28.1623 7.63548 28.0377 7.15578 28.2227C6.71952 28.3908 6.36824 28.676 6.01319 28.9744C5.95276 29.0254 5.89232 29.0745 5.83378 29.1255C5.7148 29.2256 5.84511 29.1198 5.86399 29.1047C5.81867 29.1425 5.76768 29.1765 5.72046 29.2105C5.52972 29.3502 5.33708 29.4862 5.14445 29.6222C4.95181 29.7581 4.76484 29.8903 4.58165 30.032C4.50233 30.0924 4.42679 30.1566 4.35125 30.2227C4.31725 30.253 4.28137 30.2832 4.24737 30.3134C4.13028 30.4173 4.30781 30.2869 4.2266 30.3323C4.20205 30.3455 4.16239 30.3682 4.13972 30.387C4.22093 30.3134 4.24926 30.3587 4.16616 30.3738C4.32669 30.3436 4.47211 30.37 4.59298 30.489C4.64209 30.5362 4.66097 30.5891 4.69308 30.6458C4.7554 30.7553 4.7063 30.6779 4.69308 30.6344C4.64586 30.4569 4.69685 30.8157 4.6893 30.5835C4.67608 30.1151 4.69308 29.6411 4.69119 29.1727C4.69119 28.9555 4.6723 28.7383 4.66853 28.5192C4.66853 28.4229 4.66853 28.3266 4.67797 28.2284C4.66475 28.4021 4.67041 28.2907 4.68363 28.2473C4.73274 28.0773 4.60809 28.3663 4.70441 28.202C4.92726 27.8167 4.80639 27.2539 4.40035 27.0386C3.9943 26.8233 3.47495 26.9328 3.23699 27.3427L3.2351 27.337Z" fill="#D9D9D9"/>
<path d="M38.4153 28.4552C38.5248 28.8744 38.5966 29.2862 38.7816 29.6809C38.8515 29.832 38.9422 29.9717 39.0271 30.1152C39.0725 30.1927 39.1178 30.2701 39.1556 30.3513C39.1027 30.2361 39.1537 30.3645 39.1669 30.4155C39.2991 30.9217 39.3577 31.4429 39.69 31.8716C40.2056 32.5383 41.0951 32.5477 41.6863 31.9717C42.0829 31.5845 42.3284 31.0539 42.5626 30.5609C42.7231 30.221 42.8704 29.8811 42.9969 29.526C42.9969 29.5222 43.0479 29.3976 43.0158 29.4731C42.978 29.5581 43.0555 29.3957 43.0649 29.3749C43.1197 29.254 43.1707 29.1294 43.2179 29.0029C43.2292 28.9727 43.2406 28.9424 43.2519 28.9103C43.2594 28.8914 43.3123 28.7536 43.2689 28.8574C43.2255 28.9613 43.2802 28.8405 43.2934 28.814C43.3255 28.7498 43.4105 28.6894 43.2783 28.8272L42.6778 29.0765C42.691 29.0765 42.4719 29.0369 42.5569 29.0614C42.6419 29.086 42.4436 29.0066 42.4549 29.0123C42.5796 29.0746 42.4776 29.052 42.436 28.9783C42.4549 29.0142 42.5153 29.0501 42.5456 29.0803C42.5626 29.0992 42.5796 29.1218 42.5984 29.1388C42.6721 29.2049 42.5116 29.0066 42.5663 29.0954C42.691 29.3013 42.8156 29.4977 42.9214 29.7149C43.0064 29.8905 43.0819 30.0718 43.1688 30.2474C43.3274 30.5628 43.5427 30.8423 43.7165 31.1483C43.7335 31.1785 43.7486 31.2163 43.7694 31.2446C43.8147 31.305 43.7297 31.1653 43.7335 31.1558C43.724 31.1785 43.7864 31.2899 43.7958 31.3164C43.8751 31.5128 43.9488 31.6903 44.0772 31.8584C44.3964 32.2701 44.9629 32.4722 45.4596 32.2625C45.8751 32.0869 46.0734 31.747 46.2188 31.3353C46.2321 31.2994 46.2887 31.1351 46.2453 31.2465C46.2755 31.1691 46.3152 31.0935 46.351 31.018C46.4436 30.8102 46.5399 30.6006 46.5947 30.3796C46.6419 30.1851 46.6627 29.983 46.7212 29.7904C46.7325 29.7545 46.7458 29.7205 46.7552 29.6846C46.7325 29.7545 46.7099 29.7791 46.7552 29.6979C46.7949 29.6242 46.8326 29.5506 46.8742 29.4788C47.0876 29.0897 47.2689 28.6837 47.2576 28.2304C47.2462 27.7772 46.8761 27.3598 46.4077 27.3806C45.9393 27.4014 45.5446 27.7545 45.5578 28.2304C45.5635 28.442 45.6277 28.0794 45.5635 28.2777C45.5522 28.3098 45.4729 28.5194 45.556 28.3362C45.4974 28.4665 45.4238 28.5893 45.3558 28.7139C45.182 29.0369 45.0706 29.3579 45.0007 29.7149C44.9686 29.8829 44.9327 30.0491 44.8666 30.2078C44.9289 30.0548 44.8175 30.306 44.8156 30.3098C44.7628 30.4269 44.7099 30.5458 44.6627 30.6667C44.6343 30.7366 44.606 30.8083 44.5852 30.882C44.5342 31.0614 44.6891 30.7536 44.5833 30.8914C44.7061 30.7328 44.7684 30.729 44.9743 30.6988C45.0876 30.6403 45.1915 30.644 45.2859 30.7101C45.3558 30.7479 45.4124 30.8008 45.454 30.8669C45.4747 30.8556 45.2821 30.6252 45.4389 30.8612C45.4105 30.8178 45.3954 30.7498 45.3765 30.7007C45.3085 30.5288 45.2387 30.3702 45.1442 30.2134C44.9762 29.932 44.7779 29.6658 44.6324 29.3711C44.4455 28.9953 44.2963 28.6025 44.0545 28.2588C43.6447 27.6771 42.7703 26.967 42.0829 27.6242C41.8279 27.8678 41.6957 28.221 41.5862 28.5477C41.5352 28.7007 41.5994 28.5345 41.6051 28.5137C41.5899 28.5798 41.539 28.6516 41.5106 28.7139C41.4124 28.9311 41.3331 29.1558 41.2557 29.3806C41.1707 29.6223 41.3293 29.2503 41.2103 29.4788C41.1952 29.509 41.1801 29.5373 41.165 29.5675C41.1254 29.6469 41.0895 29.7281 41.0517 29.8074C40.9554 30.0114 40.8553 30.2134 40.7439 30.408C40.6853 30.5081 40.623 30.6025 40.5588 30.6988C40.4549 30.8574 40.6891 30.5666 40.5588 30.6931C40.538 30.7139 40.5116 30.7404 40.4908 30.7649C40.3869 30.8914 40.6589 30.6724 40.5248 30.7441C40.3907 30.8159 40.7325 30.6875 40.5871 30.7215L40.7344 30.7007C40.6438 30.6988 40.6778 30.7045 40.8402 30.7177C40.9818 30.7857 41.0139 30.7989 40.9384 30.7574C41.0555 30.8556 41.0819 30.8744 41.0196 30.8159C40.9138 30.7139 41.0989 30.9953 41.0498 30.8518C41.0347 30.8253 41.0196 30.7989 41.0064 30.7706C40.9686 30.6913 40.978 30.7139 41.0347 30.8404C41.0347 30.7574 40.9667 30.6327 40.9441 30.5515C40.8912 30.3494 40.8628 30.1436 40.8081 29.9415C40.7099 29.577 40.5021 29.2824 40.3265 28.9557C40.317 28.9387 40.2283 28.7139 40.2831 28.8707C40.2472 28.7668 40.2188 28.6629 40.1924 28.5553C40.1471 28.3702 40.1112 28.1813 40.0621 27.9963C39.9488 27.5657 39.4502 27.2635 39.0158 27.4032C38.5814 27.543 38.3019 27.9868 38.4228 28.4495L38.4153 28.4552Z" fill="#D9D9D9"/>
<path d="M28.9141 31.9114C28.9141 29.8831 21.5713 29.8831 21.5713 31.9114C21.5713 33.9397 23.2143 35.5828 25.2427 35.5828C27.271 35.5828 28.9141 33.9397 28.9141 31.9114Z" fill="#757575"/>
<path d="M19.443 25.4352C20.1042 25.4352 20.6403 24.8992 20.6403 24.2379C20.6403 23.5766 20.1042 23.0405 19.443 23.0405C18.7817 23.0405 18.2456 23.5766 18.2456 24.2379C18.2456 24.8992 18.7817 25.4352 19.443 25.4352Z" fill="#757575"/>
<path d="M31.7188 25.4352C32.3801 25.4352 32.9162 24.8992 32.9162 24.2379C32.9162 23.5766 32.3801 23.0405 31.7188 23.0405C31.0576 23.0405 30.5215 23.5766 30.5215 24.2379C30.5215 24.8992 31.0576 25.4352 31.7188 25.4352Z" fill="#757575"/>
<path d="M25.3069 40.9822C27.9145 40.9822 30.0283 40.1654 30.0283 39.1579C30.0283 38.1503 27.9145 37.3335 25.3069 37.3335C22.6993 37.3335 20.5854 38.1503 20.5854 39.1579C20.5854 40.1654 22.6993 40.9822 25.3069 40.9822Z" fill="#757575"/>
</g>
<path d="M12.8232 74.5625H14.6006V75.6562H12.8232V79.9082H11.5244V70.8984H12.8232V74.5625ZM3.38965 74.7949C3.38509 74.2116 3.52409 73.6898 3.80664 73.2295C4.09375 72.7646 4.48568 72.4023 4.98242 72.1426C5.47917 71.8783 6.03288 71.7461 6.64355 71.7461C7.25423 71.7461 7.80794 71.8783 8.30469 72.1426C8.80143 72.4023 9.19108 72.7646 9.47363 73.2295C9.76074 73.6898 9.90658 74.2116 9.91113 74.7949C9.90658 75.3783 9.76074 75.9023 9.47363 76.3672C9.19108 76.832 8.80143 77.1943 8.30469 77.4541C7.80794 77.7139 7.25423 77.8438 6.64355 77.8438C6.03288 77.8438 5.47917 77.7139 4.98242 77.4541C4.48568 77.1943 4.09375 76.832 3.80664 76.3672C3.52409 75.9023 3.38509 75.3783 3.38965 74.7949ZM4.66113 74.7949C4.65658 75.1686 4.74089 75.5013 4.91406 75.793C5.08724 76.0801 5.32422 76.3057 5.625 76.4697C5.93034 76.6292 6.26986 76.709 6.64355 76.709C7.01725 76.709 7.35449 76.6292 7.65527 76.4697C7.96061 76.3057 8.19987 76.0801 8.37305 75.793C8.55078 75.5013 8.63965 75.1686 8.63965 74.7949C8.63965 74.4212 8.55078 74.0908 8.37305 73.8037C8.19987 73.512 7.96061 73.2865 7.65527 73.127C7.35449 72.9629 7.01725 72.8809 6.64355 72.8809C6.26986 72.8809 5.93034 72.9629 5.625 73.127C5.32422 73.2865 5.08724 73.512 4.91406 73.8037C4.74089 74.0908 4.65658 74.4212 4.66113 74.7949ZM5.05762 78.9648H6.35645V81.8496H13.3428V82.9023H5.05762V78.9648ZM24.8389 73.5645H26.6162V74.6445H24.8389V77.1055H23.54V70.9121H24.8389V73.5645ZM15.2002 76.3535C16.1846 76.1393 17.0299 75.8454 17.7363 75.4717C18.4427 75.098 18.9896 74.6605 19.3769 74.1592C19.7689 73.6579 19.9967 73.1133 20.0605 72.5254H15.7744V71.459H21.5029C21.5029 73.0039 20.9948 74.2822 19.9785 75.2939C18.9668 76.3011 17.5381 77.0143 15.6924 77.4336L15.2002 76.3535ZM16.9228 77.6387H24.8389V80.7832H18.2217V82H25.2627V83.0391H16.9502V79.7852H23.5537V78.6777H16.9228V77.6387ZM32.2334 76.627H28.8701V79.2109C29.5993 79.2064 30.2851 79.1836 30.9277 79.1426C31.5703 79.097 32.2379 79.0195 32.9306 78.9102L33.04 79.9492C32.2653 80.0859 31.5315 80.1771 30.8388 80.2227C30.1507 80.2682 29.3532 80.2956 28.4463 80.3047H27.6123V75.5605H30.9756V73.2637H27.5986V72.1973H32.2334V76.627ZM33.7236 71.1582H34.9131V75.6836H36.499V70.9121H37.7431V83.1621H36.499V76.7363H34.9131V82.5332H33.7236V71.1582ZM50.456 81.6309H39.2451V80.5508H41.9248V77.3516C41.4098 77.069 41.011 76.7113 40.7285 76.2783C40.4459 75.8454 40.3069 75.36 40.3115 74.8223C40.3115 74.1888 40.5029 73.6305 40.8857 73.1475C41.2685 72.6644 41.8017 72.2907 42.4853 72.0264C43.1735 71.7575 43.9528 71.623 44.8232 71.623C45.6936 71.623 46.4729 71.7575 47.1611 72.0264C47.8492 72.2907 48.3847 72.6644 48.7675 73.1475C49.1549 73.6305 49.3486 74.1888 49.3486 74.8223C49.3486 75.3555 49.2119 75.8363 48.9384 76.2646C48.665 76.6885 48.2776 77.0417 47.7763 77.3242V80.5508H50.456V81.6309ZM41.5693 74.8223C41.5693 75.2552 41.706 75.6357 41.9794 75.9639C42.2529 76.292 42.6357 76.5472 43.1279 76.7295C43.6201 76.9072 44.1852 76.9961 44.8232 76.9961C45.4567 76.9961 46.0195 76.9049 46.5117 76.7227C47.0084 76.5404 47.3958 76.2874 47.6738 75.9639C47.9518 75.6357 48.0908 75.2552 48.0908 74.8223C48.0908 74.3893 47.9518 74.0111 47.6738 73.6875C47.3958 73.3594 47.0084 73.1064 46.5117 72.9287C46.0195 72.751 45.4567 72.6621 44.8232 72.6621C44.1852 72.6621 43.6201 72.751 43.1279 72.9287C42.6357 73.1064 42.2529 73.3594 41.9794 73.6875C41.706 74.0111 41.5693 74.3893 41.5693 74.8223ZM46.4638 80.5508V77.8301C45.9534 77.9486 45.4065 78.0078 44.8232 78.0078C44.249 78.0078 43.7112 77.9486 43.2099 77.8301V80.5508H46.4638Z" fill="#898989"/>
<defs>
<clipPath id="clip0_2599_11491">
<rect width="51.7469" height="52" fill="white"/>
</clipPath>
</defs>
</svg>
