<svg width="52" height="76" viewBox="0 0 52 76" fill="none" xmlns="http://www.w3.org/2000/svg">
<g opacity="0.4">
<path d="M26 51C39.8071 51 51 39.8071 51 26C51 12.1929 39.8071 1 26 1C12.1929 1 1 12.1929 1 26C1 39.8071 12.1929 51 26 51Z" fill="#D9D9D9" stroke="#C5C5C5" stroke-width="2" stroke-miterlimit="10" stroke-linecap="round"/>
<path d="M28.7025 14.2536C27.9228 15.6042 34.5362 19.4224 35.3159 18.0719C36.0957 16.7213 35.2483 14.7715 33.4214 13.7167C31.5946 12.662 29.4823 12.903 28.7025 14.2536Z" fill="#757575"/>
<path d="M22.4997 14.2537C23.2795 15.6043 16.6661 19.4226 15.8863 18.072C15.1066 16.7214 15.954 14.7716 17.7808 13.7169C19.6077 12.6621 21.72 12.9032 22.4997 14.2537Z" fill="#757575"/>
<path d="M29.031 32.1485C29.031 30.039 21.3945 30.039 21.3945 32.1485C21.3945 34.258 23.1033 35.9667 25.2128 35.9667C27.3222 35.9667 29.031 34.258 29.031 32.1485Z" fill="#757575"/>
<path d="M19.1798 25.4124C19.8676 25.4124 20.4251 24.8549 20.4251 24.1671C20.4251 23.4794 19.8676 22.9219 19.1798 22.9219C18.4921 22.9219 17.9346 23.4794 17.9346 24.1671C17.9346 24.8549 18.4921 25.4124 19.1798 25.4124Z" fill="#757575"/>
<path d="M31.9474 25.4124C32.6351 25.4124 33.1926 24.8549 33.1926 24.1671C33.1926 23.4794 32.6351 22.9219 31.9474 22.9219C31.2597 22.9219 30.7021 23.4794 30.7021 24.1671C30.7021 24.8549 31.2597 25.4124 31.9474 25.4124Z" fill="#757575"/>
<path d="M25.2794 41.5818C27.9913 41.5818 30.1897 40.7323 30.1897 39.6844C30.1897 38.6366 27.9913 37.7871 25.2794 37.7871C22.5676 37.7871 20.3691 38.6366 20.3691 39.6844C20.3691 40.7323 22.5676 41.5818 25.2794 41.5818Z" fill="#757575"/>
<path d="M38.9122 28.5532C39.0261 28.9892 39.1007 29.4174 39.2932 29.8279C39.3659 29.985 39.4602 30.1303 39.5485 30.2796C39.5957 30.3601 39.6428 30.4407 39.6821 30.5251C39.6271 30.4053 39.6801 30.5389 39.6939 30.5919C39.8314 31.1183 39.8923 31.6604 40.238 32.1062C40.7742 32.7996 41.6993 32.8094 42.314 32.2103C42.7265 31.8077 42.9818 31.2558 43.2254 30.7431C43.3923 30.3896 43.5455 30.0361 43.6771 29.6668C43.6771 29.6629 43.7302 29.5332 43.6968 29.6118C43.6575 29.7002 43.738 29.5313 43.7478 29.5097C43.8048 29.384 43.8578 29.2543 43.9069 29.1227C43.9187 29.0913 43.9305 29.0599 43.9423 29.0265C43.9501 29.0069 44.0051 28.8635 43.96 28.9715C43.9148 29.0795 43.9717 28.9538 43.9855 28.9263C44.0189 28.8596 44.1073 28.7967 43.9698 28.9401L43.3452 29.1993C43.3589 29.1993 43.1311 29.1581 43.2195 29.1836C43.3079 29.2092 43.1016 29.1267 43.1134 29.1326C43.2431 29.1974 43.137 29.1738 43.0938 29.0972C43.1134 29.1345 43.1763 29.1718 43.2077 29.2033C43.2254 29.2229 43.2431 29.2465 43.2627 29.2642C43.3393 29.3329 43.1723 29.1267 43.2293 29.219C43.3589 29.4331 43.4886 29.6373 43.5986 29.8632C43.6869 30.0459 43.7655 30.2344 43.8559 30.4171C44.0208 30.7451 44.2448 31.0358 44.4255 31.354C44.4431 31.3854 44.4588 31.4247 44.4804 31.4542C44.5276 31.517 44.4392 31.3717 44.4431 31.3618C44.4333 31.3854 44.4981 31.5013 44.5079 31.5288C44.5904 31.7331 44.667 31.9177 44.8006 32.0925C45.1325 32.5207 45.7218 32.7308 46.2383 32.5128C46.6704 32.3302 46.8767 31.9766 47.0279 31.5484C47.0417 31.5111 47.1006 31.3402 47.0554 31.4561C47.0868 31.3756 47.1281 31.297 47.1654 31.2185C47.2616 31.0024 47.3618 30.7844 47.4188 30.5546C47.4679 30.3523 47.4895 30.1421 47.5504 29.9418C47.5621 29.9045 47.5759 29.8691 47.5857 29.8318C47.5621 29.9045 47.5386 29.93 47.5857 29.8455C47.627 29.7689 47.6662 29.6923 47.7095 29.6177C47.9314 29.2131 48.12 28.7908 48.1082 28.3194C48.0964 27.848 47.7114 27.414 47.2243 27.4356C46.7372 27.4572 46.3267 27.8245 46.3405 28.3194C46.3464 28.5394 46.4131 28.1623 46.3464 28.3685C46.3346 28.4019 46.2521 28.6199 46.3385 28.4294C46.2776 28.5649 46.201 28.6926 46.1303 28.8222C45.9496 29.1581 45.8337 29.492 45.7611 29.8632C45.7277 30.038 45.6903 30.2109 45.6216 30.3759C45.6864 30.2168 45.5705 30.478 45.5686 30.4819C45.5136 30.6037 45.4586 30.7274 45.4095 30.8531C45.38 30.9258 45.3506 31.0004 45.3289 31.077C45.2759 31.2636 45.437 30.9435 45.327 31.0869C45.4547 30.9219 45.5195 30.918 45.7336 30.8865C45.8514 30.8256 45.9594 30.8296 46.0576 30.8983C46.1303 30.9376 46.1892 30.9926 46.2324 31.0613C46.254 31.0495 46.0537 30.8099 46.2167 31.0554C46.1873 31.0103 46.1716 30.9396 46.1519 30.8885C46.0812 30.7098 46.0085 30.5448 45.9103 30.3817C45.7355 30.0891 45.5293 29.8122 45.378 29.5058C45.1836 29.1149 45.0284 28.7064 44.777 28.3489C44.3508 27.7439 43.4414 27.0054 42.7265 27.6889C42.4613 27.9423 42.3238 28.3096 42.2099 28.6494C42.1569 28.8085 42.2237 28.6356 42.2296 28.614C42.2139 28.6828 42.1608 28.7574 42.1314 28.8222C42.0292 29.0481 41.9467 29.2818 41.8662 29.5156C41.7778 29.767 41.9428 29.38 41.8191 29.6177C41.8034 29.6491 41.7876 29.6786 41.7719 29.71C41.7307 29.7925 41.6934 29.877 41.6541 29.9595C41.5539 30.1716 41.4498 30.3817 41.3339 30.584C41.273 30.6881 41.2082 30.7864 41.1414 30.8865C41.0334 31.0515 41.277 30.749 41.1414 30.8806C41.1198 30.9022 41.0923 30.9297 41.0707 30.9553C40.9627 31.0869 41.2455 30.859 41.1061 30.9337C40.9666 31.0083 41.3221 30.8747 41.1709 30.9101L41.3241 30.8885C41.2298 30.8865 41.2652 30.8924 41.4341 30.9062C41.5814 30.9769 41.6148 30.9906 41.5362 30.9474C41.658 31.0495 41.6855 31.0692 41.6207 31.0083C41.5107 30.9022 41.7032 31.1949 41.6521 31.0456C41.6364 31.0181 41.6207 30.9906 41.6069 30.9612C41.5677 30.8787 41.5775 30.9022 41.6364 31.0338C41.6364 30.9474 41.5657 30.8178 41.5421 30.7333C41.4871 30.5232 41.4577 30.3091 41.4007 30.0989C41.2986 29.7198 41.0825 29.4134 40.8999 29.0736C40.89 29.056 40.7977 28.8222 40.8547 28.9853C40.8174 28.8772 40.7879 28.7692 40.7604 28.6573C40.7133 28.4648 40.676 28.2684 40.6249 28.0759C40.507 27.6281 39.9885 27.3138 39.5368 27.4591C39.085 27.6045 38.7943 28.0661 38.92 28.5473L38.9122 28.5532Z" fill="#D9D9D9"/>
<path d="M2.32509 27.3904C1.9853 27.9757 2.06779 28.6003 2.07172 29.2445C2.07564 29.8887 2.01083 30.531 2.111 31.1536C2.23474 31.9137 2.94182 32.4126 3.69997 32.2574C4.03583 32.1887 4.31081 31.9923 4.57007 31.7762C4.58971 31.7605 4.84112 31.5739 4.83523 31.5464L4.75077 31.6093C4.79987 31.5739 4.85094 31.5366 4.90004 31.5013C4.97468 31.4482 5.04932 31.3952 5.12592 31.3422C5.63266 30.9847 6.12369 30.6154 6.60293 30.2226C6.62454 30.2049 6.82488 30.0596 6.65989 30.1755C6.709 30.1401 6.7581 30.1048 6.81113 30.0714C6.86416 30.038 6.91326 30.0125 6.96237 29.981C7.13521 29.8691 6.84452 30.0105 6.95844 29.981C7.04486 29.9594 6.75024 29.9673 6.73257 29.9614C6.69918 29.9516 6.4458 29.761 6.54597 29.871C6.52633 29.8494 6.43991 29.6982 6.50473 29.8259C6.54008 29.8946 6.57936 29.9614 6.61668 30.0301C6.8622 30.5054 7.12539 31.0004 7.42197 31.4443C7.71855 31.8882 7.99157 32.4617 8.48259 32.7485C9.36055 33.2572 10.0657 32.2751 10.431 31.6054C10.5744 31.3422 10.6981 31.0691 10.7826 30.7824C10.8179 30.6606 10.8494 30.5369 10.8886 30.4151C10.9044 30.364 10.9161 30.3012 10.9436 30.254C10.7767 30.531 11.1322 30.0596 10.9024 30.3267C11.2049 29.9771 11.2716 29.4154 10.9024 29.0775C10.5704 28.7731 9.97532 28.7043 9.65321 29.0775C9.43715 29.3289 9.29967 29.5961 9.19557 29.9123C9.16021 30.0223 9.13075 30.1342 9.09933 30.2462C9.08165 30.311 9.06201 30.3758 9.04237 30.4406L9.02076 30.5015C8.9913 30.5781 8.9913 30.5801 9.02076 30.5094C9.0463 30.4505 9.04826 30.4426 9.02862 30.4819C9.01683 30.5054 9.00505 30.529 8.9913 30.5526C8.96773 30.5978 8.94416 30.641 8.92059 30.6861C8.86756 30.7843 8.81257 30.8826 8.75364 30.9788C8.72222 31.0279 8.68883 31.077 8.6574 31.1261C8.56902 31.2616 8.72222 31.075 8.64954 31.1379C8.61026 31.1713 8.57491 31.2165 8.53955 31.2538C8.42563 31.3814 8.68097 31.1674 8.53366 31.2498H9.42537C9.2761 31.1752 9.46858 31.295 9.46072 31.297C9.44894 31.297 9.37234 31.2106 9.3743 31.2125C9.35663 31.1949 9.30556 31.1124 9.36252 31.2007C9.4293 31.3029 9.3527 31.1791 9.33699 31.1536C9.24467 31.0102 9.16218 30.859 9.06397 30.7176C8.81453 30.3601 8.62597 29.9751 8.40796 29.598C8.22333 29.2798 8.06227 28.9184 7.81479 28.6454C7.45536 28.2487 6.90148 28.119 6.40259 28.3115C5.94888 28.4863 5.58356 28.7829 5.2143 29.0932C5.15145 29.1463 5.0886 29.1973 5.02771 29.2504C4.90397 29.3545 5.0395 29.2445 5.05914 29.2288C5.012 29.2681 4.95897 29.3034 4.90987 29.3388C4.71149 29.4841 4.51115 29.6255 4.31081 29.7669C4.11047 29.9084 3.91602 30.0458 3.7255 30.1932C3.64301 30.256 3.56445 30.3228 3.48588 30.3915C3.45053 30.423 3.41321 30.4544 3.37785 30.4858C3.25608 30.5938 3.44071 30.4583 3.35625 30.5054C3.33072 30.5192 3.28947 30.5428 3.2659 30.5624C3.35036 30.4858 3.37982 30.5329 3.2934 30.5487C3.46035 30.5172 3.61158 30.5447 3.73729 30.6685C3.78835 30.7176 3.808 30.7726 3.84139 30.8315C3.9062 30.9454 3.85513 30.8649 3.84139 30.8197C3.79228 30.6351 3.84531 31.0083 3.83746 30.7667C3.82371 30.2796 3.84139 29.7866 3.83942 29.2995C3.83942 29.0736 3.81978 28.8477 3.81585 28.6199C3.81585 28.5197 3.81585 28.4196 3.82567 28.3174C3.81192 28.4981 3.81782 28.3822 3.83156 28.3371C3.88263 28.1603 3.753 28.4608 3.85317 28.2899C4.08494 27.8892 3.95923 27.3039 3.53695 27.08C3.11466 26.8561 2.57453 26.97 2.32705 27.3962L2.32509 27.3904Z" fill="#D9D9D9"/>
</g>
<path d="M13.6367 61.4844V64.625H15.1602V65.5625H13.6367V69.207H12.5234V61.4844H13.6367ZM14.082 70.8711V71.7734H6.98047V68.3984H8.09375V70.8711H14.082ZM8.33984 62.2109C9.92188 62.2109 11.1289 63.2891 11.1406 64.8242C11.1289 66.3477 9.92188 67.4375 8.33984 67.4375C6.75781 67.4375 5.53906 66.3477 5.55078 64.8242C5.53906 63.2891 6.75781 62.2109 8.33984 62.2109ZM8.33984 63.1836C7.37891 63.1836 6.62891 63.8516 6.64062 64.8242C6.62891 65.7969 7.37891 66.4648 8.33984 66.4648C9.3125 66.4648 10.0508 65.7969 10.0508 64.8242C10.0508 63.8516 9.3125 63.1836 8.33984 63.1836ZM23.9358 61.4961V63.7695H25.4593V64.6953H23.9358V66.8047H22.8225V61.4961H23.9358ZM21.0764 61.9648C21.0764 64.6602 19.2014 66.3828 16.096 67.0859L15.6741 66.1602C18.2522 65.6094 19.6819 64.3848 19.846 62.8789H16.1663V61.9648H21.0764ZM23.9358 67.2617V69.957H18.2639V71H24.2991V71.8906H17.1741V69.1016H22.8343V68.1523H17.1507V67.2617H23.9358ZM30.274 62.5977V66.3945H27.3912V68.6094C28.5337 68.6035 29.6119 68.5508 30.8716 68.3516L30.9654 69.2422C29.5005 69.5 28.3404 69.5352 27.0279 69.5469H26.313V65.4805H29.1958V63.5117H26.3013V62.5977H30.274ZM34.9966 61.4961V71.9961H33.9302V66.4883H32.5708V71.457H31.5513V61.707H32.5708V65.5859H33.9302V61.4961H34.9966ZM45.8934 69.7578V70.6836H36.284V69.7578H38.5809V67.0156C37.7195 66.541 37.1981 65.7852 37.1981 64.8477C37.1981 63.1953 38.8153 62.1055 41.0653 62.1055C43.327 62.1055 44.9442 63.1953 44.9442 64.8477C44.9442 65.7734 44.4403 66.5176 43.5965 66.9922V69.7578H45.8934ZM41.0653 62.9961C39.4129 62.9961 38.2762 63.7109 38.2762 64.8477C38.2762 65.9727 39.4129 66.7109 41.0653 66.7109C42.7059 66.7109 43.866 65.9727 43.866 64.8477C43.866 63.7109 42.7059 62.9961 41.0653 62.9961ZM39.6824 69.7578H42.4715V67.4141C42.0438 67.5254 41.5692 67.5781 41.0653 67.5781C40.5731 67.5781 40.1043 67.5254 39.6824 67.4258V69.7578Z" fill="#C5C5C5"/>
</svg>
