<svg width="52" height="88" viewBox="0 0 52 88" fill="none" xmlns="http://www.w3.org/2000/svg">
<g opacity="0.45" clip-path="url(#clip0_4252_15558)">
<path d="M25.9999 51C39.8071 51 50.9999 39.8071 50.9999 26C50.9999 12.1929 39.8071 1 25.9999 1C12.1928 1 0.999939 12.1929 0.999939 26C0.999939 39.8071 12.1928 51 25.9999 51Z" fill="#EDEDED" stroke="#9D9D9D" stroke-width="1.2" stroke-miterlimit="10" stroke-linecap="round"/>
<path d="M28.6437 16.6474C28.6437 18.1469 36.0224 18.1469 36.0224 16.6474C36.0224 15.1479 34.3713 13.9316 32.333 13.9316C30.2948 13.9316 28.6437 15.1479 28.6437 16.6474Z" fill="#757575"/>
<path d="M22.8402 16.6474C22.8402 18.1469 15.4615 18.1469 15.4615 16.6474C15.4615 15.1479 17.1126 13.9316 19.1508 13.9316C21.1891 13.9316 22.8402 15.1479 22.8402 16.6474Z" fill="#757575"/>
<path d="M3.25096 27.337C2.92264 27.8998 3.00234 28.5004 3.00614 29.1198C3.00993 29.7393 2.94731 30.3568 3.0441 30.9555C3.16366 31.6864 3.84687 32.1661 4.57942 32.0169C4.90395 31.9508 5.16964 31.7619 5.42015 31.5542C5.43913 31.5391 5.68205 31.3597 5.67636 31.3332L5.59475 31.3936C5.6422 31.3597 5.69154 31.3238 5.73899 31.2898C5.8111 31.2388 5.88322 31.1878 5.95723 31.1368C6.44687 30.7931 6.92132 30.438 7.38439 30.0603C7.40526 30.0433 7.59884 29.9036 7.43942 30.015C7.48687 29.981 7.53431 29.947 7.58556 29.9149C7.6368 29.8828 7.68424 29.8582 7.73169 29.828C7.89869 29.7204 7.61782 29.8564 7.72789 29.828C7.81139 29.8072 7.52672 29.8148 7.50964 29.8091C7.47738 29.7997 7.23256 29.6165 7.32935 29.7223C7.31037 29.7015 7.22687 29.5561 7.2895 29.6788C7.32366 29.7449 7.36161 29.8091 7.39767 29.8752C7.6349 30.3323 7.8892 30.8082 8.17577 31.235C8.46234 31.6618 8.72614 32.2133 9.20059 32.489C10.0489 32.9782 10.7302 32.0339 11.0832 31.3899C11.2218 31.1368 11.3413 30.8743 11.4229 30.5986C11.4571 30.4815 11.4875 30.3625 11.5254 30.2454C11.5406 30.1963 11.552 30.1359 11.5785 30.0905C11.4172 30.3568 11.7607 29.9036 11.5387 30.1604C11.831 29.8242 11.8955 29.2841 11.5387 28.9593C11.218 28.6665 10.6429 28.6004 10.3317 28.9593C10.1229 29.201 9.99008 29.4579 9.8895 29.7619C9.85534 29.8677 9.82687 29.9753 9.7965 30.083C9.77942 30.1453 9.76045 30.2076 9.74147 30.2699L9.72059 30.3285C9.69212 30.4021 9.69212 30.404 9.72059 30.336C9.74526 30.2794 9.74716 30.2718 9.72818 30.3096C9.71679 30.3323 9.70541 30.3549 9.69212 30.3776C9.66935 30.421 9.64658 30.4626 9.6238 30.506C9.57256 30.6004 9.51942 30.6949 9.46249 30.7874C9.43212 30.8346 9.39986 30.8818 9.3695 30.9291C9.28409 31.0594 9.43212 30.88 9.36191 30.9404C9.32395 30.9725 9.28979 31.0159 9.25563 31.0518C9.14555 31.1746 9.39227 30.9687 9.24993 31.048H10.1115C9.96731 30.9763 10.1533 31.0915 10.1457 31.0934C10.1343 31.0934 10.0603 31.0103 10.0622 31.0122C10.0451 30.9952 9.99577 30.9158 10.0508 31.0008C10.1153 31.099 10.0413 30.9801 10.0261 30.9555C9.93694 30.8176 9.85723 30.6722 9.76234 30.5362C9.52132 30.1925 9.33913 29.8224 9.12847 29.4598C8.95008 29.1538 8.79446 28.8063 8.55534 28.5438C8.20804 28.1623 7.67285 28.0377 7.19081 28.2227C6.75242 28.3908 6.39942 28.676 6.04264 28.9744C5.98191 29.0254 5.92117 29.0745 5.86234 29.1255C5.74278 29.2256 5.87373 29.1198 5.89271 29.1047C5.84716 29.1425 5.79592 29.1765 5.74847 29.2105C5.5568 29.3502 5.36322 29.4862 5.16964 29.6222C4.97607 29.7581 4.78818 29.8903 4.6041 30.032C4.52439 30.0924 4.44847 30.1566 4.37256 30.2227C4.3384 30.253 4.30234 30.2832 4.26818 30.3134C4.15052 30.4173 4.32891 30.2869 4.24731 30.3323C4.22264 30.3455 4.18278 30.3682 4.16001 30.387C4.24161 30.3134 4.27008 30.3587 4.18658 30.3738C4.34789 30.3436 4.49402 30.37 4.61548 30.489C4.66482 30.5362 4.6838 30.5891 4.71607 30.6458C4.77869 30.7553 4.72935 30.6779 4.71607 30.6344C4.66862 30.4569 4.71986 30.8157 4.71227 30.5835C4.69899 30.1151 4.71607 29.6411 4.71417 29.1727C4.71417 28.9555 4.69519 28.7383 4.69139 28.5192C4.69139 28.4229 4.69139 28.3266 4.70088 28.2284C4.6876 28.4021 4.69329 28.2907 4.70658 28.2473C4.75592 28.0773 4.63066 28.3663 4.72745 28.202C4.95139 27.8167 4.82993 27.2539 4.42191 27.0386C4.01388 26.8233 3.49198 26.9328 3.25285 27.3427L3.25096 27.337Z" fill="#EDEDED"/>
<path d="M38.6033 28.4547C38.7134 28.874 38.7855 29.2857 38.9715 29.6804C39.0417 29.8315 39.1328 29.9712 39.2182 30.1147C39.2638 30.1922 39.3093 30.2696 39.3473 30.3508C39.2941 30.2356 39.3454 30.364 39.3587 30.415C39.4915 30.9212 39.5504 31.4424 39.8844 31.8711C40.4025 32.5378 41.2963 32.5472 41.8903 31.9712C42.2889 31.5841 42.5356 31.0534 42.7709 30.5605C42.9322 30.2205 43.0803 29.8806 43.2074 29.5255C43.2074 29.5217 43.2587 29.3971 43.2264 29.4726C43.1885 29.5576 43.2663 29.3952 43.2758 29.3744C43.3308 29.2536 43.382 29.1289 43.4295 29.0024C43.4409 28.9722 43.4522 28.9419 43.4636 28.9098C43.4712 28.891 43.5244 28.7531 43.4807 28.857C43.4371 28.9608 43.4921 28.84 43.5054 28.8135C43.5376 28.7493 43.6231 28.6889 43.4902 28.8267L42.8867 29.076C42.9 29.076 42.6798 29.0364 42.7652 29.0609C42.8506 29.0855 42.6514 29.0062 42.6628 29.0118C42.788 29.0741 42.6855 29.0515 42.6438 28.9778C42.6628 29.0137 42.7235 29.0496 42.7539 29.0798C42.7709 29.0987 42.788 29.1214 42.807 29.1384C42.881 29.2045 42.7197 29.0062 42.7747 29.0949C42.9 29.3008 43.0252 29.4972 43.1315 29.7144C43.2169 29.89 43.2928 30.0713 43.3801 30.2469C43.5395 30.5623 43.7559 30.8418 43.9305 31.1478C43.9476 31.178 43.9628 31.2158 43.9836 31.2441C44.0292 31.3046 43.9438 31.1648 43.9476 31.1554C43.9381 31.178 44.0007 31.2894 44.0102 31.3159C44.0899 31.5123 44.1639 31.6898 44.293 31.8579C44.6137 32.2696 45.1831 32.4717 45.6822 32.2621C46.0997 32.0864 46.299 31.7465 46.4451 31.3348C46.4584 31.2989 46.5153 31.1346 46.4717 31.246C46.502 31.1686 46.5419 31.093 46.5779 31.0175C46.6709 30.8097 46.7677 30.6001 46.8228 30.3791C46.8702 30.1846 46.8911 29.9825 46.9499 29.7899C46.9613 29.754 46.9746 29.72 46.9841 29.6842C46.9613 29.754 46.9385 29.7786 46.9841 29.6974C47.0239 29.6237 47.0619 29.5501 47.1036 29.4783C47.3181 29.0893 47.5003 28.6832 47.4889 28.23C47.4775 27.7767 47.1055 27.3593 46.6349 27.3801C46.1642 27.4009 45.7676 27.754 45.7809 28.23C45.7866 28.4415 45.8511 28.0789 45.7866 28.2772C45.7752 28.3093 45.6955 28.5189 45.779 28.3357C45.7201 28.466 45.6461 28.5888 45.5778 28.7134C45.4032 29.0364 45.2912 29.3574 45.221 29.7144C45.1887 29.8825 45.1527 30.0486 45.0863 30.2073C45.1489 30.0543 45.0369 30.3055 45.035 30.3093C44.9819 30.4264 44.9287 30.5453 44.8813 30.6662C44.8528 30.7361 44.8244 30.8079 44.8035 30.8815C44.7522 31.0609 44.9079 30.7531 44.8016 30.891C44.9249 30.7323 44.9876 30.7285 45.1944 30.6983C45.3083 30.6398 45.4127 30.6435 45.5076 30.7096C45.5778 30.7474 45.6347 30.8003 45.6765 30.8664C45.6974 30.8551 45.5038 30.6247 45.6613 30.8607C45.6328 30.8173 45.6176 30.7493 45.5987 30.7002C45.5303 30.5283 45.4601 30.3697 45.3652 30.213C45.1963 29.9316 44.9971 29.6653 44.8509 29.3707C44.6631 28.9948 44.5131 28.602 44.2702 28.2583C43.8584 27.6766 42.9797 26.9665 42.2889 27.6237C42.0327 27.8673 41.8998 28.2205 41.7898 28.5472C41.7385 28.7002 41.8031 28.534 41.8087 28.5132C41.7936 28.5793 41.7423 28.6511 41.7139 28.7134C41.6152 28.9306 41.5355 29.1554 41.4576 29.3801C41.3722 29.6218 41.5317 29.2498 41.4121 29.4783C41.3969 29.5085 41.3817 29.5368 41.3666 29.5671C41.3267 29.6464 41.2906 29.7276 41.2527 29.8069C41.1559 30.0109 41.0553 30.213 40.9433 30.4075C40.8845 30.5076 40.8219 30.602 40.7574 30.6983C40.653 30.857 40.8883 30.5661 40.7574 30.6927C40.7365 30.7134 40.7099 30.7399 40.689 30.7644C40.5847 30.891 40.8579 30.6719 40.7232 30.7436C40.5885 30.8154 40.932 30.687 40.7858 30.721L40.9339 30.7002C40.8428 30.6983 40.8769 30.704 41.0401 30.7172C41.1825 30.7852 41.2147 30.7984 41.1388 30.7569C41.2565 30.8551 41.283 30.874 41.2204 30.8154C41.1141 30.7134 41.3001 30.9948 41.2508 30.8513C41.2356 30.8249 41.2204 30.7984 41.2071 30.7701C41.1692 30.6908 41.1787 30.7134 41.2356 30.84C41.2356 30.7569 41.1673 30.6322 41.1445 30.551C41.0914 30.3489 41.0629 30.1431 41.0079 29.941C40.9092 29.5765 40.7004 29.2819 40.5239 28.9552C40.5144 28.9382 40.4252 28.7134 40.4803 28.8702C40.4442 28.7663 40.4158 28.6624 40.3892 28.5548C40.3436 28.3697 40.3076 28.1808 40.2582 27.9958C40.1444 27.5652 39.6433 27.263 39.2068 27.4028C38.7703 27.5425 38.4895 27.9863 38.6109 28.449L38.6033 28.4547Z" fill="#EDEDED"/>
<path d="M29.0554 31.9109C29.0554 29.8826 21.6768 29.8826 21.6768 31.9109C21.6768 33.9392 23.3279 35.5823 25.3661 35.5823C27.4043 35.5823 29.0554 33.9392 29.0554 31.9109Z" fill="#757575"/>
<path d="M19.5379 25.4357C20.2024 25.4357 20.7411 24.8997 20.7411 24.2384C20.7411 23.5771 20.2024 23.041 19.5379 23.041C18.8734 23.041 18.3347 23.5771 18.3347 24.2384C18.3347 24.8997 18.8734 25.4357 19.5379 25.4357Z" fill="#757575"/>
<path d="M31.8737 25.4357C32.5383 25.4357 33.077 24.8997 33.077 24.2384C33.077 23.5771 32.5383 23.041 31.8737 23.041C31.2092 23.041 30.6705 23.5771 30.6705 24.2384C30.6705 24.8997 31.2092 25.4357 31.8737 25.4357Z" fill="#757575"/>
<path d="M25.4307 40.9817C28.051 40.9817 30.1752 40.1649 30.1752 39.1574C30.1752 38.1498 28.051 37.333 25.4307 37.333C22.8104 37.333 20.6862 38.1498 20.6862 39.1574C20.6862 40.1649 22.8104 40.9817 25.4307 40.9817Z" fill="#757575"/>
</g>
<path d="M13.0762 74.5625H14.8535V75.6562H13.0762V79.9082H11.7773V70.8984H13.0762V74.5625ZM3.64258 74.7949C3.63802 74.2116 3.77702 73.6898 4.05957 73.2295C4.34668 72.7646 4.73861 72.4023 5.23535 72.1426C5.7321 71.8783 6.28581 71.7461 6.89648 71.7461C7.50716 71.7461 8.06087 71.8783 8.55762 72.1426C9.05436 72.4023 9.44401 72.7646 9.72656 73.2295C10.0137 73.6898 10.1595 74.2116 10.1641 74.7949C10.1595 75.3783 10.0137 75.9023 9.72656 76.3672C9.44401 76.832 9.05436 77.1943 8.55762 77.4541C8.06087 77.7139 7.50716 77.8438 6.89648 77.8438C6.28581 77.8438 5.7321 77.7139 5.23535 77.4541C4.73861 77.1943 4.34668 76.832 4.05957 76.3672C3.77702 75.9023 3.63802 75.3783 3.64258 74.7949ZM4.91406 74.7949C4.90951 75.1686 4.99382 75.5013 5.16699 75.793C5.34017 76.0801 5.57715 76.3057 5.87793 76.4697C6.18327 76.6292 6.52279 76.709 6.89648 76.709C7.27018 76.709 7.60742 76.6292 7.9082 76.4697C8.21354 76.3057 8.4528 76.0801 8.62598 75.793C8.80371 75.5013 8.89258 75.1686 8.89258 74.7949C8.89258 74.4212 8.80371 74.0908 8.62598 73.8037C8.4528 73.512 8.21354 73.2865 7.9082 73.127C7.60742 72.9629 7.27018 72.8809 6.89648 72.8809C6.52279 72.8809 6.18327 72.9629 5.87793 73.127C5.57715 73.2865 5.34017 73.512 5.16699 73.8037C4.99382 74.0908 4.90951 74.4212 4.91406 74.7949ZM5.31055 78.9648H6.60938V81.8496H13.5957V82.9023H5.31055V78.9648ZM25.0918 73.5645H26.8691V74.6445H25.0918V77.1055H23.793V70.9121H25.0918V73.5645ZM15.4531 76.3535C16.4375 76.1393 17.2829 75.8454 17.9892 75.4717C18.6956 75.098 19.2425 74.6605 19.6299 74.1592C20.0218 73.6579 20.2497 73.1133 20.3135 72.5254H16.0273V71.459H21.7558C21.7558 73.0039 21.2477 74.2822 20.2314 75.2939C19.2197 76.3011 17.791 77.0143 15.9453 77.4336L15.4531 76.3535ZM17.1758 77.6387H25.0918V80.7832H18.4746V82H25.5156V83.0391H17.2031V79.7852H23.8066V78.6777H17.1758V77.6387ZM32.4863 76.627H29.123V79.2109C29.8522 79.2064 30.5381 79.1836 31.1806 79.1426C31.8232 79.097 32.4909 79.0195 33.1836 78.9102L33.2929 79.9492C32.5182 80.0859 31.7845 80.1771 31.0918 80.2227C30.4036 80.2682 29.6061 80.2956 28.6992 80.3047H27.8652V75.5605H31.2285V73.2637H27.8515V72.1973H32.4863V76.627ZM33.9765 71.1582H35.166V75.6836H36.7519V70.9121H37.9961V83.1621H36.7519V76.7363H35.166V82.5332H33.9765V71.1582ZM50.7089 81.6309H39.498V80.5508H42.1777V77.3516C41.6627 77.069 41.264 76.7113 40.9814 76.2783C40.6988 75.8454 40.5599 75.36 40.5644 74.8223C40.5644 74.1888 40.7558 73.6305 41.1386 73.1475C41.5214 72.6644 42.0546 72.2907 42.7382 72.0264C43.4264 71.7575 44.2057 71.623 45.0761 71.623C45.9466 71.623 46.7259 71.7575 47.414 72.0264C48.1022 72.2907 48.6376 72.6644 49.0205 73.1475C49.4078 73.6305 49.6015 74.1888 49.6015 74.8223C49.6015 75.3555 49.4648 75.8363 49.1914 76.2646C48.9179 76.6885 48.5306 77.0417 48.0293 77.3242V80.5508H50.7089V81.6309ZM41.8222 74.8223C41.8222 75.2552 41.9589 75.6357 42.2324 75.9639C42.5058 76.292 42.8886 76.5472 43.3808 76.7295C43.873 76.9072 44.4381 76.9961 45.0761 76.9961C45.7096 76.9961 46.2724 76.9049 46.7646 76.7227C47.2613 76.5404 47.6487 76.2874 47.9267 75.9639C48.2047 75.6357 48.3437 75.2552 48.3437 74.8223C48.3437 74.3893 48.2047 74.0111 47.9267 73.6875C47.6487 73.3594 47.2613 73.1064 46.7646 72.9287C46.2724 72.751 45.7096 72.6621 45.0761 72.6621C44.4381 72.6621 43.873 72.751 43.3808 72.9287C42.8886 73.1064 42.5058 73.3594 42.2324 73.6875C41.9589 74.0111 41.8222 74.3893 41.8222 74.8223ZM46.7168 80.5508V77.8301C46.2063 77.9486 45.6595 78.0078 45.0761 78.0078C44.5019 78.0078 43.9641 77.9486 43.4628 77.8301V80.5508H46.7168Z" fill="#898989"/>
<defs>
<clipPath id="clip0_4252_15558">
<rect width="52" height="52" fill="white"/>
</clipPath>
</defs>
</svg>
