<svg width="61" height="88" viewBox="0 0 61 88" fill="none" xmlns="http://www.w3.org/2000/svg">
<g clip-path="url(#clip0_2594_11449)">
<path d="M30.5 51C44.3071 51 55.5 39.8071 55.5 26C55.5 12.1929 44.3071 1 30.5 1C16.6929 1 5.5 12.1929 5.5 26C5.5 39.8071 16.6929 51 30.5 51Z" fill="white" stroke="#FF955A" stroke-width="1.2" stroke-miterlimit="10" stroke-linecap="round"/>
<path d="M26.2642 17.7732C25.1996 18.8398 19.9806 13.6246 21.0453 12.5581C22.1099 11.4915 24.1425 11.7951 25.5829 13.2356C27.0234 14.676 27.3289 16.7067 26.2623 17.7732H26.2642Z" fill="#644319"/>
<path d="M34.7361 17.7732C35.8008 18.8398 41.0198 13.6246 39.9551 12.5581C38.8904 11.4915 36.8579 11.7951 35.4175 13.2356C33.977 14.676 33.6715 16.7067 34.738 17.7732H34.7361Z" fill="#644319"/>
<path d="M23.0512 29.5678C25.0689 29.5678 26.7045 26.9423 26.7045 23.7036C26.7045 20.4649 25.0689 17.8394 23.0512 17.8394C21.0336 17.8394 19.3979 20.4649 19.3979 23.7036C19.3979 26.9423 21.0336 29.5678 23.0512 29.5678Z" fill="#644319"/>
<path d="M37.854 29.5678C39.8716 29.5678 41.5073 26.9423 41.5073 23.7036C41.5073 20.4649 39.8716 17.8394 37.854 17.8394C35.8363 17.8394 34.2007 20.4649 34.2007 23.7036C34.2007 26.9423 35.8363 29.5678 37.854 29.5678Z" fill="#644319"/>
<path d="M8.32035 26.1422C7.99203 26.7078 8.07174 27.3113 8.07554 27.9337C8.07933 28.5562 8.0167 29.1768 8.11349 29.7784C8.23305 30.5129 8.91627 30.9949 9.64882 30.845C9.97335 30.7786 10.239 30.5888 10.4896 30.38C10.5085 30.3648 10.7514 30.1845 10.7458 30.158L10.6641 30.2187C10.7116 30.1845 10.7609 30.1485 10.8084 30.1143C10.8805 30.0631 10.9526 30.0118 11.0266 29.9606C11.5163 29.6152 11.9907 29.2584 12.4538 28.8788C12.4747 28.8618 12.6682 28.7213 12.5088 28.8333C12.5563 28.7991 12.6037 28.765 12.655 28.7327C12.7062 28.7004 12.7536 28.6758 12.8011 28.6454C12.9681 28.5372 12.6872 28.6739 12.7973 28.6454C12.8808 28.6245 12.5961 28.6321 12.579 28.6264C12.5468 28.6169 12.302 28.4329 12.3987 28.5391C12.3798 28.5183 12.2963 28.3721 12.3589 28.4955C12.3931 28.5619 12.431 28.6264 12.4671 28.6929C12.7043 29.1521 12.9586 29.6304 13.2452 30.0593C13.5317 30.4882 13.7955 31.0423 14.27 31.3194C15.1183 31.811 15.7996 30.8621 16.1526 30.2149C16.2912 29.9606 16.4107 29.6968 16.4923 29.4197C16.5265 29.3021 16.5569 29.1825 16.5948 29.0648C16.61 29.0155 16.6214 28.9548 16.6479 28.9092C16.4866 29.1768 16.8301 28.7213 16.6081 28.9794C16.9004 28.6416 16.9649 28.0988 16.6081 27.7724C16.2874 27.4783 15.7123 27.4118 15.4011 27.7724C15.1923 28.0153 15.0595 28.2734 14.9589 28.579C14.9247 28.6853 14.8963 28.7934 14.8659 28.9016C14.8488 28.9642 14.8298 29.0269 14.8109 29.0895L14.79 29.1483C14.7615 29.2223 14.7615 29.2242 14.79 29.1559C14.8147 29.099 14.8166 29.0914 14.7976 29.1294C14.7862 29.1521 14.7748 29.1749 14.7615 29.1977C14.7387 29.2413 14.716 29.2831 14.6932 29.3267C14.642 29.4216 14.5888 29.5165 14.5319 29.6095C14.5015 29.6569 14.4693 29.7044 14.4389 29.7518C14.3535 29.8828 14.5015 29.7025 14.4313 29.7632C14.3933 29.7955 14.3592 29.8391 14.325 29.8752C14.215 29.9986 14.4617 29.7917 14.3193 29.8714H15.1809C15.0367 29.7993 15.2227 29.915 15.2151 29.9169C15.2037 29.9169 15.1297 29.8334 15.1316 29.8353C15.1145 29.8183 15.0652 29.7386 15.1202 29.824C15.1847 29.9226 15.1107 29.8031 15.0955 29.7784C15.0063 29.6399 14.9266 29.4937 14.8317 29.3571C14.5907 29.0117 14.4085 28.6397 14.1979 28.2753C14.0195 27.9679 13.8639 27.6187 13.6247 27.3549C13.2774 26.9715 12.7423 26.8463 12.2602 27.0323C11.8218 27.2012 11.4688 27.4877 11.112 27.7876C11.0513 27.8388 10.9906 27.8882 10.9317 27.9394C10.8122 28.04 10.9431 27.9337 10.9621 27.9186C10.9166 27.9565 10.8653 27.9907 10.8179 28.0248C10.6262 28.1653 10.4326 28.3019 10.239 28.4386C10.0455 28.5752 9.85758 28.708 9.67349 28.8504C9.59378 28.9111 9.51787 28.9756 9.44196 29.0421C9.4078 29.0724 9.37174 29.1028 9.33758 29.1332C9.21992 29.2375 9.39831 29.1066 9.3167 29.1521C9.29203 29.1654 9.25218 29.1882 9.2294 29.2072C9.31101 29.1332 9.33948 29.1787 9.25597 29.1939C9.41729 29.1635 9.56342 29.1901 9.68488 29.3096C9.73422 29.3571 9.7532 29.4102 9.78546 29.4672C9.84809 29.5772 9.79875 29.4994 9.78546 29.4558C9.73802 29.2774 9.78926 29.638 9.78167 29.4045C9.76838 28.9339 9.78546 28.4575 9.78357 27.9869C9.78357 27.7686 9.76459 27.5504 9.76079 27.3302C9.76079 27.2334 9.76079 27.1367 9.77028 27.038C9.757 27.2126 9.76269 27.1006 9.77597 27.0569C9.82532 26.8861 9.70006 27.1765 9.79685 27.0114C10.0208 26.6242 9.89933 26.0587 9.4913 25.8423C9.08327 25.626 8.56138 25.7361 8.32225 26.1479L8.32035 26.1422Z" fill="#F19A65"/>
<path d="M43.6727 27.2657C43.7828 27.687 43.8549 28.1007 44.0409 28.4974C44.1111 28.6492 44.2022 28.7897 44.2876 28.9339C44.3331 29.0117 44.3787 29.0895 44.4166 29.1711C44.3635 29.0553 44.4147 29.1844 44.428 29.2356C44.5609 29.7442 44.6197 30.268 44.9537 30.6988C45.4718 31.3688 46.3657 31.3783 46.9597 30.7994C47.3582 30.4104 47.6049 29.8771 47.8403 29.3818C48.0016 29.0402 48.1496 28.6986 48.2768 28.3418C48.2768 28.338 48.328 28.2127 48.2957 28.2886C48.2578 28.374 48.3356 28.2108 48.3451 28.1899C48.4001 28.0685 48.4514 27.9432 48.4988 27.8161C48.5102 27.7857 48.5216 27.7553 48.533 27.7231C48.5406 27.7041 48.5937 27.5656 48.5501 27.6699C48.5064 27.7743 48.5614 27.6529 48.5747 27.6263C48.607 27.5618 48.6924 27.501 48.5595 27.6396L47.956 27.8901C47.9693 27.8901 47.7492 27.8502 47.8346 27.8749C47.92 27.8996 47.7207 27.8199 47.7321 27.8256C47.8574 27.8882 47.7549 27.8654 47.7131 27.7914C47.7321 27.8275 47.7928 27.8635 47.8232 27.8939C47.8403 27.9129 47.8573 27.9356 47.8763 27.9527C47.9503 28.0191 47.789 27.8199 47.8441 27.9091C47.9693 28.1159 48.0946 28.3133 48.2009 28.5315C48.2863 28.708 48.3622 28.8902 48.4495 29.0667C48.6089 29.3837 48.8252 29.6645 48.9998 29.972C49.0169 30.0023 49.0321 30.0403 49.053 30.0688C49.0985 30.1295 49.0131 29.9891 49.0169 29.9796C49.0074 30.0024 49.07 30.1143 49.0795 30.1409C49.1592 30.3383 49.2333 30.5167 49.3623 30.6856C49.683 31.0993 50.2524 31.3024 50.7515 31.0917C51.169 30.9152 51.3683 30.5736 51.5144 30.1599C51.5277 30.1238 51.5846 29.9587 51.541 30.0707C51.5714 29.9929 51.6112 29.9169 51.6473 29.841C51.7403 29.6323 51.8371 29.4216 51.8921 29.1996C51.9395 29.0041 51.9604 28.801 52.0192 28.6075C52.0306 28.5714 52.0439 28.5372 52.0534 28.5012C52.0306 28.5714 52.0079 28.5961 52.0534 28.5145C52.0933 28.4405 52.1312 28.3664 52.173 28.2943C52.3874 27.9034 52.5696 27.4953 52.5582 27.0399C52.5468 26.5844 52.1749 26.165 51.7042 26.1859C51.2336 26.2067 50.8369 26.5616 50.8502 27.0399C50.8559 27.2524 50.9204 26.888 50.8559 27.0873C50.8445 27.1196 50.7648 27.3302 50.8483 27.1461C50.7895 27.2771 50.7155 27.4005 50.6471 27.5257C50.4725 27.8502 50.3606 28.1729 50.2903 28.5315C50.2581 28.7005 50.222 28.8675 50.1556 29.0269C50.2182 28.8732 50.1063 29.1256 50.1044 29.1294C50.0512 29.247 49.9981 29.3666 49.9506 29.488C49.9222 29.5583 49.8937 29.6304 49.8728 29.7044C49.8216 29.8847 49.9772 29.5753 49.8709 29.7139C49.9943 29.5545 50.0569 29.5507 50.2638 29.5203C50.3776 29.4615 50.482 29.4653 50.5769 29.5317C50.6471 29.5696 50.7041 29.6228 50.7458 29.6892C50.7667 29.6778 50.5731 29.4463 50.7306 29.6835C50.7022 29.6399 50.687 29.5715 50.668 29.5222C50.5997 29.3495 50.5295 29.1901 50.4346 29.0326C50.2657 28.7498 50.0664 28.4822 49.9203 28.1861C49.7324 27.8085 49.5825 27.4137 49.3395 27.0683C48.9277 26.4838 48.049 25.7702 47.3582 26.4307C47.102 26.6755 46.9692 27.0304 46.8591 27.3587C46.8079 27.5124 46.8724 27.3454 46.8781 27.3245C46.8629 27.391 46.8117 27.4631 46.7832 27.5257C46.6845 27.744 46.6048 27.9698 46.527 28.1956C46.4416 28.4386 46.601 28.0647 46.4814 28.2943C46.4663 28.3247 46.4511 28.3532 46.4359 28.3835C46.396 28.4632 46.36 28.5448 46.322 28.6245C46.2252 28.8295 46.1247 29.0326 46.0127 29.228C45.9538 29.3286 45.8912 29.4235 45.8267 29.5203C45.7223 29.6797 45.9576 29.3875 45.8267 29.5146C45.8058 29.5355 45.7792 29.5621 45.7584 29.5867C45.654 29.7139 45.9273 29.4937 45.7925 29.5659C45.6578 29.638 46.0013 29.5089 45.8552 29.5431L46.0032 29.5222C45.9121 29.5203 45.9463 29.526 46.1095 29.5393C46.2518 29.6076 46.2841 29.6209 46.2082 29.5791C46.3258 29.6778 46.3524 29.6968 46.2898 29.638C46.1835 29.5355 46.3695 29.8183 46.3201 29.674C46.3049 29.6475 46.2898 29.6209 46.2765 29.5924C46.2385 29.5127 46.248 29.5355 46.3049 29.6626C46.3049 29.5791 46.2366 29.4539 46.2138 29.3723C46.1607 29.1692 46.1322 28.9623 46.0772 28.7593C45.9785 28.393 45.7698 28.097 45.5933 27.7686C45.5838 27.7515 45.4946 27.5257 45.5496 27.6832C45.5136 27.5788 45.4851 27.4745 45.4585 27.3663C45.413 27.1803 45.3769 26.9905 45.3276 26.8045C45.2137 26.3718 44.7127 26.0682 44.2762 26.2086C43.8397 26.3491 43.5588 26.7951 43.6803 27.26L43.6727 27.2657Z" fill="#F19A65"/>
<path d="M39.6531 24.6925C40.304 24.6925 40.8317 24.1649 40.8317 23.514C40.8317 22.8631 40.304 22.3354 39.6531 22.3354C39.0023 22.3354 38.4746 22.8631 38.4746 23.514C38.4746 24.1649 39.0023 24.6925 39.6531 24.6925Z" fill="white"/>
<path d="M38.5146 21.9769C38.9233 21.9769 39.2547 21.6455 39.2547 21.2367C39.2547 20.828 38.9233 20.4966 38.5146 20.4966C38.1058 20.4966 37.7744 20.828 37.7744 21.2367C37.7744 21.6455 38.1058 21.9769 38.5146 21.9769Z" fill="white"/>
<path d="M37.9243 25.8101C38.2388 25.8101 38.4937 25.5552 38.4937 25.2407C38.4937 24.9263 38.2388 24.6714 37.9243 24.6714C37.6099 24.6714 37.355 24.9263 37.355 25.2407C37.355 25.5552 37.6099 25.8101 37.9243 25.8101Z" fill="white"/>
<path d="M24.8504 24.6925C25.5013 24.6925 26.029 24.1649 26.029 23.514C26.029 22.8631 25.5013 22.3354 24.8504 22.3354C24.1995 22.3354 23.6719 22.8631 23.6719 23.514C23.6719 24.1649 24.1995 24.6925 24.8504 24.6925Z" fill="white"/>
<path d="M23.7113 21.9769C24.1201 21.9769 24.4515 21.6455 24.4515 21.2367C24.4515 20.828 24.1201 20.4966 23.7113 20.4966C23.3026 20.4966 22.9712 20.828 22.9712 21.2367C22.9712 21.6455 23.3026 21.9769 23.7113 21.9769Z" fill="white"/>
<path d="M23.1211 25.8101C23.4355 25.8101 23.6904 25.5552 23.6904 25.2407C23.6904 24.9263 23.4355 24.6714 23.1211 24.6714C22.8067 24.6714 22.5518 24.9263 22.5518 25.2407C22.5518 25.5552 22.8067 25.8101 23.1211 25.8101Z" fill="white"/>
<path d="M25.945 37.3869C25.4706 37.5179 31.4487 57.5645 35.6239 36.9068C35.6239 36.9068 33.0618 35.9864 30.4998 33.022C30.4998 33.022 31.4487 35.863 25.945 37.3869Z" fill="#644319"/>
<path d="M34.1248 30.7386C34.1248 28.7004 26.7461 28.7004 26.7461 30.7386C26.7461 32.7769 28.3972 34.428 30.4354 34.428C32.4737 34.428 34.1248 32.7769 34.1248 30.7386Z" fill="#644319"/>
<path d="M18.728 33.8286C18.728 33.8286 25.0496 41.5109 30.4356 34.4283" stroke="#644319" stroke-width="1.13869" stroke-miterlimit="10" stroke-linecap="round"/>
<path d="M31.1055 33.8286C31.1055 33.8286 37.4271 41.5109 42.8131 34.4283" stroke="#644319" stroke-width="1.13869" stroke-miterlimit="10" stroke-linecap="round"/>
</g>
<path d="M7.27344 72.5254V72.6826C7.26432 73.2796 7.23926 73.8447 7.19824 74.3779C7.16178 74.9066 7.08203 75.4967 6.95898 76.1484L5.67383 76.0254C5.79232 75.4193 5.87207 74.8724 5.91309 74.3848C5.95866 73.8971 5.986 73.4049 5.99512 72.9082H1.09375V71.8418H7.27344V72.5254ZM0.355469 77.2012C1.22591 77.2012 2.0599 77.1921 2.85742 77.1738V74.5898H4.14258V77.1328C5.66471 77.069 6.96354 76.9596 8.03906 76.8047L8.12109 77.748C6.98633 77.9486 5.78776 78.083 4.52539 78.1514C3.26302 78.2152 1.91406 78.2493 0.478516 78.2539L0.355469 77.2012ZM2.21484 79.2793H3.51367V81.8496H10.541V82.9023H2.21484V79.2793ZM8.81836 70.9121H10.1445V74.8086H11.8262V75.9023H10.1445V80.1133H8.81836V70.9121ZM22.625 77.8574H21.3262V70.9258H22.625V77.8574ZM12.5215 76.5586C13.1458 76.349 13.6904 76.0413 14.1553 75.6357C14.6201 75.2256 14.9756 74.7562 15.2217 74.2275C15.4678 73.6989 15.5931 73.1497 15.5976 72.5801V71.3906H16.9238V72.5801C16.9238 73.127 17.0469 73.651 17.293 74.1523C17.539 74.6491 17.89 75.0889 18.3457 75.4717C18.806 75.8545 19.3437 76.1484 19.959 76.3535L19.3164 77.3516C18.61 77.1191 17.9948 76.7705 17.4707 76.3057C16.9466 75.8408 16.5456 75.2917 16.2676 74.6582C15.9896 75.3418 15.584 75.9365 15.0508 76.4424C14.5176 76.9482 13.8887 77.3288 13.164 77.584L12.5215 76.5586ZM14.5723 78.5137H22.625V83.0117H14.5723V78.5137ZM21.3535 81.959V79.5527H15.8574V81.959H21.3535ZM28.7343 79.0059C28.7343 79.5573 28.8733 80.0882 29.1513 80.5986C29.4293 81.1045 29.8349 81.5169 30.3681 81.8359C30.7282 81.6035 31.0335 81.3278 31.2841 81.0088C31.5394 80.6898 31.7285 80.3571 31.8515 80.0107C31.9791 79.6644 32.0429 79.3294 32.0429 79.0059V78.418H33.3144V79.0059C33.3099 79.4342 33.401 79.849 33.5879 80.25C33.7747 80.6465 34.0504 80.9997 34.415 81.3096C34.7841 81.6195 35.2285 81.8587 35.748 82.0273L35.1054 82.9844C34.513 82.7793 34.0094 82.4831 33.5947 82.0957C33.18 81.7129 32.8633 81.264 32.6445 80.749C32.4394 81.2686 32.1478 81.7334 31.7695 82.1436C31.3958 82.5537 30.9401 82.8704 30.4023 83.0938C29.8372 82.8796 29.361 82.5719 28.9736 82.1709C28.5908 81.7699 28.3014 81.3073 28.1054 80.7832C27.8776 81.2799 27.5586 81.7197 27.1484 82.1025C26.7428 82.4854 26.2597 82.7793 25.6992 82.9844L25.0429 82.0273C25.5488 81.8451 25.984 81.5944 26.3486 81.2754C26.7177 80.9518 26.9957 80.5941 27.1826 80.2021C27.374 79.8057 27.472 79.4069 27.4765 79.0059V78.418H28.7343V79.0059ZM24.7285 74.4941C24.7285 73.9336 24.8698 73.4346 25.1523 72.9971C25.4349 72.555 25.8245 72.2109 26.3213 71.9648C26.818 71.7188 27.3763 71.5957 27.9961 71.5957C28.6159 71.5957 29.1718 71.7188 29.664 71.9648C30.1608 72.2109 30.5481 72.555 30.8261 72.9971C31.1087 73.4346 31.25 73.9336 31.25 74.4941C31.25 75.0501 31.1087 75.5469 30.8261 75.9844C30.5481 76.4173 30.1608 76.7568 29.664 77.0029C29.1718 77.2445 28.6159 77.3652 27.9961 77.3652C27.3763 77.3652 26.818 77.2445 26.3213 77.0029C25.8245 76.7568 25.4349 76.4173 25.1523 75.9844C24.8698 75.5469 24.7285 75.0501 24.7285 74.4941ZM26 74.4941C26 74.8451 26.0843 75.1572 26.2529 75.4307C26.4215 75.6995 26.6585 75.9092 26.9638 76.0596C27.2692 76.21 27.6133 76.2852 27.9961 76.2852C28.3743 76.2852 28.7138 76.21 29.0146 76.0596C29.3154 75.9092 29.5501 75.6995 29.7187 75.4307C29.8919 75.1572 29.9785 74.8451 29.9785 74.4941C29.9785 74.1432 29.8919 73.8311 29.7187 73.5576C29.5501 73.2842 29.3154 73.0745 29.0146 72.9287C28.7138 72.7783 28.3743 72.7031 27.9961 72.7031C27.6133 72.7031 27.2692 72.7783 26.9638 72.9287C26.6585 73.0745 26.4215 73.2842 26.2529 73.5576C26.0843 73.8311 26 74.1432 26 74.4941ZM33.3418 70.9258H34.6406V77.8984H33.3418V70.9258ZM39.8203 71.8281C40.3717 71.8281 40.8684 71.9785 41.3105 72.2793C41.7526 72.5801 42.1103 73.0062 42.3837 73.5576C42.6617 74.109 42.8326 74.7585 42.8964 75.5059H45.4257V70.9121H46.7109V83.1895H45.4257V76.5586H42.9101C42.8645 77.347 42.705 78.0329 42.4316 78.6162C42.1582 79.1995 41.7959 79.6484 41.3447 79.9629C40.8935 80.2728 40.3854 80.4277 39.8203 80.4277C39.2141 80.4277 38.6741 80.2523 38.2001 79.9014C37.7307 79.5505 37.3639 79.0492 37.0996 78.3975C36.8398 77.7458 36.7122 76.987 36.7168 76.1211C36.7122 75.2643 36.8398 74.5124 37.0996 73.8652C37.3639 73.2135 37.7307 72.7122 38.2001 72.3613C38.6741 72.0059 39.2141 71.8281 39.8203 71.8281ZM37.9472 76.1211C37.9472 76.7591 38.0247 77.3151 38.1796 77.7891C38.3391 78.263 38.5602 78.6276 38.8427 78.8828C39.1253 79.138 39.4511 79.2656 39.8203 79.2656C40.1894 79.2656 40.5153 79.138 40.7978 78.8828C41.0804 78.6276 41.2991 78.263 41.4541 77.7891C41.6136 77.3151 41.6933 76.7591 41.6933 76.1211C41.6933 75.4922 41.6136 74.943 41.4541 74.4736C41.2946 73.9997 41.0735 73.6351 40.791 73.3799C40.513 73.1201 40.1894 72.9902 39.8203 72.9902C39.4511 72.9902 39.1253 73.1201 38.8427 73.3799C38.5647 73.6351 38.346 73.9997 38.1865 74.4736C38.027 74.943 37.9472 75.4922 37.9472 76.1211ZM59.7245 81.6309H48.5136V80.5508H51.1933V77.3516C50.6783 77.069 50.2796 76.7113 49.997 76.2783C49.7145 75.8454 49.5755 75.36 49.58 74.8223C49.58 74.1888 49.7714 73.6305 50.1542 73.1475C50.537 72.6644 51.0703 72.2907 51.7538 72.0264C52.442 71.7575 53.2213 71.623 54.0917 71.623C54.9622 71.623 55.7415 71.7575 56.4296 72.0264C57.1178 72.2907 57.6533 72.6644 58.0361 73.1475C58.4234 73.6305 58.6171 74.1888 58.6171 74.8223C58.6171 75.3555 58.4804 75.8363 58.207 76.2646C57.9335 76.6885 57.5462 77.0417 57.0449 77.3242V80.5508H59.7245V81.6309ZM50.8378 74.8223C50.8378 75.2552 50.9745 75.6357 51.248 75.9639C51.5214 76.292 51.9042 76.5472 52.3964 76.7295C52.8886 76.9072 53.4537 76.9961 54.0917 76.9961C54.7252 76.9961 55.288 76.9049 55.7802 76.7227C56.277 76.5404 56.6643 76.2874 56.9423 75.9639C57.2203 75.6357 57.3593 75.2552 57.3593 74.8223C57.3593 74.3893 57.2203 74.0111 56.9423 73.6875C56.6643 73.3594 56.277 73.1064 55.7802 72.9287C55.288 72.751 54.7252 72.6621 54.0917 72.6621C53.4537 72.6621 52.8886 72.751 52.3964 72.9287C51.9042 73.1064 51.5214 73.3594 51.248 73.6875C50.9745 74.0111 50.8378 74.3893 50.8378 74.8223ZM55.7324 80.5508V77.8301C55.2219 77.9486 54.6751 78.0078 54.0917 78.0078C53.5175 78.0078 52.9798 77.9486 52.4785 77.8301V80.5508H55.7324Z" fill="#111111"/>
<defs>
<clipPath id="clip0_2594_11449">
<rect width="52" height="52" fill="white" transform="translate(4.5)"/>
</clipPath>
</defs>
</svg>
