<svg width="61" height="88" viewBox="0 0 61 88" fill="none" xmlns="http://www.w3.org/2000/svg">
<g opacity="0.5" clip-path="url(#clip0_4252_15484)">
<path d="M30.5 51C44.3071 51 55.5 39.8071 55.5 26C55.5 12.1929 44.3071 1 30.5 1C16.6929 1 5.5 12.1929 5.5 26C5.5 39.8071 16.6929 51 30.5 51Z" fill="#EDEDED" stroke="#898989" stroke-width="1.2" stroke-miterlimit="10" stroke-linecap="round"/>
<path d="M26.2641 17.7732C25.1994 18.8398 19.9804 13.6246 21.0451 12.5581C22.1098 11.4915 24.1423 11.7951 25.5828 13.2356C27.0232 14.676 27.3288 16.7067 26.2622 17.7732H26.2641Z" fill="#757575"/>
<path d="M34.7359 17.7732C35.8006 18.8398 41.0195 13.6246 39.9549 12.5581C38.8902 11.4915 36.8576 11.7951 35.4172 13.2356C33.9768 14.676 33.6712 16.7067 34.7378 17.7732H34.7359Z" fill="#757575"/>
<path d="M23.0511 29.5683C25.0687 29.5683 26.7044 26.9428 26.7044 23.7041C26.7044 20.4654 25.0687 17.8398 23.0511 17.8398C21.0334 17.8398 19.3978 20.4654 19.3978 23.7041C19.3978 26.9428 21.0334 29.5683 23.0511 29.5683Z" fill="#757575"/>
<path d="M37.854 29.5683C39.8717 29.5683 41.5073 26.9428 41.5073 23.7041C41.5073 20.4654 39.8717 17.8398 37.854 17.8398C35.8364 17.8398 34.2007 20.4654 34.2007 23.7041C34.2007 26.9428 35.8364 29.5683 37.854 29.5683Z" fill="#757575"/>
<path d="M8.32029 26.1427C7.99197 26.7082 8.07168 27.3117 8.07547 27.9342C8.07927 28.5567 8.01664 29.1773 8.11343 29.7789C8.23299 30.5133 8.9162 30.9954 9.64876 30.8455C9.97328 30.779 10.239 30.5893 10.4895 30.3805C10.5085 30.3653 10.7514 30.185 10.7457 30.1585L10.6641 30.2192C10.7115 30.185 10.7609 30.149 10.8083 30.1148C10.8804 30.0636 10.9526 30.0123 11.0266 29.9611C11.5162 29.6157 11.9907 29.2589 12.4537 28.8793C12.4746 28.8623 12.6682 28.7218 12.5088 28.8338C12.5562 28.7996 12.6037 28.7655 12.6549 28.7332C12.7061 28.7009 12.7536 28.6763 12.801 28.6459C12.968 28.5377 12.6872 28.6744 12.7972 28.6459C12.8807 28.625 12.5961 28.6326 12.579 28.6269C12.5467 28.6174 12.3019 28.4333 12.3987 28.5396C12.3797 28.5188 12.2962 28.3726 12.3588 28.496C12.393 28.5624 12.4309 28.6269 12.467 28.6933C12.7042 29.1526 12.9585 29.6309 13.2451 30.0598C13.5317 30.4887 13.7955 31.0428 14.2699 31.3199C15.1182 31.8114 15.7996 30.8625 16.1526 30.2154C16.2911 29.9611 16.4107 29.6973 16.4923 29.4202C16.5264 29.3025 16.5568 29.183 16.5947 29.0653C16.6099 29.016 16.6213 28.9552 16.6479 28.9097C16.4866 29.1773 16.8301 28.7218 16.608 28.9799C16.9003 28.6421 16.9648 28.0993 16.608 27.7729C16.2873 27.4787 15.7123 27.4123 15.401 27.7729C15.1923 28.0158 15.0594 28.2739 14.9588 28.5795C14.9247 28.6858 14.8962 28.7939 14.8658 28.9021C14.8488 28.9647 14.8298 29.0274 14.8108 29.09L14.7899 29.1488C14.7615 29.2228 14.7615 29.2247 14.7899 29.1564C14.8146 29.0995 14.8165 29.0919 14.7975 29.1298C14.7861 29.1526 14.7747 29.1754 14.7615 29.1982C14.7387 29.2418 14.7159 29.2836 14.6931 29.3272C14.6419 29.4221 14.5888 29.517 14.5318 29.61C14.5015 29.6574 14.4692 29.7049 14.4388 29.7523C14.3534 29.8833 14.5015 29.703 14.4312 29.7637C14.3933 29.796 14.3591 29.8396 14.325 29.8757C14.2149 29.999 14.4616 29.7922 14.3193 29.8719H15.1809C15.0366 29.7998 15.2226 29.9155 15.215 29.9174C15.2037 29.9174 15.1296 29.8339 15.1315 29.8358C15.1145 29.8188 15.0651 29.739 15.1201 29.8244C15.1847 29.9231 15.1107 29.8036 15.0955 29.7789C15.0063 29.6404 14.9266 29.4942 14.8317 29.3576C14.5907 29.0122 14.4085 28.6402 14.1978 28.2758C14.0194 27.9684 13.8638 27.6192 13.6247 27.3554C13.2774 26.972 12.7422 26.8468 12.2601 27.0328C11.8218 27.2017 11.4688 27.4882 11.112 27.7881C11.0512 27.8393 10.9905 27.8887 10.9317 27.9399C10.8121 28.0405 10.9431 27.9342 10.962 27.919C10.9165 27.957 10.8653 27.9912 10.8178 28.0253C10.6261 28.1658 10.4326 28.3024 10.239 28.439C10.0454 28.5757 9.85752 28.7085 9.67343 28.8509C9.59372 28.9116 9.51781 28.9761 9.4419 29.0425C9.40774 29.0729 9.37168 29.1033 9.33752 29.1336C9.21985 29.238 9.39825 29.1071 9.31664 29.1526C9.29197 29.1659 9.25212 29.1887 9.22934 29.2077C9.31095 29.1336 9.33942 29.1792 9.25591 29.1944C9.41723 29.164 9.56336 29.1906 9.68482 29.3101C9.73416 29.3576 9.75314 29.4107 9.7854 29.4677C9.84803 29.5777 9.79869 29.4999 9.7854 29.4563C9.73796 29.2779 9.7892 29.6385 9.78161 29.405C9.76832 28.9344 9.7854 28.458 9.7835 27.9874C9.7835 27.7691 9.76453 27.5509 9.76073 27.3307C9.76073 27.2339 9.76073 27.1371 9.77022 27.0385C9.75693 27.2131 9.76263 27.1011 9.77591 27.0574C9.82526 26.8866 9.7 27.177 9.79679 27.0119C10.0207 26.6247 9.89927 26.0592 9.49124 25.8428C9.08321 25.6265 8.56131 25.7366 8.32219 26.1484L8.32029 26.1427Z" fill="#EDEDED"/>
<path d="M43.6727 27.2657C43.7828 27.687 43.8549 28.1007 44.0409 28.4974C44.1111 28.6492 44.2022 28.7897 44.2876 28.9339C44.3331 29.0117 44.3787 29.0895 44.4167 29.1711C44.3635 29.0553 44.4148 29.1844 44.428 29.2356C44.5609 29.7442 44.6197 30.268 44.9537 30.6988C45.4718 31.3688 46.3657 31.3783 46.9597 30.7994C47.3583 30.4104 47.605 29.8771 47.8403 29.3818C48.0016 29.0402 48.1496 28.6986 48.2768 28.3418C48.2768 28.338 48.328 28.2127 48.2958 28.2886C48.2578 28.374 48.3356 28.2108 48.3451 28.1899C48.4002 28.0685 48.4514 27.9432 48.4988 27.8161C48.5102 27.7857 48.5216 27.7553 48.533 27.7231C48.5406 27.7041 48.5937 27.5656 48.5501 27.6699C48.5064 27.7743 48.5615 27.6529 48.5748 27.6263C48.607 27.5618 48.6924 27.501 48.5596 27.6396L47.9561 27.8901C47.9694 27.8901 47.7492 27.8502 47.8346 27.8749C47.92 27.8996 47.7207 27.8199 47.7321 27.8256C47.8574 27.8882 47.7549 27.8654 47.7131 27.7914C47.7321 27.8275 47.7929 27.8635 47.8232 27.8939C47.8403 27.9129 47.8574 27.9356 47.8764 27.9527C47.9504 28.0191 47.7891 27.8199 47.8441 27.9091C47.9694 28.1159 48.0946 28.3133 48.2009 28.5315C48.2863 28.708 48.3622 28.8902 48.4495 29.0667C48.6089 29.3837 48.8253 29.6645 48.9999 29.972C49.0169 30.0023 49.0321 30.0403 49.053 30.0688C49.0985 30.1295 49.0131 29.9891 49.0169 29.9796C49.0075 30.0024 49.0701 30.1143 49.0796 30.1409C49.1593 30.3383 49.2333 30.5167 49.3623 30.6856C49.6831 31.0993 50.2524 31.3024 50.7515 31.0917C51.1691 30.9152 51.3683 30.5736 51.5145 30.1599C51.5277 30.1238 51.5847 29.9587 51.541 30.0707C51.5714 29.9929 51.6112 29.9169 51.6473 29.841C51.7403 29.6323 51.8371 29.4216 51.8921 29.1996C51.9396 29.0041 51.9604 28.801 52.0193 28.6075C52.0307 28.5714 52.044 28.5372 52.0534 28.5012C52.0307 28.5714 52.0079 28.5961 52.0534 28.5145C52.0933 28.4405 52.1312 28.3664 52.173 28.2943C52.3875 27.9034 52.5696 27.4953 52.5583 27.0399C52.5469 26.5844 52.1749 26.165 51.7042 26.1859C51.2336 26.2067 50.8369 26.5616 50.8502 27.0399C50.8559 27.2524 50.9204 26.888 50.8559 27.0873C50.8445 27.1196 50.7648 27.3302 50.8483 27.1461C50.7895 27.2771 50.7155 27.4005 50.6472 27.5257C50.4726 27.8502 50.3606 28.1729 50.2904 28.5315C50.2581 28.7005 50.2221 28.8675 50.1556 29.0269C50.2183 28.8732 50.1063 29.1256 50.1044 29.1294C50.0513 29.247 49.9981 29.3666 49.9507 29.488C49.9222 29.5583 49.8937 29.6304 49.8729 29.7044C49.8216 29.8847 49.9772 29.5753 49.871 29.7139C49.9943 29.5545 50.0569 29.5507 50.2638 29.5203C50.3777 29.4615 50.4821 29.4653 50.5769 29.5317C50.6472 29.5696 50.7041 29.6228 50.7458 29.6892C50.7667 29.6778 50.5731 29.4463 50.7307 29.6835C50.7022 29.6399 50.687 29.5715 50.668 29.5222C50.5997 29.3495 50.5295 29.1901 50.4346 29.0326C50.2657 28.7498 50.0664 28.4822 49.9203 28.1861C49.7324 27.8085 49.5825 27.4137 49.3396 27.0683C48.9277 26.4838 48.0491 25.7702 47.3583 26.4307C47.1021 26.6755 46.9692 27.0304 46.8591 27.3587C46.8079 27.5124 46.8724 27.3454 46.8781 27.3245C46.8629 27.391 46.8117 27.4631 46.7832 27.5257C46.6845 27.744 46.6048 27.9698 46.527 28.1956C46.4416 28.4386 46.601 28.0647 46.4815 28.2943C46.4663 28.3247 46.4511 28.3532 46.4359 28.3835C46.3961 28.4632 46.36 28.5448 46.3221 28.6245C46.2253 28.8295 46.1247 29.0326 46.0127 29.228C45.9539 29.3286 45.8912 29.4235 45.8267 29.5203C45.7223 29.6797 45.9577 29.3875 45.8267 29.5146C45.8058 29.5355 45.7793 29.5621 45.7584 29.5867C45.654 29.7139 45.9273 29.4937 45.7926 29.5659C45.6578 29.638 46.0013 29.5089 45.8552 29.5431L46.0032 29.5222C45.9121 29.5203 45.9463 29.526 46.1095 29.5393C46.2518 29.6076 46.2841 29.6209 46.2082 29.5791C46.3258 29.6778 46.3524 29.6968 46.2898 29.638C46.1835 29.5355 46.3695 29.8183 46.3202 29.674C46.305 29.6475 46.2898 29.6209 46.2765 29.5924C46.2385 29.5127 46.248 29.5355 46.305 29.6626C46.305 29.5791 46.2367 29.4539 46.2139 29.3723C46.1607 29.1692 46.1323 28.9623 46.0772 28.7593C45.9785 28.393 45.7698 28.097 45.5933 27.7686C45.5838 27.7515 45.4946 27.5257 45.5496 27.6832C45.5136 27.5788 45.4851 27.4745 45.4586 27.3663C45.413 27.1803 45.3769 26.9905 45.3276 26.8045C45.2137 26.3718 44.7127 26.0682 44.2762 26.2086C43.8397 26.3491 43.5588 26.7951 43.6803 27.26L43.6727 27.2657Z" fill="#EDEDED"/>
<path d="M39.6531 24.692C40.304 24.692 40.8317 24.1644 40.8317 23.5135C40.8317 22.8626 40.304 22.335 39.6531 22.335C39.0023 22.335 38.4746 22.8626 38.4746 23.5135C38.4746 24.1644 39.0023 24.692 39.6531 24.692Z" fill="white"/>
<path d="M38.5144 21.9764C38.9232 21.9764 39.2546 21.645 39.2546 21.2362C39.2546 20.8275 38.9232 20.4961 38.5144 20.4961C38.1057 20.4961 37.7743 20.8275 37.7743 21.2362C37.7743 21.645 38.1057 21.9764 38.5144 21.9764Z" fill="white"/>
<path d="M37.9242 25.8106C38.2387 25.8106 38.4936 25.5557 38.4936 25.2412C38.4936 24.9268 38.2387 24.6719 37.9242 24.6719C37.6098 24.6719 37.3549 24.9268 37.3549 25.2412C37.3549 25.5557 37.6098 25.8106 37.9242 25.8106Z" fill="white"/>
<path d="M24.8502 24.692C25.5011 24.692 26.0288 24.1644 26.0288 23.5135C26.0288 22.8626 25.5011 22.335 24.8502 22.335C24.1993 22.335 23.6717 22.8626 23.6717 23.5135C23.6717 24.1644 24.1993 24.692 24.8502 24.692Z" fill="white"/>
<path d="M23.7115 21.9764C24.1203 21.9764 24.4517 21.645 24.4517 21.2362C24.4517 20.8275 24.1203 20.4961 23.7115 20.4961C23.3027 20.4961 22.9714 20.8275 22.9714 21.2362C22.9714 21.645 23.3027 21.9764 23.7115 21.9764Z" fill="white"/>
<path d="M23.1213 25.8106C23.4358 25.8106 23.6907 25.5557 23.6907 25.2412C23.6907 24.9268 23.4358 24.6719 23.1213 24.6719C22.8069 24.6719 22.552 24.9268 22.552 25.2412C22.552 25.5557 22.8069 25.8106 23.1213 25.8106Z" fill="white"/>
<path d="M25.9453 37.3864C25.4708 37.5174 31.4489 57.564 35.6241 36.9063C35.6241 36.9063 33.062 35.9859 30.5 33.0215C30.5 33.0215 31.4489 35.8625 25.9453 37.3864Z" fill="#757575"/>
<path d="M34.1248 30.7386C34.1248 28.7004 26.7461 28.7004 26.7461 30.7386C26.7461 32.7769 28.3972 34.428 30.4355 34.428C32.4737 34.428 34.1248 32.7769 34.1248 30.7386Z" fill="#757575"/>
<path d="M18.7279 33.8281C18.7279 33.8281 25.0495 41.5105 30.4355 34.4278" stroke="#757575" stroke-width="1.13869" stroke-miterlimit="10" stroke-linecap="round"/>
<path d="M31.1054 33.8281C31.1054 33.8281 37.427 41.5105 42.813 34.4278" stroke="#757575" stroke-width="1.13869" stroke-miterlimit="10" stroke-linecap="round"/>
</g>
<path d="M7.27344 72.5254V72.6826C7.26432 73.2796 7.23926 73.8447 7.19824 74.3779C7.16178 74.9066 7.08203 75.4967 6.95898 76.1484L5.67383 76.0254C5.79232 75.4193 5.87207 74.8724 5.91309 74.3848C5.95866 73.8971 5.986 73.4049 5.99512 72.9082H1.09375V71.8418H7.27344V72.5254ZM0.355469 77.2012C1.22591 77.2012 2.0599 77.1921 2.85742 77.1738V74.5898H4.14258V77.1328C5.66471 77.069 6.96354 76.9596 8.03906 76.8047L8.12109 77.748C6.98633 77.9486 5.78776 78.083 4.52539 78.1514C3.26302 78.2152 1.91406 78.2493 0.478516 78.2539L0.355469 77.2012ZM2.21484 79.2793H3.51367V81.8496H10.541V82.9023H2.21484V79.2793ZM8.81836 70.9121H10.1445V74.8086H11.8262V75.9023H10.1445V80.1133H8.81836V70.9121ZM22.625 77.8574H21.3262V70.9258H22.625V77.8574ZM12.5215 76.5586C13.1458 76.349 13.6904 76.0413 14.1553 75.6357C14.6201 75.2256 14.9756 74.7562 15.2217 74.2275C15.4678 73.6989 15.5931 73.1497 15.5976 72.5801V71.3906H16.9238V72.5801C16.9238 73.127 17.0469 73.651 17.293 74.1523C17.539 74.6491 17.89 75.0889 18.3457 75.4717C18.806 75.8545 19.3437 76.1484 19.959 76.3535L19.3164 77.3516C18.61 77.1191 17.9948 76.7705 17.4707 76.3057C16.9466 75.8408 16.5456 75.2917 16.2676 74.6582C15.9896 75.3418 15.584 75.9365 15.0508 76.4424C14.5176 76.9482 13.8887 77.3288 13.164 77.584L12.5215 76.5586ZM14.5723 78.5137H22.625V83.0117H14.5723V78.5137ZM21.3535 81.959V79.5527H15.8574V81.959H21.3535ZM28.7343 79.0059C28.7343 79.5573 28.8733 80.0882 29.1513 80.5986C29.4293 81.1045 29.8349 81.5169 30.3681 81.8359C30.7282 81.6035 31.0335 81.3278 31.2841 81.0088C31.5394 80.6898 31.7285 80.3571 31.8515 80.0107C31.9791 79.6644 32.0429 79.3294 32.0429 79.0059V78.418H33.3144V79.0059C33.3099 79.4342 33.401 79.849 33.5879 80.25C33.7747 80.6465 34.0504 80.9997 34.415 81.3096C34.7841 81.6195 35.2285 81.8587 35.748 82.0273L35.1054 82.9844C34.513 82.7793 34.0094 82.4831 33.5947 82.0957C33.18 81.7129 32.8633 81.264 32.6445 80.749C32.4394 81.2686 32.1478 81.7334 31.7695 82.1436C31.3958 82.5537 30.9401 82.8704 30.4023 83.0938C29.8372 82.8796 29.361 82.5719 28.9736 82.1709C28.5908 81.7699 28.3014 81.3073 28.1054 80.7832C27.8776 81.2799 27.5586 81.7197 27.1484 82.1025C26.7428 82.4854 26.2597 82.7793 25.6992 82.9844L25.0429 82.0273C25.5488 81.8451 25.984 81.5944 26.3486 81.2754C26.7177 80.9518 26.9957 80.5941 27.1826 80.2021C27.374 79.8057 27.472 79.4069 27.4765 79.0059V78.418H28.7343V79.0059ZM24.7285 74.4941C24.7285 73.9336 24.8698 73.4346 25.1523 72.9971C25.4349 72.555 25.8245 72.2109 26.3213 71.9648C26.818 71.7188 27.3763 71.5957 27.9961 71.5957C28.6159 71.5957 29.1718 71.7188 29.664 71.9648C30.1608 72.2109 30.5481 72.555 30.8261 72.9971C31.1087 73.4346 31.25 73.9336 31.25 74.4941C31.25 75.0501 31.1087 75.5469 30.8261 75.9844C30.5481 76.4173 30.1608 76.7568 29.664 77.0029C29.1718 77.2445 28.6159 77.3652 27.9961 77.3652C27.3763 77.3652 26.818 77.2445 26.3213 77.0029C25.8245 76.7568 25.4349 76.4173 25.1523 75.9844C24.8698 75.5469 24.7285 75.0501 24.7285 74.4941ZM26 74.4941C26 74.8451 26.0843 75.1572 26.2529 75.4307C26.4215 75.6995 26.6585 75.9092 26.9638 76.0596C27.2692 76.21 27.6133 76.2852 27.9961 76.2852C28.3743 76.2852 28.7138 76.21 29.0146 76.0596C29.3154 75.9092 29.5501 75.6995 29.7187 75.4307C29.8919 75.1572 29.9785 74.8451 29.9785 74.4941C29.9785 74.1432 29.8919 73.8311 29.7187 73.5576C29.5501 73.2842 29.3154 73.0745 29.0146 72.9287C28.7138 72.7783 28.3743 72.7031 27.9961 72.7031C27.6133 72.7031 27.2692 72.7783 26.9638 72.9287C26.6585 73.0745 26.4215 73.2842 26.2529 73.5576C26.0843 73.8311 26 74.1432 26 74.4941ZM33.3418 70.9258H34.6406V77.8984H33.3418V70.9258ZM39.8203 71.8281C40.3717 71.8281 40.8684 71.9785 41.3105 72.2793C41.7526 72.5801 42.1103 73.0062 42.3837 73.5576C42.6617 74.109 42.8326 74.7585 42.8964 75.5059H45.4257V70.9121H46.7109V83.1895H45.4257V76.5586H42.9101C42.8645 77.347 42.705 78.0329 42.4316 78.6162C42.1582 79.1995 41.7959 79.6484 41.3447 79.9629C40.8935 80.2728 40.3854 80.4277 39.8203 80.4277C39.2141 80.4277 38.6741 80.2523 38.2001 79.9014C37.7307 79.5505 37.3639 79.0492 37.0996 78.3975C36.8398 77.7458 36.7122 76.987 36.7168 76.1211C36.7122 75.2643 36.8398 74.5124 37.0996 73.8652C37.3639 73.2135 37.7307 72.7122 38.2001 72.3613C38.6741 72.0059 39.2141 71.8281 39.8203 71.8281ZM37.9472 76.1211C37.9472 76.7591 38.0247 77.3151 38.1796 77.7891C38.3391 78.263 38.5602 78.6276 38.8427 78.8828C39.1253 79.138 39.4511 79.2656 39.8203 79.2656C40.1894 79.2656 40.5153 79.138 40.7978 78.8828C41.0804 78.6276 41.2991 78.263 41.4541 77.7891C41.6136 77.3151 41.6933 76.7591 41.6933 76.1211C41.6933 75.4922 41.6136 74.943 41.4541 74.4736C41.2946 73.9997 41.0735 73.6351 40.791 73.3799C40.513 73.1201 40.1894 72.9902 39.8203 72.9902C39.4511 72.9902 39.1253 73.1201 38.8427 73.3799C38.5647 73.6351 38.346 73.9997 38.1865 74.4736C38.027 74.943 37.9472 75.4922 37.9472 76.1211ZM59.7245 81.6309H48.5136V80.5508H51.1933V77.3516C50.6783 77.069 50.2796 76.7113 49.997 76.2783C49.7145 75.8454 49.5755 75.36 49.58 74.8223C49.58 74.1888 49.7714 73.6305 50.1542 73.1475C50.537 72.6644 51.0703 72.2907 51.7538 72.0264C52.442 71.7575 53.2213 71.623 54.0917 71.623C54.9622 71.623 55.7415 71.7575 56.4296 72.0264C57.1178 72.2907 57.6533 72.6644 58.0361 73.1475C58.4234 73.6305 58.6171 74.1888 58.6171 74.8223C58.6171 75.3555 58.4804 75.8363 58.207 76.2646C57.9335 76.6885 57.5462 77.0417 57.0449 77.3242V80.5508H59.7245V81.6309ZM50.8378 74.8223C50.8378 75.2552 50.9745 75.6357 51.248 75.9639C51.5214 76.292 51.9042 76.5472 52.3964 76.7295C52.8886 76.9072 53.4537 76.9961 54.0917 76.9961C54.7252 76.9961 55.288 76.9049 55.7802 76.7227C56.277 76.5404 56.6643 76.2874 56.9423 75.9639C57.2203 75.6357 57.3593 75.2552 57.3593 74.8223C57.3593 74.3893 57.2203 74.0111 56.9423 73.6875C56.6643 73.3594 56.277 73.1064 55.7802 72.9287C55.288 72.751 54.7252 72.6621 54.0917 72.6621C53.4537 72.6621 52.8886 72.751 52.3964 72.9287C51.9042 73.1064 51.5214 73.3594 51.248 73.6875C50.9745 74.0111 50.8378 74.3893 50.8378 74.8223ZM55.7324 80.5508V77.8301C55.2219 77.9486 54.6751 78.0078 54.0917 78.0078C53.5175 78.0078 52.9798 77.9486 52.4785 77.8301V80.5508H55.7324Z" fill="#898989"/>
<defs>
<clipPath id="clip0_4252_15484">
<rect width="52" height="52" fill="white" transform="translate(4.5)"/>
</clipPath>
</defs>
</svg>
