<svg width="55" height="76" viewBox="0 0 55 76" fill="none" xmlns="http://www.w3.org/2000/svg">
<g clip-path="url(#clip0_4176_21372)">
<path d="M27.5 51C41.3071 51 52.5 39.8071 52.5 26C52.5 12.1929 41.3071 1 27.5 1C13.6929 1 2.5 12.1929 2.5 26C2.5 39.8071 13.6929 51 27.5 51Z" fill="white" stroke="#FF955A" stroke-width="2" stroke-miterlimit="10" stroke-linecap="round"/>
<path d="M24.3745 16.2089C23.9857 17.6649 16.8583 15.7579 17.2471 14.3019C17.6358 12.8459 19.5479 12.0925 21.5156 12.6198C23.4833 13.147 24.7632 14.7528 24.3728 16.2098L24.3745 16.2089Z" fill="#644319"/>
<path d="M30.6253 16.2088C31.0141 17.6648 38.1415 15.7578 37.7527 14.3018C37.364 12.8458 35.4519 12.0925 33.4842 12.6197C31.5165 13.147 30.2366 14.7528 30.627 16.2098L30.6253 16.2088Z" fill="#644319"/>
<path d="M20.0507 29.5683C22.0684 29.5683 23.704 26.9428 23.704 23.7041C23.704 20.4654 22.0684 17.8398 20.0507 17.8398C18.0331 17.8398 16.3975 20.4654 16.3975 23.7041C16.3975 26.9428 18.0331 29.5683 20.0507 29.5683Z" fill="#644319"/>
<path d="M34.8545 29.5683C36.8721 29.5683 38.5077 26.9428 38.5077 23.7041C38.5077 20.4654 36.8721 17.8398 34.8545 17.8398C32.8368 17.8398 31.2012 20.4654 31.2012 23.7041C31.2012 26.9428 32.8368 29.5683 34.8545 29.5683Z" fill="#644319"/>
<path d="M5.31987 26.1427C4.99154 26.7082 5.07125 27.3117 5.07505 27.9342C5.07884 28.5567 5.01622 29.1773 5.113 29.7789C5.23257 30.5133 5.91578 30.9954 6.64833 30.8455C6.97286 30.779 7.23855 30.5893 7.48906 30.3805C7.50804 30.3653 7.75096 30.185 7.74527 30.1585L7.66366 30.2192C7.71111 30.185 7.76045 30.149 7.80789 30.1148C7.88001 30.0636 7.95213 30.0123 8.02614 29.9611C8.51578 29.6157 8.99023 29.2589 9.4533 28.8793C9.47417 28.8623 9.66775 28.7218 9.50833 28.8338C9.55578 28.7996 9.60322 28.7655 9.65446 28.7332C9.70571 28.7009 9.75315 28.6763 9.8006 28.6459C9.9676 28.5377 9.68673 28.6744 9.7968 28.6459C9.8803 28.625 9.59563 28.6326 9.57855 28.6269C9.54629 28.6174 9.30147 28.4333 9.39826 28.5396C9.37928 28.5188 9.29578 28.3726 9.35841 28.496C9.39257 28.5624 9.43052 28.6269 9.46658 28.6933C9.70381 29.1526 9.95811 29.6309 10.2447 30.0598C10.5313 30.4887 10.795 31.0428 11.2695 31.3199C12.1178 31.8115 12.7991 30.8625 13.1521 30.2154C13.2907 29.9611 13.4102 29.6973 13.4918 29.4202C13.526 29.3025 13.5564 29.183 13.5943 29.0653C13.6095 29.016 13.6209 28.9552 13.6475 28.9097C13.4861 29.1773 13.8296 28.7218 13.6076 28.9799C13.8999 28.6421 13.9644 28.0993 13.6076 27.7729C13.2869 27.4787 12.7118 27.4123 12.4006 27.7729C12.1918 28.0158 12.059 28.2739 11.9584 28.5795C11.9242 28.6858 11.8958 28.7939 11.8654 28.9021C11.8483 28.9647 11.8294 29.0274 11.8104 29.09L11.7895 29.1488C11.761 29.2228 11.761 29.2247 11.7895 29.1564C11.8142 29.0995 11.8161 29.0919 11.7971 29.1298C11.7857 29.1526 11.7743 29.1754 11.761 29.1982C11.7383 29.2418 11.7155 29.2836 11.6927 29.3272C11.6415 29.4221 11.5883 29.517 11.5314 29.61C11.501 29.6574 11.4688 29.7049 11.4384 29.7523C11.353 29.8833 11.501 29.703 11.4308 29.7637C11.3929 29.796 11.3587 29.8396 11.3245 29.8757C11.2145 29.999 11.4612 29.7922 11.3188 29.8719H12.1804C12.0362 29.7998 12.2222 29.9155 12.2146 29.9174C12.2032 29.9174 12.1292 29.8339 12.1311 29.8358C12.114 29.8188 12.0647 29.739 12.1197 29.8244C12.1842 29.9231 12.1102 29.8036 12.095 29.7789C12.0059 29.6404 11.9261 29.4942 11.8313 29.3576C11.5902 29.0122 11.408 28.6402 11.1974 28.2758C11.019 27.9684 10.8634 27.6192 10.6242 27.3554C10.2769 26.972 9.74176 26.8468 9.25972 27.0328C8.82133 27.2017 8.46833 27.4882 8.11154 27.7881C8.05081 27.8393 7.99008 27.8887 7.93125 27.9399C7.81169 28.0405 7.94264 27.9342 7.96162 27.919C7.91607 27.957 7.86483 27.9912 7.81738 28.0253C7.6257 28.1658 7.43213 28.3024 7.23855 28.439C7.04497 28.5757 6.85709 28.7085 6.673 28.8509C6.5933 28.9116 6.51738 28.9761 6.44147 29.0425C6.40731 29.0729 6.37125 29.1033 6.33709 29.1336C6.21943 29.238 6.39782 29.1071 6.31622 29.1526C6.29154 29.1659 6.25169 29.1887 6.22892 29.2077C6.31052 29.1336 6.33899 29.1792 6.25549 29.1944C6.4168 29.164 6.56293 29.1906 6.68439 29.3101C6.73373 29.3576 6.75271 29.4107 6.78497 29.4677C6.8476 29.5777 6.79826 29.4999 6.78497 29.4563C6.73753 29.2779 6.78877 29.6385 6.78118 29.405C6.76789 28.9344 6.78497 28.458 6.78308 27.9874C6.78308 27.7691 6.7641 27.5509 6.7603 27.3307C6.7603 27.2339 6.7603 27.1371 6.76979 27.0385C6.75651 27.2131 6.7622 27.1011 6.77549 27.0574C6.82483 26.8866 6.69957 27.177 6.79636 27.0119C7.0203 26.6247 6.89884 26.0592 6.49081 25.8428C6.08278 25.6265 5.56089 25.7366 5.32176 26.1484L5.31987 26.1427Z" fill="#F19A65"/>
<path d="M40.6732 27.2657C40.7832 27.687 40.8554 28.1007 41.0413 28.4974C41.1116 28.6492 41.2027 28.7897 41.2881 28.9339C41.3336 29.0117 41.3792 29.0895 41.4171 29.1711C41.364 29.0553 41.4152 29.1844 41.4285 29.2356C41.5613 29.7442 41.6202 30.268 41.9542 30.6988C42.4723 31.3688 43.3662 31.3783 43.9602 30.7994C44.3587 30.4104 44.6054 29.8771 44.8408 29.3818C45.0021 29.0402 45.1501 28.6986 45.2773 28.3418C45.2773 28.338 45.3285 28.2127 45.2962 28.2886C45.2583 28.374 45.3361 28.2108 45.3456 28.1899C45.4006 28.0685 45.4519 27.9432 45.4993 27.8161C45.5107 27.7857 45.5221 27.7553 45.5335 27.7231C45.5411 27.7041 45.5942 27.5656 45.5505 27.6699C45.5069 27.7743 45.5619 27.6529 45.5752 27.6263C45.6075 27.5618 45.6929 27.501 45.56 27.6396L44.9565 27.8901C44.9698 27.8901 44.7497 27.8502 44.8351 27.8749C44.9205 27.8996 44.7212 27.8199 44.7326 27.8256C44.8578 27.8882 44.7554 27.8654 44.7136 27.7914C44.7326 27.8275 44.7933 27.8635 44.8237 27.8939C44.8408 27.9129 44.8578 27.9356 44.8768 27.9527C44.9508 28.0191 44.7895 27.8199 44.8446 27.9091C44.9698 28.1159 45.0951 28.3133 45.2013 28.5315C45.2867 28.708 45.3627 28.8902 45.45 29.0667C45.6094 29.3837 45.8257 29.6645 46.0003 29.972C46.0174 30.0023 46.0326 30.0403 46.0535 30.0688C46.099 30.1295 46.0136 29.9891 46.0174 29.9796C46.0079 30.0024 46.0705 30.1143 46.08 30.1409C46.1597 30.3383 46.2338 30.5167 46.3628 30.6856C46.6835 31.0993 47.2529 31.3024 47.752 31.0917C48.1695 30.9152 48.3688 30.5736 48.5149 30.1599C48.5282 30.1238 48.5851 29.9587 48.5415 30.0707C48.5719 29.9929 48.6117 29.9169 48.6478 29.841C48.7408 29.6323 48.8375 29.4216 48.8926 29.1996C48.94 29.0041 48.9609 28.801 49.0197 28.6075C49.0311 28.5714 49.0444 28.5372 49.0539 28.5012C49.0311 28.5714 49.0084 28.5961 49.0539 28.5145C49.0938 28.4405 49.1317 28.3664 49.1735 28.2943C49.3879 27.9034 49.5701 27.4953 49.5587 27.0399C49.5473 26.5844 49.1754 26.165 48.7047 26.1859C48.234 26.2067 47.8374 26.5616 47.8507 27.0399C47.8564 27.2524 47.9209 26.888 47.8564 27.0873C47.845 27.1196 47.7653 27.3302 47.8488 27.1461C47.79 27.2771 47.7159 27.4005 47.6476 27.5257C47.473 27.8502 47.3611 28.1729 47.2908 28.5315C47.2586 28.7005 47.2225 28.8675 47.1561 29.0269C47.2187 28.8732 47.1067 29.1256 47.1048 29.1294C47.0517 29.247 46.9986 29.3666 46.9511 29.488C46.9227 29.5583 46.8942 29.6304 46.8733 29.7044C46.8221 29.8847 46.9777 29.5753 46.8714 29.7139C46.9948 29.5545 47.0574 29.5507 47.2643 29.5203C47.3781 29.4615 47.4825 29.4653 47.5774 29.5317C47.6476 29.5696 47.7046 29.6228 47.7463 29.6892C47.7672 29.6778 47.5736 29.4463 47.7311 29.6835C47.7027 29.6399 47.6875 29.5715 47.6685 29.5222C47.6002 29.3495 47.53 29.1901 47.4351 29.0326C47.2662 28.7498 47.0669 28.4822 46.9208 28.1861C46.7329 27.8085 46.5829 27.4137 46.34 27.0683C45.9282 26.4838 45.0495 25.7702 44.3587 26.4307C44.1025 26.6755 43.9697 27.0304 43.8596 27.3587C43.8083 27.5124 43.8729 27.3454 43.8786 27.3245C43.8634 27.391 43.8121 27.4631 43.7837 27.5257C43.685 27.744 43.6053 27.9698 43.5275 28.1956C43.4421 28.4386 43.6015 28.0647 43.4819 28.2943C43.4667 28.3247 43.4516 28.3532 43.4364 28.3835C43.3965 28.4632 43.3605 28.5448 43.3225 28.6245C43.2257 28.8295 43.1251 29.0326 43.0132 29.228C42.9543 29.3286 42.8917 29.4235 42.8272 29.5203C42.7228 29.6797 42.9581 29.3875 42.8272 29.5146C42.8063 29.5355 42.7797 29.5621 42.7589 29.5867C42.6545 29.7139 42.9278 29.4937 42.793 29.5659C42.6583 29.638 43.0018 29.5089 42.8556 29.5431L43.0037 29.5222C42.9126 29.5203 42.9467 29.526 43.11 29.5393C43.2523 29.6076 43.2846 29.6209 43.2086 29.5791C43.3263 29.6778 43.3529 29.6968 43.2902 29.638C43.184 29.5355 43.37 29.8183 43.3206 29.674C43.3054 29.6475 43.2902 29.6209 43.277 29.5924C43.239 29.5127 43.2485 29.5355 43.3054 29.6626C43.3054 29.5791 43.2371 29.4539 43.2143 29.3723C43.1612 29.1692 43.1327 28.9623 43.0777 28.7593C42.979 28.393 42.7702 28.097 42.5938 27.7686C42.5843 27.7515 42.4951 27.5257 42.5501 27.6832C42.514 27.5788 42.4856 27.4745 42.459 27.3663C42.4135 27.1803 42.3774 26.9905 42.3281 26.8045C42.2142 26.3718 41.7132 26.0682 41.2767 26.2086C40.8402 26.3491 40.5593 26.7951 40.6808 27.26L40.6732 27.2657Z" fill="#F19A65"/>
<path d="M36.6531 24.692C37.304 24.692 37.8317 24.1644 37.8317 23.5135C37.8317 22.8626 37.304 22.335 36.6531 22.335C36.0023 22.335 35.4746 22.8626 35.4746 23.5135C35.4746 24.1644 36.0023 24.692 36.6531 24.692Z" fill="white"/>
<path d="M35.5146 21.9764C35.9233 21.9764 36.2547 21.645 36.2547 21.2362C36.2547 20.8275 35.9233 20.4961 35.5146 20.4961C35.1058 20.4961 34.7744 20.8275 34.7744 21.2362C34.7744 21.645 35.1058 21.9764 35.5146 21.9764Z" fill="white"/>
<path d="M34.9238 25.8106C35.2383 25.8106 35.4932 25.5557 35.4932 25.2412C35.4932 24.9268 35.2383 24.6719 34.9238 24.6719C34.6094 24.6719 34.3545 24.9268 34.3545 25.2412C34.3545 25.5557 34.6094 25.8106 34.9238 25.8106Z" fill="white"/>
<path d="M21.8504 24.692C22.5013 24.692 23.029 24.1644 23.029 23.5135C23.029 22.8626 22.5013 22.335 21.8504 22.335C21.1995 22.335 20.6719 22.8626 20.6719 23.5135C20.6719 24.1644 21.1995 24.692 21.8504 24.692Z" fill="white"/>
<path d="M20.7118 21.9764C21.1206 21.9764 21.452 21.645 21.452 21.2362C21.452 20.8275 21.1206 20.4961 20.7118 20.4961C20.3031 20.4961 19.9717 20.8275 19.9717 21.2362C19.9717 21.645 20.3031 21.9764 20.7118 21.9764Z" fill="white"/>
<path d="M20.1211 25.8106C20.4355 25.8106 20.6904 25.5557 20.6904 25.2412C20.6904 24.9268 20.4355 24.6719 20.1211 24.6719C19.8067 24.6719 19.5518 24.9268 19.5518 25.2412C19.5518 25.5557 19.8067 25.8106 20.1211 25.8106Z" fill="white"/>
<path d="M22.9453 37.3864C22.4709 37.5174 28.5 47.9995 32.6242 36.9063C32.6242 36.9063 30.0621 35.9859 27.5001 33.0215C27.5001 33.0215 28.449 35.8625 22.9453 37.3864Z" fill="#644319"/>
<path d="M31.1248 30.7386C31.1248 28.7004 23.7461 28.7004 23.7461 30.7386C23.7461 32.7769 25.3972 34.428 27.4354 34.428C29.4737 34.428 31.1248 32.7769 31.1248 30.7386Z" fill="#644319"/>
<path d="M15.7275 33.8281C15.7275 33.8281 22.0491 41.5105 27.4351 34.4278" stroke="#644319" stroke-width="1.13869" stroke-miterlimit="10" stroke-linecap="round"/>
<path d="M28.1055 33.8281C28.1055 33.8281 34.4271 41.5105 39.8131 34.4278" stroke="#644319" stroke-width="1.13869" stroke-miterlimit="10" stroke-linecap="round"/>
</g>
<path d="M7.79297 62.1875V62.8555C7.79297 63.5938 7.79297 64.6602 7.54688 65.9844L6.08203 65.8438C6.26953 64.8184 6.31641 64.0449 6.32812 63.4062H2.30859V62.1875H7.79297ZM5.14453 64.6484V66.6875C6.20508 66.6465 7.29492 66.5645 8.29688 66.418L8.37891 67.4961C6.16406 67.9062 3.65625 67.9414 1.80469 67.9531L1.67578 66.7578C2.27344 66.7578 2.94727 66.7578 3.65625 66.7344V64.6484H5.14453ZM10.4062 61.4141V64.6602H11.6953V65.9141H10.4062V69.3945H8.87109V61.4141H10.4062ZM10.7344 70.6953V71.8906H3.24609V68.6797H4.74609V70.6953H10.7344ZM21.1172 61.4258V67.4375H19.6172V61.4258H21.1172ZM21.1172 67.9297V71.9609H13.9688V67.9297H21.1172ZM15.4453 69.1133V70.7656H19.6523V69.1133H15.4453ZM16.2773 62.8438C16.2656 64.1445 17.0508 65.375 18.7734 65.9141L18.0469 67.0508C16.8281 66.6934 15.9844 65.9551 15.5039 65C15.0176 66.0371 14.1504 66.8574 12.8789 67.25L12.1523 66.0781C13.9336 65.5391 14.7188 64.1797 14.7188 62.8438V61.8125H16.2773V62.8438ZM26.4375 68.2578C26.4375 69.1191 26.7949 70.0039 27.668 70.5898C28.5469 69.9688 28.9336 69.0488 28.9336 68.2578V67.8945H30.4102V68.2578C30.3984 69.3711 30.9961 70.4023 32.4141 70.8359L31.6875 71.9258C30.668 71.5801 30 70.9297 29.6367 70.1094C29.2793 70.9297 28.6582 71.6445 27.7031 72.0195C26.6953 71.6562 26.0684 70.9648 25.7227 70.1445C25.3477 70.9414 24.6914 71.5859 23.7188 71.9258L22.9805 70.8359C24.3867 70.3555 24.9727 69.3008 24.9844 68.2578V67.8945H26.4375V68.2578ZM31.4883 61.4258V67.4492H29.9883V61.4258H31.4883ZM25.6406 61.9648C27.3047 61.9648 28.5586 63.0195 28.5586 64.5312C28.5586 66.0195 27.3047 67.0742 25.6406 67.0742C23.9766 67.0742 22.7227 66.0195 22.7227 64.5312C22.7227 63.0195 23.9766 61.9648 25.6406 61.9648ZM25.6406 63.2188C24.7852 63.2188 24.1758 63.7109 24.1875 64.5312C24.1758 65.3398 24.7852 65.832 25.6406 65.832C26.4727 65.832 27.082 65.3398 27.082 64.5312C27.082 63.7109 26.4727 63.2188 25.6406 63.2188ZM35.8711 62.1641C37.3125 62.1641 38.3848 63.3535 38.6016 65.2695H40.4531V61.4141H41.9297V72.1016H40.4531V66.4648H38.6133C38.4551 68.5156 37.3594 69.7695 35.8711 69.7695C34.2539 69.7695 33.0938 68.3047 33.1055 65.9609C33.0938 63.6406 34.2539 62.1641 35.8711 62.1641ZM35.8711 63.5117C35.0742 63.5117 34.5234 64.3789 34.5352 65.9609C34.5234 67.5547 35.0742 68.4102 35.8711 68.4102C36.6797 68.4102 37.207 67.5547 37.207 65.9609C37.207 64.3789 36.6797 63.5117 35.8711 63.5117ZM53.0625 69.6055V70.8359H43.3008V69.6055H45.4805V66.9922C44.6543 66.5 44.1562 65.7441 44.1562 64.8008C44.1562 63.0781 45.8438 61.9297 48.1641 61.9297C50.4727 61.9297 52.1719 63.0781 52.1836 64.8008C52.1777 65.7207 51.6914 66.4707 50.8945 66.9688V69.6055H53.0625ZM48.1641 63.1133C46.6406 63.1133 45.6328 63.7227 45.6328 64.8008C45.6328 65.8438 46.6406 66.4883 48.1641 66.4883C49.6758 66.4883 50.6953 65.8438 50.707 64.8008C50.6953 63.7227 49.6758 63.1133 48.1641 63.1133ZM46.957 69.6055H49.3828V67.5312C49.002 67.6074 48.5918 67.6484 48.1641 67.6484C47.7363 67.6484 47.332 67.6133 46.957 67.5312V69.6055Z" fill="#111111"/>
<defs>
<clipPath id="clip0_4176_21372">
<rect width="52" height="52" fill="white" transform="translate(1.5)"/>
</clipPath>
</defs>
</svg>
