<svg width="55" height="76" viewBox="0 0 55 76" fill="none" xmlns="http://www.w3.org/2000/svg">
<g clip-path="url(#clip0_4176_21409)">
<path d="M27.5 51C41.3071 51 52.5 39.8071 52.5 26C52.5 12.1929 41.3071 1 27.5 1C13.6929 1 2.5 12.1929 2.5 26C2.5 39.8071 13.6929 51 27.5 51Z" fill="white" stroke="#FF955A" stroke-width="2" stroke-miterlimit="10" stroke-linecap="round"/>
<path d="M30.1621 15.4009C30.1621 16.9078 37.4016 16.9078 37.4016 15.4009C37.4016 13.8941 35.7816 12.6719 33.7818 12.6719C31.7821 12.6719 30.1621 13.8941 30.1621 15.4009Z" fill="#644319"/>
<path d="M24.468 15.4009C24.468 16.9078 17.2285 16.9078 17.2285 15.4009C17.2285 13.8941 18.8485 12.6719 20.8482 12.6719C22.848 12.6719 24.468 13.8941 24.468 15.4009Z" fill="#644319"/>
<path d="M19.6913 26.342C21.6657 26.342 23.2663 25.2034 23.2663 23.7989C23.2663 22.3944 21.6657 21.2559 19.6913 21.2559C17.7168 21.2559 16.1162 22.3944 16.1162 23.7989C16.1162 25.2034 17.7168 26.342 19.6913 26.342Z" fill="#644319"/>
<path d="M34.5877 26.342C36.5622 26.342 38.1628 25.2034 38.1628 23.7989C38.1628 22.3944 36.5622 21.2559 34.5877 21.2559C32.6133 21.2559 31.0127 22.3944 31.0127 23.7989C31.0127 25.2034 32.6133 26.342 34.5877 26.342Z" fill="#644319"/>
<path d="M5.24755 26.1427C4.92543 26.7082 5.00363 27.3117 5.00735 27.9342C5.01108 28.5567 4.94963 29.1773 5.04459 29.7789C5.1619 30.5133 5.83222 30.9954 6.55095 30.8455C6.86936 30.779 7.13004 30.5893 7.37582 30.3805C7.39444 30.3653 7.63278 30.185 7.62719 30.1585L7.54713 30.2192C7.59368 30.185 7.64209 30.149 7.68864 30.1148C7.75939 30.0636 7.83015 30.0123 7.90277 29.9611C8.38316 29.6157 8.84867 29.2589 9.30299 28.8793C9.32348 28.8623 9.5134 28.7218 9.35699 28.8338C9.40354 28.7996 9.45009 28.7655 9.50037 28.7332C9.55064 28.7009 9.59719 28.6763 9.64374 28.6459C9.8076 28.5377 9.53202 28.6744 9.64002 28.6459C9.72194 28.625 9.44264 28.6326 9.42589 28.6269C9.39423 28.6174 9.15403 28.4333 9.249 28.5396C9.23038 28.5188 9.14845 28.3726 9.20989 28.496C9.24341 28.5624 9.28065 28.6269 9.31603 28.6933C9.54878 29.1526 9.79829 29.6309 10.0794 30.0598C10.3606 30.4887 10.6194 31.0428 11.0849 31.3199C11.9172 31.8115 12.5857 30.8625 12.932 30.2154C13.068 29.9611 13.1853 29.6973 13.2653 29.4202C13.2989 29.3025 13.3286 29.183 13.3659 29.0653C13.3808 29.016 13.392 28.9552 13.418 28.9097C13.2597 29.1773 13.5968 28.7218 13.3789 28.9799C13.6657 28.6421 13.729 28.0993 13.3789 27.7729C13.0642 27.4787 12.5001 27.4123 12.1947 27.7729C11.9899 28.0158 11.8595 28.2739 11.7608 28.5795C11.7273 28.6858 11.6994 28.7939 11.6696 28.9021C11.6528 28.9647 11.6342 29.0274 11.6156 29.09L11.5951 29.1488C11.5672 29.2228 11.5672 29.2247 11.5951 29.1564C11.6193 29.0995 11.6212 29.0919 11.6026 29.1298C11.5914 29.1526 11.5802 29.1754 11.5672 29.1982C11.5448 29.2418 11.5225 29.2836 11.5002 29.3272C11.4499 29.4221 11.3977 29.517 11.3419 29.61C11.3121 29.6574 11.2804 29.7049 11.2506 29.7523C11.1669 29.8833 11.3121 29.703 11.2432 29.7637C11.206 29.796 11.1724 29.8396 11.1389 29.8757C11.0309 29.999 11.273 29.7922 11.1333 29.8719H11.9787C11.8372 29.7998 12.0197 29.9155 12.0122 29.9174C12.001 29.9174 11.9284 29.8339 11.9303 29.8358C11.9135 29.8188 11.8651 29.739 11.9191 29.8244C11.9824 29.9231 11.9098 29.8036 11.8949 29.7789C11.8074 29.6404 11.7292 29.4942 11.6361 29.3576C11.3996 29.0122 11.2209 28.6402 11.0142 28.2758C10.8391 27.9684 10.6865 27.6192 10.4518 27.3554C10.1111 26.972 9.58602 26.8468 9.11307 27.0328C8.68295 27.2017 8.33662 27.4882 7.98656 27.7881C7.92697 27.8393 7.86739 27.8887 7.80967 27.9399C7.69236 28.0405 7.82084 27.9342 7.83946 27.919C7.79477 27.957 7.7445 27.9912 7.69795 28.0253C7.50989 28.1658 7.31996 28.3024 7.13004 28.439C6.94011 28.5757 6.75577 28.7085 6.57516 28.8509C6.49696 28.9116 6.42248 28.9761 6.348 29.0425C6.31448 29.0729 6.2791 29.1033 6.24559 29.1336C6.13014 29.238 6.30517 29.1071 6.2251 29.1526C6.2009 29.1659 6.1618 29.1887 6.13945 29.2077C6.21952 29.1336 6.24745 29.1792 6.16552 29.1944C6.32379 29.164 6.46716 29.1906 6.58633 29.3101C6.63474 29.3576 6.65336 29.4107 6.68502 29.4677C6.74646 29.5777 6.69805 29.4999 6.68502 29.4563C6.63847 29.2779 6.68874 29.6385 6.68129 29.405C6.66826 28.9344 6.68502 28.458 6.68316 27.9874C6.68316 27.7691 6.66454 27.5509 6.66081 27.3307C6.66081 27.2339 6.66081 27.1371 6.67012 27.0385C6.65709 27.2131 6.66267 27.1011 6.67571 27.0574C6.72412 26.8866 6.60123 27.177 6.69619 27.0119C6.91591 26.6247 6.79674 26.0592 6.39641 25.8428C5.99608 25.6265 5.48403 25.7366 5.24941 26.1484L5.24755 26.1427Z" fill="#F19A65"/>
<path d="M39.9345 27.2657C40.0425 27.687 40.1132 28.1007 40.2957 28.4974C40.3646 28.6492 40.454 28.7897 40.5378 28.9339C40.5825 29.0117 40.6272 29.0895 40.6644 29.1711C40.6123 29.0553 40.6625 29.1844 40.6756 29.2356C40.8059 29.7442 40.8636 30.268 41.1913 30.6988C41.6997 31.3688 42.5767 31.3783 43.1595 30.7994C43.5505 30.4104 43.7926 29.8771 44.0234 29.3818C44.1817 29.0402 44.327 28.6986 44.4517 28.3418C44.4517 28.338 44.502 28.2127 44.4703 28.2886C44.4331 28.374 44.5094 28.2108 44.5187 28.1899C44.5727 28.0685 44.623 27.9432 44.6696 27.8161C44.6807 27.7857 44.6919 27.7553 44.7031 27.7231C44.7105 27.7041 44.7627 27.5656 44.7198 27.6699C44.677 27.7743 44.731 27.6529 44.744 27.6263C44.7757 27.5618 44.8595 27.501 44.7291 27.6396L44.137 27.8901C44.1501 27.8901 43.9341 27.8502 44.0179 27.8749C44.1017 27.8996 43.9061 27.8199 43.9173 27.8256C44.0402 27.8882 43.9397 27.8654 43.8987 27.7914C43.9173 27.8275 43.9769 27.8635 44.0067 27.8939C44.0234 27.9129 44.0402 27.9356 44.0588 27.9527C44.1314 28.0191 43.9732 27.8199 44.0272 27.9091C44.1501 28.1159 44.273 28.3133 44.3772 28.5315C44.461 28.708 44.5355 28.8902 44.6212 29.0667C44.7776 29.3837 44.9898 29.6645 45.1611 29.972C45.1779 30.0023 45.1928 30.0403 45.2133 30.0688C45.258 30.1295 45.1742 29.9891 45.1779 29.9796C45.1686 30.0024 45.23 30.1143 45.2393 30.1409C45.3175 30.3383 45.3902 30.5167 45.5168 30.6856C45.8315 31.0993 46.3901 31.3024 46.8798 31.0917C47.2894 30.9152 47.4849 30.5736 47.6283 30.1599C47.6413 30.1238 47.6972 29.9587 47.6544 30.0707C47.6841 29.9929 47.7232 29.9169 47.7586 29.841C47.8499 29.6323 47.9448 29.4216 47.9988 29.1996C48.0454 29.0041 48.0659 28.801 48.1236 28.6075C48.1348 28.5714 48.1478 28.5372 48.1571 28.5012C48.1348 28.5714 48.1124 28.5961 48.1571 28.5145C48.1962 28.4405 48.2334 28.3664 48.2744 28.2943C48.4848 27.9034 48.6636 27.4953 48.6524 27.0399C48.6412 26.5844 48.2763 26.165 47.8145 26.1859C47.3527 26.2067 46.9636 26.5616 46.9766 27.0399C46.9822 27.2524 47.0455 26.888 46.9822 27.0873C46.971 27.1196 46.8928 27.3302 46.9747 27.1461C46.917 27.2771 46.8444 27.4005 46.7774 27.5257C46.606 27.8502 46.4962 28.1729 46.4273 28.5315C46.3956 28.7005 46.3603 28.8675 46.2951 29.0269C46.3565 28.8732 46.2467 29.1256 46.2448 29.1294C46.1927 29.247 46.1405 29.3666 46.094 29.488C46.0661 29.5583 46.0381 29.6304 46.0177 29.7044C45.9674 29.8847 46.1201 29.5753 46.0158 29.7139C46.1368 29.5545 46.1983 29.5507 46.4012 29.5203C46.5129 29.4615 46.6154 29.4653 46.7085 29.5317C46.7774 29.5696 46.8332 29.6228 46.8742 29.6892C46.8947 29.6778 46.7047 29.4463 46.8593 29.6835C46.8314 29.6399 46.8165 29.5715 46.7978 29.5222C46.7308 29.3495 46.6619 29.1901 46.5688 29.0326C46.4031 28.7498 46.2076 28.4822 46.0642 28.1861C45.8799 27.8085 45.7328 27.4137 45.4944 27.0683C45.0904 26.4838 44.2283 25.7702 43.5505 26.4307C43.2991 26.6755 43.1688 27.0304 43.0608 27.3587C43.0105 27.5124 43.0738 27.3454 43.0794 27.3245C43.0645 27.391 43.0142 27.4631 42.9863 27.5257C42.8895 27.744 42.8113 27.9698 42.7349 28.1956C42.6512 28.4386 42.8076 28.0647 42.6903 28.2943C42.6754 28.3247 42.6605 28.3532 42.6456 28.3835C42.6065 28.4632 42.5711 28.5448 42.5338 28.6245C42.4389 28.8295 42.3402 29.0326 42.2303 29.228C42.1726 29.3286 42.1112 29.4235 42.0479 29.5203C41.9455 29.6797 42.1763 29.3875 42.0479 29.5146C42.0274 29.5355 42.0013 29.5621 41.9808 29.5867C41.8784 29.7139 42.1466 29.4937 42.0143 29.5659C41.8821 29.638 42.2192 29.5089 42.0758 29.5431L42.221 29.5222C42.1317 29.5203 42.1652 29.526 42.3253 29.5393C42.465 29.6076 42.4966 29.6209 42.4221 29.5791C42.5376 29.6778 42.5636 29.6968 42.5022 29.638C42.3979 29.5355 42.5804 29.8183 42.532 29.674C42.5171 29.6475 42.5022 29.6209 42.4892 29.5924C42.4519 29.5127 42.4612 29.5355 42.5171 29.6626C42.5171 29.5791 42.4501 29.4539 42.4277 29.3723C42.3756 29.1692 42.3476 28.9623 42.2937 28.7593C42.1968 28.393 41.992 28.097 41.8188 27.7686C41.8095 27.7515 41.722 27.5257 41.776 27.6832C41.7406 27.5788 41.7127 27.4745 41.6866 27.3663C41.642 27.1803 41.6066 26.9905 41.5582 26.8045C41.4464 26.3718 40.9549 26.0682 40.5266 26.2086C40.0983 26.3491 39.8228 26.7951 39.9419 27.26L39.9345 27.2657Z" fill="#F19A65"/>
<path d="M35.9903 24.693C36.6289 24.693 37.1466 24.1654 37.1466 23.5145C37.1466 22.8636 36.6289 22.3359 35.9903 22.3359C35.3517 22.3359 34.834 22.8636 34.834 23.5145C34.834 24.1654 35.3517 24.693 35.9903 24.693Z" fill="white"/>
<path d="M21.4659 24.693C22.1045 24.693 22.6222 24.1654 22.6222 23.5145C22.6222 22.8636 22.1045 22.3359 21.4659 22.3359C20.8273 22.3359 20.3096 22.8636 20.3096 23.5145C20.3096 24.1654 20.8273 24.693 21.4659 24.693Z" fill="white"/>
<path d="M30.5656 30.7386C30.5656 28.7004 23.3262 28.7004 23.3262 30.7386C23.3262 32.7769 24.9461 34.428 26.9459 34.428C28.9457 34.428 30.5656 32.7769 30.5656 30.7386Z" fill="#644319"/>
<path d="M15.5576 21.6162H23.4897" stroke="#644319" stroke-width="1.13869" stroke-miterlimit="10" stroke-linecap="round"/>
<path d="M30.6406 21.6162H38.5728" stroke="#644319" stroke-width="1.13869" stroke-miterlimit="10" stroke-linecap="round"/>
<path d="M20.9893 36.7051H33.1537" stroke="#644319" stroke-width="1.13869" stroke-miterlimit="10" stroke-linecap="round"/>
</g>
<path d="M8.84766 62.3984V63.6758C8.84766 65.1406 8.84766 66.5938 8.46094 68.7969L6.94922 68.668C7.34766 66.6172 7.34766 65.0938 7.35938 63.6758V63.5938H1.32422V62.3984H8.84766ZM10.043 69.4531V70.6836H0.316406V69.4531H10.043ZM20.543 62.7734V63.9922H19.1484V65.0352H20.543V66.2891H19.1484V67.6484H17.6484V61.4141H19.1484V62.7734H20.543ZM15.6328 67.7773C17.8242 67.7656 19.2539 68.6094 19.2539 69.9219C19.2539 71.2812 17.8242 72.0898 15.6328 72.0898C13.418 72.0898 11.9766 71.2812 11.9766 69.9219C11.9766 68.6094 13.418 67.7656 15.6328 67.7773ZM15.6328 68.9727C14.25 68.9727 13.4414 69.2891 13.4531 69.9219C13.4414 70.5664 14.25 70.9062 15.6328 70.9062C16.9688 70.9062 17.7773 70.5664 17.7773 69.9219C17.7773 69.2891 16.9688 68.9727 15.6328 68.9727ZM12.6211 62.0117V65.7617C13.9102 65.7441 15.2988 65.6211 16.7812 65.3281L16.957 66.5352C15.1992 66.8867 13.5469 66.9922 12.0352 66.9922H11.1211V62.0117H12.6211ZM32.3555 62.3984V63.6758C32.3555 65.1406 32.3555 66.5938 31.9688 68.7969L30.457 68.668C30.8555 66.6172 30.8555 65.0938 30.8672 63.6758V63.5938H24.832V62.3984H32.3555ZM33.5508 69.4531V70.6836H23.8242V69.4531H33.5508ZM38.543 62.4453V66.5586H35.9297V68.4688C36.9434 68.457 37.9102 68.416 39 68.2461L39.1055 69.4414C37.7109 69.6758 36.5625 69.7109 35.2383 69.7109H34.5V65.3633H37.1016V63.6523H34.4883V62.4453H38.543ZM43.418 61.4141V72.0781H42V66.6523H40.9688V71.5625H39.5977V61.5898H40.9688V65.4453H42V61.4141H43.418ZM54.3281 69.6055V70.8359H44.5664V69.6055H46.7461V66.9922C45.9199 66.5 45.4219 65.7441 45.4219 64.8008C45.4219 63.0781 47.1094 61.9297 49.4297 61.9297C51.7383 61.9297 53.4375 63.0781 53.4492 64.8008C53.4434 65.7207 52.957 66.4707 52.1602 66.9688V69.6055H54.3281ZM49.4297 63.1133C47.9062 63.1133 46.8984 63.7227 46.8984 64.8008C46.8984 65.8438 47.9062 66.4883 49.4297 66.4883C50.9414 66.4883 51.9609 65.8438 51.9727 64.8008C51.9609 63.7227 50.9414 63.1133 49.4297 63.1133ZM48.2227 69.6055H50.6484V67.5312C50.2676 67.6074 49.8574 67.6484 49.4297 67.6484C49.002 67.6484 48.5977 67.6133 48.2227 67.5312V69.6055Z" fill="#111111"/>
<defs>
<clipPath id="clip0_4176_21409">
<rect width="52" height="52" fill="white" transform="translate(1.5)"/>
</clipPath>
</defs>
</svg>
