<svg width="64" height="88" viewBox="0 0 64 88" fill="none" xmlns="http://www.w3.org/2000/svg">
<g clip-path="url(#clip0_2594_11475)">
<path d="M33 51C46.8071 51 58 39.8071 58 26C58 12.1929 46.8071 1 33 1C19.1929 1 8 12.1929 8 26C8 39.8071 19.1929 51 33 51Z" fill="white" stroke="#FF955A" stroke-width="1.2" stroke-miterlimit="10" stroke-linecap="round"/>
<path d="M35.2129 15.4009C35.2129 16.9078 42.5916 16.9078 42.5916 15.4009C42.5916 13.8941 40.9405 12.6719 38.9022 12.6719C36.864 12.6719 35.2129 13.8941 35.2129 15.4009Z" fill="#644319"/>
<path d="M29.4094 15.4009C29.4094 16.9078 22.0308 16.9078 22.0308 15.4009C22.0308 13.8941 23.6819 12.6719 25.7201 12.6719C27.7584 12.6719 29.4094 13.8941 29.4094 15.4009Z" fill="#644319"/>
<path d="M24.5417 26.3415C26.5542 26.3415 28.1855 25.2029 28.1855 23.7984C28.1855 22.3939 26.5542 21.2554 24.5417 21.2554C22.5293 21.2554 20.8979 22.3939 20.8979 23.7984C20.8979 25.2029 22.5293 26.3415 24.5417 26.3415Z" fill="#644319"/>
<path d="M39.7239 26.3415C41.7363 26.3415 43.3677 25.2029 43.3677 23.7984C43.3677 22.3939 41.7363 21.2554 39.7239 21.2554C37.7115 21.2554 36.0801 22.3939 36.0801 23.7984C36.0801 25.2029 37.7115 26.3415 39.7239 26.3415Z" fill="#644319"/>
<path d="M9.82035 26.1422C9.49203 26.7078 9.57174 27.3113 9.57554 27.9337C9.57933 28.5562 9.5167 29.1768 9.61349 29.7784C9.73305 30.5129 10.4163 30.9949 11.1488 30.845C11.4733 30.7786 11.739 30.5888 11.9896 30.38C12.0085 30.3648 12.2514 30.1845 12.2458 30.158L12.1641 30.2187C12.2116 30.1845 12.2609 30.1485 12.3084 30.1143C12.3805 30.0631 12.4526 30.0118 12.5266 29.9606C13.0163 29.6152 13.4907 29.2584 13.9538 28.8788C13.9747 28.8618 14.1682 28.7213 14.0088 28.8333C14.0563 28.7991 14.1037 28.765 14.155 28.7327C14.2062 28.7004 14.2536 28.6758 14.3011 28.6454C14.4681 28.5372 14.1872 28.6739 14.2973 28.6454C14.3808 28.6245 14.0961 28.6321 14.079 28.6264C14.0468 28.6169 13.802 28.4329 13.8987 28.5391C13.8798 28.5183 13.7963 28.3721 13.8589 28.4955C13.8931 28.5619 13.931 28.6264 13.9671 28.6929C14.2043 29.1521 14.4586 29.6304 14.7452 30.0593C15.0317 30.4882 15.2955 31.0423 15.77 31.3194C16.6183 31.811 17.2996 30.8621 17.6526 30.2149C17.7912 29.9606 17.9107 29.6968 17.9923 29.4197C18.0265 29.3021 18.0569 29.1825 18.0948 29.0648C18.11 29.0155 18.1214 28.9548 18.1479 28.9092C17.9866 29.1768 18.3301 28.7213 18.1081 28.9794C18.4004 28.6416 18.4649 28.0988 18.1081 27.7724C17.7874 27.4783 17.2123 27.4118 16.9011 27.7724C16.6923 28.0153 16.5595 28.2734 16.4589 28.579C16.4247 28.6853 16.3963 28.7934 16.3659 28.9016C16.3488 28.9642 16.3298 29.0269 16.3109 29.0895L16.29 29.1483C16.2615 29.2223 16.2615 29.2242 16.29 29.1559C16.3147 29.099 16.3166 29.0914 16.2976 29.1294C16.2862 29.1521 16.2748 29.1749 16.2615 29.1977C16.2387 29.2413 16.216 29.2831 16.1932 29.3267C16.142 29.4216 16.0888 29.5165 16.0319 29.6095C16.0015 29.6569 15.9693 29.7044 15.9389 29.7518C15.8535 29.8828 16.0015 29.7025 15.9313 29.7632C15.8933 29.7955 15.8592 29.8391 15.825 29.8752C15.715 29.9986 15.9617 29.7917 15.8193 29.8714H16.6809C16.5367 29.7993 16.7227 29.915 16.7151 29.9169C16.7037 29.9169 16.6297 29.8334 16.6316 29.8353C16.6145 29.8183 16.5652 29.7386 16.6202 29.824C16.6847 29.9226 16.6107 29.8031 16.5955 29.7784C16.5063 29.6399 16.4266 29.4937 16.3317 29.3571C16.0907 29.0117 15.9085 28.6397 15.6979 28.2753C15.5195 27.9679 15.3639 27.6187 15.1247 27.3549C14.7774 26.9715 14.2423 26.8463 13.7602 27.0323C13.3218 27.2012 12.9688 27.4877 12.612 27.7876C12.5513 27.8388 12.4906 27.8882 12.4317 27.9394C12.3122 28.04 12.4431 27.9337 12.4621 27.9186C12.4166 27.9565 12.3653 27.9907 12.3179 28.0248C12.1262 28.1653 11.9326 28.3019 11.739 28.4386C11.5455 28.5752 11.3576 28.708 11.1735 28.8504C11.0938 28.9111 11.0179 28.9756 10.942 29.0421C10.9078 29.0724 10.8717 29.1028 10.8376 29.1332C10.7199 29.2375 10.8983 29.1066 10.8167 29.1521C10.792 29.1654 10.7522 29.1882 10.7294 29.2072C10.811 29.1332 10.8395 29.1787 10.756 29.1939C10.9173 29.1635 11.0634 29.1901 11.1849 29.3096C11.2342 29.3571 11.2532 29.4102 11.2855 29.4672C11.3481 29.5772 11.2987 29.4994 11.2855 29.4558C11.238 29.2774 11.2893 29.638 11.2817 29.4045C11.2684 28.9339 11.2855 28.4575 11.2836 27.9869C11.2836 27.7686 11.2646 27.5504 11.2608 27.3302C11.2608 27.2334 11.2608 27.1367 11.2703 27.038C11.257 27.2126 11.2627 27.1006 11.276 27.0569C11.3253 26.8861 11.2001 27.1765 11.2968 27.0114C11.5208 26.6242 11.3993 26.0587 10.9913 25.8423C10.5833 25.626 10.0614 25.7361 9.82225 26.1479L9.82035 26.1422Z" fill="#F19A65"/>
<path d="M45.1727 27.2657C45.2828 27.687 45.3549 28.1007 45.5409 28.4974C45.6111 28.6492 45.7022 28.7897 45.7876 28.9339C45.8331 29.0117 45.8787 29.0895 45.9166 29.1711C45.8635 29.0553 45.9147 29.1844 45.928 29.2356C46.0609 29.7442 46.1197 30.268 46.4537 30.6988C46.9718 31.3688 47.8657 31.3783 48.4597 30.7994C48.8582 30.4104 49.1049 29.8771 49.3403 29.3818C49.5016 29.0402 49.6496 28.6986 49.7768 28.3418C49.7768 28.338 49.828 28.2127 49.7957 28.2886C49.7578 28.374 49.8356 28.2108 49.8451 28.1899C49.9001 28.0685 49.9514 27.9432 49.9988 27.8161C50.0102 27.7857 50.0216 27.7553 50.033 27.7231C50.0406 27.7041 50.0937 27.5656 50.0501 27.6699C50.0064 27.7743 50.0614 27.6529 50.0747 27.6263C50.107 27.5618 50.1924 27.501 50.0595 27.6396L49.456 27.8901C49.4693 27.8901 49.2492 27.8502 49.3346 27.8749C49.42 27.8996 49.2207 27.8199 49.2321 27.8256C49.3574 27.8882 49.2549 27.8654 49.2131 27.7914C49.2321 27.8275 49.2928 27.8635 49.3232 27.8939C49.3403 27.9129 49.3573 27.9356 49.3763 27.9527C49.4503 28.0191 49.289 27.8199 49.3441 27.9091C49.4693 28.1159 49.5946 28.3133 49.7009 28.5315C49.7863 28.708 49.8622 28.8902 49.9495 29.0667C50.1089 29.3837 50.3252 29.6645 50.4998 29.972C50.5169 30.0023 50.5321 30.0403 50.553 30.0688C50.5985 30.1295 50.5131 29.9891 50.5169 29.9796C50.5074 30.0024 50.57 30.1143 50.5795 30.1409C50.6592 30.3383 50.7333 30.5167 50.8623 30.6856C51.183 31.0993 51.7524 31.3024 52.2515 31.0917C52.669 30.9152 52.8683 30.5736 53.0144 30.1599C53.0277 30.1238 53.0846 29.9587 53.041 30.0707C53.0714 29.9929 53.1112 29.9169 53.1473 29.841C53.2403 29.6323 53.3371 29.4216 53.3921 29.1996C53.4395 29.0041 53.4604 28.801 53.5192 28.6075C53.5306 28.5714 53.5439 28.5372 53.5534 28.5012C53.5306 28.5714 53.5079 28.5961 53.5534 28.5145C53.5933 28.4405 53.6312 28.3664 53.673 28.2943C53.8874 27.9034 54.0696 27.4953 54.0582 27.0399C54.0468 26.5844 53.6749 26.165 53.2042 26.1859C52.7336 26.2067 52.3369 26.5616 52.3502 27.0399C52.3559 27.2524 52.4204 26.888 52.3559 27.0873C52.3445 27.1196 52.2648 27.3302 52.3483 27.1461C52.2895 27.2771 52.2155 27.4005 52.1471 27.5257C51.9725 27.8502 51.8606 28.1729 51.7903 28.5315C51.7581 28.7005 51.722 28.8675 51.6556 29.0269C51.7182 28.8732 51.6063 29.1256 51.6044 29.1294C51.5512 29.247 51.4981 29.3666 51.4506 29.488C51.4222 29.5583 51.3937 29.6304 51.3728 29.7044C51.3216 29.8847 51.4772 29.5753 51.3709 29.7139C51.4943 29.5545 51.5569 29.5507 51.7638 29.5203C51.8776 29.4615 51.982 29.4653 52.0769 29.5317C52.1471 29.5696 52.2041 29.6228 52.2458 29.6892C52.2667 29.6778 52.0731 29.4463 52.2306 29.6835C52.2022 29.6399 52.187 29.5715 52.168 29.5222C52.0997 29.3495 52.0295 29.1901 51.9346 29.0326C51.7657 28.7498 51.5664 28.4822 51.4203 28.1861C51.2324 27.8085 51.0825 27.4137 50.8395 27.0683C50.4277 26.4838 49.549 25.7702 48.8582 26.4307C48.602 26.6755 48.4692 27.0304 48.3591 27.3587C48.3079 27.5124 48.3724 27.3454 48.3781 27.3245C48.3629 27.391 48.3117 27.4631 48.2832 27.5257C48.1845 27.744 48.1048 27.9698 48.027 28.1956C47.9416 28.4386 48.101 28.0647 47.9814 28.2943C47.9663 28.3247 47.9511 28.3532 47.9359 28.3835C47.896 28.4632 47.86 28.5448 47.822 28.6245C47.7252 28.8295 47.6247 29.0326 47.5127 29.228C47.4538 29.3286 47.3912 29.4235 47.3267 29.5203C47.2223 29.6797 47.4576 29.3875 47.3267 29.5146C47.3058 29.5355 47.2792 29.5621 47.2584 29.5867C47.154 29.7139 47.4273 29.4937 47.2925 29.5659C47.1578 29.638 47.5013 29.5089 47.3552 29.5431L47.5032 29.5222C47.4121 29.5203 47.4463 29.526 47.6095 29.5393C47.7518 29.6076 47.7841 29.6209 47.7082 29.5791C47.8258 29.6778 47.8524 29.6968 47.7898 29.638C47.6835 29.5355 47.8695 29.8183 47.8201 29.674C47.8049 29.6475 47.7898 29.6209 47.7765 29.5924C47.7385 29.5127 47.748 29.5355 47.8049 29.6626C47.8049 29.5791 47.7366 29.4539 47.7138 29.3723C47.6607 29.1692 47.6322 28.9623 47.5772 28.7593C47.4785 28.393 47.2698 28.097 47.0933 27.7686C47.0838 27.7515 46.9946 27.5257 47.0496 27.6832C47.0136 27.5788 46.9851 27.4745 46.9585 27.3663C46.913 27.1803 46.8769 26.9905 46.8276 26.8045C46.7137 26.3718 46.2127 26.0682 45.7762 26.2086C45.3397 26.3491 45.0588 26.7951 45.1803 27.26L45.1727 27.2657Z" fill="#F19A65"/>
<path d="M41.1531 24.6925C41.804 24.6925 42.3317 24.1649 42.3317 23.514C42.3317 22.8631 41.804 22.3354 41.1531 22.3354C40.5023 22.3354 39.9746 22.8631 39.9746 23.514C39.9746 24.1649 40.5023 24.6925 41.1531 24.6925Z" fill="white"/>
<path d="M26.3504 24.6925C27.0013 24.6925 27.529 24.1649 27.529 23.514C27.529 22.8631 27.0013 22.3354 26.3504 22.3354C25.6995 22.3354 25.1719 22.8631 25.1719 23.514C25.1719 24.1649 25.6995 24.6925 26.3504 24.6925Z" fill="white"/>
<path d="M35.6248 30.7386C35.6248 28.7004 28.2461 28.7004 28.2461 30.7386C28.2461 32.7769 29.8972 34.428 31.9354 34.428C33.9737 34.428 35.6248 32.7769 35.6248 30.7386Z" fill="#644319"/>
<path d="M20.3286 21.6162H28.4133" stroke="#644319" stroke-width="1.13869" stroke-miterlimit="10" stroke-linecap="round"/>
<path d="M35.7007 21.6162H43.7854" stroke="#644319" stroke-width="1.13869" stroke-miterlimit="10" stroke-linecap="round"/>
<path d="M25.8643 36.7056H38.2627" stroke="#644319" stroke-width="1.13869" stroke-miterlimit="10" stroke-linecap="round"/>
</g>
<path d="M10.1582 73.4688C10.1582 74.1842 10.1491 74.804 10.1309 75.3281C10.1172 75.8477 10.0785 76.4515 10.0146 77.1396C9.95085 77.8278 9.84831 78.5775 9.70703 79.3887L8.38086 79.2656C8.53125 78.5046 8.6429 77.7868 8.71582 77.1123C8.78874 76.4378 8.83203 75.8385 8.8457 75.3145C8.86393 74.7904 8.87305 74.1751 8.87305 73.4688V73.2227H1.6543V72.1562H10.1582V73.4688ZM0.451172 80.3457H11.6211V81.4258H0.451172V80.3457ZM23.8418 73.7422H22.0918V75.2734H23.8418V76.3672H22.0918V78.1582H20.793V70.9121H22.0918V72.6758H23.8418V73.7422ZM13.0273 71.6367H14.3262V76.0938C16.181 76.0801 17.9401 75.9069 19.6035 75.5742L19.7676 76.627C18.7832 76.8229 17.8193 76.9642 16.876 77.0508C15.9372 77.1328 14.987 77.1738 14.0254 77.1738H13.0273V71.6367ZM14.0117 80.7285C14.0117 80.2409 14.1803 79.8148 14.5176 79.4502C14.8548 79.0811 15.3333 78.7985 15.9531 78.6025C16.5729 78.4066 17.2975 78.3086 18.1269 78.3086C18.9473 78.3086 19.665 78.4066 20.2803 78.6025C20.8955 78.7985 21.3695 79.0811 21.7021 79.4502C22.0348 79.8148 22.2012 80.2409 22.2012 80.7285C22.2012 81.2298 22.0348 81.6628 21.7021 82.0273C21.3695 82.3919 20.8955 82.6722 20.2803 82.8682C19.6696 83.0641 18.9518 83.1621 18.1269 83.1621C17.2975 83.1621 16.5729 83.0641 15.9531 82.8682C15.3333 82.6722 14.8548 82.3919 14.5176 82.0273C14.1803 81.6628 14.0117 81.2298 14.0117 80.7285ZM15.2832 80.7285C15.2832 81.0111 15.3971 81.2572 15.625 81.4668C15.8528 81.6764 16.181 81.8382 16.6094 81.9521C17.0377 82.0615 17.5436 82.1185 18.1269 82.123C18.6966 82.1185 19.1911 82.0615 19.6103 81.9521C20.0342 81.8382 20.36 81.6764 20.5879 81.4668C20.8157 81.2572 20.9297 81.0111 20.9297 80.7285C20.9297 80.4414 20.8157 80.1976 20.5879 79.9971C20.36 79.792 20.0342 79.637 19.6103 79.5322C19.1911 79.4229 18.6966 79.3659 18.1269 79.3613C17.539 79.3659 17.0309 79.4229 16.6025 79.5322C16.1787 79.637 15.8528 79.792 15.625 79.9971C15.3971 80.1976 15.2832 80.4414 15.2832 80.7285ZM37.5234 73.4688C37.5234 74.1842 37.5143 74.804 37.496 75.3281C37.4824 75.8477 37.4436 76.4515 37.3798 77.1396C37.316 77.8278 37.2135 78.5775 37.0722 79.3887L35.746 79.2656C35.8964 78.5046 36.0081 77.7868 36.081 77.1123C36.1539 76.4378 36.1972 75.8385 36.2109 75.3145C36.2291 74.7904 36.2382 74.1751 36.2382 73.4688V73.2227H29.0195V72.1562H37.5234V73.4688ZM27.8164 80.3457H38.9863V81.4258H27.8164V80.3457ZM44.8359 76.627H41.4726V79.2109C42.2018 79.2064 42.8876 79.1836 43.5302 79.1426C44.1728 79.097 44.8404 79.0195 45.5331 78.9102L45.6425 79.9492C44.8678 80.0859 44.1341 80.1771 43.4413 80.2227C42.7532 80.2682 41.9557 80.2956 41.0488 80.3047H40.2148V75.5605H43.5781V73.2637H40.2011V72.1973H44.8359V76.627ZM46.3261 71.1582H47.5156V75.6836H49.1015V70.9121H50.3456V83.1621H49.1015V76.7363H47.5156V82.5332H46.3261V71.1582ZM63.0585 81.6309H51.8476V80.5508H54.5273V77.3516C54.0123 77.069 53.6135 76.7113 53.331 76.2783C53.0484 75.8454 52.9094 75.36 52.914 74.8223C52.914 74.1888 53.1054 73.6305 53.4882 73.1475C53.871 72.6644 54.4042 72.2907 55.0878 72.0264C55.776 71.7575 56.5553 71.623 57.4257 71.623C58.2961 71.623 59.0754 71.7575 59.7636 72.0264C60.4517 72.2907 60.9872 72.6644 61.37 73.1475C61.7574 73.6305 61.9511 74.1888 61.9511 74.8223C61.9511 75.3555 61.8144 75.8363 61.5409 76.2646C61.2675 76.6885 60.8801 77.0417 60.3788 77.3242V80.5508H63.0585V81.6309ZM54.1718 74.8223C54.1718 75.2552 54.3085 75.6357 54.582 75.9639C54.8554 76.292 55.2382 76.5472 55.7304 76.7295C56.2226 76.9072 56.7877 76.9961 57.4257 76.9961C58.0592 76.9961 58.622 76.9049 59.1142 76.7227C59.6109 76.5404 59.9983 76.2874 60.2763 75.9639C60.5543 75.6357 60.6933 75.2552 60.6933 74.8223C60.6933 74.3893 60.5543 74.0111 60.2763 73.6875C59.9983 73.3594 59.6109 73.1064 59.1142 72.9287C58.622 72.751 58.0592 72.6621 57.4257 72.6621C56.7877 72.6621 56.2226 72.751 55.7304 72.9287C55.2382 73.1064 54.8554 73.3594 54.582 73.6875C54.3085 74.0111 54.1718 74.3893 54.1718 74.8223ZM59.0663 80.5508V77.8301C58.5559 77.9486 58.009 78.0078 57.4257 78.0078C56.8515 78.0078 56.3137 77.9486 55.8124 77.8301V80.5508H59.0663Z" fill="#111111"/>
<defs>
<clipPath id="clip0_2594_11475">
<rect width="52" height="52" fill="white" transform="translate(6)"/>
</clipPath>
</defs>
</svg>
