<svg width="64" height="88" viewBox="0 0 64 88" fill="none" xmlns="http://www.w3.org/2000/svg">
<g opacity="0.5" clip-path="url(#clip0_4252_15525)">
<path d="M32 51C45.8071 51 57 39.8071 57 26C57 12.1929 45.8071 1 32 1C18.1929 1 7 12.1929 7 26C7 39.8071 18.1929 51 32 51Z" fill="#EDEDED" stroke="#898989" stroke-width="1.2" stroke-miterlimit="10" stroke-linecap="round"/>
<path d="M35.213 15.4009C35.213 16.9078 42.5917 16.9078 42.5917 15.4009C42.5917 13.8941 40.9406 12.6719 38.9024 12.6719C36.8641 12.6719 35.213 13.8941 35.213 15.4009Z" fill="#757575"/>
<path d="M29.4095 15.4009C29.4095 16.9078 22.0308 16.9078 22.0308 15.4009C22.0308 13.8941 23.6819 12.6719 25.7202 12.6719C27.7584 12.6719 29.4095 13.8941 29.4095 15.4009Z" fill="#757575"/>
<path d="M24.5416 26.342C26.554 26.342 28.1854 25.2034 28.1854 23.7989C28.1854 22.3944 26.554 21.2559 24.5416 21.2559C22.5292 21.2559 20.8978 22.3944 20.8978 23.7989C20.8978 25.2034 22.5292 26.342 24.5416 26.342Z" fill="#757575"/>
<path d="M39.7241 26.342C41.7365 26.342 43.3679 25.2034 43.3679 23.7989C43.3679 22.3944 41.7365 21.2559 39.7241 21.2559C37.7117 21.2559 36.0803 22.3944 36.0803 23.7989C36.0803 25.2034 37.7117 26.342 39.7241 26.342Z" fill="#757575"/>
<path d="M9.82029 26.1427C9.49197 26.7082 9.57168 27.3117 9.57547 27.9342C9.57927 28.5567 9.51664 29.1773 9.61343 29.7789C9.73299 30.5133 10.4162 30.9954 11.1488 30.8455C11.4733 30.779 11.739 30.5893 11.9895 30.3805C12.0085 30.3653 12.2514 30.185 12.2457 30.1585L12.1641 30.2192C12.2115 30.185 12.2609 30.149 12.3083 30.1148C12.3804 30.0636 12.4526 30.0123 12.5266 29.9611C13.0162 29.6157 13.4907 29.2589 13.9537 28.8793C13.9746 28.8623 14.1682 28.7218 14.0088 28.8338C14.0562 28.7996 14.1037 28.7655 14.1549 28.7332C14.2061 28.7009 14.2536 28.6763 14.301 28.6459C14.468 28.5377 14.1872 28.6744 14.2972 28.6459C14.3807 28.625 14.0961 28.6326 14.079 28.6269C14.0467 28.6174 13.8019 28.4333 13.8987 28.5396C13.8797 28.5188 13.7962 28.3726 13.8588 28.496C13.893 28.5624 13.9309 28.6269 13.967 28.6933C14.2042 29.1526 14.4585 29.6309 14.7451 30.0598C15.0317 30.4887 15.2955 31.0428 15.7699 31.3199C16.6182 31.8114 17.2996 30.8625 17.6526 30.2154C17.7911 29.9611 17.9107 29.6973 17.9923 29.4202C18.0264 29.3025 18.0568 29.183 18.0947 29.0653C18.1099 29.016 18.1213 28.9552 18.1479 28.9097C17.9866 29.1773 18.3301 28.7218 18.108 28.9799C18.4003 28.6421 18.4648 28.0993 18.108 27.7729C17.7873 27.4787 17.2123 27.4123 16.901 27.7729C16.6923 28.0158 16.5594 28.2739 16.4588 28.5795C16.4247 28.6858 16.3962 28.7939 16.3658 28.9021C16.3488 28.9647 16.3298 29.0274 16.3108 29.09L16.2899 29.1488C16.2615 29.2228 16.2615 29.2247 16.2899 29.1564C16.3146 29.0995 16.3165 29.0919 16.2975 29.1298C16.2861 29.1526 16.2747 29.1754 16.2615 29.1982C16.2387 29.2418 16.2159 29.2836 16.1931 29.3272C16.1419 29.4221 16.0888 29.517 16.0318 29.61C16.0015 29.6574 15.9692 29.7049 15.9388 29.7523C15.8534 29.8833 16.0015 29.703 15.9312 29.7637C15.8933 29.796 15.8591 29.8396 15.825 29.8757C15.7149 29.999 15.9616 29.7922 15.8193 29.8719H16.6809C16.5366 29.7998 16.7226 29.9155 16.715 29.9174C16.7037 29.9174 16.6296 29.8339 16.6315 29.8358C16.6145 29.8188 16.5651 29.739 16.6201 29.8244C16.6847 29.9231 16.6107 29.8036 16.5955 29.7789C16.5063 29.6404 16.4266 29.4942 16.3317 29.3576C16.0907 29.0122 15.9085 28.6402 15.6978 28.2758C15.5194 27.9684 15.3638 27.6192 15.1247 27.3554C14.7774 26.972 14.2422 26.8468 13.7601 27.0328C13.3218 27.2017 12.9688 27.4882 12.612 27.7881C12.5512 27.8393 12.4905 27.8887 12.4317 27.9399C12.3121 28.0405 12.4431 27.9342 12.462 27.919C12.4165 27.957 12.3653 27.9912 12.3178 28.0253C12.1261 28.1658 11.9326 28.3024 11.739 28.439C11.5454 28.5757 11.3575 28.7085 11.1734 28.8509C11.0937 28.9116 11.0178 28.9761 10.9419 29.0425C10.9077 29.0729 10.8717 29.1033 10.8375 29.1336C10.7199 29.238 10.8982 29.1071 10.8166 29.1526C10.792 29.1659 10.7521 29.1887 10.7293 29.2077C10.8109 29.1336 10.8394 29.1792 10.7559 29.1944C10.9172 29.164 11.0634 29.1906 11.1848 29.3101C11.2342 29.3576 11.2531 29.4107 11.2854 29.4677C11.348 29.5777 11.2987 29.4999 11.2854 29.4563C11.238 29.2779 11.2892 29.6385 11.2816 29.405C11.2683 28.9344 11.2854 28.458 11.2835 27.9874C11.2835 27.7691 11.2645 27.5509 11.2607 27.3307C11.2607 27.2339 11.2607 27.1371 11.2702 27.0385C11.2569 27.2131 11.2626 27.1011 11.2759 27.0574C11.3253 26.8866 11.2 27.177 11.2968 27.0119C11.5207 26.6247 11.3993 26.0592 10.9912 25.8428C10.5832 25.6265 10.0613 25.7366 9.82219 26.1484L9.82029 26.1427Z" fill="#EDEDED"/>
<path d="M45.1727 27.2657C45.2828 27.687 45.3549 28.1007 45.5409 28.4974C45.6111 28.6492 45.7022 28.7897 45.7876 28.9339C45.8331 29.0117 45.8787 29.0895 45.9166 29.1711C45.8635 29.0553 45.9147 29.1844 45.928 29.2356C46.0609 29.7442 46.1197 30.268 46.4537 30.6988C46.9718 31.3688 47.8657 31.3783 48.4597 30.7994C48.8582 30.4104 49.1049 29.8771 49.3403 29.3818C49.5016 29.0402 49.6496 28.6986 49.7768 28.3418C49.7768 28.338 49.828 28.2127 49.7957 28.2886C49.7578 28.374 49.8356 28.2108 49.8451 28.1899C49.9001 28.0685 49.9514 27.9432 49.9988 27.8161C50.0102 27.7857 50.0216 27.7553 50.033 27.7231C50.0406 27.7041 50.0937 27.5656 50.0501 27.6699C50.0064 27.7743 50.0614 27.6529 50.0747 27.6263C50.107 27.5618 50.1924 27.501 50.0595 27.6396L49.456 27.8901C49.4693 27.8901 49.2492 27.8502 49.3346 27.8749C49.42 27.8996 49.2207 27.8199 49.2321 27.8256C49.3574 27.8882 49.2549 27.8654 49.2131 27.7914C49.2321 27.8275 49.2928 27.8635 49.3232 27.8939C49.3403 27.9129 49.3573 27.9356 49.3763 27.9527C49.4503 28.0191 49.289 27.8199 49.3441 27.9091C49.4693 28.1159 49.5946 28.3133 49.7009 28.5315C49.7863 28.708 49.8622 28.8902 49.9495 29.0667C50.1089 29.3837 50.3252 29.6645 50.4998 29.972C50.5169 30.0023 50.5321 30.0403 50.553 30.0688C50.5985 30.1295 50.5131 29.9891 50.5169 29.9796C50.5074 30.0024 50.57 30.1143 50.5795 30.1409C50.6592 30.3383 50.7333 30.5167 50.8623 30.6856C51.183 31.0993 51.7524 31.3024 52.2515 31.0917C52.669 30.9152 52.8683 30.5736 53.0144 30.1599C53.0277 30.1238 53.0846 29.9587 53.041 30.0707C53.0714 29.9929 53.1112 29.9169 53.1473 29.841C53.2403 29.6323 53.3371 29.4216 53.3921 29.1996C53.4395 29.0041 53.4604 28.801 53.5192 28.6075C53.5306 28.5714 53.5439 28.5372 53.5534 28.5012C53.5306 28.5714 53.5079 28.5961 53.5534 28.5145C53.5933 28.4405 53.6312 28.3664 53.673 28.2943C53.8874 27.9034 54.0696 27.4953 54.0582 27.0399C54.0468 26.5844 53.6749 26.165 53.2042 26.1859C52.7336 26.2067 52.3369 26.5616 52.3502 27.0399C52.3559 27.2524 52.4204 26.888 52.3559 27.0873C52.3445 27.1196 52.2648 27.3302 52.3483 27.1461C52.2895 27.2771 52.2155 27.4005 52.1471 27.5257C51.9725 27.8502 51.8606 28.1729 51.7903 28.5315C51.7581 28.7005 51.722 28.8675 51.6556 29.0269C51.7182 28.8732 51.6063 29.1256 51.6044 29.1294C51.5512 29.247 51.4981 29.3666 51.4506 29.488C51.4222 29.5583 51.3937 29.6304 51.3728 29.7044C51.3216 29.8847 51.4772 29.5753 51.3709 29.7139C51.4943 29.5545 51.5569 29.5507 51.7638 29.5203C51.8776 29.4615 51.982 29.4653 52.0769 29.5317C52.1471 29.5696 52.2041 29.6228 52.2458 29.6892C52.2667 29.6778 52.0731 29.4463 52.2306 29.6835C52.2022 29.6399 52.187 29.5715 52.168 29.5222C52.0997 29.3495 52.0295 29.1901 51.9346 29.0326C51.7657 28.7498 51.5664 28.4822 51.4203 28.1861C51.2324 27.8085 51.0825 27.4137 50.8395 27.0683C50.4277 26.4838 49.549 25.7702 48.8582 26.4307C48.602 26.6755 48.4692 27.0304 48.3591 27.3587C48.3079 27.5124 48.3724 27.3454 48.3781 27.3245C48.3629 27.391 48.3117 27.4631 48.2832 27.5257C48.1845 27.744 48.1048 27.9698 48.027 28.1956C47.9416 28.4386 48.101 28.0647 47.9814 28.2943C47.9663 28.3247 47.9511 28.3532 47.9359 28.3835C47.896 28.4632 47.86 28.5448 47.822 28.6245C47.7252 28.8295 47.6247 29.0326 47.5127 29.228C47.4538 29.3286 47.3912 29.4235 47.3267 29.5203C47.2223 29.6797 47.4576 29.3875 47.3267 29.5146C47.3058 29.5355 47.2792 29.5621 47.2584 29.5867C47.154 29.7139 47.4273 29.4937 47.2925 29.5659C47.1578 29.638 47.5013 29.5089 47.3552 29.5431L47.5032 29.5222C47.4121 29.5203 47.4463 29.526 47.6095 29.5393C47.7518 29.6076 47.7841 29.6209 47.7082 29.5791C47.8258 29.6778 47.8524 29.6968 47.7898 29.638C47.6835 29.5355 47.8695 29.8183 47.8201 29.674C47.8049 29.6475 47.7898 29.6209 47.7765 29.5924C47.7385 29.5127 47.748 29.5355 47.8049 29.6626C47.8049 29.5791 47.7366 29.4539 47.7138 29.3723C47.6607 29.1692 47.6322 28.9623 47.5772 28.7593C47.4785 28.393 47.2698 28.097 47.0933 27.7686C47.0838 27.7515 46.9946 27.5257 47.0496 27.6832C47.0136 27.5788 46.9851 27.4745 46.9585 27.3663C46.913 27.1803 46.8769 26.9905 46.8276 26.8045C46.7137 26.3718 46.2127 26.0682 45.7762 26.2086C45.3397 26.3491 45.0588 26.7951 45.1803 27.26L45.1727 27.2657Z" fill="#EDEDED"/>
<path d="M41.1531 24.692C41.804 24.692 42.3317 24.1644 42.3317 23.5135C42.3317 22.8626 41.804 22.335 41.1531 22.335C40.5023 22.335 39.9746 22.8626 39.9746 23.5135C39.9746 24.1644 40.5023 24.692 41.1531 24.692Z" fill="white"/>
<path d="M26.3502 24.692C27.0011 24.692 27.5288 24.1644 27.5288 23.5135C27.5288 22.8626 27.0011 22.335 26.3502 22.335C25.6993 22.335 25.1717 22.8626 25.1717 23.5135C25.1717 24.1644 25.6993 24.692 26.3502 24.692Z" fill="white"/>
<path d="M35.6248 30.7386C35.6248 28.7004 28.2462 28.7004 28.2462 30.7386C28.2462 32.7769 29.8973 34.428 31.9355 34.428C33.9737 34.428 35.6248 32.7769 35.6248 30.7386Z" fill="#757575"/>
<path d="M20.3285 21.6162H28.4132" stroke="#757575" stroke-width="1.13869" stroke-miterlimit="10" stroke-linecap="round"/>
<path d="M35.7007 21.6162H43.7854" stroke="#757575" stroke-width="1.13869" stroke-miterlimit="10" stroke-linecap="round"/>
<path d="M25.8644 36.7051H38.2628" stroke="#757575" stroke-width="1.13869" stroke-miterlimit="10" stroke-linecap="round"/>
</g>
<path d="M10.1582 73.4688C10.1582 74.1842 10.1491 74.804 10.1309 75.3281C10.1172 75.8477 10.0785 76.4515 10.0146 77.1396C9.95085 77.8278 9.84831 78.5775 9.70703 79.3887L8.38086 79.2656C8.53125 78.5046 8.6429 77.7868 8.71582 77.1123C8.78874 76.4378 8.83203 75.8385 8.8457 75.3145C8.86393 74.7904 8.87305 74.1751 8.87305 73.4688V73.2227H1.6543V72.1562H10.1582V73.4688ZM0.451172 80.3457H11.6211V81.4258H0.451172V80.3457ZM23.8418 73.7422H22.0918V75.2734H23.8418V76.3672H22.0918V78.1582H20.793V70.9121H22.0918V72.6758H23.8418V73.7422ZM13.0273 71.6367H14.3262V76.0938C16.181 76.0801 17.9401 75.9069 19.6035 75.5742L19.7676 76.627C18.7832 76.8229 17.8193 76.9642 16.876 77.0508C15.9372 77.1328 14.987 77.1738 14.0254 77.1738H13.0273V71.6367ZM14.0117 80.7285C14.0117 80.2409 14.1803 79.8148 14.5176 79.4502C14.8548 79.0811 15.3333 78.7985 15.9531 78.6025C16.5729 78.4066 17.2975 78.3086 18.1269 78.3086C18.9473 78.3086 19.665 78.4066 20.2803 78.6025C20.8955 78.7985 21.3695 79.0811 21.7021 79.4502C22.0348 79.8148 22.2012 80.2409 22.2012 80.7285C22.2012 81.2298 22.0348 81.6628 21.7021 82.0273C21.3695 82.3919 20.8955 82.6722 20.2803 82.8682C19.6696 83.0641 18.9518 83.1621 18.1269 83.1621C17.2975 83.1621 16.5729 83.0641 15.9531 82.8682C15.3333 82.6722 14.8548 82.3919 14.5176 82.0273C14.1803 81.6628 14.0117 81.2298 14.0117 80.7285ZM15.2832 80.7285C15.2832 81.0111 15.3971 81.2572 15.625 81.4668C15.8528 81.6764 16.181 81.8382 16.6094 81.9521C17.0377 82.0615 17.5436 82.1185 18.1269 82.123C18.6966 82.1185 19.1911 82.0615 19.6103 81.9521C20.0342 81.8382 20.36 81.6764 20.5879 81.4668C20.8157 81.2572 20.9297 81.0111 20.9297 80.7285C20.9297 80.4414 20.8157 80.1976 20.5879 79.9971C20.36 79.792 20.0342 79.637 19.6103 79.5322C19.1911 79.4229 18.6966 79.3659 18.1269 79.3613C17.539 79.3659 17.0309 79.4229 16.6025 79.5322C16.1787 79.637 15.8528 79.792 15.625 79.9971C15.3971 80.1976 15.2832 80.4414 15.2832 80.7285ZM37.5234 73.4688C37.5234 74.1842 37.5143 74.804 37.496 75.3281C37.4824 75.8477 37.4436 76.4515 37.3798 77.1396C37.316 77.8278 37.2135 78.5775 37.0722 79.3887L35.746 79.2656C35.8964 78.5046 36.0081 77.7868 36.081 77.1123C36.1539 76.4378 36.1972 75.8385 36.2109 75.3145C36.2291 74.7904 36.2382 74.1751 36.2382 73.4688V73.2227H29.0195V72.1562H37.5234V73.4688ZM27.8164 80.3457H38.9863V81.4258H27.8164V80.3457ZM44.8359 76.627H41.4726V79.2109C42.2018 79.2064 42.8876 79.1836 43.5302 79.1426C44.1728 79.097 44.8404 79.0195 45.5331 78.9102L45.6425 79.9492C44.8678 80.0859 44.1341 80.1771 43.4413 80.2227C42.7532 80.2682 41.9557 80.2956 41.0488 80.3047H40.2148V75.5605H43.5781V73.2637H40.2011V72.1973H44.8359V76.627ZM46.3261 71.1582H47.5156V75.6836H49.1015V70.9121H50.3456V83.1621H49.1015V76.7363H47.5156V82.5332H46.3261V71.1582ZM63.0585 81.6309H51.8476V80.5508H54.5273V77.3516C54.0123 77.069 53.6135 76.7113 53.331 76.2783C53.0484 75.8454 52.9094 75.36 52.914 74.8223C52.914 74.1888 53.1054 73.6305 53.4882 73.1475C53.871 72.6644 54.4042 72.2907 55.0878 72.0264C55.776 71.7575 56.5553 71.623 57.4257 71.623C58.2961 71.623 59.0754 71.7575 59.7636 72.0264C60.4517 72.2907 60.9872 72.6644 61.37 73.1475C61.7574 73.6305 61.9511 74.1888 61.9511 74.8223C61.9511 75.3555 61.8144 75.8363 61.5409 76.2646C61.2675 76.6885 60.8801 77.0417 60.3788 77.3242V80.5508H63.0585V81.6309ZM54.1718 74.8223C54.1718 75.2552 54.3085 75.6357 54.582 75.9639C54.8554 76.292 55.2382 76.5472 55.7304 76.7295C56.2226 76.9072 56.7877 76.9961 57.4257 76.9961C58.0592 76.9961 58.622 76.9049 59.1142 76.7227C59.6109 76.5404 59.9983 76.2874 60.2763 75.9639C60.5543 75.6357 60.6933 75.2552 60.6933 74.8223C60.6933 74.3893 60.5543 74.0111 60.2763 73.6875C59.9983 73.3594 59.6109 73.1064 59.1142 72.9287C58.622 72.751 58.0592 72.6621 57.4257 72.6621C56.7877 72.6621 56.2226 72.751 55.7304 72.9287C55.2382 73.1064 54.8554 73.3594 54.582 73.6875C54.3085 74.0111 54.1718 74.3893 54.1718 74.8223ZM59.0663 80.5508V77.8301C58.5559 77.9486 58.009 78.0078 57.4257 78.0078C56.8515 78.0078 56.3137 77.9486 55.8124 77.8301V80.5508H59.0663Z" fill="#898989"/>
<defs>
<clipPath id="clip0_4252_15525">
<rect width="52" height="52" fill="white" transform="translate(6)"/>
</clipPath>
</defs>
</svg>
