<svg width="55" height="76" viewBox="0 0 55 76" fill="none" xmlns="http://www.w3.org/2000/svg">
<g opacity="0.4">
<path d="M27.5 51C41.3071 51 52.5 39.8071 52.5 26C52.5 12.1929 41.3071 1 27.5 1C13.6929 1 2.5 12.1929 2.5 26C2.5 39.8071 13.6929 51 27.5 51Z" fill="#D9D9D9" stroke="#C5C5C5" stroke-width="2" stroke-miterlimit="10" stroke-linecap="round"/>
<path d="M30.8418 14.9769C30.8418 16.544 38.5156 16.544 38.5156 14.9769C38.5156 13.4098 36.7985 12.1387 34.6787 12.1387C32.5589 12.1387 30.8418 13.4098 30.8418 14.9769Z" fill="#757575"/>
<path d="M24.8066 14.9769C24.8066 16.544 17.1328 16.544 17.1328 14.9769C17.1328 13.4098 18.85 12.1387 20.9697 12.1387C23.0895 12.1387 24.8066 13.4098 24.8066 14.9769Z" fill="#757575"/>
<path d="M19.7427 26.355C21.8356 26.355 23.5322 25.1709 23.5322 23.7102C23.5322 22.2495 21.8356 21.0654 19.7427 21.0654C17.6498 21.0654 15.9531 22.2495 15.9531 23.7102C15.9531 25.1709 17.6498 26.355 19.7427 26.355Z" fill="#757575"/>
<path d="M35.5327 26.355C37.6256 26.355 39.3223 25.1709 39.3223 23.7102C39.3223 22.2495 37.6256 21.0654 35.5327 21.0654C33.4398 21.0654 31.7432 22.2495 31.7432 23.7102C31.7432 25.1709 33.4398 26.355 35.5327 26.355Z" fill="#757575"/>
<path d="M4.43285 26.1483C4.0914 26.7365 4.1743 27.3641 4.17824 28.0115C4.18219 28.6589 4.11706 29.3043 4.21772 29.9299C4.34206 30.6938 5.0526 31.1951 5.81446 31.0392C6.15197 30.9701 6.42829 30.7727 6.68882 30.5556C6.70856 30.5398 6.96119 30.3523 6.95527 30.3247L6.8704 30.3878C6.91975 30.3523 6.97106 30.3148 7.02041 30.2793C7.09541 30.226 7.17041 30.1727 7.24738 30.1194C7.7566 29.7602 8.25003 29.3891 8.73162 28.9944C8.75333 28.9766 8.95465 28.8306 8.78886 28.947C8.8382 28.9115 8.88755 28.876 8.94084 28.8424C8.99413 28.8089 9.04347 28.7832 9.09281 28.7516C9.2665 28.6391 8.97439 28.7812 9.08887 28.7516C9.17571 28.7299 8.87965 28.7378 8.86189 28.7319C8.82834 28.722 8.57373 28.5306 8.67439 28.6411C8.65465 28.6194 8.5678 28.4674 8.63294 28.5957C8.66846 28.6648 8.70794 28.7319 8.74544 28.801C8.99215 29.2786 9.25663 29.776 9.55467 30.222C9.8527 30.6681 10.127 31.2444 10.6205 31.5326C11.5027 32.0438 12.2113 31.0569 12.5784 30.3839C12.7225 30.1194 12.8468 29.8451 12.9317 29.5569C12.9672 29.4345 12.9988 29.3102 13.0383 29.1878C13.0541 29.1365 13.0659 29.0733 13.0936 29.026C12.9258 29.3043 13.283 28.8306 13.0521 29.099C13.3561 28.7477 13.4232 28.1832 13.0521 27.8437C12.7185 27.5378 12.1205 27.4687 11.7968 27.8437C11.5797 28.0963 11.4415 28.3648 11.3369 28.6825C11.3014 28.7931 11.2718 28.9056 11.2402 29.0181C11.2225 29.0832 11.2027 29.1483 11.183 29.2135L11.1613 29.2747C11.1317 29.3516 11.1317 29.3536 11.1613 29.2826C11.1869 29.2233 11.1889 29.2154 11.1692 29.2549C11.1573 29.2786 11.1455 29.3023 11.1317 29.326C11.108 29.3714 11.0843 29.4148 11.0606 29.4602C11.0073 29.5589 10.9521 29.6576 10.8928 29.7543C10.8613 29.8036 10.8277 29.853 10.7961 29.9023C10.7073 30.0385 10.8613 29.851 10.7882 29.9141C10.7488 29.9477 10.7132 29.9931 10.6777 30.0306C10.5632 30.1589 10.8198 29.9437 10.6718 30.0266H11.5679C11.4179 29.9516 11.6113 30.072 11.6034 30.074C11.5915 30.074 11.5146 29.9872 11.5165 29.9891C11.4988 29.9714 11.4475 29.8885 11.5047 29.9773C11.5718 30.0799 11.4948 29.9556 11.479 29.9299C11.3863 29.7859 11.3034 29.6339 11.2047 29.4918C10.954 29.1326 10.7646 28.7457 10.5455 28.3667C10.3599 28.047 10.1981 27.6838 9.94941 27.4095C9.58822 27.0108 9.03163 26.8805 8.5303 27.074C8.07437 27.2496 7.70726 27.5477 7.3362 27.8595C7.27304 27.9128 7.20988 27.9641 7.1487 28.0174C7.02435 28.122 7.16054 28.0115 7.18028 27.9957C7.13291 28.0352 7.07962 28.0707 7.03027 28.1062C6.83093 28.2523 6.62961 28.3944 6.42829 28.5365C6.22697 28.6786 6.03157 28.8168 5.84012 28.9648C5.75722 29.0279 5.67827 29.095 5.59933 29.1641C5.5638 29.1957 5.5263 29.2273 5.49077 29.2589C5.3684 29.3674 5.55393 29.2312 5.46906 29.2786C5.4434 29.2924 5.40195 29.3161 5.37827 29.3358C5.46314 29.2589 5.49274 29.3062 5.4059 29.322C5.57367 29.2904 5.72564 29.3181 5.85196 29.4424C5.90328 29.4918 5.92302 29.547 5.95657 29.6062C6.0217 29.7207 5.97039 29.6398 5.95657 29.5944C5.90723 29.4089 5.96052 29.7839 5.95262 29.5411C5.93881 29.0516 5.95657 28.5562 5.9546 28.0667C5.9546 27.8398 5.93486 27.6128 5.93091 27.3838C5.93091 27.2832 5.93091 27.1825 5.94078 27.0799C5.92696 27.2615 5.93288 27.145 5.9467 27.0996C5.99802 26.922 5.86775 27.224 5.96841 27.0522C6.20131 26.6496 6.07499 26.0614 5.65064 25.8364C5.22629 25.6114 4.68352 25.7259 4.43483 26.1542L4.43285 26.1483Z" fill="#D9D9D9"/>
<path d="M41.2004 27.3165C41.3148 27.7547 41.3898 28.185 41.5833 28.5975C41.6563 28.7554 41.751 28.9014 41.8399 29.0514C41.8872 29.1324 41.9346 29.2133 41.9741 29.2982C41.9188 29.1778 41.9721 29.312 41.9859 29.3653C42.1241 29.8942 42.1853 30.439 42.5326 30.887C43.0715 31.5837 44.0011 31.5936 44.6189 30.9916C45.0333 30.587 45.2899 30.0324 45.5347 29.5172C45.7024 29.162 45.8564 28.8067 45.9886 28.4356C45.9886 28.4317 46.0419 28.3014 46.0084 28.3804C45.9689 28.4692 46.0498 28.2994 46.0597 28.2777C46.1169 28.1514 46.1702 28.0212 46.2195 27.8889C46.2314 27.8573 46.2432 27.8258 46.2551 27.7922C46.263 27.7725 46.3182 27.6284 46.2728 27.7369C46.2274 27.8455 46.2847 27.7192 46.2985 27.6915C46.332 27.6244 46.4209 27.5613 46.2827 27.7054L45.6551 27.9659C45.6689 27.9659 45.4399 27.9244 45.5287 27.9501C45.6176 27.9758 45.4103 27.8929 45.4222 27.8988C45.5524 27.9639 45.4458 27.9402 45.4024 27.8633C45.4222 27.9008 45.4853 27.9383 45.5169 27.9698C45.5347 27.9896 45.5524 28.0133 45.5722 28.031C45.6491 28.1001 45.4814 27.8929 45.5386 27.9856C45.6689 28.2008 45.7991 28.406 45.9097 28.633C45.9985 28.8166 46.0774 29.006 46.1682 29.1896C46.334 29.5192 46.559 29.8113 46.7406 30.1311C46.7584 30.1626 46.7742 30.2021 46.7959 30.2317C46.8432 30.2949 46.7544 30.1488 46.7584 30.139C46.7485 30.1626 46.8136 30.2791 46.8235 30.3067C46.9064 30.512 46.9834 30.6975 47.1176 30.8732C47.4511 31.3035 48.0433 31.5146 48.5624 31.2956C48.9966 31.112 49.2038 30.7567 49.3558 30.3265C49.3696 30.289 49.4288 30.1172 49.3834 30.2337C49.415 30.1528 49.4564 30.0738 49.4939 29.9949C49.5907 29.7778 49.6913 29.5587 49.7486 29.3278C49.7979 29.1245 49.8196 28.9133 49.8808 28.712C49.8926 28.6745 49.9065 28.6389 49.9163 28.6014C49.8926 28.6745 49.869 28.7001 49.9163 28.6152C49.9578 28.5383 49.9972 28.4613 50.0407 28.3863C50.2637 27.9797 50.4532 27.5554 50.4413 27.0817C50.4295 26.608 50.0426 26.1718 49.5532 26.1935C49.0637 26.2152 48.6512 26.5843 48.665 27.0817C48.6709 27.3027 48.738 26.9238 48.6709 27.131C48.6591 27.1646 48.5762 27.3836 48.663 27.1922C48.6018 27.3284 48.5249 27.4567 48.4538 27.5869C48.2722 27.9244 48.1558 28.26 48.0827 28.633C48.0492 28.8087 48.0117 28.9824 47.9426 29.1481C48.0077 28.9883 47.8913 29.2508 47.8893 29.2547C47.834 29.3771 47.7788 29.5014 47.7294 29.6278C47.6998 29.7008 47.6702 29.7758 47.6485 29.8528C47.5952 30.0403 47.7571 29.7186 47.6465 29.8626C47.7748 29.6968 47.84 29.6929 48.0551 29.6613C48.1735 29.6001 48.2821 29.6041 48.3808 29.6732C48.4538 29.7126 48.513 29.7679 48.5564 29.837C48.5781 29.8251 48.3768 29.5843 48.5406 29.8311C48.511 29.7857 48.4952 29.7146 48.4755 29.6633C48.4045 29.4837 48.3314 29.3179 48.2327 29.1541C48.0571 28.86 47.8498 28.5817 47.6979 28.2738C47.5025 27.881 47.3465 27.4705 47.0939 27.1113C46.6656 26.5034 45.7518 25.7612 45.0333 26.4481C44.7669 26.7027 44.6287 27.0718 44.5142 27.4132C44.461 27.5731 44.5281 27.3994 44.534 27.3777C44.5182 27.4468 44.4649 27.5218 44.4353 27.5869C44.3327 27.8139 44.2498 28.0488 44.1688 28.2837C44.08 28.5363 44.2458 28.1475 44.1215 28.3863C44.1057 28.4179 44.0899 28.4475 44.0741 28.4791C44.0327 28.5619 43.9952 28.6468 43.9557 28.7297C43.855 28.9429 43.7504 29.1541 43.634 29.3574C43.5728 29.462 43.5076 29.5607 43.4405 29.6613C43.332 29.8271 43.5767 29.5232 43.4405 29.6554C43.4188 29.6771 43.3912 29.7047 43.3695 29.7304C43.2609 29.8626 43.5451 29.6337 43.405 29.7087C43.2649 29.7837 43.6221 29.6495 43.4701 29.685L43.6241 29.6633C43.5294 29.6613 43.5649 29.6672 43.7346 29.681C43.8827 29.7521 43.9162 29.7659 43.8373 29.7225C43.9596 29.8251 43.9873 29.8449 43.9221 29.7837C43.8116 29.6771 44.005 29.9712 43.9537 29.8212C43.9379 29.7936 43.9221 29.7659 43.9083 29.7363C43.8688 29.6534 43.8787 29.6771 43.9379 29.8093C43.9379 29.7225 43.8669 29.5922 43.8432 29.5074C43.7879 29.2962 43.7583 29.081 43.7011 28.8698C43.5984 28.4889 43.3813 28.181 43.1978 27.8396C43.1879 27.8218 43.0951 27.5869 43.1524 27.7507C43.1149 27.6422 43.0853 27.5336 43.0576 27.4211C43.0103 27.2277 42.9728 27.0303 42.9215 26.8369C42.803 26.3869 42.282 26.0711 41.828 26.2172C41.3741 26.3632 41.0819 26.827 41.2083 27.3106L41.2004 27.3165Z" fill="#D9D9D9"/>
<path d="M37.0196 24.6408C37.6966 24.6408 38.2453 24.0921 38.2453 23.4151C38.2453 22.7382 37.6966 22.1895 37.0196 22.1895C36.3427 22.1895 35.7939 22.7382 35.7939 23.4151C35.7939 24.0921 36.3427 24.6408 37.0196 24.6408Z" fill="white"/>
<path d="M21.6241 24.6408C22.301 24.6408 22.8498 24.0921 22.8498 23.4151C22.8498 22.7382 22.301 22.1895 21.6241 22.1895C20.9472 22.1895 20.3984 22.7382 20.3984 23.4151C20.3984 24.0921 20.9472 24.6408 21.6241 24.6408Z" fill="white"/>
<path d="M31.2695 30.9277C31.2695 28.8079 23.5957 28.8079 23.5957 30.9277C23.5957 33.0475 25.3128 34.7646 27.4326 34.7646C29.5524 34.7646 31.2695 33.0475 31.2695 30.9277Z" fill="#757575"/>
<path d="M15.3613 21.4404H23.7694" stroke="#757575" stroke-width="1.13869" stroke-miterlimit="10" stroke-linecap="round"/>
<path d="M31.3496 21.4414H39.7577" stroke="#757575" stroke-width="1.13869" stroke-miterlimit="10" stroke-linecap="round"/>
<path d="M21.1191 37.1338H34.0135" stroke="#757575" stroke-width="1.13869" stroke-miterlimit="10" stroke-linecap="round"/>
</g>
<path d="M8.70703 62.5625V63.6875C8.70703 65.0469 8.70703 66.5234 8.32031 68.7617L7.18359 68.6562C7.60547 66.5586 7.60547 65.0117 7.60547 63.6875V63.4766H1.41797V62.5625H8.70703ZM9.96094 69.582V70.5078H0.386719V69.582H9.96094ZM20.4358 63.0078V63.9219H18.9358V65.2344H20.4358V66.1719H18.9358V67.707H17.8225V61.4961H18.9358V63.0078H20.4358ZM15.5374 67.8359C17.6585 67.8359 19.0296 68.6445 19.0296 69.9102C19.0296 71.2109 17.6585 71.9844 15.5374 71.9961C13.3928 71.9844 12.01 71.2109 12.01 69.9102C12.01 68.6445 13.3928 67.8359 15.5374 67.8359ZM15.5374 68.7383C14.0374 68.75 13.0999 69.1719 13.0999 69.9102C13.0999 70.6484 14.0374 71.0938 15.5374 71.1055C17.0022 71.0938 17.9397 70.6484 17.9397 69.9102C17.9397 69.1719 17.0022 68.75 15.5374 68.7383ZM12.2796 62.1172V65.9375C13.7034 65.9258 15.1917 65.8145 16.803 65.4922L16.9436 66.3945C15.1741 66.7461 13.5686 66.8633 12.0218 66.8633H11.1663V62.1172H12.2796ZM32.1629 62.5625V63.6875C32.1629 65.0469 32.1629 66.5234 31.7762 68.7617L30.6395 68.6562C31.0613 66.5586 31.0613 65.0117 31.0613 63.6875V63.4766H24.8738V62.5625H32.1629ZM33.4168 69.582V70.5078H23.8426V69.582H33.4168ZM38.4308 62.5977V66.3945H35.5479V68.6094C36.6905 68.6035 37.7686 68.5508 39.0284 68.3516L39.1222 69.2422C37.6573 69.5 36.4972 69.5352 35.1847 69.5469H34.4698V65.4805H37.3526V63.5117H34.4581V62.5977H38.4308ZM43.1534 61.4961V71.9961H42.087V66.4883H40.7276V71.457H39.7081V61.707H40.7276V65.5859H42.087V61.4961H43.1534ZM54.0502 69.7578V70.6836H44.4408V69.7578H46.7377V67.0156C45.8763 66.541 45.3548 65.7852 45.3548 64.8477C45.3548 63.1953 46.972 62.1055 49.222 62.1055C51.4837 62.1055 53.1009 63.1953 53.1009 64.8477C53.1009 65.7734 52.597 66.5176 51.7533 66.9922V69.7578H54.0502ZM49.222 62.9961C47.5697 62.9961 46.433 63.7109 46.433 64.8477C46.433 65.9727 47.5697 66.7109 49.222 66.7109C50.8627 66.7109 52.0228 65.9727 52.0228 64.8477C52.0228 63.7109 50.8627 62.9961 49.222 62.9961ZM47.8392 69.7578H50.6283V67.4141C50.2005 67.5254 49.7259 67.5781 49.222 67.5781C48.7298 67.5781 48.2611 67.5254 47.8392 67.4258V69.7578Z" fill="#C5C5C5"/>
</svg>
