<svg width="180" height="234" viewBox="0 0 180 234" fill="none" xmlns="http://www.w3.org/2000/svg">
<g clip-path="url(#clip0_731_4561)">
<path d="M123.4 25.6186C132.731 27.4875 143.667 28.1713 151.228 34.6747C159.853 42.1049 160.063 54.8534 159.523 66.0216C158.188 93.7369 156.283 121.513 150.883 148.757C147.702 164.803 143.232 180.849 134.651 194.919C130.706 201.377 125.755 207.516 119.035 211.253C105.534 218.76 86.4072 217.514 71.586 216.617C62.6002 216.07 52.8344 215.751 44.7487 211.253C38.0282 207.516 33.0778 201.377 29.1324 194.919C20.5517 180.849 16.0813 164.803 12.9011 148.757C7.50063 121.513 5.59547 93.7369 4.26036 66.0216C3.72031 54.8534 3.93033 42.0897 12.556 34.6747C20.2217 28.0801 30.7076 25.9073 40.4134 24.6157C59.2399 22.1086 78.7716 20.8474 97.9282 22.1997C106.479 22.8075 115 23.9167 123.415 25.6186H123.4Z" fill="white" stroke="#644319" stroke-width="3" stroke-miterlimit="10"/>
<path d="M89.0624 102.838C89.0624 97.8849 71.361 97.8849 71.361 102.838C71.361 107.792 75.3213 111.803 80.2117 111.803C85.1021 111.803 89.0624 107.792 89.0624 102.838Z" fill="#644319"/>
<path d="M89.4825 68.8324C90.8626 72.2208 107.229 65.3832 105.849 61.9947C104.469 58.6063 99.6833 57.3907 95.1679 59.2749C90.6526 61.159 88.1024 65.444 89.4825 68.8172V68.8324Z" fill="#644319"/>
<path d="M72.7561 68.8324C71.376 72.2208 55.0096 65.3832 56.3897 61.9947C57.7698 58.6063 62.5552 57.3907 67.0706 59.2749C71.586 61.159 74.1362 65.444 72.7561 68.8172V68.8324Z" fill="#644319"/>
<path d="M7.81567 132.286C7.81567 132.286 74.7062 158.543 156.073 132.286C156.073 132.286 147.027 183.037 137.997 191.789C137.997 191.789 90.9826 207.546 25.8922 191.789C25.8922 191.789 13.2311 176.032 7.81567 132.286Z" fill="#F19A65" stroke="#644319" stroke-width="3" stroke-linecap="round" stroke-linejoin="round"/>
<path d="M99.2183 222.801C102.369 218.957 107.229 216.131 111.924 214.824C116.755 213.487 121.81 213.791 126.536 215.432C131.486 217.164 136.901 219.626 140.562 223.546C146.127 229.502 142.542 233.149 135.821 233.787C130.016 234.334 124.18 233.696 118.375 233.65C114.475 233.605 110.604 233.833 106.719 233.331C100.958 232.602 93.7578 229.457 99.2183 222.817V222.801Z" fill="#644319"/>
<path d="M61.2051 221.054C58.0548 217.21 53.1944 214.383 48.499 213.077C43.8036 211.77 38.6132 212.043 33.8878 213.684C28.9374 215.417 23.5219 217.878 19.8616 221.798C14.2962 227.755 17.8815 231.402 24.602 232.04C30.4075 232.587 36.243 231.949 42.0485 231.903C45.9488 231.857 49.8191 232.085 53.7045 231.584C59.4649 230.855 66.6655 227.709 61.2051 221.069V221.054Z" fill="#644319"/>
<path d="M97.8381 96.867C102.668 96.867 106.584 91.9893 106.584 85.9723C106.584 79.9554 102.668 75.0776 97.8381 75.0776C93.008 75.0776 89.0924 79.9554 89.0924 85.9723C89.0924 91.9893 93.008 96.867 97.8381 96.867Z" fill="#644319"/>
<path d="M62.4802 96.867C67.3104 96.867 71.226 91.9893 71.226 85.9723C71.226 79.9554 67.3104 75.0776 62.4802 75.0776C57.6501 75.0776 53.7345 79.9554 53.7345 85.9723C53.7345 91.9893 57.6501 96.867 62.4802 96.867Z" fill="#644319"/>
<path d="M26.9723 91.564C26.2072 92.9619 26.3272 94.3902 26.3572 95.9097C26.3722 97.3532 26.2222 98.8423 26.4172 100.271C26.6422 102.003 27.9323 103.431 29.7475 103.37C31.2926 103.325 32.3877 102.079 33.3778 101.38C34.6079 100.514 35.823 99.6324 36.9631 98.66C37.0231 98.6144 38.0882 97.9154 38.0882 97.8698C38.1182 98.1737 36.5281 97.5052 36.6481 97.4596L36.5881 97.3684C36.6481 97.4444 36.6931 97.5355 36.7381 97.6115C36.8131 97.7483 36.8881 97.9002 36.9631 98.037C37.5631 99.1918 38.1932 100.407 38.9283 101.471C39.7083 102.611 40.3234 104.054 41.7035 104.571C43.7137 105.346 45.1988 103.31 46.0388 101.76C46.3689 101.167 46.6539 100.559 46.8639 99.9211C46.9689 99.5869 47.0439 99.2526 47.1489 98.9183C47.1789 98.8119 47.2089 98.6904 47.2539 98.584C47.1039 98.9791 47.494 98.2801 47.1639 98.6752C47.944 97.7331 48.079 96.3807 47.1639 95.4539C46.3689 94.6485 44.7637 94.4966 43.9837 95.4539C43.1136 96.5175 42.9186 97.6571 42.4535 98.9031C42.6036 98.4776 42.4085 98.9791 42.3485 99.0702C42.2135 99.3437 42.0635 99.602 41.9135 99.8604C41.7935 100.073 41.6435 100.255 41.5235 100.468C41.6285 100.316 41.5985 100.331 41.4335 100.529C41.6285 100.407 41.6285 100.407 41.4335 100.529H43.6987C43.2786 100.301 43.9237 100.924 43.6086 100.438C43.4736 100.24 43.3686 100.043 43.2486 99.83C42.9636 99.3437 42.6186 98.9031 42.3335 98.4168C41.7635 97.414 41.2234 96.3959 40.6684 95.3779C40.0083 94.1927 38.9433 93.3266 37.5331 93.3874C36.123 93.4481 34.9979 94.3902 33.9628 95.2411C33.7828 95.3931 33.5878 95.545 33.4078 95.7122C33.1828 95.8945 33.1828 95.9097 33.3628 95.7578C33.2428 95.8489 33.1078 95.9401 32.9878 96.0313C32.4477 96.4263 31.8927 96.8214 31.3376 97.2165C30.7526 97.6419 30.1675 98.0674 29.6275 98.5536C29.5825 98.5992 29.1324 99.0246 29.3125 98.8119C29.0274 98.9639 29.0424 98.9639 29.3725 98.8575C29.8975 98.6296 30.3625 98.8423 30.7826 99.4805C30.8726 99.754 30.8876 99.7692 30.8126 99.5109C30.8426 99.7692 30.8426 99.8148 30.8426 99.6476C30.8426 99.3893 30.8426 99.1158 30.8426 98.8575C30.8426 98.1889 30.8426 97.5356 30.8426 96.867C30.8426 96.1984 30.8276 95.545 30.7976 94.8917C30.7976 94.6333 30.7826 94.375 30.7976 94.1015C30.8126 93.8128 30.8126 93.752 30.7976 93.9496C30.8726 93.6761 30.8876 93.6305 30.8426 93.828C32.2377 91.2601 28.3674 88.9505 26.9573 91.5336L26.9723 91.564Z" fill="#F19A65"/>
<path d="M111.789 94.466C112.119 95.7424 112.344 96.9579 113.004 98.1128C113.439 98.8725 113.589 99.2372 113.769 100.073C114.175 102.003 115.195 104.312 117.505 104.267C119.665 104.236 120.925 102.2 121.78 100.453C122.17 99.6626 122.575 98.8573 122.89 98.0216C123.1 97.4746 123.295 96.9428 123.505 96.4109C123.625 96.1374 123.715 95.8639 123.82 95.5752C123.88 95.4233 123.88 95.4233 123.82 95.5448C123.97 95.3017 123.97 95.2713 123.82 95.4537L122.23 96.1222C122.08 96.1222 121.945 96.1222 121.81 96.0463C121.645 95.9703 121.645 95.9855 121.825 96.0766L121.645 95.9399C121.735 96.0311 121.825 96.1222 121.9 96.2134C121.69 95.9703 121.87 96.1678 121.96 96.3198C122.05 96.4717 122.14 96.6237 122.23 96.7756C122.575 97.3834 122.845 98.0368 123.145 98.675C123.58 99.5867 124.165 100.407 124.675 101.273C124.405 100.802 124.69 101.319 124.75 101.44C124.855 101.729 124.99 102.094 125.155 102.367C125.44 102.899 125.875 103.37 126.386 103.674C127.676 104.434 129.281 104.145 130.226 102.99C130.841 102.231 131.111 101.167 131.486 100.27C131.891 99.2979 131.981 98.052 132.356 97.3226C132.941 96.2134 133.481 95.1498 133.481 93.843C133.481 90.9104 128.966 90.9104 128.981 93.843C128.981 94.0861 128.951 94.1165 128.906 94.1925C128.741 94.5116 128.561 94.8155 128.396 95.1346C127.991 95.9399 127.781 96.7452 127.601 97.6265C127.436 98.4015 127.121 98.9789 126.836 99.7234C126.776 99.8905 126.716 100.058 126.641 100.24C126.536 100.514 126.686 100.164 126.686 100.164L126.596 100.331L129.116 100.255C129.116 100.255 128.846 99.7234 128.951 99.9665C129.056 100.21 128.891 99.8146 128.876 99.7538C128.786 99.5107 128.696 99.2676 128.576 99.0396C128.426 98.7357 128.246 98.4622 128.081 98.1735C127.691 97.5505 127.301 96.9579 126.986 96.2894C126.551 95.3625 126.161 94.4204 125.545 93.5999C124.585 92.2779 122.77 90.88 121.09 91.8677C120.28 92.3539 119.875 93.2656 119.545 94.1165C119.5 94.2229 119.245 94.9066 119.395 94.5572C119.185 95.0738 118.96 95.56 118.765 96.0918C118.435 97.0187 118 97.9304 117.52 98.7965C117.4 99.0092 117.28 99.2372 117.145 99.4499C117.07 99.5714 116.995 99.6778 116.92 99.7994C116.98 99.7234 117.16 99.4651 116.92 99.7994C116.89 99.8298 116.68 100.042 116.68 100.042C116.68 99.9361 117.175 99.7538 117.175 99.7538C117.325 99.7082 117.49 99.7082 117.655 99.7234C117.925 99.7538 118.735 100.346 118.345 100.012C118.615 100.24 118.555 100.27 118.435 100.088C118.165 99.6778 118.51 100.362 118.435 100.088C118.345 99.8298 118.27 99.5715 118.21 99.2979C118.105 98.8421 118.045 98.3863 117.91 97.9304C117.655 97.0643 117.175 96.3654 116.77 95.5752C116.47 94.9826 116.32 94.0102 116.14 93.2504C115.42 90.409 111.084 91.6094 111.804 94.466H111.789Z" fill="#F19A65"/>
<path d="M66.9806 88.1601C68.5464 88.1601 69.8158 86.8744 69.8158 85.2883C69.8158 83.7023 68.5464 82.4165 66.9806 82.4165C65.4147 82.4165 64.1453 83.7023 64.1453 85.2883C64.1453 86.8744 65.4147 88.1601 66.9806 88.1601Z" fill="white"/>
<path d="M102.324 88.1601C103.889 88.1601 105.159 86.8744 105.159 85.2883C105.159 83.7023 103.889 82.4165 102.324 82.4165C100.758 82.4165 99.4883 83.7023 99.4883 85.2883C99.4883 86.8744 100.758 88.1601 102.324 88.1601Z" fill="white"/>
<path d="M52.1293 110.36C52.1293 110.36 67.2956 129.034 80.2267 111.819" stroke="#644319" stroke-width="3" stroke-miterlimit="10" stroke-linecap="round"/>
<path d="M81.8168 110.36C81.8168 110.36 96.9831 129.034 109.914 111.819" stroke="#644319" stroke-width="3" stroke-miterlimit="10" stroke-linecap="round"/>
<path d="M71.2109 119.659C71.3459 120.465 82.5219 141.145 91.7176 120.373" stroke="#644319" stroke-width="3" stroke-miterlimit="10" stroke-linecap="round"/>
<path d="M43.6386 196.302C43.6386 196.302 47.884 210.372 53.5394 215.645L43.6386 196.302Z" fill="white"/>
<path d="M43.6386 196.302C43.6386 196.302 47.884 210.372 53.5394 215.645" stroke="#644319" stroke-width="3" stroke-linecap="round" stroke-linejoin="round"/>
<path d="M61.9551 197.882C61.9551 197.882 62.7202 209.415 66.9656 215.645L61.9551 197.882Z" fill="white"/>
<path d="M61.9551 197.882C61.9551 197.882 62.7202 209.415 66.9656 215.645" stroke="#644319" stroke-width="3" stroke-linecap="round" stroke-linejoin="round"/>
<path d="M114.355 197.73C114.355 197.73 110.109 210.752 104.454 215.629L114.355 197.73Z" fill="white"/>
<path d="M114.355 197.73C114.355 197.73 110.109 210.752 104.454 215.629" stroke="#644319" stroke-width="3" stroke-linecap="round" stroke-linejoin="round"/>
<path d="M96.038 199.31C96.038 199.31 95.2729 209.916 91.0276 215.645L96.038 199.31Z" fill="white"/>
<path d="M96.038 199.31C96.038 199.31 95.2729 209.916 91.0276 215.645" stroke="#644319" stroke-width="3" stroke-linecap="round" stroke-linejoin="round"/>
<path d="M78.2915 199.888V215.645" stroke="#644319" stroke-width="3" stroke-linecap="round" stroke-linejoin="round"/>
<path d="M78.4116 26.9251C79.1616 16.304 84.8021 4.40642 96.3531 3.05408C106.554 1.86889 116.035 6.8072 123.94 12.8547C130.526 17.8994 139.962 25.2385 147.597 17.5195C143.817 21.3486 140.802 25.0865 135.881 27.6697C131.516 29.9641 126.641 31.1493 121.705 30.9821C114.205 30.7086 107.454 26.2869 100.133 24.889C95.768 24.0533 87.7123 23.3239 87.7123 29.8577" fill="#F19A65"/>
<path d="M78.4116 26.9251C79.1616 16.304 84.8021 4.40642 96.3531 3.05408C106.554 1.86889 116.035 6.8072 123.94 12.8547C130.526 17.8994 139.962 25.2385 147.597 17.5195C143.817 21.3486 140.802 25.0865 135.881 27.6697C131.516 29.9641 126.641 31.1493 121.705 30.9821C114.205 30.7086 107.454 26.2869 100.133 24.889C95.768 24.0533 87.7123 23.3239 87.7123 29.8577" stroke="#644319" stroke-width="3" stroke-linecap="round" stroke-linejoin="round"/>
<path d="M78.4115 26.9251C77.6615 16.304 72.021 4.40642 60.47 3.05408C50.2692 1.86889 40.7884 6.8072 32.8827 12.8547C26.2972 17.8994 16.8614 25.2385 9.22577 17.5195C13.0061 21.3486 16.0213 25.0865 20.9417 27.6697C25.3071 29.9641 30.1825 31.1493 35.1179 30.9821C42.6186 30.7086 49.3691 26.2869 56.6897 24.889C61.0551 24.0533 69.1108 23.3239 69.1108 29.8577" fill="#F19A65"/>
<path d="M78.4115 26.9251C77.6615 16.304 72.021 4.40642 60.47 3.05408C50.2692 1.86889 40.7884 6.8072 32.8827 12.8547C26.2972 17.8994 16.8614 25.2385 9.22577 17.5195C13.0061 21.3486 16.0213 25.0865 20.9417 27.6697C25.3071 29.9641 30.1825 31.1493 35.1179 30.9821C42.6186 30.7086 49.3691 26.2869 56.6897 24.889C61.0551 24.0533 69.1108 23.3239 69.1108 29.8577" stroke="#644319" stroke-width="3" stroke-linecap="round" stroke-linejoin="round"/>
<path d="M7.83065 133.274C7.83065 133.274 -9.25578 160.488 16.3814 170.516C21.3768 172.476 26.6572 172.795 31.8777 173.722C37.7581 174.771 43.7136 175.834 49.6841 174.771C53.1494 174.148 56.7347 171.96 55.2796 167.903C53.0444 161.734 45.8138 162.691 40.4134 161.977C38.9282 161.779 27.0773 160.807 28.3524 157.616" fill="#F19A65"/>
<path d="M7.83065 133.274C7.83065 133.274 -9.25578 160.488 16.3814 170.516C21.3768 172.476 26.6572 172.795 31.8777 173.722C37.7581 174.771 43.7136 175.834 49.6841 174.771C53.1494 174.148 56.7347 171.96 55.2796 167.903C53.0444 161.734 45.8138 162.691 40.4134 161.977C38.9282 161.779 27.0773 160.807 28.3524 157.616" stroke="#644319" stroke-width="3" stroke-miterlimit="10" stroke-linecap="round"/>
<path d="M127.406 146.721C127.406 146.721 149.022 170.41 165.134 147.876C168.284 143.485 169.934 138.394 172.154 133.517C174.66 128.016 177.195 122.47 177.705 116.347C177.99 112.806 176.82 108.719 172.574 109.114C166.124 109.722 165.179 117.061 163.124 122.151C162.554 123.564 158.593 134.9 155.878 132.848" fill="#F19A65"/>
<path d="M127.406 146.721C127.406 146.721 149.022 170.41 165.134 147.876C168.284 143.485 169.934 138.394 172.154 133.517C174.66 128.016 177.195 122.47 177.705 116.347C177.99 112.806 176.82 108.719 172.574 109.114C166.124 109.722 165.179 117.061 163.124 122.151C162.554 123.564 158.593 134.9 155.878 132.848" stroke="#644319" stroke-width="3" stroke-miterlimit="10" stroke-linecap="round"/>
<path d="M79.4616 142.786C79.4616 142.786 51.6043 128.67 58.5649 152.191C58.5649 152.191 63.2152 171.002 79.4616 142.786Z" fill="#644319"/>
<path d="M79.4616 142.786C79.4616 142.786 107.319 128.67 100.358 152.191C100.358 152.191 95.708 171.002 79.4616 142.786Z" fill="#644319"/>
</g>
<defs>
<clipPath id="clip0_731_4561">
<rect width="180" height="234" fill="white"/>
</clipPath>
</defs>
</svg>
