<svg width="219" height="266" viewBox="0 0 219 266" fill="none" xmlns="http://www.w3.org/2000/svg">
<g clip-path="url(#clip0_3116_13578)">
<path d="M158.021 29.0172C168.707 31.1341 181.232 31.9085 189.888 39.2745C199.764 47.6903 199.998 62.1297 199.374 74.7792C197.831 106.171 195.635 137.631 189.436 168.489C185.785 186.663 180.657 204.837 170.822 220.774C166.3 228.088 160.627 235.041 152.928 239.275C137.461 247.776 115.556 246.365 98.5808 245.35C88.2894 244.73 77.1045 244.369 67.846 239.275C60.1506 235.041 54.4838 228.088 49.9683 220.774C40.1476 204.837 35.0356 186.663 31.4012 168.489C25.2296 137.631 23.0615 106.171 21.5463 74.7792C20.9334 62.1297 21.1804 47.6731 31.0634 39.2745C39.8464 31.8053 51.8573 29.3442 62.9743 27.8814C84.5382 25.0417 106.909 23.6132 128.849 25.1449C138.642 25.8333 148.401 27.0897 158.039 29.0172H158.021Z" fill="white" stroke="#644319" stroke-width="4.8" stroke-miterlimit="10"/>
<path d="M118.654 116.479C118.657 110.868 98.3825 110.868 98.38 116.479C98.3775 122.089 102.911 126.633 108.512 126.633C114.114 126.633 118.652 122.089 118.654 116.479Z" fill="#644319"/>
<path d="M119.443 66.7035C121.218 62.9523 139.541 71.6546 137.766 75.4059C135.991 79.1571 130.447 80.2491 125.391 77.8508C120.336 75.4525 117.668 70.4547 119.442 66.7207L119.443 66.7035Z" fill="#644319"/>
<path d="M100.262 67.6541C98.8796 63.7397 79.7632 70.5062 81.1453 74.4206C82.5274 78.3351 87.9305 79.9931 93.2045 78.1289C98.4784 76.2647 101.644 71.5686 100.261 67.6713L100.262 67.6541Z" fill="#644319"/>
<path d="M27.3789 147.778C27.3789 147.778 102.184 179.572 195.389 149.833C195.389 149.833 185.003 207.315 174.656 217.228C174.656 217.228 120.801 235.075 46.259 217.228C46.259 217.228 33.5594 197.327 27.3789 147.778Z" fill="#F19A65" stroke="#644319" stroke-width="4.8" stroke-linecap="round" stroke-linejoin="round"/>
<path d="M130.225 252.354C133.835 248 139.404 244.798 144.782 243.318C150.315 241.804 156.105 242.148 161.516 244.007C167.185 245.969 173.387 248.757 177.577 253.197C183.948 259.943 179.84 264.074 172.142 264.797C165.493 265.416 158.81 264.694 152.161 264.642C147.693 264.59 143.26 264.848 138.811 264.28C132.213 263.454 123.968 259.892 130.225 252.371L130.225 252.354Z" fill="#644319"/>
<path d="M86.6887 250.374C83.0825 246.02 77.5172 242.819 72.1401 241.339C66.763 239.859 60.818 240.169 55.4051 242.027C49.7343 243.989 43.5306 246.777 39.3364 251.218C32.9591 257.964 37.0636 262.095 44.7606 262.817C51.4095 263.437 58.0934 262.714 64.7426 262.663C69.2098 262.611 73.6425 262.869 78.0927 262.301C84.6907 261.475 92.9394 257.913 86.6887 250.392L86.6887 250.374Z" fill="#644319"/>
<path d="M128.708 109.715C134.24 109.715 138.727 104.19 138.73 97.3749C138.733 90.5598 134.251 85.0352 128.719 85.0352C123.187 85.0352 118.7 90.5598 118.697 97.3749C118.694 104.19 123.176 109.715 128.708 109.715Z" fill="#644319"/>
<path d="M88.2119 109.715C93.744 109.715 98.2311 104.19 98.2341 97.3754C98.2371 90.5603 93.7549 85.0356 88.2228 85.0356C82.6907 85.0356 78.2036 90.5603 78.2006 97.3754C78.1976 104.19 82.6798 109.715 88.2119 109.715Z" fill="#644319"/>
<path d="M47.5458 103.709C46.6688 105.292 46.8056 106.91 46.8392 108.631C46.8556 110.266 46.6831 111.953 46.9057 113.571C47.1626 115.533 48.6394 117.15 50.7184 117.081C52.4881 117.03 53.743 115.619 54.8773 114.827C56.2866 113.846 57.6788 112.848 58.985 111.746C59.0538 111.695 60.274 110.903 60.274 110.851C60.3082 111.196 58.4874 110.438 58.6248 110.387L58.5561 110.283C58.6248 110.369 58.6763 110.473 58.7278 110.559C58.8137 110.714 58.8995 110.886 58.9853 111.041C59.672 112.349 60.393 113.725 61.2344 114.93C62.1272 116.221 62.831 117.856 64.4114 118.441C66.7133 119.319 68.4153 117.013 69.3782 115.257C69.7565 114.586 70.0833 113.898 70.3241 113.175C70.4446 112.796 70.5306 112.417 70.6511 112.039C70.6855 111.918 70.7199 111.781 70.7715 111.66C70.5995 112.108 71.0466 111.316 70.6684 111.763C71.5623 110.696 71.7176 109.165 70.67 108.115C69.7598 107.203 67.9215 107.031 67.0275 108.115C66.0305 109.32 65.8066 110.61 65.2733 112.022C65.4453 111.54 65.2217 112.108 65.153 112.211C64.9982 112.521 64.8262 112.813 64.6543 113.106C64.5167 113.347 64.3448 113.553 64.2073 113.794C64.3276 113.622 64.2932 113.639 64.1042 113.863C64.3276 113.725 64.3276 113.725 64.1042 113.863H66.6985C66.2176 113.605 66.9561 114.311 66.5955 113.76C66.441 113.536 66.3208 113.312 66.1835 113.071C65.8573 112.521 65.4623 112.022 65.1361 111.471C64.4837 110.335 63.8657 109.182 63.2305 108.029C62.4751 106.686 61.2557 105.705 59.6406 105.774C58.0255 105.843 56.7364 106.91 55.5505 107.874C55.3442 108.046 55.1208 108.218 54.9145 108.407C54.6567 108.614 54.6567 108.631 54.863 108.459C54.7255 108.562 54.5708 108.666 54.4333 108.769C53.8146 109.216 53.1786 109.664 52.5427 110.111C51.8724 110.593 51.2022 111.075 50.5834 111.626C50.5318 111.677 50.0162 112.159 50.2224 111.918C49.8959 112.09 49.9131 112.09 50.2911 111.97C50.8926 111.712 51.4251 111.953 51.9059 112.676C52.0088 112.985 52.026 113.003 51.9402 112.71C51.9745 113.003 51.9744 113.054 51.9745 112.865C51.9747 112.572 51.9748 112.263 51.9749 111.97C51.9753 111.213 51.9756 110.473 51.9759 109.715C51.9763 108.958 51.9594 108.218 51.9254 107.478C51.9255 107.186 51.9085 106.893 51.9258 106.583C51.9431 106.256 51.9431 106.187 51.9258 106.411C52.0119 106.101 52.0291 106.05 51.9774 106.273C53.5766 103.365 49.145 100.749 47.5286 103.675L47.5458 103.709Z" fill="#F19A65"/>
<path d="M144.688 106.996C145.065 108.442 145.322 109.818 146.078 111.126C146.575 111.987 146.747 112.4 146.953 113.347C147.416 115.532 148.583 118.148 151.229 118.097C153.703 118.062 155.147 115.756 156.127 113.777C156.575 112.882 157.039 111.97 157.4 111.023C157.641 110.404 157.865 109.801 158.105 109.199C158.243 108.889 158.346 108.579 158.467 108.252C158.535 108.08 158.535 108.08 158.467 108.218C158.639 107.942 158.639 107.908 158.467 108.115L156.645 108.872C156.473 108.872 156.319 108.872 156.164 108.786C155.975 108.7 155.975 108.717 156.181 108.82L155.975 108.665C156.078 108.769 156.181 108.872 156.267 108.975C156.027 108.7 156.233 108.923 156.336 109.096C156.439 109.268 156.542 109.44 156.645 109.612C157.04 110.3 157.349 111.04 157.692 111.763C158.19 112.796 158.859 113.725 159.443 114.706C159.134 114.173 159.46 114.758 159.529 114.895C159.649 115.222 159.803 115.635 159.992 115.945C160.319 116.548 160.817 117.081 161.401 117.425C162.878 118.286 164.716 117.959 165.799 116.651C166.504 115.79 166.814 114.586 167.244 113.57C167.708 112.469 167.812 111.058 168.242 110.231C168.913 108.975 169.532 107.77 169.532 106.29C169.534 102.969 164.362 102.969 164.378 106.29C164.378 106.566 164.343 106.6 164.292 106.686C164.103 107.048 163.896 107.392 163.707 107.753C163.243 108.665 163.002 109.577 162.795 110.576C162.606 111.453 162.245 112.107 161.918 112.951C161.849 113.14 161.78 113.329 161.694 113.536C161.574 113.846 161.746 113.45 161.746 113.45L161.643 113.639L164.529 113.553C164.529 113.553 164.22 112.951 164.34 113.226C164.461 113.501 164.272 113.054 164.255 112.985C164.152 112.71 164.049 112.434 163.911 112.176C163.74 111.832 163.534 111.522 163.345 111.195C162.898 110.49 162.452 109.818 162.092 109.061C161.594 108.011 161.147 106.944 160.443 106.015C159.345 104.518 157.266 102.934 155.341 104.053C154.413 104.604 153.949 105.636 153.571 106.6C153.519 106.721 153.227 107.495 153.399 107.099C153.158 107.684 152.9 108.235 152.676 108.837C152.298 109.887 151.799 110.92 151.249 111.901C151.111 112.142 150.974 112.4 150.819 112.641C150.733 112.779 150.647 112.899 150.561 113.037C150.836 112.658 150.63 112.951 150.561 113.037C150.527 113.071 150.286 113.312 150.286 113.312C150.286 113.192 150.853 112.985 150.853 112.985C151.025 112.933 151.214 112.933 151.403 112.951C151.712 112.985 152.64 113.656 152.193 113.278C152.502 113.536 152.434 113.57 152.296 113.364C152.382 113.673 151.987 112.899 152.296 113.364C152.193 113.071 152.107 112.779 152.039 112.469C151.919 111.952 151.85 111.436 151.696 110.92C151.404 109.939 150.855 109.147 150.391 108.252C150.048 107.581 149.877 106.48 149.671 105.619C148.848 102.401 143.882 103.76 144.705 106.996H144.688Z" fill="#F19A65"/>
<path d="M93.3708 99.8541C95.1645 99.8541 96.6192 98.3977 96.62 96.6011C96.6208 94.8045 95.1674 93.3481 93.3737 93.3481C91.58 93.3481 90.1253 94.8045 90.1245 96.6011C90.1237 98.3977 91.5772 99.8541 93.3708 99.8541Z" fill="white"/>
<path d="M87.205 94.9432C88.0805 94.9432 88.7905 94.2323 88.7909 93.3554C88.7913 92.4785 88.0819 91.7676 87.2064 91.7676C86.3308 91.7676 85.6208 92.4785 85.6204 93.3554C85.62 94.2323 86.3294 94.9432 87.205 94.9432Z" fill="white"/>
<path d="M127.097 95.0819C127.972 95.0819 128.682 94.371 128.683 93.4941C128.683 92.6171 127.973 91.9062 127.098 91.9062C126.222 91.9062 125.512 92.6171 125.512 93.4941C125.512 94.371 126.221 95.0819 127.097 95.0819Z" fill="white"/>
<path d="M133.85 99.8545C135.644 99.8545 137.099 98.3981 137.1 96.6016C137.1 94.805 135.647 93.3486 133.853 93.3486C132.06 93.3486 130.605 94.805 130.604 96.6016C130.603 98.3981 132.057 99.8545 133.85 99.8545Z" fill="white"/>
<path d="M125.642 142.521C125.642 142.521 108.281 121.37 93.4616 140.869" stroke="#644319" stroke-width="4.8" stroke-miterlimit="10" stroke-linecap="round"/>
<path d="M66.582 222.339C66.582 222.339 71.4373 238.276 77.912 244.248Z" fill="white"/>
<path d="M66.582 222.339C66.582 222.339 71.4373 238.276 77.912 244.248" stroke="#644319" stroke-width="4.8" stroke-linecap="round" stroke-linejoin="round"/>
<path d="M87.5596 224.129C87.5596 224.129 88.43 237.191 93.2892 244.248Z" fill="white"/>
<path d="M87.5596 224.129C87.5596 224.129 88.43 237.191 93.2892 244.248" stroke="#644319" stroke-width="4.8" stroke-linecap="round" stroke-linejoin="round"/>
<path d="M147.574 223.957C147.574 223.957 142.705 238.706 136.225 244.231Z" fill="white"/>
<path d="M147.574 223.957C147.574 223.957 142.705 238.706 136.225 244.231" stroke="#644319" stroke-width="4.8" stroke-linecap="round" stroke-linejoin="round"/>
<path d="M126.596 225.746C126.596 225.746 125.714 237.76 120.848 244.248Z" fill="white"/>
<path d="M126.596 225.746C126.596 225.746 125.714 237.76 120.848 244.248" stroke="#644319" stroke-width="4.8" stroke-linecap="round" stroke-linejoin="round"/>
<path d="M106.269 226.4L106.261 244.249" stroke="#644319" stroke-width="4.8" stroke-linecap="round" stroke-linejoin="round"/>
<path d="M106.494 30.4969C107.358 18.4669 113.824 4.99133 127.055 3.45962C138.739 2.11722 149.595 7.71055 158.646 14.5602C166.187 20.274 176.99 28.5866 185.739 19.8438C181.407 24.1807 177.952 28.4145 172.315 31.3402C167.314 33.9389 161.73 35.2813 156.077 35.092C147.487 34.7822 139.757 29.7741 131.373 28.1907C126.374 27.2442 117.148 26.4181 117.145 33.8185" fill="#F19A65"/>
<path d="M106.494 30.4969C107.358 18.4669 113.824 4.99133 127.055 3.45962C138.739 2.11722 149.595 7.71055 158.646 14.5602C166.187 20.274 176.99 28.5866 185.739 19.8438C181.407 24.1807 177.952 28.4145 172.315 31.3402C167.314 33.9389 161.73 35.2813 156.077 35.092C147.487 34.7822 139.757 29.7741 131.373 28.1907C126.374 27.2442 117.148 26.4181 117.145 33.8185" stroke="#644319" stroke-width="4.8" stroke-linecap="round" stroke-linejoin="round"/>
<path d="M106.493 30.4969C105.639 18.4669 99.1852 4.99133 85.9562 3.45962C74.2735 2.11722 63.4123 7.71055 54.3547 14.5602C46.8095 20.274 35.9987 28.5866 27.2573 19.8438C31.5851 24.1807 35.0367 28.4145 40.6709 31.3402C45.6695 33.9389 51.2529 35.2813 56.9056 35.092C65.4965 34.7822 73.2303 29.7741 81.6155 28.1907C86.6158 27.2442 95.8425 26.4181 95.8392 33.8185" fill="#F19A65"/>
<path d="M106.493 30.4969C105.639 18.4669 99.1852 4.99133 85.9562 3.45962C74.2735 2.11722 63.4123 7.71055 54.3547 14.5602C46.8095 20.274 35.9987 28.5866 27.2573 19.8438C31.5851 24.1807 35.0367 28.4145 40.6709 31.3402C45.6695 33.9389 51.2529 35.2813 56.9056 35.092C65.4965 34.7822 73.2303 29.7741 81.6155 28.1907C86.6158 27.2442 95.8425 26.4181 95.8392 33.8185" stroke="#644319" stroke-width="4.8" stroke-linecap="round" stroke-linejoin="round"/>
<path d="M48.0209 163.687C48.0209 163.687 22.0387 189.352 48.1029 206.995C53.18 210.44 58.9921 212.145 64.5828 214.507C70.8793 217.172 77.2556 219.873 84.1891 220.229C88.2147 220.429 92.7719 218.933 92.1785 214.081C91.2511 206.697 82.9384 205.9 77.0927 203.727C75.4855 203.129 62.5064 199.017 64.7401 195.821" fill="#F19A65"/>
<path d="M48.0209 163.687C48.0209 163.687 22.0387 189.352 48.1029 206.995C53.18 210.44 58.9921 212.145 64.5828 214.507C70.8793 217.172 77.2556 219.873 84.1891 220.229C88.2147 220.429 92.7719 218.933 92.1785 214.081C91.2511 206.697 82.9384 205.9 77.0927 203.727C75.4855 203.129 62.5064 199.017 64.7401 195.821" stroke="#644319" stroke-width="4.8" stroke-miterlimit="10" stroke-linecap="round"/>
<path d="M107.638 161.725C107.638 161.725 75.7394 145.736 83.6998 172.378C83.6998 172.378 89.0166 193.684 107.638 161.725Z" fill="#644319"/>
<path d="M107.638 161.725C107.638 161.725 139.55 145.736 131.567 172.378C131.567 172.378 126.231 193.684 107.638 161.725Z" fill="#644319"/>
<ellipse cx="134.833" cy="110.01" rx="6.52325" ry="2.44622" transform="rotate(1.47996 134.833 110.01)" fill="#87C5FF"/>
<ellipse cx="83.4794" cy="108.683" rx="6.52325" ry="2.44622" transform="rotate(1.47996 83.4794 108.683)" fill="#87C5FF"/>
<path d="M173.01 164.511C173.01 164.511 198.993 190.176 172.928 207.819C167.851 211.264 162.039 212.97 156.448 215.331C150.152 217.996 143.776 220.697 136.842 221.053C132.817 221.253 128.259 219.757 128.853 214.905C129.78 207.521 138.093 206.724 143.939 204.552C145.546 203.953 158.525 199.841 156.291 196.645" fill="#F19A65"/>
<path d="M173.01 164.511C173.01 164.511 198.993 190.176 172.928 207.819C167.851 211.264 162.039 212.97 156.448 215.331C150.152 217.996 143.776 220.697 136.842 221.053C132.817 221.253 128.259 219.757 128.853 214.905C129.78 207.521 138.093 206.724 143.939 204.552C145.546 203.953 158.525 199.841 156.291 196.645" stroke="#644319" stroke-width="4.8" stroke-miterlimit="10" stroke-linecap="round"/>
</g>
<defs>
<clipPath id="clip0_3116_13578">
<rect width="217.757" height="265.038" fill="white" transform="matrix(1 0 -0.000443681 1 0.634766 0)"/>
</clipPath>
</defs>
</svg>
