<svg width="299" height="188" viewBox="0 0 299 188" fill="none" xmlns="http://www.w3.org/2000/svg">
<path d="M2 140.084H297" stroke="#644319" stroke-width="3" stroke-miterlimit="10" stroke-linecap="round"/>
<path d="M75.7499 151.021C70.0402 122.649 67.9784 93.6442 66.551 64.7976C65.9166 53.2272 66.2338 39.9134 75.2741 32.147C83.3628 25.3315 94.465 22.9541 104.774 21.6861C124.758 19.1501 145.376 17.7236 165.519 19.1501C174.559 19.7841 183.599 20.8936 192.481 22.6371C202.314 24.539 213.892 25.3315 221.822 32.147C230.863 39.9134 231.18 53.2272 230.546 64.7976C229.118 93.6442 227.056 122.649 221.347 151.021" fill="white"/>
<path d="M75.7499 151.021C70.0402 122.649 67.9784 93.6442 66.551 64.7976C65.9166 53.2272 66.2338 39.9134 75.2741 32.147C83.3628 25.3315 94.465 22.9541 104.774 21.6861C124.758 19.1501 145.376 17.7236 165.519 19.1501C174.559 19.7841 183.599 20.8936 192.481 22.6371C202.314 24.539 213.892 25.3315 221.822 32.147C230.863 39.9134 231.18 53.2272 230.546 64.7976C229.118 93.6442 227.056 122.649 221.347 151.021" stroke="#644319" stroke-width="3" stroke-miterlimit="10"/>
<path d="M164.25 103.154C164.25 97.9238 145.535 97.9238 145.535 103.154C145.535 108.385 149.659 112.506 154.892 112.506C160.126 112.506 164.25 108.226 164.25 103.154Z" fill="#644319"/>
<path d="M164.726 67.6504C166.153 71.1373 183.441 64.0049 182.013 60.5179C180.586 57.031 175.511 55.763 170.753 57.665C165.995 59.7254 163.298 64.1634 164.726 67.6504Z" fill="#644319"/>
<path d="M146.963 67.6504C145.535 71.1373 128.248 64.0049 129.675 60.5179C131.102 57.031 136.178 55.763 140.936 57.665C145.694 59.7254 148.39 64.1634 146.963 67.6504Z" fill="#644319"/>
<path d="M173.449 96.9729C178.529 96.9729 182.648 91.8637 182.648 85.5611C182.648 79.2585 178.529 74.1492 173.449 74.1492C168.369 74.1492 164.25 79.2585 164.25 85.5611C164.25 91.8637 168.369 96.9729 173.449 96.9729Z" fill="#644319"/>
<path d="M136.177 96.9729C141.258 96.9729 145.376 91.8637 145.376 85.5611C145.376 79.2585 141.258 74.1492 136.177 74.1492C131.097 74.1492 126.979 79.2585 126.979 85.5611C126.979 91.8637 131.097 96.9729 136.177 96.9729Z" fill="#644319"/>
<path d="M92.2447 89.8403C91.4517 91.2668 91.6103 92.8518 91.6103 94.4367C91.6103 95.8632 91.4517 97.4482 91.6103 99.0332C91.9275 100.777 93.1963 102.362 95.0995 102.203C96.6855 102.203 97.9544 100.777 98.906 100.143C100.175 99.1917 101.444 98.2407 102.712 97.2897C102.712 97.2897 103.981 96.4972 103.823 96.4972C103.823 96.8142 102.237 96.1802 102.237 96.0217C102.237 96.0217 102.237 96.0217 102.237 95.8632C102.237 96.0217 102.395 96.0217 102.395 96.1802C102.554 96.3387 102.554 96.4972 102.554 96.6557C103.188 97.9237 103.823 99.1917 104.616 100.301C105.409 101.569 106.043 102.996 107.629 103.471C109.691 104.264 111.277 102.203 112.229 100.46C112.546 99.8257 112.863 99.1917 113.022 98.5577C113.18 98.2407 113.18 97.9237 113.339 97.4482C113.339 97.2897 113.339 97.2897 113.497 97.1312C113.339 97.6067 113.815 96.8142 113.339 97.2897C114.132 96.3387 114.29 94.9122 113.339 93.9612C112.546 93.1688 110.801 93.0103 110.008 93.9612C109.057 95.0707 108.898 96.3387 108.422 97.6067C108.581 97.1312 108.422 97.6067 108.264 97.7652C108.105 98.0822 107.946 98.2407 107.788 98.5577C107.629 98.7162 107.471 99.0332 107.312 99.1917C107.471 99.0332 107.471 99.0332 107.153 99.1917C107.312 99.0332 107.312 99.0332 107.153 99.1917C107.946 99.1917 108.739 99.1917 109.532 99.1917C109.057 99.0332 109.691 99.6672 109.374 99.0332C109.215 98.8747 109.057 98.5577 109.057 98.3992C108.739 97.9237 108.422 97.4482 108.105 96.9727C107.471 95.8632 106.995 94.9123 106.36 93.8028C105.726 92.5348 104.457 91.5838 103.03 91.7423C101.602 91.7423 100.333 92.8518 99.2232 93.6443C99.0646 93.8028 98.906 93.9613 98.5888 94.1198C98.2716 94.2783 98.4302 94.2783 98.5888 94.1198C98.4302 94.2783 98.2716 94.2782 98.113 94.4367C97.4786 94.9122 97.0028 95.2292 96.3683 95.7047C95.7339 96.1802 95.0995 96.6557 94.6237 97.1312C94.6237 97.1312 94.1479 97.6067 94.3065 97.4482C93.9893 97.6067 93.9893 97.6067 94.3065 97.4482C94.7823 97.2897 95.4167 97.4482 95.7339 98.0822C95.8925 98.3992 95.8925 98.3992 95.7339 98.0822C95.7339 98.3992 95.7339 98.3992 95.7339 98.2407C95.7339 97.9237 95.7339 97.7652 95.7339 97.4482C95.7339 96.8142 95.7339 96.0217 95.7339 95.3877C95.7339 94.7538 95.7339 93.9613 95.7339 93.3273C95.7339 93.0103 95.7339 92.8518 95.7339 92.5348C95.7339 92.2178 95.7339 92.2178 95.7339 92.3763C95.7339 92.0593 95.8925 92.0593 95.7339 92.2178C97.7958 89.5233 93.6721 87.1458 92.2447 89.8403Z" fill="#F19A65"/>
<path d="M192.957 97.6069C193.274 98.8749 193.591 100.143 194.226 101.411C194.702 102.203 194.86 102.52 195.019 103.471C195.495 105.532 196.446 107.909 198.984 107.909C201.204 107.909 202.632 105.69 203.425 103.947C203.9 103.154 204.218 102.203 204.535 101.411C204.693 100.777 205.011 100.301 205.169 99.6674C205.328 99.3504 205.328 99.0334 205.487 98.8749C205.487 98.7164 205.487 98.7164 205.487 98.8749C205.645 98.5579 205.645 98.5579 205.487 98.7164C204.852 98.8749 204.376 99.1919 203.742 99.3504C203.583 99.3504 203.425 99.3504 203.266 99.1919C203.107 99.0334 203.107 99.1919 203.266 99.1919L203.107 99.0334C203.266 99.1919 203.266 99.1919 203.425 99.3504C203.266 99.0334 203.425 99.3504 203.425 99.5089C203.583 99.6674 203.583 99.8259 203.742 99.9844C204.059 100.618 204.376 101.252 204.693 101.886C205.169 102.837 205.804 103.63 206.28 104.581C205.962 104.105 206.28 104.581 206.28 104.739C206.438 105.056 206.597 105.373 206.755 105.69C207.073 106.166 207.548 106.8 208.024 107.117C209.452 107.909 211.038 107.592 212.148 106.324C212.782 105.532 213.099 104.422 213.417 103.471C213.892 102.52 213.892 101.094 214.368 100.46C215.003 99.3504 215.637 98.2409 215.637 96.8144C215.637 93.803 210.879 93.803 210.879 96.8144C210.879 97.1314 210.879 97.1314 210.879 97.1314C210.72 97.4484 210.562 97.7654 210.403 98.0824C209.927 98.8749 209.769 99.8259 209.61 100.618C209.452 101.411 209.134 102.045 208.817 102.837C208.817 102.996 208.659 103.154 208.659 103.313C208.5 103.63 208.659 103.313 208.659 103.154C208.659 103.154 208.659 103.313 208.5 103.313C209.452 103.313 210.245 103.313 211.196 103.313C211.196 103.313 210.879 102.837 211.038 102.996C211.196 103.313 211.038 102.837 210.879 102.837C210.72 102.52 210.72 102.362 210.562 102.045C210.403 101.728 210.245 101.411 210.086 101.094C209.61 100.46 209.293 99.8259 208.976 99.1919C208.5 98.2409 208.024 97.2899 207.39 96.3389C206.438 94.9124 204.376 93.486 202.632 94.5955C201.839 95.071 201.363 96.0219 201.046 96.9729C201.046 97.1314 200.728 97.7654 200.887 97.4484C200.728 97.9239 200.411 98.5579 200.253 99.0334C199.935 99.9844 199.46 100.935 198.984 101.886C198.825 102.045 198.667 102.362 198.667 102.52C198.667 102.679 198.508 102.837 198.349 102.837L198.032 103.154C198.032 102.996 198.508 102.837 198.508 102.837C198.667 102.837 198.825 102.837 198.984 102.837C199.301 102.837 200.094 103.471 199.777 103.154C200.094 103.471 199.935 103.471 199.935 103.313C199.618 102.837 200.094 103.63 199.935 103.313C199.777 102.996 199.777 102.837 199.618 102.52C199.46 102.045 199.46 101.569 199.301 101.094C198.984 100.143 198.508 99.5089 198.032 98.7164C197.715 98.0824 197.556 97.1314 197.398 96.3389C196.922 93.3275 192.323 94.5955 192.957 97.6069Z" fill="#F19A65"/>
<path d="M140.936 87.78C142.6 87.78 143.949 86.4317 143.949 84.7686C143.949 83.1054 142.6 81.7571 140.936 81.7571C139.271 81.7571 137.922 83.1054 137.922 84.7686C137.922 86.4317 139.271 87.78 140.936 87.78Z" fill="white"/>
<path d="M178.207 87.78C179.871 87.78 181.22 86.4317 181.22 84.7686C181.22 83.1054 179.871 81.7571 178.207 81.7571C176.543 81.7571 175.194 83.1054 175.194 84.7686C175.194 86.4317 176.543 87.78 178.207 87.78Z" fill="white"/>
<path d="M156.161 27.0751C156.954 15.9802 162.981 3.61738 175.194 2.19089C185.979 0.922909 195.971 6.15335 204.376 12.4933C211.355 17.7237 221.347 25.4901 229.436 17.4067C225.471 21.3692 222.298 25.3316 217.065 28.0261C212.465 30.4036 207.231 31.6716 202.156 31.5131C194.226 31.1961 187.089 26.5996 179.317 25.1731C174.718 24.3806 166.153 23.5882 166.153 30.4036" fill="#F19A65"/>
<path d="M156.161 27.0751C156.954 15.9802 162.981 3.61738 175.194 2.19089C185.979 0.922909 195.971 6.15335 204.376 12.4933C211.355 17.7237 221.347 25.4901 229.436 17.4067C225.471 21.3692 222.298 25.3316 217.065 28.0261C212.465 30.4036 207.231 31.6716 202.156 31.5131C194.226 31.1961 187.089 26.5996 179.317 25.1731C174.718 24.3806 166.153 23.5882 166.153 30.4036" stroke="#644319" stroke-width="3" stroke-miterlimit="10" stroke-linecap="round" stroke-linejoin="round"/>
<path d="M156.161 27.0751C155.368 15.9802 149.341 3.61738 137.129 2.19089C126.344 0.922909 116.352 6.15335 107.946 12.4933C100.968 17.7237 90.9759 25.4901 82.8872 17.4067C86.8523 21.3692 90.0243 25.3316 95.2582 28.0261C99.8576 30.4036 105.092 31.6716 110.167 31.5131C118.097 31.1961 125.234 26.5996 133.005 25.1731C137.605 24.3806 146.169 23.5882 146.169 30.4036" fill="#F19A65"/>
<path d="M156.161 27.0751C155.368 15.9802 149.341 3.61738 137.129 2.19089C126.344 0.922909 116.352 6.15335 107.946 12.4933C100.968 17.7237 90.9759 25.4901 82.8872 17.4067C86.8523 21.3692 90.0243 25.3316 95.2582 28.0261C99.8576 30.4036 105.092 31.6716 110.167 31.5131C118.097 31.1961 125.234 26.5996 133.005 25.1731C137.605 24.3806 146.169 23.5882 146.169 30.4036" stroke="#644319" stroke-width="3" stroke-miterlimit="10" stroke-linecap="round" stroke-linejoin="round"/>
<path d="M73.0536 136.915C70.0402 140.56 67.6612 145.156 66.7095 150.07C64.4891 161.957 73.5294 169.248 81.6181 173.052C86.6934 175.271 91.7687 177.015 97.0025 178.6C111.435 183.038 126.661 184.939 141.57 182.721C146.804 181.928 150.134 177.49 147.914 172.577C144.583 165.127 133.481 166.237 125.392 165.444C120.793 164.969 115.718 164.969 111.277 163.701C101.602 160.689 103.188 144.205 112.863 141.511" fill="#F19A65"/>
<path d="M73.0536 136.915C70.0402 140.56 67.6612 145.156 66.7095 150.07C64.4891 161.957 73.5294 169.248 81.6181 173.052C86.6934 175.271 91.7687 177.015 97.0025 178.6C111.435 183.038 126.661 184.939 141.57 182.721C146.804 181.928 150.134 177.49 147.914 172.577C144.583 165.127 133.481 166.237 125.392 165.444C120.793 164.969 115.718 164.969 111.277 163.701C101.602 160.689 103.188 144.205 112.863 141.511" stroke="#644319" stroke-width="3" stroke-miterlimit="10" stroke-linecap="round"/>
<path d="M225.153 131.367C230.07 139.45 233.401 150.704 230.07 159.897C225.47 172.576 210.403 176.222 198.349 177.331C192.323 177.965 186.296 179.075 180.269 178.282C179.793 178.282 179.476 178.124 179 178.124C175.194 177.49 171.228 174.954 172.814 170.357C174.242 166.395 177.731 164.969 181.538 164.335C185.344 163.859 189.15 163.859 192.957 163.384C195.97 163.067 199.618 162.591 201.521 160.055C204.059 156.727 202.314 152.447 201.204 148.96C199.935 145.473 197.556 142.62 193.909 141.986" fill="#F19A65"/>
<path d="M225.153 131.367C230.07 139.45 233.401 150.704 230.07 159.897C225.47 172.576 210.403 176.222 198.349 177.331C192.323 177.965 186.296 179.075 180.269 178.282C179.793 178.282 179.476 178.124 179 178.124C175.194 177.49 171.228 174.954 172.814 170.357C174.242 166.395 177.731 164.969 181.538 164.335C185.344 163.859 189.15 163.859 192.957 163.384C195.97 163.067 199.618 162.591 201.521 160.055C204.059 156.727 202.314 152.447 201.204 148.96C199.935 145.473 197.556 142.62 193.909 141.986" stroke="#644319" stroke-width="3" stroke-miterlimit="10" stroke-linecap="round"/>
<path d="M136.812 117.895H171.704" stroke="#644319" stroke-width="2" stroke-miterlimit="10" stroke-linecap="round"/>
<path d="M149.5 58.458C149.5 58.458 154.575 61.945 153.624 67.1754" stroke="#644319" stroke-miterlimit="10" stroke-linecap="round"/>
<path d="M162.188 58.458C162.188 58.458 157.113 61.945 158.064 67.1754" stroke="#644319" stroke-miterlimit="10" stroke-linecap="round"/>
<path d="M115.401 141.669H192.323" stroke="#644319" stroke-width="3" stroke-miterlimit="10" stroke-linecap="round"/>
<path d="M155.686 140.243C155.686 140.243 127.613 126.137 134.592 149.594C134.592 149.753 139.191 168.456 155.686 140.243Z" fill="#644319"/>
<path d="M155.686 140.243C155.686 140.243 183.758 126.137 176.78 149.594C176.78 149.753 172.022 168.456 155.686 140.243Z" fill="#644319"/>
<path d="M250.688 187H174.718C172.339 187 169.325 186.049 167.739 184.147C166.153 182.245 165.202 180.026 164.25 177.807C163.298 175.747 162.188 173.686 161.078 171.626C160.285 170.041 159.016 168.456 159.016 166.554C159.016 164.81 160.126 163.067 161.395 161.799C162.823 160.372 164.726 159.738 166.788 159.738H250.688C254.97 159.738 258.618 163.225 258.618 167.663V179.075C258.618 183.513 255.129 187 250.688 187Z" fill="white" stroke="#644319" stroke-width="2" stroke-miterlimit="10"/>
<path d="M254.177 186.841H187.564C180.586 186.841 175.035 181.135 175.035 174.32V129.782C175.035 122.808 180.745 117.261 187.564 117.261H254.177C261.156 117.261 266.707 122.967 266.707 129.782V174.32C266.707 181.135 261.156 186.841 254.177 186.841Z" fill="white" stroke="#644319" stroke-width="2" stroke-miterlimit="10"/>
<path d="M74.957 135.329C74.957 135.329 101.285 143.254 111.436 141.669" stroke="#644319" stroke-width="3" stroke-miterlimit="10" stroke-linecap="round"/>
<path d="M238.951 147.375C237.524 140.718 230.704 138.658 224.677 139.133C221.981 139.45 219.126 139.926 216.43 140.718C212.306 141.986 203.425 144.364 202.632 149.436C202.314 151.655 203.9 153.398 205.645 154.508C207.072 155.3 211.355 154.983 211.355 157.361C211.355 159.104 208.817 160.689 210.086 162.433C212.148 165.444 220.712 163.225 223.408 162.591C227.215 161.64 230.704 159.58 234.035 157.361C235.938 156.093 237.683 154.508 238.634 152.289C239.11 150.862 239.269 149.119 238.951 147.375ZM211.037 153.081C209.769 153.081 208.658 151.972 208.658 150.704C208.658 149.436 209.769 148.326 211.037 148.326C212.306 148.326 213.416 149.436 213.416 150.704C213.258 151.972 212.306 153.081 211.037 153.081Z" fill="#F19A65"/>
<path d="M223.25 159.896C225.002 159.896 226.422 158.477 226.422 156.726C226.422 154.976 225.002 153.556 223.25 153.556C221.498 153.556 220.078 154.976 220.078 156.726C220.078 158.477 221.498 159.896 223.25 159.896Z" fill="#E0763B"/>
<path d="M231.18 153.557C232.932 153.557 234.352 152.138 234.352 150.387C234.352 148.636 232.932 147.217 231.18 147.217C229.428 147.217 228.008 148.636 228.008 150.387C228.008 152.138 229.428 153.557 231.18 153.557Z" fill="#B54215"/>
<path d="M134.433 102.837C144.068 102.837 151.879 95.0315 151.879 85.4026C151.879 75.7736 144.068 67.9678 134.433 67.9678C124.798 67.9678 116.987 75.7736 116.987 85.4026C116.987 95.0315 124.798 102.837 134.433 102.837Z" stroke="#644319" stroke-miterlimit="10" stroke-linecap="round"/>
<path d="M174.876 103.63C184.512 103.63 192.323 95.824 192.323 86.1951C192.323 76.5661 184.512 68.7603 174.876 68.7603C165.241 68.7603 157.43 76.5661 157.43 86.1951C157.43 95.824 165.241 103.63 174.876 103.63Z" stroke="#644319" stroke-miterlimit="10" stroke-linecap="round"/>
<path d="M152.672 84.6101H156.637" stroke="#644319" stroke-miterlimit="10" stroke-linecap="round"/>
<path d="M192.323 71.9303C192.323 71.9303 198.667 70.3453 198.667 62.4204C198.667 62.4204 200.253 73.5153 205.011 73.5153C205.011 73.5153 197.081 76.6852 197.081 81.4402C197.081 81.4402 197.081 71.9303 192.323 71.9303Z" fill="#ECEF7F"/>
</svg>
