<svg width="96" height="96" viewBox="0 0 96 96" fill="none" xmlns="http://www.w3.org/2000/svg">
<g clip-path="url(#clip0_3341_4445)">
<path d="M47.9997 94.9486C73.9288 94.9486 94.9486 73.9288 94.9486 47.9997C94.9486 22.0705 73.9288 1.05078 47.9997 1.05078C22.0705 1.05078 1.05078 22.0705 1.05078 47.9997C1.05078 73.9288 22.0705 94.9486 47.9997 94.9486Z" fill="white" stroke="#644319" stroke-width="2.10219" stroke-miterlimit="10" stroke-linecap="round"/>
<path d="M55.0075 30.9164C56.0692 33.4881 68.6613 28.2957 67.5997 25.724C66.5381 23.1523 62.8592 22.2273 59.3836 23.6638C55.908 25.0968 53.9459 28.3447 55.0075 30.9164Z" fill="#644319"/>
<path d="M42.1385 30.9164C41.0769 33.4881 28.4848 28.2957 29.5464 25.724C30.608 23.1523 34.2868 22.2273 37.7624 23.6638C41.2381 25.0968 43.2001 28.3447 42.1385 30.9164Z" fill="#644319"/>
<ellipse cx="31" cy="51" rx="5" ry="3" fill="#8BD8F9"/>
<ellipse cx="65" cy="51" rx="5" ry="3" fill="#8BD8F9"/>
<path d="M61.4326 52.215C65.1478 52.215 68.1596 48.5083 68.1596 43.9359C68.1596 39.3634 65.1478 35.6567 61.4326 35.6567C57.7173 35.6567 54.7056 39.3634 54.7056 43.9359C54.7056 48.5083 57.7173 52.215 61.4326 52.215Z" fill="#644319"/>
<path d="M34.2309 52.215C37.9461 52.215 40.9579 48.5083 40.9579 43.9359C40.9579 39.3634 37.9461 35.6567 34.2309 35.6567C30.5157 35.6567 27.5039 39.3634 27.5039 43.9359C27.5039 48.5083 30.5157 52.215 34.2309 52.215Z" fill="#644319"/>
<path d="M7.05266 48.2626C6.44653 49.3067 6.59368 50.4209 6.60069 51.57C6.6077 52.7192 6.49208 53.8649 6.67076 54.9756C6.89149 56.3315 8.15281 57.2214 9.50521 56.9446C10.1043 56.822 10.5948 56.4717 11.0573 56.0863C11.0924 56.0582 11.5408 55.7254 11.5303 55.6763L11.3797 55.7884C11.4673 55.7254 11.5584 55.6588 11.6459 55.5957C11.7791 55.5011 11.9122 55.4065 12.0489 55.3119C12.9528 54.6743 13.8287 54.0156 14.6836 53.3149C14.7221 53.2833 15.0795 53.0241 14.7852 53.2308C14.8728 53.1677 14.9604 53.1046 15.055 53.0451C15.1496 52.9855 15.2372 52.94 15.3248 52.8839C15.6331 52.6842 15.1146 52.9365 15.3178 52.8839C15.4719 52.8454 14.9464 52.8594 14.9148 52.8489C14.8553 52.8314 14.4033 52.4915 14.582 52.6877C14.547 52.6492 14.3928 52.3794 14.5084 52.6071C14.5715 52.7298 14.6416 52.8489 14.7081 52.9715C15.1461 53.8194 15.6156 54.7023 16.1446 55.4941C16.6737 56.286 17.1607 57.309 18.0366 57.8206C19.6027 58.728 20.8605 56.9762 21.5122 55.7814C21.768 55.3119 21.9887 54.8249 22.1394 54.3134C22.2024 54.0962 22.2585 53.8754 22.3286 53.6582C22.3566 53.5671 22.3776 53.455 22.4267 53.3709C22.1289 53.8649 22.763 53.0241 22.3531 53.5006C22.8927 52.8769 23.0118 51.8749 22.3531 51.2722C21.761 50.7292 20.6994 50.6065 20.1248 51.2722C19.7394 51.7207 19.4941 52.1972 19.3084 52.7613C19.2454 52.9575 19.1928 53.1572 19.1367 53.3569C19.1052 53.4725 19.0702 53.5881 19.0351 53.7038L18.9966 53.8124C18.944 53.949 18.944 53.9525 18.9966 53.8264C19.0421 53.7213 19.0457 53.7073 19.0106 53.7773C18.9896 53.8194 18.9686 53.8614 18.944 53.9035C18.902 53.9841 18.86 54.0611 18.8179 54.1417C18.7233 54.3169 18.6252 54.4921 18.5201 54.6638C18.464 54.7514 18.4045 54.839 18.3484 54.9265C18.1908 55.1683 18.464 54.8355 18.3344 54.9476C18.2643 55.0071 18.2013 55.0877 18.1382 55.1543C17.935 55.382 18.3905 55.0001 18.1277 55.1473H19.7184C19.4521 55.0141 19.7954 55.2279 19.7814 55.2314C19.7604 55.2314 19.6238 55.0772 19.6273 55.0807C19.5957 55.0492 19.5046 54.902 19.6062 55.0597C19.7254 55.2419 19.5887 55.0211 19.5607 54.9756C19.396 54.7198 19.2489 54.45 19.0737 54.1978C18.6287 53.5601 18.2924 52.8734 17.9035 52.2007C17.5741 51.6331 17.2868 50.9884 16.8454 50.5014C16.2042 49.7937 15.2162 49.5625 14.3262 49.9058C13.5169 50.2176 12.8652 50.7467 12.2065 51.3003C12.0944 51.3949 11.9823 51.486 11.8737 51.5806C11.653 51.7663 11.8947 51.57 11.9297 51.542C11.8457 51.6121 11.7511 51.6752 11.6635 51.7382C11.3096 51.9975 10.9522 52.2498 10.5948 52.502C10.2375 52.7543 9.89062 52.9995 9.55076 53.2623C9.40361 53.3744 9.26346 53.4936 9.12332 53.6162C9.06025 53.6722 8.99368 53.7283 8.93062 53.7844C8.71339 53.9771 9.04273 53.7353 8.89208 53.8194C8.84653 53.8439 8.77295 53.886 8.73091 53.921C8.88156 53.7844 8.93412 53.8684 8.77996 53.8965C9.07777 53.8404 9.34755 53.8895 9.57178 54.1102C9.66288 54.1978 9.69792 54.2959 9.75748 54.401C9.8731 54.6042 9.782 54.4606 9.75748 54.38C9.66989 54.0506 9.76448 54.7163 9.75047 54.2854C9.72594 53.4165 9.75748 52.5371 9.75397 51.6682C9.75397 51.2652 9.71894 50.8623 9.71193 50.4559C9.71193 50.2772 9.71193 50.0985 9.72945 49.9163C9.70492 50.2387 9.71543 50.0319 9.73996 49.9514C9.83105 49.636 9.59981 50.1721 9.7785 49.8673C10.1919 49.1525 9.9677 48.1084 9.21441 47.709C8.46113 47.3096 7.49762 47.5128 7.05616 48.2731L7.05266 48.2626Z" fill="#F19A65"/>
<path d="M72.3192 50.3368C72.5224 51.1147 72.6556 51.8784 72.9989 52.6107C73.1285 52.891 73.2967 53.1503 73.4544 53.4166C73.5385 53.5602 73.6226 53.7039 73.6926 53.8545C73.5945 53.6408 73.6891 53.879 73.7137 53.9736C73.9589 54.9126 74.0675 55.8796 74.6842 56.6749C75.6407 57.9117 77.2909 57.9292 78.3875 56.8606C79.1233 56.1424 79.5788 55.1579 80.0132 54.2434C80.311 53.6128 80.5843 52.9821 80.8191 52.3234C80.8191 52.3164 80.9137 52.0852 80.8541 52.2253C80.784 52.383 80.9277 52.0817 80.9452 52.0431C81.0468 51.8189 81.1414 51.5876 81.229 51.3529C81.25 51.2968 81.271 51.2408 81.2921 51.1812C81.3061 51.1462 81.4042 50.8904 81.3236 51.0831C81.243 51.2758 81.3446 51.0516 81.3691 51.0025C81.4287 50.8834 81.5864 50.7713 81.3411 51.0271L80.2269 51.4895C80.2515 51.4895 79.845 51.416 80.0027 51.4615C80.1604 51.5071 79.7925 51.3599 79.8135 51.3704C80.0448 51.486 79.8556 51.444 79.7785 51.3074C79.8135 51.3739 79.9256 51.4405 79.9817 51.4965C80.0132 51.5316 80.0448 51.5736 80.0798 51.6052C80.2164 51.7278 79.9186 51.3599 80.0202 51.5246C80.2515 51.9065 80.4827 52.2709 80.6789 52.6738C80.8366 52.9996 80.9767 53.336 81.1379 53.6618C81.4322 54.2469 81.8316 54.7655 82.1539 55.333C82.1855 55.3891 82.2135 55.4592 82.252 55.5117C82.3361 55.6238 82.1785 55.3646 82.1855 55.3471C82.168 55.3891 82.2836 55.5958 82.3011 55.6449C82.4483 56.0093 82.5849 56.3386 82.8231 56.6504C83.4153 57.4142 84.4664 57.7891 85.3878 57.4002C86.1586 57.0744 86.5265 56.4437 86.7963 55.6799C86.8208 55.6133 86.9259 55.3085 86.8453 55.5152C86.9014 55.3716 86.975 55.2314 87.0415 55.0913C87.2132 54.7059 87.3919 54.317 87.4935 53.9071C87.5811 53.5462 87.6196 53.1713 87.7283 52.8139C87.7493 52.7474 87.7738 52.6843 87.7913 52.6177C87.7493 52.7474 87.7072 52.7929 87.7913 52.6422C87.8649 52.5056 87.935 52.369 88.012 52.2358C88.408 51.5141 88.7443 50.7608 88.7233 49.9199C88.7023 49.079 88.0156 48.3047 87.1466 48.3433C86.2777 48.3818 85.5455 49.037 85.57 49.9199C85.5805 50.3123 85.6996 49.6396 85.5805 50.0075C85.5595 50.0671 85.4123 50.456 85.5665 50.1161C85.4579 50.3579 85.3212 50.5856 85.1951 50.8168C84.8728 51.416 84.6661 52.0116 84.5364 52.6738C84.4769 52.9856 84.4103 53.2939 84.2877 53.5882C84.4033 53.3044 84.1966 53.7704 84.1931 53.7774C84.095 53.9947 83.9969 54.2154 83.9093 54.4396C83.8567 54.5693 83.8042 54.7024 83.7656 54.839C83.671 55.1719 83.9583 54.6008 83.7621 54.8566C83.9899 54.5622 84.1055 54.5552 84.4874 54.4992C84.6976 54.3906 84.8903 54.3976 85.0655 54.5202C85.1951 54.5903 85.3002 54.6884 85.3773 54.811C85.4158 54.79 85.0585 54.3625 85.3493 54.8005C85.2967 54.7199 85.2687 54.5938 85.2337 54.5027C85.1075 54.1838 84.9779 53.8895 84.8027 53.5987C84.4909 53.0767 84.123 52.5827 83.8532 52.0361C83.5064 51.3389 83.2296 50.6101 82.7811 49.9725C82.0208 48.8933 80.3986 47.576 79.1233 48.7952C78.6503 49.2472 78.405 49.9024 78.2018 50.5085C78.1072 50.7923 78.2264 50.484 78.2369 50.4455C78.2088 50.5681 78.1142 50.7012 78.0617 50.8168C77.8795 51.2198 77.7323 51.6367 77.5887 52.0536C77.431 52.5021 77.7253 51.8119 77.5046 52.2358C77.4766 52.2919 77.4485 52.3444 77.4205 52.4005C77.3469 52.5476 77.2804 52.6983 77.2103 52.8455C77.0316 53.2238 76.8459 53.5987 76.6392 53.9596C76.5306 54.1453 76.415 54.3205 76.2958 54.4992C76.1031 54.7935 76.5376 54.2539 76.2958 54.4887C76.2573 54.5272 76.2083 54.5763 76.1697 54.6218C75.977 54.8565 76.4815 54.4501 76.2328 54.5833C75.984 54.7164 76.6182 54.4782 76.3484 54.5412L76.6217 54.5027C76.4535 54.4992 76.5166 54.5097 76.8179 54.5342C77.0807 54.6603 77.1402 54.6849 77.0001 54.6078C77.2173 54.79 77.2664 54.825 77.1507 54.7164C76.9545 54.5272 77.2979 55.0493 77.2068 54.783C77.1788 54.7339 77.1507 54.6849 77.1262 54.6323C77.0561 54.4852 77.0737 54.5272 77.1788 54.762C77.1788 54.6078 77.0526 54.3766 77.0106 54.2259C76.9125 53.851 76.8599 53.4691 76.7583 53.0942C76.5761 52.418 76.1907 51.8714 75.8649 51.2653C75.8474 51.2338 75.6827 50.8168 75.7843 51.1076C75.7177 50.9149 75.6652 50.7222 75.6161 50.5225C75.5321 50.1792 75.4655 49.8288 75.3744 49.4855C75.1642 48.6866 74.2392 48.126 73.4334 48.3853C72.6275 48.6446 72.109 49.4679 72.3332 50.3263L72.3192 50.3368Z" fill="#F19A65"/>
<path d="M64.8984 45.5859C66.1001 45.5859 67.0742 44.6118 67.0742 43.4101C67.0742 42.2085 66.1001 41.2344 64.8984 41.2344C63.6968 41.2344 62.7227 42.2085 62.7227 43.4101C62.7227 44.6118 63.6968 45.5859 64.8984 45.5859Z" fill="white"/>
<path d="M62.7956 40.5722C63.5503 40.5722 64.162 39.9604 64.162 39.2058C64.162 38.4511 63.5503 37.8394 62.7956 37.8394C62.041 37.8394 61.4292 38.4511 61.4292 39.2058C61.4292 39.9604 62.041 40.5722 62.7956 40.5722Z" fill="white"/>
<path d="M61.7064 47.6496C62.2869 47.6496 62.7575 47.179 62.7575 46.5985C62.7575 46.018 62.2869 45.5474 61.7064 45.5474C61.1259 45.5474 60.6553 46.018 60.6553 46.5985C60.6553 47.179 61.1259 47.6496 61.7064 47.6496Z" fill="white"/>
<path d="M37.5698 45.5859C38.7715 45.5859 39.7456 44.6118 39.7456 43.4101C39.7456 42.2085 38.7715 41.2344 37.5698 41.2344C36.3682 41.2344 35.394 42.2085 35.394 43.4101C35.394 44.6118 36.3682 45.5859 37.5698 45.5859Z" fill="white"/>
<path d="M35.4675 40.5722C36.2222 40.5722 36.8339 39.9604 36.8339 39.2058C36.8339 38.4511 36.2222 37.8394 35.4675 37.8394C34.7128 37.8394 34.1011 38.4511 34.1011 39.2058C34.1011 39.9604 34.7128 40.5722 35.4675 40.5722Z" fill="white"/>
<path d="M34.3778 47.6496C34.9583 47.6496 35.4289 47.179 35.4289 46.5985C35.4289 46.018 34.9583 45.5474 34.3778 45.5474C33.7973 45.5474 33.3267 46.018 33.3267 46.5985C33.3267 47.179 33.7973 47.6496 34.3778 47.6496Z" fill="white"/>
<path d="M52.012 58.4932C52.6138 58.4932 53.1016 58.0054 53.1016 57.4036C53.1016 56.8018 52.6138 56.314 52.012 56.314C51.4102 56.314 50.9224 56.8018 50.9224 57.4036C50.9224 58.0054 51.4102 58.4932 52.012 58.4932Z" fill="white"/>
<path d="M49.8849 57.0818C50.2622 57.0818 50.5681 56.7759 50.5681 56.3985C50.5681 56.0212 50.2622 55.7153 49.8849 55.7153C49.5075 55.7153 49.2017 56.0212 49.2017 56.3985C49.2017 56.7759 49.5075 57.0818 49.8849 57.0818Z" fill="white"/>
<path d="M51.7419 60.1683C52.0321 60.1683 52.2674 59.933 52.2674 59.6427C52.2674 59.3525 52.0321 59.1172 51.7419 59.1172C51.4516 59.1172 51.2163 59.3525 51.2163 59.6427C51.2163 59.933 51.4516 60.1683 51.7419 60.1683Z" fill="white"/>
<path d="M47.486 78.6316C52.3 78.6316 56.2025 77.1237 56.2025 75.2636C56.2025 73.4034 52.3 71.8955 47.486 71.8955C42.672 71.8955 38.7695 73.4034 38.7695 75.2636C38.7695 77.1237 42.672 78.6316 47.486 78.6316Z" fill="#644319"/>
<path d="M54.1453 61.8851C54.1453 58.1405 40.5894 58.1405 40.5894 61.8851C40.5894 65.6297 43.6227 68.6631 47.3673 68.6631C51.1119 68.6631 54.1453 65.6297 54.1453 61.8851Z" fill="#644319"/>
</g>
<defs>
<clipPath id="clip0_3341_4445">
<rect width="96" height="96" fill="white"/>
</clipPath>
</defs>
</svg>
