<svg width="172" height="172" viewBox="0 0 172 172" fill="none" xmlns="http://www.w3.org/2000/svg">
<path d="M85.7 171.4C133.031 171.4 171.4 133.031 171.4 85.7C171.4 38.3692 133.031 0 85.7 0C38.3692 0 0 38.3692 0 85.7C0 133.031 38.3692 171.4 85.7 171.4Z" fill="#FF8745"/>
<path d="M55.2466 129.257C66.1534 129.257 74.9951 120.416 74.9951 109.509C74.9951 98.602 66.1534 89.7603 55.2466 89.7603C44.3398 89.7603 35.498 98.602 35.498 109.509C35.498 120.416 44.3398 129.257 55.2466 129.257Z" fill="white"/>
<path d="M86.2537 72.4111C97.1605 72.4111 106.002 63.5694 106.002 52.6626C106.002 41.7558 97.1605 32.9141 86.2537 32.9141C75.3468 32.9141 66.5051 41.7558 66.5051 52.6626C66.5051 63.5694 75.3468 72.4111 86.2537 72.4111Z" fill="white"/>
<path d="M121.321 129.257C132.228 129.257 141.07 120.416 141.07 109.509C141.07 98.602 132.228 89.7603 121.321 89.7603C110.414 89.7603 101.573 98.602 101.573 109.509C101.573 120.416 110.414 129.257 121.321 129.257Z" fill="white"/>
<path d="M138.178 98.9884L106.002 122.244L70.5654 63.5518L104.526 45.4644L138.178 98.9884Z" fill="white"/>
<path d="M66.5049 52.8472L70.5654 88.899C70.5654 88.899 70.5654 95.6664 62.4445 91.1138L58.0149 107.479L74.9949 110.063L73.8875 82.7468C73.8875 82.7468 74.9949 76.1024 80.5319 80.0399V67.6124L66.5049 52.8472Z" fill="white"/>
</svg>
