<svg width="99" height="103" viewBox="0 0 99 103" fill="none" xmlns="http://www.w3.org/2000/svg">
<path d="M95.5 49.7868C95.5 75.578 74.2413 96.5 48 96.5C21.7586 96.5 0.5 75.578 0.5 49.7868C0.5 23.9957 21.7586 3.07373 48 3.07373C74.2413 3.07373 95.5 23.9957 95.5 49.7868Z" fill="white" stroke="#111111"/>
<mask id="mask0_3658_8183" style="mask-type:alpha" maskUnits="userSpaceOnUse" x="0" y="1" width="96" height="95">
<path d="M95.5 48.7868C95.5 74.578 74.2413 95.5 48 95.5C21.7586 95.5 0.5 74.578 0.5 48.7868C0.5 22.9957 21.7586 2.07373 48 2.07373C74.2413 2.07373 95.5 22.9957 95.5 48.7868Z" fill="white" stroke="#111111"/>
</mask>
<g mask="url(#mask0_3658_8183)">
<g clip-path="url(#clip0_3658_8183)">
<path d="M65.6258 30.5101C69.4538 31.2769 73.9403 31.5574 77.0421 34.2254C80.5809 37.2738 80.667 42.5039 80.4455 47.0857C79.8977 58.4561 79.1161 69.8514 76.9006 81.0286C75.5958 87.6114 73.7618 94.1943 70.2415 99.9667C68.6229 102.616 66.592 105.135 63.8348 106.668C58.2959 109.748 50.4491 109.236 44.3686 108.869C40.6822 108.644 36.6757 108.513 33.3585 106.668C30.6013 105.135 28.5704 102.616 26.9518 99.9667C23.4315 94.1943 21.5975 87.6114 20.2928 81.0286C18.0772 69.8514 17.2956 58.4561 16.7478 47.0857C16.5263 42.5039 16.6125 37.2675 20.1512 34.2254C23.2961 31.52 27.598 30.6286 31.5799 30.0987C39.3036 29.0701 47.3165 28.5527 55.1757 29.1075C58.6837 29.3569 62.1793 29.8119 65.6319 30.5101H65.6258Z" fill="white" stroke="#644319" stroke-width="1.23077" stroke-miterlimit="10"/>
<path d="M51.5384 62.1902C51.5384 60.158 44.2763 60.158 44.2763 62.1902C44.2763 64.2224 45.9011 65.8681 47.9074 65.8681C49.9137 65.8681 51.5384 64.2224 51.5384 62.1902Z" fill="#644319"/>
<path d="M51.7107 48.239C52.2769 49.6291 58.9913 46.8239 58.4251 45.4338C57.8589 44.0437 55.8957 43.545 54.0432 44.318C52.1908 45.091 51.1445 46.8489 51.7107 48.2328V48.239Z" fill="#644319"/>
<path d="M44.8487 48.239C44.2825 49.6291 37.5681 46.8239 38.1343 45.4338C38.7005 44.0437 40.6637 43.545 42.5162 44.318C44.3686 45.091 45.4149 46.8489 44.8487 48.2328V48.239Z" fill="#644319"/>
<path d="M18.2064 74.271C18.2064 74.271 45.6487 85.0429 79.03 74.271C79.03 74.271 75.3189 95.0918 71.6139 98.6824C71.6139 98.6824 52.3262 105.147 25.6224 98.6824C25.6224 98.6824 20.4281 92.218 18.2064 74.271Z" fill="#F19A65" stroke="#644319" stroke-width="1.23077" stroke-linecap="round" stroke-linejoin="round"/>
<path d="M55.1387 59.7405C57.1203 59.7405 58.7267 57.7394 58.7267 55.2709C58.7267 52.8024 57.1203 50.8013 55.1387 50.8013C53.1571 50.8013 51.5507 52.8024 51.5507 55.2709C51.5507 57.7394 53.1571 59.7405 55.1387 59.7405Z" fill="#644319"/>
<path d="M40.6329 59.7405C42.6145 59.7405 44.2209 57.7394 44.2209 55.2709C44.2209 52.8024 42.6145 50.8013 40.6329 50.8013C38.6513 50.8013 37.0449 52.8024 37.0449 55.2709C37.0449 57.7394 38.6513 59.7405 40.6329 59.7405Z" fill="#644319"/>
<path d="M26.0656 57.5648C25.7517 58.1383 25.8009 58.7243 25.8132 59.3477C25.8194 59.9399 25.7578 60.5508 25.8378 61.1368C25.9302 61.8474 26.4594 62.4334 27.2041 62.4085C27.838 62.3898 28.2873 61.8786 28.6935 61.5919C29.1981 61.2365 29.6966 60.875 30.1644 60.476C30.189 60.4573 30.6259 60.1706 30.6259 60.1519C30.6382 60.2765 29.9859 60.0022 30.0351 59.9835L30.0105 59.9461C30.0351 59.9773 30.0536 60.0147 30.072 60.0459C30.1028 60.102 30.1336 60.1643 30.1644 60.2204C30.4105 60.6942 30.669 61.1929 30.9706 61.6293C31.2906 62.0968 31.5429 62.689 32.1091 62.9009C32.9338 63.2189 33.5431 62.3835 33.8877 61.7477C34.0231 61.5046 34.1401 61.2552 34.2262 60.9934C34.2693 60.8563 34.3001 60.7191 34.3432 60.582C34.3555 60.5383 34.3678 60.4885 34.3862 60.4448C34.3247 60.6069 34.4847 60.3202 34.3493 60.4822C34.6693 60.0958 34.7247 59.5409 34.3493 59.1607C34.0231 58.8303 33.3646 58.768 33.0446 59.1607C32.6876 59.597 32.6076 60.0646 32.4169 60.5757C32.4784 60.4012 32.3984 60.6069 32.3738 60.6443C32.3184 60.7565 32.2568 60.8625 32.1953 60.9685C32.1461 61.0558 32.0845 61.1306 32.0353 61.2178C32.0784 61.1555 32.0661 61.1617 31.9984 61.2428C32.0784 61.1929 32.0784 61.1929 31.9984 61.2428H32.9277C32.7553 61.1493 33.02 61.4048 32.8907 61.2054C32.8353 61.1243 32.7923 61.0433 32.743 60.956C32.6261 60.7565 32.4845 60.5757 32.3676 60.3763C32.1338 59.9648 31.9122 59.5472 31.6845 59.1295C31.4137 58.6433 30.9767 58.288 30.3982 58.3129C29.8197 58.3378 29.3581 58.7243 28.9335 59.0734C28.8596 59.1357 28.7796 59.1981 28.7058 59.2667C28.6135 59.3415 28.6135 59.3477 28.6873 59.2854C28.6381 59.3228 28.5827 59.3602 28.5335 59.3976C28.3119 59.5596 28.0842 59.7217 27.8565 59.8838C27.6165 60.0583 27.3764 60.2329 27.1549 60.4324C27.1364 60.4511 26.9518 60.6256 27.0256 60.5383C26.9087 60.6007 26.9149 60.6007 27.0503 60.557C27.2657 60.4635 27.4564 60.5508 27.6288 60.8126C27.6657 60.9248 27.6718 60.9311 27.6411 60.8251C27.6534 60.9311 27.6534 60.9498 27.6534 60.8812C27.6534 60.7752 27.6534 60.663 27.6534 60.557C27.6534 60.2828 27.6534 60.0147 27.6534 59.7404C27.6534 59.4661 27.6472 59.1981 27.6349 58.93C27.6349 58.8241 27.6288 58.7181 27.6349 58.6059C27.6411 58.4874 27.6411 58.4625 27.6349 58.5435C27.6657 58.4313 27.6718 58.4126 27.6534 58.4937C28.2257 57.4402 26.6379 56.4926 26.0594 57.5524L26.0656 57.5648Z" fill="#F19A65"/>
<path d="M60.8623 58.7553C60.9977 59.279 61.09 59.7777 61.3608 60.2514C61.5393 60.5631 61.6008 60.7127 61.6746 61.0556C61.8408 61.8473 62.2593 62.7948 63.2071 62.7761C64.0933 62.7636 64.6103 61.9283 64.9611 61.2114C65.1211 60.8873 65.2873 60.5569 65.4165 60.214C65.5027 59.9896 65.5827 59.7714 65.6688 59.5533C65.7181 59.441 65.755 59.3288 65.7981 59.2104C65.8227 59.1481 65.8227 59.1481 65.7981 59.1979C65.8596 59.0982 65.8596 59.0857 65.7981 59.1605L65.1457 59.4348C65.0842 59.4348 65.0288 59.4348 64.9734 59.4036C64.9057 59.3725 64.9057 59.3787 64.9795 59.4161L64.9057 59.36C64.9426 59.3974 64.9795 59.4348 65.0103 59.4722C64.9242 59.3725 64.998 59.4535 65.0349 59.5159C65.0719 59.5782 65.1088 59.6405 65.1457 59.7029C65.2873 59.9522 65.398 60.2203 65.5211 60.4821C65.6996 60.8561 65.9396 61.1927 66.1489 61.5481C66.0381 61.3548 66.155 61.5668 66.1796 61.6166C66.2227 61.7351 66.2781 61.8847 66.3458 61.9969C66.4627 62.2151 66.6412 62.4083 66.8505 62.533C67.3797 62.8447 68.0383 62.7262 68.426 62.2525C68.6783 61.9408 68.7891 61.5044 68.9429 61.1366C69.1091 60.7377 69.146 60.2265 69.2999 59.9273C69.5399 59.4722 69.7615 59.0359 69.7615 58.4997C69.7615 57.2966 67.909 57.2966 67.9152 58.4997C67.9152 58.5995 67.9029 58.612 67.8844 58.6431C67.8167 58.774 67.7428 58.8987 67.6751 59.0296C67.509 59.36 67.4228 59.6904 67.349 60.052C67.2813 60.3699 67.152 60.6068 67.0351 60.9122C67.0105 60.9808 66.9859 61.0494 66.9551 61.1242C66.912 61.2364 66.9735 61.093 66.9735 61.093L66.9366 61.1616L67.9706 61.1304C67.9706 61.1304 67.8598 60.9122 67.9029 61.012C67.9459 61.1117 67.8782 60.9496 67.8721 60.9247C67.8352 60.8249 67.7982 60.7252 67.749 60.6317C67.6875 60.507 67.6136 60.3948 67.5459 60.2764C67.3859 60.0208 67.2259 59.7777 67.0966 59.5034C66.9182 59.1231 66.7581 58.7366 66.5058 58.4C66.1119 57.8577 65.3673 57.2842 64.678 57.6894C64.3456 57.8888 64.1795 58.2629 64.0441 58.612C64.0256 58.6556 63.921 58.9361 63.9825 58.7927C63.8964 59.0047 63.8041 59.2042 63.724 59.4223C63.5887 59.8026 63.4102 60.1766 63.2132 60.532C63.164 60.6192 63.1148 60.7127 63.0594 60.8C63.0286 60.8499 62.9978 60.8935 62.9671 60.9434C63.0655 60.8062 62.9917 60.9122 62.9671 60.9434C62.9548 60.9559 62.8686 61.0431 62.8686 61.0431C62.8686 60.9995 63.0717 60.9247 63.0717 60.9247C63.1332 60.906 63.2009 60.906 63.2686 60.9122C63.3794 60.9247 63.7117 61.1678 63.5517 61.0307C63.6625 61.1242 63.6379 61.1366 63.5887 61.0618C63.6194 61.174 63.4779 60.8935 63.5887 61.0618C63.5517 60.9559 63.521 60.8499 63.4963 60.7377C63.4533 60.5507 63.4286 60.3636 63.3732 60.1766C63.2686 59.8213 63.0717 59.5346 62.9055 59.2104C62.7824 58.9673 62.7209 58.5683 62.647 58.2566C62.3516 57.0909 60.573 57.5834 60.8684 58.7553H60.8623Z" fill="#F19A65"/>
<path d="M42.4792 56.1684C43.1216 56.1684 43.6424 55.6409 43.6424 54.9902C43.6424 54.3395 43.1216 53.812 42.4792 53.812C41.8368 53.812 41.316 54.3395 41.316 54.9902C41.316 55.6409 41.8368 56.1684 42.4792 56.1684Z" fill="white"/>
<path d="M56.9789 56.1684C57.6213 56.1684 58.1421 55.6409 58.1421 54.9902C58.1421 54.3395 57.6213 53.812 56.9789 53.812C56.3365 53.812 55.8157 54.3395 55.8157 54.9902C55.8157 55.6409 56.3365 56.1684 56.9789 56.1684Z" fill="white"/>
<path d="M36.3864 65.2759C36.3864 65.2759 42.6085 72.9372 47.9135 65.8743" stroke="#644319" stroke-width="1.23077" stroke-miterlimit="10" stroke-linecap="round"/>
<path d="M48.5659 65.2759C48.5659 65.2759 54.7879 72.9372 60.093 65.8743" stroke="#644319" stroke-width="1.23077" stroke-miterlimit="10" stroke-linecap="round"/>
<path d="M44.2147 69.0908C44.2701 69.4212 48.8551 77.9054 52.6277 69.3838" stroke="#644319" stroke-width="1.23077" stroke-miterlimit="10" stroke-linecap="round"/>
<path d="M47.1688 31.0465C47.4765 26.6891 49.7906 21.808 54.5294 21.2532C58.7144 20.767 62.604 22.793 65.8473 25.274C68.5491 27.3436 72.4202 30.3545 75.5527 27.1878C74.0018 28.7587 72.7648 30.2922 70.7462 31.3519C68.9553 32.2932 66.9551 32.7795 64.9303 32.7109C61.8531 32.5987 59.0837 30.7847 56.0803 30.2112C54.2894 29.8683 50.9845 29.5691 50.9845 32.2496" fill="#F19A65"/>
<path d="M47.1688 31.0465C47.4765 26.6891 49.7906 21.808 54.5294 21.2532C58.7144 20.767 62.604 22.793 65.8473 25.274C68.5491 27.3436 72.4202 30.3545 75.5527 27.1878C74.0018 28.7587 72.7648 30.2922 70.7462 31.3519C68.9553 32.2932 66.9551 32.7795 64.9303 32.7109C61.8531 32.5987 59.0837 30.7847 56.0803 30.2112C54.2894 29.8683 50.9845 29.5691 50.9845 32.2496" stroke="#644319" stroke-width="1.23077" stroke-linecap="round" stroke-linejoin="round"/>
<path d="M47.1688 31.0465C46.8611 26.6891 44.5471 21.808 39.8082 21.2532C35.6232 20.767 31.7337 22.793 28.4903 25.274C25.7886 27.3436 21.9175 30.3545 18.7849 27.1878C20.3358 28.7587 21.5728 30.2922 23.5915 31.3519C25.3824 32.2932 27.3826 32.7795 29.4073 32.7109C32.4845 32.5987 35.254 30.7847 38.2573 30.2112C40.0482 29.8683 43.3531 29.5691 43.3531 32.2496" fill="#F19A65"/>
<path d="M47.1688 31.0465C46.8611 26.6891 44.5471 21.808 39.8082 21.2532C35.6232 20.767 31.7337 22.793 28.4903 25.274C25.7886 27.3436 21.9175 30.3545 18.7849 27.1878C20.3358 28.7587 21.5728 30.2922 23.5915 31.3519C25.3824 32.2932 27.3826 32.7795 29.4073 32.7109C32.4845 32.5987 35.254 30.7847 38.2573 30.2112C40.0482 29.8683 43.3531 29.5691 43.3531 32.2496" stroke="#644319" stroke-width="1.23077" stroke-linecap="round" stroke-linejoin="round"/>
<path d="M18.2126 74.6763C18.2126 74.6763 11.2028 85.8409 21.7206 89.9552C23.77 90.7594 25.9363 90.8903 28.078 91.2706C30.4905 91.7007 32.9338 92.137 35.3833 91.7007C36.8049 91.4451 38.2758 90.5474 37.6788 88.883C36.7618 86.3521 33.7954 86.7448 31.5799 86.4519C30.9706 86.3708 26.1086 85.9719 26.6318 84.6628" fill="#F19A65"/>
<path d="M18.2126 74.6763C18.2126 74.6763 11.2028 85.8409 21.7206 89.9552C23.77 90.7594 25.9363 90.8903 28.078 91.2706C30.4905 91.7007 32.9338 92.137 35.3833 91.7007C36.8049 91.4451 38.2758 90.5474 37.6788 88.883C36.7618 86.3521 33.7954 86.7448 31.5799 86.4519C30.9706 86.3708 26.1086 85.9719 26.6318 84.6628" stroke="#644319" stroke-width="1.23077" stroke-miterlimit="10" stroke-linecap="round"/>
<path d="M67.269 80.1934C67.269 80.1934 76.1374 89.9118 82.7472 80.6671C84.0396 78.8656 84.7166 76.7773 85.6274 74.7762C86.6552 72.5196 87.6953 70.2443 87.9045 67.7321C88.0215 66.2796 87.5414 64.6027 85.7998 64.7648C83.1534 65.0142 82.7657 68.0251 81.9225 70.1134C81.6886 70.6931 80.0639 75.3435 78.95 74.5019" fill="#F19A65"/>
<path d="M67.269 80.1934C67.269 80.1934 76.1374 89.9118 82.7472 80.6671C84.0396 78.8656 84.7166 76.7773 85.6274 74.7762C86.6552 72.5196 87.6953 70.2443 87.9045 67.7321C88.0215 66.2796 87.5414 64.6027 85.7998 64.7648C83.1534 65.0142 82.7657 68.0251 81.9225 70.1134C81.6886 70.6931 80.0639 75.3435 78.95 74.5019" stroke="#644319" stroke-width="1.23077" stroke-miterlimit="10" stroke-linecap="round"/>
<path d="M47.5997 78.5788C47.5997 78.5788 36.171 72.7876 39.0266 82.4375C39.0266 82.4375 40.9345 90.1549 47.5997 78.5788Z" fill="#644319"/>
<path d="M47.5997 78.5788C47.5997 78.5788 59.0283 72.7876 56.1727 82.4375C56.1727 82.4375 54.2648 90.1549 47.5997 78.5788Z" fill="#644319"/>
</g>
</g>
<defs>
<clipPath id="clip0_3658_8183">
<rect width="73.8462" height="96" fill="white" transform="translate(15 20)"/>
</clipPath>
</defs>
</svg>
