<svg width="32" height="32" viewBox="0 0 32 32" fill="none" xmlns="http://www.w3.org/2000/svg">
<path d="M18.9315 8.17015C17.9493 7.5993 17.4726 6.52721 17.7326 5.56651C17.8193 5.20451 17.6748 4.82858 17.3426 4.64758L14.6558 3.11603C14.2369 2.87933 13.7169 3.01856 13.4713 3.40841L1.12078 23.4996C0.860765 23.9173 1.03411 24.4742 1.51079 24.7527L4.70315 26.5766C5.36763 25.5045 6.85547 25.1843 8.03996 25.8665C9.22446 26.5488 9.65781 27.9689 9.00778 29.0271L12.2001 30.851C12.6768 31.1295 13.2691 31.0042 13.5291 30.5865L25.8796 10.5092C26.1252 10.1055 25.9807 9.60424 25.5763 9.36754L22.8895 7.83599C22.5573 7.64107 22.1384 7.69676 21.8639 7.94738C21.1128 8.61569 19.9138 8.741 18.9171 8.18407L18.9315 8.17015Z" fill="#FF955A"/>
<path d="M11 7.5L22.4802 14.4091" stroke="white" stroke-width="0.8" stroke-dasharray="1.6 1.6"/>
<path d="M25.5395 13.7257C24.9241 12.8017 24.98 11.6257 25.6094 10.8697C25.8472 10.5757 25.8752 10.1837 25.6654 9.87568L23.973 7.36969C23.7072 6.99169 23.1897 6.8797 22.8121 7.14569L3.37059 20.2636C2.96498 20.5436 2.88106 21.1176 3.17478 21.5656L5.18886 24.5476C6.22388 23.8476 7.66451 24.1836 8.41979 25.2896C9.17507 26.3956 8.9373 27.8656 7.90228 28.5656L9.91636 31.5476C10.2101 31.9956 10.7835 32.1355 11.1892 31.8555L30.6307 18.7376C31.0083 18.4716 31.1202 17.9536 30.8544 17.5756L29.1621 15.0696C28.9523 14.7616 28.5746 14.6356 28.211 14.7476C27.2599 15.0416 26.1549 14.6636 25.5395 13.7397V13.7257Z" fill="#FF955A"/>
<path d="M18.2827 10.4644L26.5002 21.4998" stroke="white" stroke-width="0.8" stroke-dasharray="1.6 1.6"/>
</svg>
