<svg width="32" height="32" viewBox="0 0 32 32" fill="none" xmlns="http://www.w3.org/2000/svg">
<g clip-path="url(#clip0_2899_12516)">
<path d="M27.3399 5.33325H4.65977C3.55892 5.33325 2.6665 6.21674 2.6665 7.30659V24.6933C2.6665 25.7831 3.55892 26.6666 4.65977 26.6666H27.3399C28.4408 26.6666 29.3332 25.7831 29.3332 24.6933V7.30659C29.3332 6.21674 28.4408 5.33325 27.3399 5.33325Z" fill="#D9D9D9"/>
<path d="M2.41716 22.4453C2.29498 22.583 2.30758 22.7937 2.44529 22.9159C2.583 23.038 2.79368 23.0254 2.91585 22.8877L2.41716 22.4453ZM2.6665 22.6665C2.91585 22.8877 2.91584 22.8877 2.91584 22.8877C2.91587 22.8877 2.9159 22.8877 2.91595 22.8876C2.91607 22.8875 2.91626 22.8873 2.91653 22.887C2.91708 22.8863 2.91794 22.8854 2.91912 22.8841C2.92147 22.8814 2.92508 22.8774 2.92992 22.872C2.93959 22.8612 2.95418 22.845 2.97347 22.8237C3.01204 22.7811 3.06938 22.7184 3.14376 22.6382C3.29253 22.478 3.50934 22.2485 3.78025 21.973C4.32246 21.4216 5.07951 20.6877 5.94031 19.9559C6.80238 19.2229 7.76121 18.4982 8.70716 17.9605C9.66051 17.4185 10.5637 17.0879 11.3238 17.0953L11.3303 16.4286C10.3939 16.4196 9.36628 16.8189 8.37768 17.3809C7.38167 17.9471 6.38742 18.7007 5.50848 19.448C4.62827 20.1963 3.85638 20.9448 3.30489 21.5056C3.02896 21.7862 2.80773 22.0203 2.65518 22.1847C2.5789 22.2668 2.51976 22.3316 2.47951 22.376C2.45939 22.3982 2.44398 22.4153 2.43352 22.427C2.42829 22.4328 2.42429 22.4373 2.42155 22.4403C2.42018 22.4419 2.41913 22.4431 2.4184 22.4439C2.41803 22.4443 2.41774 22.4446 2.41754 22.4449C2.41743 22.445 2.41734 22.4451 2.41729 22.4451C2.41721 22.4452 2.41716 22.4453 2.6665 22.6665ZM11.3238 17.0953C12.0691 17.1025 12.7011 17.4203 13.2865 17.9205C13.8783 18.4262 14.3987 19.0972 14.9237 19.7812C15.437 20.4501 15.9624 21.1428 16.5403 21.6201C17.1309 22.1079 17.8189 22.4058 18.6422 22.2139L18.4909 21.5646C17.9394 21.6932 17.4593 21.5145 16.9649 21.1061C16.4578 20.6873 15.9813 20.0643 15.4526 19.3753C14.9355 18.7016 14.3737 17.9726 13.7196 17.4137C13.0591 16.8493 12.2816 16.4379 11.3303 16.4286L11.3238 17.0953ZM18.6422 22.2139C19.3776 22.0425 20.205 21.6549 21.0754 21.1454C21.9493 20.6339 22.8853 19.9884 23.8402 19.2859C24.7956 18.5832 25.7759 17.8192 26.737 17.0702C27.6997 16.32 28.6427 15.5852 29.5301 14.9354L29.1362 14.3976C28.2393 15.0543 27.2881 15.7955 26.3272 16.5443C25.3646 17.2945 24.3918 18.0526 23.4452 18.7489C22.4983 19.4454 21.5836 20.0755 20.7386 20.5701C19.8901 21.0667 19.1303 21.4156 18.4909 21.5646L18.6422 22.2139Z" fill="white"/>
<path d="M20.2029 15.4828C21.2911 15.4828 22.1733 14.6145 22.1733 13.5434C22.1733 12.4723 21.2911 11.604 20.2029 11.604C19.1146 11.604 18.2324 12.4723 18.2324 13.5434C18.2324 14.6145 19.1146 15.4828 20.2029 15.4828Z" stroke="white" stroke-width="0.666667" stroke-miterlimit="10"/>
</g>
<defs>
<clipPath id="clip0_2899_12516">
<rect width="26.6667" height="21.3333" fill="white" transform="translate(2.66626 5.33337)"/>
</clipPath>
</defs>
</svg>
