<svg width="32" height="32" viewBox="0 0 32 32" fill="none" xmlns="http://www.w3.org/2000/svg">
<g clip-path="url(#clip0_1480_10937)">
<path d="M27.3404 5.3335H4.66026C3.55941 5.3335 2.66699 6.21699 2.66699 7.30683V24.6935C2.66699 25.7833 3.55941 26.6668 4.66026 26.6668H27.3404C28.4412 26.6668 29.3337 25.7833 29.3337 24.6935V7.30683C29.3337 6.21699 28.4412 5.3335 27.3404 5.3335Z" fill="#FF955A"/>
<path d="M2.41764 22.4453C2.29547 22.583 2.30807 22.7937 2.44578 22.9159C2.58349 23.038 2.79417 23.0254 2.91634 22.8877L2.41764 22.4453ZM2.66699 22.6665C2.91634 22.8877 2.91633 22.8877 2.91633 22.8877C2.91636 22.8877 2.91638 22.8877 2.91644 22.8876C2.91656 22.8875 2.91675 22.8873 2.91702 22.887C2.91757 22.8863 2.91843 22.8854 2.91961 22.8841C2.92196 22.8814 2.92557 22.8774 2.93041 22.872C2.94008 22.8612 2.95467 22.845 2.97396 22.8237C3.01253 22.7811 3.06987 22.7184 3.14425 22.6382C3.29302 22.478 3.50982 22.2485 3.78073 21.973C4.32295 21.4216 5.08 20.6877 5.9408 19.9559C6.80287 19.2229 7.7617 18.4982 8.70765 17.9605C9.661 17.4185 10.5642 17.0879 11.3243 17.0953L11.3308 16.4286C10.3944 16.4196 9.36677 16.8189 8.37816 17.3809C7.38216 17.9471 6.38791 18.7007 5.50897 19.448C4.62876 20.1963 3.85686 20.9448 3.30538 21.5056C3.02945 21.7862 2.80822 22.0203 2.65567 22.1847C2.57938 22.2668 2.52025 22.3316 2.48 22.376C2.45987 22.3982 2.44447 22.4153 2.43401 22.427C2.42877 22.4328 2.42478 22.4373 2.42204 22.4403C2.42067 22.4419 2.41962 22.4431 2.41889 22.4439C2.41852 22.4443 2.41823 22.4446 2.41802 22.4449C2.41792 22.445 2.41783 22.4451 2.41777 22.4451C2.4177 22.4452 2.41764 22.4453 2.66699 22.6665ZM11.3243 17.0953C12.0696 17.1025 12.7016 17.4203 13.287 17.9205C13.8788 18.4262 14.3992 19.0972 14.9242 19.7812C15.4375 20.4501 15.9629 21.1428 16.5408 21.6201C17.1314 22.1079 17.8194 22.4058 18.6427 22.2139L18.4914 21.5646C17.9399 21.6932 17.4598 21.5145 16.9653 21.1061C16.4583 20.6873 15.9818 20.0643 15.4531 19.3753C14.936 18.7016 14.3742 17.9726 13.7201 17.4137C13.0596 16.8493 12.2821 16.4379 11.3308 16.4286L11.3243 17.0953ZM18.6427 22.2139C19.3781 22.0425 20.2055 21.6549 21.0758 21.1454C21.9498 20.6339 22.8857 19.9884 23.8407 19.2859C24.7961 18.5832 25.7763 17.8192 26.7374 17.0702C27.7002 16.32 28.6432 15.5852 29.5306 14.9354L29.1367 14.3976C28.2398 15.0543 27.2886 15.7955 26.3277 16.5443C25.3651 17.2945 24.3923 18.0526 23.4457 18.7489C22.4988 19.4454 21.5841 20.0755 20.7391 20.5701C19.8906 21.0667 19.1307 21.4156 18.4914 21.5646L18.6427 22.2139Z" fill="white"/>
<path d="M20.2029 15.4828C21.2911 15.4828 22.1733 14.6145 22.1733 13.5434C22.1733 12.4723 21.2911 11.604 20.2029 11.604C19.1146 11.604 18.2324 12.4723 18.2324 13.5434C18.2324 14.6145 19.1146 15.4828 20.2029 15.4828Z" stroke="white" stroke-width="0.666667" stroke-miterlimit="10"/>
</g>
<defs>
<clipPath id="clip0_1480_10937">
<rect width="26.6667" height="21.3333" fill="white" transform="translate(2.6665 5.3335)"/>
</clipPath>
</defs>
</svg>
