<svg width="102" height="102" viewBox="0 0 102 102" fill="none" xmlns="http://www.w3.org/2000/svg">
<path d="M51.082 100.836C78.6509 100.836 101 78.4868 101 50.9179C101 23.349 78.6509 1 51.082 1C23.5131 1 1.16406 23.349 1.16406 50.9179C1.16406 78.4868 23.5131 100.836 51.082 100.836Z" fill="white"/>
<mask id="mask0_2696_12644" style="mask-type:luminance" maskUnits="userSpaceOnUse" x="1" y="1" width="100" height="100">
<path d="M51.082 100.836C78.6509 100.836 101 78.4868 101 50.9179C101 23.349 78.6509 1 51.082 1C23.5131 1 1.16406 23.349 1.16406 50.9179C1.16406 78.4868 23.5131 100.836 51.082 100.836Z" fill="white"/>
</mask>
<g mask="url(#mask0_2696_12644)">
<path d="M16.9278 59.2919C18.8322 59.2919 20.376 56.5718 20.376 53.2164C20.376 49.861 18.8322 47.1409 16.9278 47.1409C15.0233 47.1409 13.4795 49.861 13.4795 53.2164C13.4795 56.5718 15.0233 59.2919 16.9278 59.2919Z" fill="white" stroke="#644319" stroke-width="0.985222" stroke-miterlimit="10"/>
<path d="M86.5498 59.2919C88.4543 59.2919 89.9981 56.5718 89.9981 53.2164C89.9981 49.861 88.4543 47.1409 86.5498 47.1409C84.6454 47.1409 83.1016 49.861 83.1016 53.2164C83.1016 56.5718 84.6454 59.2919 86.5498 59.2919Z" fill="white" stroke="#644319" stroke-width="0.985222" stroke-miterlimit="10"/>
<path d="M84.1686 33.1508C83.7252 32.0868 83.1932 31.0457 82.5627 30.0342C73.4559 15.4004 51.653 12.2904 36.497 17.7912C33.1604 19.003 29.9847 20.6779 27.1866 22.8684C20.2146 28.3298 17.4264 36.2346 17.3574 44.9078C17.3574 45.2494 17.3574 45.5909 17.3574 45.9324C17.3673 46.8421 17.4034 47.7551 17.4527 48.6648C18.0438 59.2494 18.9568 69.8471 21.0454 80.2576C22.4543 87.2822 24.4412 94.3068 28.2441 100.464C29.9912 103.295 32.1916 105.982 35.1702 107.617C38.7564 109.588 43.0848 109.729 47.0717 109.969C53.6464 110.363 62.1226 110.905 68.1128 107.617C71.0947 105.982 73.2917 103.292 75.0389 100.464C78.8418 94.3068 80.8287 87.2789 82.2376 80.2576C83.6136 73.407 84.4773 66.4645 85.0783 59.5055C85.8172 50.9308 87.6333 41.4792 84.1587 33.1541L84.1686 33.1508Z" fill="white" stroke="#644319" stroke-width="0.985222" stroke-miterlimit="10"/>
<path d="M54.8356 59.4957C54.8356 57.3282 46.9834 57.3282 46.9834 59.4957C46.9834 61.6632 48.7404 63.4202 50.9079 63.4202C53.0754 63.4202 54.8323 61.6632 54.8323 59.4957H54.8356Z" fill="#644319"/>
<path d="M58.7242 56.8814C60.8662 56.8814 62.6027 54.745 62.6027 52.1096C62.6027 49.4743 60.8662 47.3379 58.7242 47.3379C56.5822 47.3379 54.8457 49.4743 54.8457 52.1096C54.8457 54.745 56.5822 56.8814 58.7242 56.8814Z" fill="#644319"/>
<path d="M43.0426 56.8814C45.1846 56.8814 46.921 54.745 46.921 52.1096C46.921 49.4743 45.1846 47.3379 43.0426 47.3379C40.9005 47.3379 39.1641 49.4743 39.1641 52.1096C39.1641 54.745 40.9005 56.8814 43.0426 56.8814Z" fill="#644319"/>
<path d="M27.7358 54.8126C27.4468 55.3347 27.5224 55.8897 27.5322 56.4612C27.5421 57.0654 27.4665 57.7026 27.5519 58.3035C27.6242 58.8224 27.9788 59.2329 28.5338 59.2198C29.0889 59.2067 29.4698 58.714 29.8869 58.4185C30.3926 58.0572 30.8984 57.7025 31.3779 57.3052C31.5683 57.1475 31.7851 57.0326 31.9788 56.8815C32.0938 56.7929 32.038 56.8881 31.992 56.8356C32.0675 56.9209 32.1135 57.0424 32.1693 57.141C32.4353 57.6467 32.7145 58.1787 33.0429 58.6484C33.3187 59.0457 33.5453 59.6204 34.0314 59.8011C34.6159 60.0178 35.0954 59.1902 35.3253 58.7764C35.4468 58.5564 35.5618 58.3331 35.6406 58.0901C35.7194 57.847 35.7391 57.5219 35.9033 57.3249C36.3072 56.8421 35.6143 56.1393 35.2071 56.6287C34.882 57.0162 34.8425 57.4661 34.6586 57.9193C34.524 58.2543 34.2875 58.737 33.9723 58.9275H34.4682C34.281 58.829 34.189 58.6188 34.0839 58.4447C33.9558 58.2346 33.8048 58.0375 33.68 57.8241C33.4238 57.3873 33.1874 56.9374 32.9411 56.4973C32.7375 56.1328 32.432 55.8471 31.9887 55.8766C31.5191 55.9094 31.1118 56.2576 30.7637 56.5433C30.3565 56.8782 29.9329 57.187 29.5026 57.4924C29.276 57.6533 29.056 57.8142 28.8458 57.9948C28.7703 58.0605 28.6751 58.1163 28.6061 58.1886C28.478 58.32 28.4747 58.1623 28.5601 58.297C28.4747 58.1623 28.5174 57.9127 28.5207 57.7682C28.524 57.4792 28.5207 57.1902 28.5207 56.898C28.5207 56.6057 28.5141 56.32 28.501 56.031C28.4912 55.7879 28.4682 55.5318 28.5897 55.315C28.8951 54.76 28.0478 54.2608 27.7391 54.8191L27.7358 54.8126Z" fill="#F19A65"/>
<path d="M65.3974 55.6895C65.5288 56.2018 65.6174 56.701 65.89 57.164C66.0838 57.4957 66.1987 57.7716 66.2808 58.1427C66.4122 58.7601 66.6749 59.6074 67.4499 59.6107C68.225 59.614 68.6256 58.7601 68.9081 58.1887C69.0624 57.88 69.2233 57.568 69.3481 57.2494C69.4499 56.9933 69.5419 56.7371 69.6503 56.4842C69.7258 56.3069 69.7718 56.054 69.9031 55.9062L69.555 56.0507C69.7291 56.0672 69.9196 56.458 69.9885 56.586C70.1396 56.8553 70.2611 57.1411 70.3925 57.4169C70.5829 57.8143 70.8752 58.1558 71.069 58.5499C71.2266 58.875 71.3054 59.233 71.6437 59.4268C71.982 59.6205 72.4352 59.5647 72.6946 59.256C72.9376 58.967 73.0427 58.5204 73.1905 58.1788C73.3777 57.7388 73.381 57.2494 73.6043 56.8258C73.8276 56.4021 74.0378 56.0343 74.0345 55.5581C74.0345 54.9243 73.046 54.9243 73.0493 55.5581C73.0493 55.8668 72.8621 56.1131 72.7242 56.3792C72.5632 56.6944 72.491 57.0064 72.4187 57.348C72.3465 57.6895 72.202 57.9555 72.0805 58.2642C72.0542 58.3332 71.9557 58.4908 71.9688 58.5729L71.9294 58.6452L72.1757 58.6156C72.1757 58.6156 72.0903 58.4547 72.0805 58.4284C71.8407 57.8865 71.4861 57.4235 71.2332 56.8882C71.0394 56.481 70.8654 56.0704 70.5928 55.7092C70.3202 55.348 69.7849 54.8652 69.3054 55.1345C69.0657 55.2691 68.9475 55.5778 68.8555 55.8176C68.7439 56.1066 68.6158 56.3857 68.5107 56.678C68.3498 57.1246 68.1363 57.5647 67.9097 57.9818C67.8079 58.1657 67.7061 58.3594 67.5616 58.5171C67.5353 58.5466 67.4598 58.6156 67.4467 58.6287C67.5156 58.5663 67.5091 58.7338 67.4729 58.6156C67.4171 58.4317 67.3219 58.2675 67.2759 58.0737C67.2299 57.88 67.2004 57.6731 67.1445 57.476C67.046 57.1443 66.849 56.8685 66.688 56.5663C66.4976 56.2182 66.4516 55.811 66.3563 55.4301C66.1987 54.8159 65.2496 55.0754 65.4072 55.6928L65.3974 55.6895Z" fill="#F19A65"/>
<path d="M45.0397 53.0588C45.7325 53.0588 46.2942 52.4972 46.2942 51.8043C46.2942 51.1115 45.7325 50.5498 45.0397 50.5498C44.3468 50.5498 43.7852 51.1115 43.7852 51.8043C43.7852 52.4972 44.3468 53.0588 45.0397 53.0588Z" fill="white"/>
<path d="M60.7174 53.0588C61.4103 53.0588 61.9719 52.4972 61.9719 51.8043C61.9719 51.1115 61.4103 50.5498 60.7174 50.5498C60.0246 50.5498 59.4629 51.1115 59.4629 51.8043C59.4629 52.4972 60.0246 53.0588 60.7174 53.0588Z" fill="white"/>
<path d="M46.2646 67.1868C46.3238 67.5415 51.2827 76.2673 55.3582 67.1704" stroke="#644319" stroke-width="0.985222" stroke-miterlimit="10" stroke-linecap="round"/>
<path d="M34.6914 100.415C34.6914 100.415 36.5732 106.573 39.0822 108.882L34.6914 100.415Z" fill="white"/>
<path d="M34.6914 100.415C34.6914 100.415 36.5732 106.573 39.0822 108.882" stroke="#644319" stroke-width="0.985222" stroke-linecap="round" stroke-linejoin="round"/>
<path d="M42.8164 101.105C42.8164 101.105 43.158 106.152 45.0397 108.881L42.8164 101.105Z" fill="white"/>
<path d="M42.8164 101.105C42.8164 101.105 43.158 106.152 45.0397 108.881" stroke="#644319" stroke-width="0.985222" stroke-linecap="round" stroke-linejoin="round"/>
<path d="M66.051 101.042C66.051 101.042 64.1692 106.744 61.6602 108.882L66.051 101.042Z" fill="white"/>
<path d="M66.051 101.042C66.051 101.042 64.1692 106.744 61.6602 108.882" stroke="#644319" stroke-width="0.985222" stroke-linecap="round" stroke-linejoin="round"/>
<path d="M19.7358 76.4119C19.7358 76.4119 11.5289 89.315 23.8376 94.067L19.7358 76.4119Z" fill="#F19A65"/>
<path d="M19.7358 76.4119C19.7358 76.4119 11.5289 89.315 23.8376 94.067" stroke="#644319" stroke-width="0.985222" stroke-miterlimit="10" stroke-linecap="round"/>
<path d="M82.885 76.4119C82.885 76.4119 91.0919 89.315 78.7832 94.067L82.885 76.4119Z" fill="#F19A65"/>
<path d="M82.885 76.4119C82.885 76.4119 91.0919 89.315 78.7832 94.067" stroke="#644319" stroke-width="0.985222" stroke-miterlimit="10" stroke-linecap="round"/>
<path d="M18.7992 72.3823C18.7992 72.3823 48.4675 83.8766 84.5496 72.3823C84.5496 72.3823 80.5397 94.6056 76.5299 98.4349C76.5299 98.4349 55.6826 105.331 26.8156 98.4349C26.8156 98.4349 21.2031 91.5383 18.7959 72.3823H18.7992Z" fill="#F19A65" stroke="#644319" stroke-width="0.985222" stroke-linecap="round" stroke-linejoin="round"/>
<path d="M38.123 62.783C38.123 62.783 44.8488 70.9603 50.5795 63.4201" stroke="#644319" stroke-width="0.985222" stroke-miterlimit="10" stroke-linecap="round"/>
<path d="M50.6387 63.1113C50.6387 63.1113 57.3645 71.2887 63.0952 63.7484" stroke="#644319" stroke-width="0.985222" stroke-miterlimit="10" stroke-linecap="round"/>
<path d="M42.1 38.0474C40.701 37.6763 39.3512 37.5515 38.1887 37.6336C37.2954 37.5055 36.0606 37.8011 34.8652 38.5006C32.9801 39.604 31.9194 41.2921 32.4941 42.274C32.8028 42.7994 34.2182 42.0802 34.563 41.9292C35.1772 41.6632 35.8208 41.2559 36.5039 41.21C37.256 41.1607 37.719 41.6139 38.3857 41.8471C39.7125 42.3101 41.0688 42.6878 42.4415 42.9866C43.1772 43.1476 47.4694 44.2806 47.8077 43.0162C48.2806 41.2329 45.7256 39.0096 42.1033 38.0474H42.1Z" fill="#644319"/>
<path d="M59.7221 38.0474C61.1211 37.6763 62.4709 37.5515 63.6334 37.6336C64.5267 37.5055 65.7615 37.8011 66.9569 38.5006C68.842 39.604 69.9027 41.2921 69.328 42.274C69.0193 42.7994 67.6039 42.0802 67.259 41.9292C66.6449 41.6632 66.0012 41.2559 65.3182 41.21C64.5661 41.1607 64.103 41.6139 63.4364 41.8471C62.1096 42.3101 60.7533 42.6878 59.3806 42.9866C58.6449 43.1476 54.3526 44.2806 54.0144 43.0162C53.5415 41.2329 56.0965 39.0096 59.7188 38.0474H59.7221Z" fill="#644319"/>
<path d="M17.7025 47.1409L26.1458 34.0046L28.7501 20.7041C28.7501 20.7041 15.3806 32.1294 17.7025 47.1409Z" fill="#644319"/>
<path d="M86.0512 47.1409L76.3927 33.8404L73.4141 20.3757C73.4141 20.3757 88.7047 31.9422 86.0512 47.1409Z" fill="#644319"/>
<path d="M51.4099 31.5417L51.249 31.5844C51.3114 31.5844 51.3673 31.5713 51.4099 31.5417Z" fill="#644319"/>
<path d="M82.3658 27.2855C78.067 17.3249 67.535 14.2478 58.5497 12.6254C54.9241 11.9719 51.2624 11.522 47.5875 11.4136C41.4594 11.2363 35.1967 12.0015 29.5415 14.7666C23.7583 17.5942 18.9143 22.5663 15.3707 28.3364C15.154 28.6911 14.9307 29.0786 14.9307 29.5056C14.9241 30.8356 16.6088 30.5138 17.2821 30.2478C18.0341 29.9489 18.7895 29.6928 19.5448 29.4662C19.5448 29.4662 40.9044 22.6747 51.4134 31.5417C64.8716 22.7108 84.911 33.5121 84.911 33.5121C84.6253 32.1722 82.9044 28.5269 82.3691 27.2855H82.3658Z" fill="#644319"/>
<path d="M35.5518 12.5826C35.5518 12.5826 56.8555 5.04234 76.3005 19.4397C76.3005 19.4397 88.4483 27.7189 86.3498 42.9307L78.7833 25.6006L51.7948 22.4479L35.5518 12.5793V12.5826Z" fill="#644319"/>
<path d="M50.9109 25.7911C50.9109 25.7911 39.259 18.6154 28.75 23.2722" stroke="white" stroke-width="0.656814" stroke-miterlimit="10" stroke-linecap="round"/>
<path d="M53.8671 22.1788C53.8671 22.1788 42.7341 15.0031 32.6914 19.6599" stroke="white" stroke-width="0.656814" stroke-miterlimit="10" stroke-linecap="round"/>
<path d="M56.8222 16.9241C56.8222 16.9241 46.8977 11.4561 37.9453 15.0029" stroke="white" stroke-width="0.656814" stroke-miterlimit="10" stroke-linecap="round"/>
</g>
<path d="M50.9179 101C78.4868 101 100.836 78.6509 100.836 51.082C100.836 23.5131 78.4868 1.16406 50.9179 1.16406C23.349 1.16406 1 23.5131 1 51.082C1 78.6509 23.349 101 50.9179 101Z" stroke="black" stroke-width="1.31363" stroke-miterlimit="10"/>
</svg>
