<svg width="102" height="102" viewBox="0 0 102 102" fill="none" xmlns="http://www.w3.org/2000/svg">
<path d="M51 101C78.6142 101 101 78.6142 101 51C101 23.3858 78.6142 1 51 1C23.3858 1 1 23.3858 1 51C1 78.6142 23.3858 101 51 101Z" fill="white"/>
<mask id="mask0_2696_12640" style="mask-type:luminance" maskUnits="userSpaceOnUse" x="1" y="1" width="100" height="100">
<path d="M51 101C78.6142 101 101 78.6142 101 51C101 23.3858 78.6142 1 51 1C23.3858 1 1 23.3858 1 51C1 78.6142 23.3858 101 51 101Z" fill="white"/>
</mask>
<g mask="url(#mask0_2696_12640)">
<path d="M16.1317 59.3881C18.0392 59.3881 19.5856 56.6635 19.5856 53.3026C19.5856 49.9416 18.0392 47.217 16.1317 47.217C14.2241 47.217 12.6777 49.9416 12.6777 53.3026C12.6777 56.6635 14.2241 59.3881 16.1317 59.3881Z" fill="white" stroke="#644319" stroke-width="0.986842" stroke-miterlimit="10"/>
<path d="M86.5262 59.3881C88.4338 59.3881 89.9802 56.6635 89.9802 53.3026C89.9802 49.9416 88.4338 47.217 86.5262 47.217C84.6187 47.217 83.0723 49.9416 83.0723 53.3026C83.0723 56.6635 84.6187 59.3881 86.5262 59.3881Z" fill="white" stroke="#644319" stroke-width="0.986842" stroke-miterlimit="10"/>
<path d="M83.8127 32.546C83.3686 31.4802 82.8357 30.4375 82.2041 29.4243C73.0824 14.7664 51.2436 11.6513 36.0627 17.1611C32.7205 18.375 29.5396 20.0526 26.737 22.2467C19.7534 27.7171 16.9607 35.6348 16.8916 44.3223C16.8916 44.6644 16.8916 45.0065 16.8916 45.3486C16.9015 46.2598 16.9377 47.1743 16.987 48.0855C17.5791 58.6875 18.4936 69.3026 20.5857 79.7302C21.9969 86.7664 23.987 93.8026 27.7962 99.9703C29.5462 102.806 31.7502 105.497 34.7337 107.135C38.3258 109.108 42.6613 109.25 46.6548 109.49C53.2403 109.885 61.7304 110.428 67.7304 107.135C70.7173 105.497 72.9179 102.803 74.6679 99.9703C78.4771 93.8026 80.4673 86.7631 81.8784 79.7302C83.2567 72.8684 84.1219 65.9144 84.7238 58.944C85.464 50.3552 87.2831 40.8881 83.8028 32.5493L83.8127 32.546Z" fill="white" stroke="#644319" stroke-width="0.986842" stroke-miterlimit="10"/>
<path d="M54.7597 59.5922C54.7597 57.4211 46.8945 57.4211 46.8945 59.5922C46.8945 61.7632 48.6544 63.5231 50.8255 63.5231C52.9965 63.5231 54.7564 61.7632 54.7564 59.5922H54.7597Z" fill="#644319"/>
<path d="M58.6544 56.9738C60.8 56.9738 62.5393 54.8339 62.5393 52.1942C62.5393 49.5545 60.8 47.4146 58.6544 47.4146C56.5088 47.4146 54.7695 49.5545 54.7695 52.1942C54.7695 54.8339 56.5088 56.9738 58.6544 56.9738Z" fill="#644319"/>
<path d="M42.9474 56.9738C45.0929 56.9738 46.8322 54.8339 46.8322 52.1942C46.8322 49.5545 45.0929 47.4146 42.9474 47.4146C40.8018 47.4146 39.0625 49.5545 39.0625 52.1942C39.0625 54.8339 40.8018 56.9738 42.9474 56.9738Z" fill="#644319"/>
<path d="M27.6151 54.9013C27.3256 55.4244 27.4013 55.9803 27.4111 56.5527C27.421 57.1579 27.3454 57.7961 27.4309 58.398C27.5032 58.9178 27.8585 59.329 28.4144 59.3158C28.9704 59.3027 29.3519 58.8092 29.7697 58.5132C30.2763 58.1513 30.7829 57.7961 31.2631 57.398C31.4539 57.2402 31.671 57.125 31.8651 56.9737C31.9802 56.8849 31.9243 56.9803 31.8783 56.9277C31.9539 57.0132 32 57.1349 32.0559 57.2336C32.3223 57.7402 32.6019 58.273 32.9309 58.7434C33.2072 59.1415 33.4342 59.7171 33.921 59.898C34.5065 60.1152 34.9868 59.2862 35.2171 58.8717C35.3388 58.6513 35.4539 58.4277 35.5329 58.1842C35.6118 57.9408 35.6315 57.6151 35.796 57.4178C36.2006 56.9342 35.5065 56.2303 35.0986 56.7204C34.773 57.1086 34.7335 57.5592 34.5493 58.0132C34.4144 58.3487 34.1776 58.8323 33.8618 59.023H34.3585C34.171 58.9244 34.0789 58.7138 33.9736 58.5395C33.8454 58.329 33.694 58.1316 33.569 57.9178C33.3125 57.4803 33.0756 57.0296 32.8289 56.5888C32.625 56.2237 32.319 55.9375 31.875 55.9671C31.4046 56 30.9967 56.3487 30.648 56.6349C30.2401 56.9704 29.8157 57.2796 29.3848 57.5855C29.1579 57.7467 28.9375 57.9079 28.7269 58.0888C28.6513 58.1546 28.5559 58.2105 28.4868 58.2829C28.3585 58.4145 28.3552 58.2566 28.4407 58.3915C28.3552 58.2566 28.398 58.0066 28.4013 57.8619C28.4046 57.5724 28.4013 57.2829 28.4013 56.9902C28.4013 56.6974 28.3947 56.4112 28.3815 56.1217C28.3717 55.8783 28.3486 55.6217 28.4704 55.4046C28.7763 54.8487 27.9276 54.3487 27.6184 54.9079L27.6151 54.9013Z" fill="#F19A65"/>
<path d="M65.3388 55.7796C65.4704 56.2928 65.5592 56.7928 65.8322 57.2566C66.0263 57.5889 66.1414 57.8652 66.2237 58.2369C66.3553 58.8553 66.6184 59.704 67.3947 59.7073C68.171 59.7106 68.5724 58.8553 68.8553 58.2829C69.0099 57.9737 69.171 57.6612 69.296 57.3421C69.398 57.0856 69.4901 56.829 69.5987 56.5757C69.6743 56.3981 69.7204 56.1448 69.852 55.9968L69.5033 56.1415C69.6776 56.1579 69.8684 56.5494 69.9375 56.6777C70.0888 56.9474 70.2105 57.2336 70.3421 57.5099C70.5329 57.9079 70.8257 58.25 71.0197 58.6448C71.1776 58.9704 71.2566 59.329 71.5954 59.5231C71.9342 59.7171 72.3882 59.6612 72.648 59.352C72.8914 59.0625 72.9967 58.6152 73.1447 58.2731C73.3322 57.8323 73.3355 57.3422 73.5592 56.9178C73.7829 56.4935 73.9934 56.125 73.9901 55.6481C73.9901 55.0132 73 55.0132 73.0033 55.6481C73.0033 55.9573 72.8158 56.204 72.6776 56.4704C72.5164 56.7862 72.4441 57.0987 72.3717 57.4408C72.2993 57.7829 72.1546 58.0494 72.0329 58.3586C72.0066 58.4277 71.9079 58.5856 71.9211 58.6678L71.8816 58.7402L72.1283 58.7106C72.1283 58.7106 72.0428 58.5494 72.0329 58.5231C71.7928 57.9803 71.4375 57.5165 71.1842 56.9803C70.9901 56.5724 70.8158 56.1612 70.5428 55.7994C70.2697 55.4375 69.7336 54.954 69.2533 55.2237C69.0132 55.3586 68.8947 55.6678 68.8026 55.9079C68.6908 56.1974 68.5625 56.477 68.4572 56.7698C68.2961 57.2171 68.0822 57.6579 67.8553 58.0757C67.7533 58.2599 67.6513 58.454 67.5066 58.6119C67.4803 58.6415 67.4046 58.7106 67.3914 58.7237C67.4605 58.6612 67.4539 58.829 67.4178 58.7106C67.3618 58.5264 67.2664 58.3619 67.2204 58.1678C67.1743 57.9737 67.1447 57.7665 67.0888 57.5691C66.9901 57.2369 66.7928 56.9606 66.6316 56.6579C66.4408 56.3093 66.3947 55.9014 66.2993 55.5198C66.1414 54.9047 65.1908 55.1645 65.3487 55.7829L65.3388 55.7796Z" fill="#F19A65"/>
<path d="M44.947 53.1447C45.641 53.1447 46.2036 52.5822 46.2036 51.8882C46.2036 51.1942 45.641 50.6316 44.947 50.6316C44.253 50.6316 43.6904 51.1942 43.6904 51.8882C43.6904 52.5822 44.253 53.1447 44.947 53.1447Z" fill="white"/>
<path d="M60.6511 53.1447C61.3451 53.1447 61.9077 52.5822 61.9077 51.8882C61.9077 51.1942 61.3451 50.6316 60.6511 50.6316C59.9571 50.6316 59.3945 51.1942 59.3945 51.8882C59.3945 52.5822 59.9571 53.1447 60.6511 53.1447Z" fill="white"/>
<path d="M46.1738 66.967C46.233 67.3223 51.2001 76.3914 55.2824 67.2795" stroke="#644319" stroke-width="0.986842" stroke-miterlimit="10" stroke-linecap="round"/>
<path d="M34.582 100.579C34.582 100.579 36.4669 106.747 38.9801 109.059L34.582 100.579Z" fill="white"/>
<path d="M34.582 100.579C34.582 100.579 36.4669 106.747 38.9801 109.059" stroke="#644319" stroke-width="0.986842" stroke-linecap="round" stroke-linejoin="round"/>
<path d="M42.7207 101.27C42.7207 101.27 43.0628 106.326 44.9477 109.059L42.7207 101.27Z" fill="white"/>
<path d="M42.7207 101.27C42.7207 101.27 43.0628 106.326 44.9477 109.059" stroke="#644319" stroke-width="0.986842" stroke-linecap="round" stroke-linejoin="round"/>
<path d="M65.9937 101.207C65.9937 101.207 64.1089 106.918 61.5957 109.059L65.9937 101.207Z" fill="white"/>
<path d="M65.9937 101.207C65.9937 101.207 64.1089 106.918 61.5957 109.059" stroke="#644319" stroke-width="0.986842" stroke-linecap="round" stroke-linejoin="round"/>
<path d="M19.6015 76.5361C19.6015 76.5361 11.3811 89.4605 23.7101 94.2203L19.6015 76.5361Z" fill="#F19A65"/>
<path d="M19.6015 76.5361C19.6015 76.5361 11.3811 89.4605 23.7101 94.2203" stroke="#644319" stroke-width="0.986842" stroke-miterlimit="10" stroke-linecap="round"/>
<path d="M82.8556 76.5361C82.8556 76.5361 91.076 89.4605 78.7471 94.2203L82.8556 76.5361Z" fill="#F19A65"/>
<path d="M82.8556 76.5361C82.8556 76.5361 91.076 89.4605 78.7471 94.2203" stroke="#644319" stroke-width="0.986842" stroke-miterlimit="10" stroke-linecap="round"/>
<path d="M18.6644 72.5C18.6644 72.5 48.3815 84.0132 84.523 72.5C84.523 72.5 80.5065 94.7599 76.4901 98.5954C76.4901 98.5954 55.6085 105.503 26.694 98.5954C26.694 98.5954 21.0723 91.6875 18.6611 72.5H18.6644Z" fill="#F19A65" stroke="#644319" stroke-width="0.986842" stroke-linecap="round" stroke-linejoin="round"/>
<path d="M39.1845 39.2501C37.6187 39.2172 36.0464 39.3487 34.5266 39.6382C31.2437 40.2632 27.2766 41.602 25.6582 44.1612C25.701 44.0922 26.9871 43.852 27.1812 43.7797C29.8293 42.783 32.5102 42.3027 35.4279 42.5593C38.9444 42.8685 42.4937 42.908 46.02 42.6777C46.5793 42.6415 47.2503 42.5297 47.4345 42.1053C47.5891 41.7501 47.3029 41.3718 46.9674 41.1119C46.395 40.6678 45.6582 40.3882 44.9181 40.158C43.0891 39.5889 41.145 39.2928 39.1911 39.2501H39.1845Z" fill="#644319"/>
<path d="M61.1544 39.2501C62.7202 39.2172 64.2926 39.3487 65.8123 39.6382C69.0952 40.2632 73.0623 41.602 74.6807 44.1612C74.638 44.0922 73.3518 43.852 73.1577 43.7797C70.5097 42.783 67.8287 42.3027 64.911 42.5593C61.3945 42.8685 57.8452 42.908 54.3189 42.6777C53.7597 42.6415 53.0886 42.5297 52.9044 42.1053C52.7498 41.7501 53.036 41.3718 53.3715 41.1119C53.9439 40.6678 54.6807 40.3882 55.4209 40.158C57.2498 39.5889 59.1939 39.2928 61.1478 39.2501H61.1544Z" fill="#644319"/>
<path d="M38.3486 62.885C38.3486 62.885 45.0855 71.0758 50.8256 63.5232" stroke="#644319" stroke-width="0.986842" stroke-miterlimit="10" stroke-linecap="round"/>
<path d="M50.8848 63.2139C50.8848 63.2139 57.6216 71.4047 63.3617 63.852" stroke="#644319" stroke-width="0.986842" stroke-miterlimit="10" stroke-linecap="round"/>
<path d="M34.582 100.579C34.582 100.579 36.4669 106.747 38.9801 109.059L34.582 100.579Z" fill="white"/>
<path d="M34.582 100.579C34.582 100.579 36.4669 106.747 38.9801 109.059" stroke="#644319" stroke-width="0.986842" stroke-linecap="round" stroke-linejoin="round"/>
<path d="M42.7207 101.27C42.7207 101.27 43.0628 106.326 44.9477 109.059L42.7207 101.27Z" fill="white"/>
<path d="M42.7207 101.27C42.7207 101.27 43.0628 106.326 44.9477 109.059" stroke="#644319" stroke-width="0.986842" stroke-linecap="round" stroke-linejoin="round"/>
<path d="M65.9937 101.207C65.9937 101.207 64.1089 106.918 61.5957 109.059L65.9937 101.207Z" fill="white"/>
<path d="M65.9937 101.207C65.9937 101.207 64.1089 106.918 61.5957 109.059" stroke="#644319" stroke-width="0.986842" stroke-linecap="round" stroke-linejoin="round"/>
<path d="M38.9345 77.1711L34.5332 82.2238C34.5332 82.2238 40.2306 84.5823 42.9411 91.2929" fill="#F19A65"/>
<path d="M38.9345 77.1711L34.5332 82.2238C34.5332 82.2238 40.2306 84.5823 42.9411 91.2929" stroke="#644319" stroke-width="0.986842" stroke-linecap="round" stroke-linejoin="round"/>
<path d="M62.724 77.1711L67.1254 82.2238C67.1254 82.2238 61.7701 85.2402 59.0596 91.9507" fill="#F19A65"/>
<path d="M62.724 77.1711L67.1254 82.2238C67.1254 82.2238 61.7701 85.2402 59.0596 91.9507" stroke="#644319" stroke-width="0.986842" stroke-linecap="round" stroke-linejoin="round"/>
<path d="M42.8587 102.859L43.0758 90.7205L39.6416 77.5527L50.8784 83.9968L62.1153 77.5527L58.6811 90.7205L58.8982 102.859" fill="#F19A65"/>
<path d="M42.8587 102.859L43.0758 90.7205L39.6416 77.5527L50.8784 83.9968L62.1153 77.5527L58.6811 90.7205L58.8982 102.859" stroke="#644319" stroke-width="0.986842" stroke-linecap="round" stroke-linejoin="round"/>
<path d="M50.8844 84.7698L48.0686 91.5231L40.2988 78.5396" fill="white"/>
<path d="M50.8844 84.7698L48.0686 91.5231L40.2988 78.5396" stroke="#644319" stroke-width="0.986842" stroke-linecap="round" stroke-linejoin="round"/>
<path d="M61.4736 78.5396L53.7038 91.5231L50.8848 84.7698" fill="white"/>
<path d="M61.4736 78.5396L53.7038 91.5231L50.8848 84.7698" stroke="#644319" stroke-width="0.986842" stroke-linecap="round" stroke-linejoin="round"/>
<path d="M49.2402 89.375L50.8784 92.2796L52.2008 89.046L50.7205 85.4309L49.2402 89.375Z" fill="#644319"/>
<path d="M48.7471 98.1842L50.9313 102.974L52.6944 97.6414L50.7208 91.6809L48.7471 98.1842Z" fill="#644319"/>
<path d="M51.0002 11.2697C51.0002 11.2697 8.71077 9.68418 17.2305 51.8881C16.4937 48.2434 18.9312 41.7894 20.2798 38.3651C23.3391 30.6085 30.9739 25.9868 38.4838 23.1644C40.1154 22.5526 41.9443 22.2763 43.645 21.9276C46.7667 21.2894 49.9673 20.944 53.1548 21.1315C56.316 21.3158 59.4114 22.0625 62.4706 22.8355C62.8654 22.9342 63.27 23.023 63.6516 23.1644C71.2437 25.9835 78.9641 30.6052 82.0529 38.3651C83.418 41.7894 85.8785 48.2434 85.1351 51.8881C93.7469 9.68418 51.0002 11.2697 51.0002 11.2697Z" fill="#644319"/>
<path d="M70.6082 80.8718L67.7529 87.4573L71.9569 87.2205L70.6082 80.8718Z" fill="white" stroke="#644319" stroke-width="0.986842" stroke-linecap="round" stroke-linejoin="round"/>
<path d="M74.9439 82.6514L69.5195 87.3553L73.4143 88.9606L74.9439 82.6514Z" fill="white" stroke="#644319" stroke-width="0.986842" stroke-linecap="round" stroke-linejoin="round"/>
<path d="M73.8687 87.1843H69.6549H65.6318V94.0922H73.8687V87.1843Z" fill="#F19A65" stroke="#644319" stroke-width="0.986842" stroke-linecap="round" stroke-linejoin="round"/>
</g>
<path d="M51 101C78.6142 101 101 78.6142 101 51C101 23.3858 78.6142 1 51 1C23.3858 1 1 23.3858 1 51C1 78.6142 23.3858 101 51 101Z" stroke="black" stroke-width="1.31579" stroke-miterlimit="10"/>
</svg>
