<svg width="102" height="102" viewBox="0 0 102 102" fill="none" xmlns="http://www.w3.org/2000/svg">
<path d="M51.6641 101C79.2783 101 101.664 78.6142 101.664 51C101.664 23.3858 79.2783 1 51.6641 1C24.0498 1 1.66406 23.3858 1.66406 51C1.66406 78.6142 24.0498 101 51.6641 101Z" fill="white"/>
<mask id="mask0_2696_12646" style="mask-type:luminance" maskUnits="userSpaceOnUse" x="1" y="1" width="101" height="100">
<path d="M51.6641 101C79.2783 101 101.664 78.6142 101.664 51C101.664 23.3858 79.2783 1 51.6641 1C24.0498 1 1.66406 23.3858 1.66406 51C1.66406 78.6142 24.0498 101 51.6641 101Z" fill="white"/>
</mask>
<g mask="url(#mask0_2696_12646)">
<path d="M90.4043 39.6186C91.8451 38.5396 92.7826 36.8225 92.7826 34.8817C92.7826 32.0265 90.7628 29.6449 88.0753 29.0857C88.7596 28.1186 89.1642 26.9442 89.1642 25.6712C89.1642 22.7206 87.003 20.2798 84.1806 19.8324C84.2102 19.589 84.23 19.3456 84.23 19.0923C84.23 15.8225 81.5786 13.1712 78.3089 13.1712C77.7003 13.1712 77.1181 13.2633 76.5655 13.4344C76.0688 10.6679 73.6543 8.56596 70.7431 8.56596C69.0753 8.56596 67.5688 9.26004 66.4931 10.3719C65.4405 8.14161 63.1773 6.59227 60.5457 6.59227C59.0984 6.59227 57.7661 7.06596 56.6806 7.85543C55.6543 5.56267 53.355 3.96069 50.6773 3.96069C48.253 3.96069 46.5556 5.28964 45.0392 6.97714C45.3714 6.60543 41.3878 5.27648 40.8089 5.27648C37.7497 5.27648 35.2332 7.59556 34.9207 10.5725C33.8155 9.73043 32.4372 9.22385 30.9405 9.22385C27.3056 9.22385 24.3615 12.1679 24.3615 15.8028C24.3615 16.0265 24.3747 16.2469 24.3944 16.464C24.3846 16.464 24.3714 16.464 24.3615 16.464C21.0918 16.464 18.4405 19.1153 18.4405 22.385C18.4405 22.9607 18.526 23.5166 18.6806 24.0429C18.6017 24.0429 18.5227 24.0298 18.4405 24.0298C15.1707 24.0298 12.5194 26.6811 12.5194 29.9508C12.5194 31.2633 12.9503 32.4706 13.674 33.4541C11.6346 34.3883 10.2168 36.4442 10.2168 38.8324C10.2168 40.6844 11.0688 42.339 12.4043 43.4245C11.4569 44.4739 10.8747 45.8587 10.8747 47.385C10.8747 50.6548 13.526 53.3061 16.7957 53.3061C20.0655 53.3061 22.7168 50.6548 22.7168 47.385C22.7168 45.5331 21.8648 43.8785 20.5293 42.7929C21.4767 41.7436 22.0589 40.3587 22.0589 38.8324C22.0589 37.5199 21.628 36.3127 20.9043 35.3291C22.9438 34.3949 24.3615 32.339 24.3615 29.9508C24.3615 29.3752 24.276 28.8192 24.1214 28.2929C24.2003 28.2929 24.2793 28.3061 24.3615 28.3061C27.6313 28.3061 30.2826 25.6548 30.2826 22.385C30.2826 22.3752 30.2826 22.362 30.2826 22.3521C30.4997 22.3752 30.7201 22.385 30.9438 22.385C34.4734 22.385 37.3451 19.6021 37.5063 16.1153C38.4503 16.7502 39.5885 17.1219 40.8122 17.1219C42.7727 17.1219 44.503 16.1646 45.5819 14.6975C46.7892 16.1745 48.6247 17.1219 50.6806 17.1219C52.128 17.1219 53.4602 16.6482 54.5457 15.8587C55.5721 18.1515 57.8714 19.7535 60.549 19.7535C62.5753 19.7535 64.3846 18.8357 65.5918 17.3982C66.6082 19.1975 68.5326 20.4114 70.7464 20.4114C71.355 20.4114 71.9372 20.3192 72.4898 20.1482C72.9339 22.612 74.8977 24.5396 77.3747 24.9344C77.3451 25.1778 77.3253 25.4212 77.3253 25.6745C77.3253 28.5298 79.3451 30.9114 82.0326 31.4706C81.3484 32.4377 80.9438 33.612 80.9438 34.885C80.9438 36.6745 81.7398 38.2732 82.9931 39.3587C81.5523 40.4377 80.6148 42.1548 80.6148 44.0956C80.6148 47.3653 83.2661 50.0166 86.5359 50.0166C89.8056 50.0166 92.4569 47.3653 92.4569 44.0956C92.4569 42.3061 91.6609 40.7074 90.4076 39.6219L90.4043 39.6186Z" fill="#644319"/>
<path d="M16.7957 59.3881C18.7033 59.3881 20.2497 56.6635 20.2497 53.3026C20.2497 49.9416 18.7033 47.217 16.7957 47.217C14.8882 47.217 13.3418 49.9416 13.3418 53.3026C13.3418 56.6635 14.8882 59.3881 16.7957 59.3881Z" fill="white" stroke="#644319" stroke-width="0.986842" stroke-miterlimit="10"/>
<path d="M87.1903 59.3881C89.0978 59.3881 90.6442 56.6635 90.6442 53.3026C90.6442 49.9416 89.0978 47.217 87.1903 47.217C85.2827 47.217 83.7363 49.9416 83.7363 53.3026C83.7363 56.6635 85.2827 59.3881 87.1903 59.3881Z" fill="white" stroke="#644319" stroke-width="0.986842" stroke-miterlimit="10"/>
<path d="M84.8058 32.5199C84.3617 31.4146 83.8288 30.3324 83.1973 29.2764C74.0756 14.0528 52.2367 10.8159 37.0558 16.5396C33.7137 17.7995 30.5328 19.5429 27.7302 21.8225C20.7466 27.5067 17.9538 35.7304 17.8848 44.7501C17.8848 45.1054 17.8848 45.4607 17.8848 45.8192C17.8946 46.7666 17.9308 47.7139 17.9802 48.6613C18.5723 59.6745 19.4867 70.7008 21.5788 81.5297C22.99 88.8389 24.9802 96.1482 28.7894 102.553C30.5394 105.497 32.7433 108.293 35.7269 109.997C39.319 112.046 43.6545 112.194 47.6479 112.441C54.2334 112.852 62.7236 113.415 68.7236 109.997C71.7104 108.296 73.9111 105.497 75.6611 102.553C79.4703 96.1449 81.4604 88.8357 82.8716 81.5297C84.2499 74.4014 85.115 67.1778 85.717 59.9376C86.4571 51.0166 88.2762 41.1811 84.796 32.5232L84.8058 32.5199Z" fill="white" stroke="#644319" stroke-width="0.986842" stroke-miterlimit="10"/>
<path d="M55.4237 59.5922C55.4237 57.4211 47.5586 57.4211 47.5586 59.5922C47.5586 61.7632 49.3185 63.5231 51.4895 63.5231C53.6606 63.5231 55.4204 61.7632 55.4204 59.5922H55.4237Z" fill="#644319"/>
<path d="M59.3185 56.9738C61.464 56.9738 63.2033 54.8339 63.2033 52.1942C63.2033 49.5545 61.464 47.4146 59.3185 47.4146C57.1729 47.4146 55.4336 49.5545 55.4336 52.1942C55.4336 54.8339 57.1729 56.9738 59.3185 56.9738Z" fill="#644319"/>
<path d="M43.6114 56.9738C45.757 56.9738 47.4963 54.8339 47.4963 52.1942C47.4963 49.5545 45.757 47.4146 43.6114 47.4146C41.4659 47.4146 39.7266 49.5545 39.7266 52.1942C39.7266 54.8339 41.4659 56.9738 43.6114 56.9738Z" fill="#644319"/>
<path d="M24.9891 54.9013C24.6996 55.4244 24.7753 55.9803 24.7852 56.5527C24.795 57.1579 24.7194 57.7961 24.8049 58.398C24.8773 58.9178 25.2325 59.329 25.7885 59.3158C26.3444 59.3027 26.726 58.8092 27.1437 58.5132C27.6503 58.1513 28.1569 57.7961 28.6371 57.398C28.8279 57.2402 29.045 57.125 29.2391 56.9737C29.3542 56.8849 29.2983 56.9803 29.2523 56.9277C29.3279 57.0132 29.374 57.1349 29.4299 57.2336C29.6964 57.7401 29.976 58.273 30.3049 58.7434C30.5812 59.1415 30.8082 59.7171 31.295 59.898C31.8806 60.1152 32.3608 59.2862 32.5911 58.8717C32.7128 58.6513 32.8279 58.4276 32.9069 58.1842C32.9858 57.9408 33.0056 57.6151 33.17 57.4178C33.5746 56.9342 32.8806 56.2303 32.4727 56.7204C32.147 57.1086 32.1075 57.5592 31.9233 58.0132C31.7885 58.3487 31.5516 58.8323 31.2358 59.023H31.7325C31.545 58.9244 31.4529 58.7138 31.3477 58.5395C31.2194 58.329 31.0681 58.1316 30.9431 57.9178C30.6865 57.4803 30.4496 57.0296 30.2029 56.5888C29.999 56.2237 29.6931 55.9375 29.249 55.9671C28.7786 56 28.3707 56.3487 28.022 56.6349C27.6141 56.9704 27.1898 57.2796 26.7589 57.5855C26.5319 57.7467 26.3115 57.9079 26.101 58.0888C26.0253 58.1546 25.9299 58.2105 25.8608 58.2829C25.7325 58.4145 25.7292 58.2566 25.8148 58.3915C25.7292 58.2566 25.772 58.0066 25.7753 57.8619C25.7786 57.5724 25.7753 57.2829 25.7753 56.9902C25.7753 56.6974 25.7687 56.4112 25.7556 56.1217C25.7457 55.8783 25.7227 55.6217 25.8444 55.4046C26.1503 54.8487 25.3016 54.3487 24.9924 54.9079L24.9891 54.9013Z" fill="#F19A65"/>
<path d="M69.2919 55.7796C69.4235 56.2928 69.5123 56.7928 69.7854 57.2566C69.9794 57.5889 70.0946 57.8652 70.1768 58.2369C70.3084 58.8553 70.5715 59.704 71.3479 59.7073C72.1242 59.7106 72.5255 58.8553 72.8084 58.2829C72.963 57.9737 73.1242 57.6612 73.2492 57.3421C73.3511 57.0856 73.4433 56.829 73.5518 56.5757C73.6275 56.3981 73.6735 56.1448 73.8051 55.9968L73.4564 56.1415C73.6308 56.1579 73.8215 56.5494 73.8906 56.6777C74.0419 56.9474 74.1637 57.2336 74.2952 57.5099C74.486 57.9079 74.7788 58.25 74.9729 58.6448C75.1308 58.9704 75.2097 59.329 75.5485 59.5231C75.8873 59.7171 76.3413 59.6612 76.6011 59.352C76.8446 59.0625 76.9498 58.6152 77.0979 58.2731C77.2854 57.8323 77.2887 57.3422 77.5123 56.9178C77.736 56.4935 77.9465 56.125 77.9433 55.6481C77.9433 55.0132 76.9531 55.0132 76.9564 55.6481C76.9564 55.9573 76.7689 56.204 76.6308 56.4704C76.4696 56.7862 76.3972 57.0987 76.3248 57.4408C76.2525 57.7829 76.1077 58.0494 75.986 58.3586C75.9597 58.4277 75.861 58.5856 75.8742 58.6678L75.8347 58.7402L76.0814 58.7106C76.0814 58.7106 75.9959 58.5494 75.986 58.5231C75.7459 57.9803 75.3906 57.5165 75.1373 56.9803C74.9433 56.5724 74.7689 56.1612 74.4959 55.7994C74.2229 55.4375 73.6867 54.954 73.2064 55.2237C72.9663 55.3586 72.8479 55.6678 72.7558 55.9079C72.6439 56.1974 72.5156 56.477 72.4104 56.7698C72.2492 57.2171 72.0354 57.6579 71.8084 58.0757C71.7064 58.2599 71.6044 58.454 71.4597 58.6119C71.4334 58.6415 71.3577 58.7106 71.3446 58.7237C71.4136 58.6612 71.4071 58.829 71.3709 58.7106C71.315 58.5264 71.2196 58.3619 71.1735 58.1678C71.1275 57.9737 71.0979 57.7665 71.0419 57.5691C70.9433 57.2369 70.7459 56.9606 70.5847 56.6579C70.3939 56.3093 70.3479 55.9014 70.2525 55.5198C70.0946 54.9047 69.1439 55.1645 69.3018 55.7829L69.2919 55.7796Z" fill="#F19A65"/>
<path d="M45.6111 53.1447C46.3051 53.1447 46.8676 52.5822 46.8676 51.8882C46.8676 51.1942 46.3051 50.6316 45.6111 50.6316C44.9171 50.6316 44.3545 51.1942 44.3545 51.8882C44.3545 52.5822 44.9171 53.1447 45.6111 53.1447Z" fill="white"/>
<path d="M61.3152 53.1447C62.0092 53.1447 62.5718 52.5822 62.5718 51.8882C62.5718 51.1942 62.0092 50.6316 61.3152 50.6316C60.6212 50.6316 60.0586 51.1942 60.0586 51.8882C60.0586 52.5822 60.6212 53.1447 61.3152 53.1447Z" fill="white"/>
<path d="M46.8379 66.967C46.8971 67.3223 51.8642 76.3914 55.9464 67.2795" stroke="#644319" stroke-width="0.986842" stroke-miterlimit="10" stroke-linecap="round"/>
<path d="M35.2461 100.579C35.2461 100.579 37.131 106.747 39.6441 109.059L35.2461 100.579Z" fill="white"/>
<path d="M35.2461 100.579C35.2461 100.579 37.131 106.747 39.6441 109.059" stroke="#644319" stroke-width="0.986842" stroke-linecap="round" stroke-linejoin="round"/>
<path d="M20.2656 76.5364C20.2656 76.5364 12.0452 89.4607 24.3741 94.2206L20.2656 76.5364Z" fill="#F19A65"/>
<path d="M20.2656 76.5364C20.2656 76.5364 12.0452 89.4607 24.3741 94.2206" stroke="#644319" stroke-width="0.986842" stroke-miterlimit="10" stroke-linecap="round"/>
<path d="M83.5197 76.5361C83.5197 76.5361 91.7401 89.4605 79.4111 94.2203L83.5197 76.5361Z" fill="#F19A65"/>
<path d="M83.5197 76.5361C83.5197 76.5361 91.7401 89.4605 79.4111 94.2203" stroke="#644319" stroke-width="0.986842" stroke-miterlimit="10" stroke-linecap="round"/>
<path d="M19.3285 72.5C19.3285 72.5 49.0456 84.0132 85.187 72.5C85.187 72.5 81.1706 94.7599 77.1541 98.5954C77.1541 98.5954 56.2726 105.503 27.3581 98.5954C27.3581 98.5954 21.7364 91.6875 19.3252 72.5H19.3285Z" fill="#F19A65" stroke="#644319" stroke-width="0.986842" stroke-linecap="round" stroke-linejoin="round"/>
<path d="M39.0127 62.8845C39.0127 62.8845 45.7495 71.0753 51.4897 63.5227" stroke="#644319" stroke-width="0.986842" stroke-miterlimit="10" stroke-linecap="round"/>
<path d="M51.5488 63.2134C51.5488 63.2134 58.2857 71.4042 64.0258 63.8515" stroke="#644319" stroke-width="0.986842" stroke-miterlimit="10" stroke-linecap="round"/>
<path d="M39.5986 77.1711L35.1973 82.2238C35.1973 82.2238 40.8946 84.5823 43.6052 91.2928" fill="#F19A65"/>
<path d="M39.5986 77.1711L35.1973 82.2238C35.1973 82.2238 40.8946 84.5823 43.6052 91.2928" stroke="#644319" stroke-width="0.986842" stroke-linecap="round" stroke-linejoin="round"/>
<path d="M63.3881 77.1711L67.7894 82.2238C67.7894 82.2238 62.4342 85.2402 59.7236 91.9507" fill="#F19A65"/>
<path d="M63.3881 77.1711L67.7894 82.2238C67.7894 82.2238 62.4342 85.2402 59.7236 91.9507" stroke="#644319" stroke-width="0.986842" stroke-linecap="round" stroke-linejoin="round"/>
<path d="M43.5228 102.859L43.7399 90.7205L40.3057 77.5527L51.5425 83.9968L62.7793 77.5527L59.3451 90.7205L59.5622 102.859" fill="#F19A65"/>
<path d="M43.5228 102.859L43.7399 90.7205L40.3057 77.5527L51.5425 83.9968L62.7793 77.5527L59.3451 90.7205L59.5622 102.859" stroke="#644319" stroke-width="0.986842" stroke-linecap="round" stroke-linejoin="round"/>
<path d="M51.5484 84.7698L48.7326 91.5231L40.9629 78.5396" fill="white"/>
<path d="M51.5484 84.7698L48.7326 91.5231L40.9629 78.5396" stroke="#644319" stroke-width="0.986842" stroke-linecap="round" stroke-linejoin="round"/>
<path d="M62.1376 78.5396L54.3679 91.5231L51.5488 84.7698" fill="white"/>
<path d="M62.1376 78.5396L54.3679 91.5231L51.5488 84.7698" stroke="#644319" stroke-width="0.986842" stroke-linecap="round" stroke-linejoin="round"/>
<path d="M42.6668 38.1084C41.2655 37.7367 39.9135 37.6117 38.7491 37.694C37.8543 37.5657 36.6175 37.8617 35.4201 38.5624C33.532 39.6676 32.4695 41.3584 33.0451 42.342C33.3543 42.8683 34.7721 42.1479 35.1175 41.9966C35.7326 41.7301 36.3773 41.3222 37.0616 41.2762C37.8148 41.2268 38.2787 41.6808 38.9464 41.9143C40.2754 42.3782 41.6339 42.7565 43.0089 43.0558C43.7458 43.217 48.0451 44.3518 48.3839 43.0854C48.8576 41.2992 46.2984 39.0722 42.6701 38.1084H42.6668Z" fill="#644319"/>
<path d="M60.3185 38.1084C61.7198 37.7367 63.0718 37.6117 64.2363 37.694C65.131 37.5657 66.3678 37.8617 67.5652 38.5624C69.4534 39.6676 70.5159 41.3584 69.9402 42.342C69.631 42.8683 68.2132 42.1479 67.8678 41.9966C67.2527 41.7301 66.608 41.3222 65.9238 41.2762C65.1705 41.2268 64.7066 41.6808 64.0389 41.9143C62.7099 42.3782 61.3514 42.7565 59.9764 43.0558C59.2395 43.217 54.9402 44.3518 54.6014 43.0854C54.1277 41.2992 56.6869 39.0722 60.3152 38.1084H60.3185Z" fill="#644319"/>
<path d="M17.9012 47.2168L26.3584 34.0589L28.967 20.7366C28.967 20.7366 15.5755 32.1807 17.9012 47.2168Z" fill="#644319"/>
<path d="M86.361 47.2172L76.6867 33.8948L73.7031 20.408C73.7031 20.408 89.0189 31.9935 86.361 47.2172Z" fill="#644319"/>
<path d="M51.6636 31.592L51.5029 31.6347C51.5652 31.6347 51.621 31.6215 51.6636 31.592Z" fill="#644319"/>
<path d="M82.671 27.3289C78.3651 17.352 66.5855 16.4408 57.5855 14.8158C53.9539 14.1612 52.3848 13.9375 48.7039 13.8289C42.5657 13.6513 39.569 15.0066 33.9012 17.7763C28.1085 20.6085 30.9407 19.421 25.6776 24.0263C25.3651 24.2993 22.3914 27.2138 22.3881 27.6447C22.3815 28.977 21.7137 31.8585 22.3881 31.5921C23.1414 31.2928 21.6282 29.8454 22.3881 29.6184V28.6316C22.3881 28.6316 40.8091 22.7105 51.3355 31.5921C64.8157 22.7467 85.217 33.5658 85.217 33.5658C84.9309 32.2237 83.2072 28.5724 82.671 27.3289Z" fill="#644319"/>
<path d="M39.1641 15.4737C39.1641 15.4737 55.2825 7.57901 76.9239 20.4573C76.9239 20.4573 89.0917 28.7501 86.9897 43.9869L79.4108 26.6284L52.3779 23.4705L39.1641 15.4705V15.4737Z" fill="#644319"/>
<path d="M38.023 45.76H47.4736L49.0328 48.2041V56.1383L42.7203 60.4343L35.8486 56.6317V48.2041L38.023 45.76Z" stroke="#644319" stroke-width="0.986842" stroke-linecap="round" stroke-linejoin="round"/>
<path d="M56.1148 45.76H65.5654L67.1246 48.2041V56.1383L60.8121 60.4343L53.9404 56.6317V48.2041L56.1148 45.76Z" stroke="#644319" stroke-width="0.986842" stroke-linecap="round" stroke-linejoin="round"/>
<path d="M48.7031 51.5491H54.2952" stroke="#644319" stroke-width="0.986842" stroke-miterlimit="10"/>
</g>
<path d="M51.3359 101C78.9502 101 101.336 78.6142 101.336 51C101.336 23.3858 78.9502 1 51.3359 1C23.7217 1 1.33594 23.3858 1.33594 51C1.33594 78.6142 23.7217 101 51.3359 101Z" stroke="black" stroke-width="1.31579" stroke-miterlimit="10"/>
</svg>
