<svg width="102" height="102" viewBox="0 0 102 102" fill="none" xmlns="http://www.w3.org/2000/svg">
<path d="M51 101C78.6142 101 101 78.6142 101 51C101 23.3858 78.6142 1 51 1C23.3858 1 1 23.3858 1 51C1 78.6142 23.3858 101 51 101Z" fill="white"/>
<mask id="mask0_2696_12641" style="mask-type:luminance" maskUnits="userSpaceOnUse" x="1" y="1" width="100" height="100">
<path d="M51 101C78.6142 101 101 78.6142 101 51C101 23.3858 78.6142 1 51 1C23.3858 1 1 23.3858 1 51C1 78.6142 23.3858 101 51 101Z" fill="white"/>
</mask>
<g mask="url(#mask0_2696_12641)">
<path d="M16.1317 59.3881C18.0392 59.3881 19.5856 56.6635 19.5856 53.3026C19.5856 49.9416 18.0392 47.217 16.1317 47.217C14.2241 47.217 12.6777 49.9416 12.6777 53.3026C12.6777 56.6635 14.2241 59.3881 16.1317 59.3881Z" fill="white" stroke="#644319" stroke-width="0.986842" stroke-miterlimit="10"/>
<path d="M86.5262 59.3881C88.4338 59.3881 89.9802 56.6635 89.9802 53.3026C89.9802 49.9416 88.4338 47.217 86.5262 47.217C84.6187 47.217 83.0723 49.9416 83.0723 53.3026C83.0723 56.6635 84.6187 59.3881 86.5262 59.3881Z" fill="white" stroke="#644319" stroke-width="0.986842" stroke-miterlimit="10"/>
<path d="M84.1418 32.546C83.6977 31.4802 83.1648 30.4375 82.5332 29.4243C73.4115 14.7664 51.5727 11.6513 36.3918 17.1611C33.0496 18.375 29.8687 20.0526 27.0661 22.2467C20.0825 27.7171 17.2898 35.6348 17.2207 44.3223C17.2207 44.6644 17.2207 45.0065 17.2207 45.3486C17.2306 46.2598 17.2668 47.1743 17.3161 48.0855C17.9082 58.6875 18.8227 69.3026 20.9148 79.7302C22.326 86.7664 24.3161 93.8026 28.1253 99.9703C29.8753 102.806 32.0793 105.497 35.0628 107.135C38.6549 109.108 42.9904 109.25 46.9839 109.49C53.5694 109.885 62.0595 110.428 68.0595 107.135C71.0464 105.497 73.247 102.803 74.997 99.9703C78.8062 93.8026 80.7964 86.7631 82.2075 79.7302C83.5858 72.8684 84.451 65.9144 85.0529 58.944C85.7931 50.3552 87.6122 40.8881 84.1319 32.5493L84.1418 32.546Z" fill="white" stroke="#644319" stroke-width="0.986842" stroke-miterlimit="10"/>
<path d="M54.7597 59.5922C54.7597 57.4211 46.8945 57.4211 46.8945 59.5922C46.8945 61.7632 48.6544 63.5231 50.8255 63.5231C52.9965 63.5231 54.7564 61.7632 54.7564 59.5922H54.7597Z" fill="#644319"/>
<path d="M55.3682 42.7039C55.3682 45.0263 71.3945 45.0263 71.3945 42.7039C71.3945 40.3816 67.8057 38.5 63.3813 38.5C58.957 38.5 55.3682 40.3816 55.3682 42.7039Z" fill="#644319"/>
<path d="M47.3977 42.8422C47.2858 45.1777 29.8155 44.6678 29.9273 42.3323C30.0391 39.9968 34.0424 38.2205 38.8648 38.3619C43.6904 38.5033 47.5095 40.5099 47.3944 42.8422H47.3977Z" fill="#644319"/>
<path d="M58.6544 56.9738C60.8 56.9738 62.5393 54.8339 62.5393 52.1942C62.5393 49.5545 60.8 47.4146 58.6544 47.4146C56.5088 47.4146 54.7695 49.5545 54.7695 52.1942C54.7695 54.8339 56.5088 56.9738 58.6544 56.9738Z" fill="#644319"/>
<path d="M42.9474 56.9738C45.0929 56.9738 46.8322 54.8339 46.8322 52.1942C46.8322 49.5545 45.0929 47.4146 42.9474 47.4146C40.8018 47.4146 39.0625 49.5545 39.0625 52.1942C39.0625 54.8339 40.8018 56.9738 42.9474 56.9738Z" fill="#644319"/>
<path d="M27.6151 54.9013C27.3256 55.4244 27.4013 55.9803 27.4111 56.5527C27.421 57.1579 27.3454 57.7961 27.4309 58.398C27.5032 58.9178 27.8585 59.329 28.4144 59.3158C28.9704 59.3027 29.3519 58.8092 29.7697 58.5132C30.2763 58.1513 30.7829 57.7961 31.2631 57.398C31.4539 57.2402 31.671 57.125 31.8651 56.9737C31.9802 56.8849 31.9243 56.9803 31.8783 56.9277C31.9539 57.0132 32 57.1349 32.0559 57.2336C32.3223 57.7402 32.6019 58.273 32.9309 58.7434C33.2072 59.1415 33.4342 59.7171 33.921 59.898C34.5065 60.1152 34.9868 59.2862 35.2171 58.8717C35.3388 58.6513 35.4539 58.4277 35.5329 58.1842C35.6118 57.9408 35.6315 57.6151 35.796 57.4178C36.2006 56.9342 35.5065 56.2303 35.0986 56.7204C34.773 57.1086 34.7335 57.5592 34.5493 58.0132C34.4144 58.3487 34.1776 58.8323 33.8618 59.023H34.3585C34.171 58.9244 34.0789 58.7138 33.9736 58.5395C33.8454 58.329 33.694 58.1316 33.569 57.9178C33.3125 57.4803 33.0756 57.0296 32.8289 56.5888C32.625 56.2237 32.319 55.9375 31.875 55.9671C31.4046 56 30.9967 56.3487 30.648 56.6349C30.2401 56.9704 29.8157 57.2796 29.3848 57.5855C29.1579 57.7467 28.9375 57.9079 28.7269 58.0888C28.6513 58.1546 28.5559 58.2105 28.4868 58.2829C28.3585 58.4145 28.3552 58.2566 28.4407 58.3915C28.3552 58.2566 28.398 58.0066 28.4013 57.8619C28.4046 57.5724 28.4013 57.2829 28.4013 56.9902C28.4013 56.6974 28.3947 56.4112 28.3815 56.1217C28.3717 55.8783 28.3486 55.6217 28.4704 55.4046C28.7763 54.8487 27.9276 54.3487 27.6184 54.9079L27.6151 54.9013Z" fill="#F19A65"/>
<path d="M65.3388 55.7796C65.4704 56.2928 65.5592 56.7928 65.8322 57.2566C66.0263 57.5889 66.1414 57.8652 66.2237 58.2369C66.3553 58.8553 66.6184 59.704 67.3947 59.7073C68.171 59.7106 68.5724 58.8553 68.8553 58.2829C69.0099 57.9737 69.171 57.6612 69.296 57.3421C69.398 57.0856 69.4901 56.829 69.5987 56.5757C69.6743 56.3981 69.7204 56.1448 69.852 55.9968L69.5033 56.1415C69.6776 56.1579 69.8684 56.5494 69.9375 56.6777C70.0888 56.9474 70.2105 57.2336 70.3421 57.5099C70.5329 57.9079 70.8257 58.25 71.0197 58.6448C71.1776 58.9704 71.2566 59.329 71.5954 59.5231C71.9342 59.7171 72.3882 59.6612 72.648 59.352C72.8914 59.0625 72.9967 58.6152 73.1447 58.2731C73.3322 57.8323 73.3355 57.3422 73.5592 56.9178C73.7829 56.4935 73.9934 56.125 73.9901 55.6481C73.9901 55.0132 73 55.0132 73.0033 55.6481C73.0033 55.9573 72.8158 56.204 72.6776 56.4704C72.5164 56.7862 72.4441 57.0987 72.3717 57.4408C72.2993 57.7829 72.1546 58.0494 72.0329 58.3586C72.0066 58.4277 71.9079 58.5856 71.9211 58.6678L71.8816 58.7402L72.1283 58.7106C72.1283 58.7106 72.0428 58.5494 72.0329 58.5231C71.7928 57.9803 71.4375 57.5165 71.1842 56.9803C70.9901 56.5724 70.8158 56.1612 70.5428 55.7994C70.2697 55.4375 69.7336 54.954 69.2533 55.2237C69.0132 55.3586 68.8947 55.6678 68.8026 55.9079C68.6908 56.1974 68.5625 56.477 68.4572 56.7698C68.2961 57.2171 68.0822 57.6579 67.8553 58.0757C67.7533 58.2599 67.6513 58.454 67.5066 58.6119C67.4803 58.6415 67.4046 58.7106 67.3914 58.7237C67.4605 58.6612 67.4539 58.829 67.4178 58.7106C67.3618 58.5264 67.2664 58.3619 67.2204 58.1678C67.1743 57.9737 67.1447 57.7665 67.0888 57.5691C66.9901 57.2369 66.7928 56.9606 66.6316 56.6579C66.4408 56.3093 66.3947 55.9014 66.2993 55.5198C66.1414 54.9047 65.1908 55.1645 65.3487 55.7829L65.3388 55.7796Z" fill="#F19A65"/>
<path d="M44.947 53.1447C45.641 53.1447 46.2036 52.5822 46.2036 51.8882C46.2036 51.1942 45.641 50.6316 44.947 50.6316C44.253 50.6316 43.6904 51.1942 43.6904 51.8882C43.6904 52.5822 44.253 53.1447 44.947 53.1447Z" fill="white"/>
<path d="M60.6511 53.1447C61.3451 53.1447 61.9077 52.5822 61.9077 51.8882C61.9077 51.1942 61.3451 50.6316 60.6511 50.6316C59.9571 50.6316 59.3945 51.1942 59.3945 51.8882C59.3945 52.5822 59.9571 53.1447 60.6511 53.1447Z" fill="white"/>
<path d="M46.5029 66.6382C46.5621 66.9934 51.5292 76.0625 55.6115 66.9507" stroke="#644319" stroke-width="0.986842" stroke-miterlimit="10" stroke-linecap="round"/>
<path d="M19.6015 76.5361C19.6015 76.5361 11.3811 89.4605 23.7101 94.2203L19.6015 76.5361Z" fill="#F19A65"/>
<path d="M19.6015 76.5361C19.6015 76.5361 11.3811 89.4605 23.7101 94.2203" stroke="#644319" stroke-width="0.986842" stroke-miterlimit="10" stroke-linecap="round"/>
<path d="M82.8556 76.5361C82.8556 76.5361 91.076 89.4605 78.7471 94.2203L82.8556 76.5361Z" fill="#F19A65"/>
<path d="M82.8556 76.5361C82.8556 76.5361 91.076 89.4605 78.7471 94.2203" stroke="#644319" stroke-width="0.986842" stroke-miterlimit="10" stroke-linecap="round"/>
<path d="M18.6644 72.5C18.6644 72.5 48.3815 84.0132 84.523 72.5C84.523 72.5 80.5065 94.7599 76.4901 98.5954C76.4901 98.5954 55.6085 105.503 26.694 98.5954C26.694 98.5954 21.0723 91.6875 18.6611 72.5H18.6644Z" fill="#F19A65" stroke="#644319" stroke-width="0.986842" stroke-linecap="round" stroke-linejoin="round"/>
<path d="M38.3486 62.885C38.3486 62.885 45.0855 71.0758 50.8256 63.5232" stroke="#644319" stroke-width="0.986842" stroke-miterlimit="10" stroke-linecap="round"/>
<path d="M50.8848 63.2139C50.8848 63.2139 57.6216 71.4047 63.3617 63.852" stroke="#644319" stroke-width="0.986842" stroke-miterlimit="10" stroke-linecap="round"/>
<path d="M38.9345 77.1711L34.5332 82.2238C34.5332 82.2238 40.2306 84.5823 42.9411 91.2929" fill="#F19A65"/>
<path d="M38.9345 77.1711L34.5332 82.2238C34.5332 82.2238 40.2306 84.5823 42.9411 91.2929" stroke="#644319" stroke-width="0.986842" stroke-linecap="round" stroke-linejoin="round"/>
<path d="M62.724 77.1711L67.1254 82.2238C67.1254 82.2238 61.7701 85.2402 59.0596 91.9507" fill="#F19A65"/>
<path d="M62.724 77.1711L67.1254 82.2238C67.1254 82.2238 61.7701 85.2402 59.0596 91.9507" stroke="#644319" stroke-width="0.986842" stroke-linecap="round" stroke-linejoin="round"/>
<path d="M42.8587 102.859L43.0758 90.7205L39.6416 77.5527L50.8784 83.9968L62.1153 77.5527L58.6811 90.7205L58.8982 102.859" fill="#F19A65"/>
<path d="M42.8587 102.859L43.0758 90.7205L39.6416 77.5527L50.8784 83.9968L62.1153 77.5527L58.6811 90.7205L58.8982 102.859" stroke="#644319" stroke-width="0.986842" stroke-linecap="round" stroke-linejoin="round"/>
<path d="M50.8844 84.7698L48.0686 91.5231L40.2988 78.5396" fill="white"/>
<path d="M50.8844 84.7698L48.0686 91.5231L40.2988 78.5396" stroke="#644319" stroke-width="0.986842" stroke-linecap="round" stroke-linejoin="round"/>
<path d="M61.4736 78.5396L53.7038 91.5231L50.8848 84.7698" fill="white"/>
<path d="M61.4736 78.5396L53.7038 91.5231L50.8848 84.7698" stroke="#644319" stroke-width="0.986842" stroke-linecap="round" stroke-linejoin="round"/>
<path d="M49.2402 89.375L50.8784 92.2796L52.2008 89.046L50.7205 85.4309L49.2402 89.375Z" fill="#644319"/>
<path d="M48.7471 98.1842L50.9313 102.974L52.6944 97.6414L50.7208 91.6809L48.7471 98.1842Z" fill="#644319"/>
<path d="M96.8978 34.0691C96.7103 32.7072 96.0393 31.6743 95.5755 30.4243C95.4406 30.0658 95.3123 29.6316 94.9636 29.4243C94.5656 29.1875 94.0886 29.1612 93.6412 29.2302C93.3649 29.273 93.1281 29.4079 92.8879 29.546C92.3715 29.8454 91.8287 30.0987 91.2959 30.3651C90.7268 30.671 90.1511 30.9671 89.5689 31.2434C88.1709 31.9046 86.2564 33.2664 84.7597 33.4276C85.2465 31.8191 82.9044 29.3585 82.0228 28.1513C80.3024 25.8026 78.536 23.8289 76.0755 22.227C74.2498 21.0362 72.309 20.1151 70.5458 18.8224C71.2333 19.0099 71.9472 18.6809 72.5689 18.3355C74.4702 17.2796 76.4241 16.1085 77.8386 14.4177C81.7202 9.77959 74.2136 7.3092 70.7169 6.6513C68.2037 6.17762 65.3222 5.38814 62.8419 6.4013C61.5294 6.93748 60.9537 8.59867 60.2827 9.71051C59.9669 10.2368 57.4899 15.0066 57.1281 14.9474C52.7991 14.2697 48.3551 14.3355 44.0491 15.1414C43.5985 15.227 43.1248 15.3158 42.6906 15.171C42.2794 15.0329 41.9636 14.7039 41.7103 14.352C40.7399 13.0131 40.4636 11.3092 39.9702 9.73025C39.4768 8.1513 38.5853 6.50656 37.0195 5.97038C35.7235 5.5263 34.2893 5.9638 33.059 6.57235C29.8222 8.17762 27.3024 10.9046 24.9735 13.6677C24.5294 14.1941 24.0656 14.7862 24.0755 15.477C24.082 16.0822 24.457 16.6151 24.8452 17.0822C26.0787 18.5658 27.5985 19.8092 29.2991 20.7237C27.957 20.0033 21.4307 28.0427 20.7465 29.1941C19.4274 31.4177 19.6807 32.3651 16.707 32.4572C14.0787 32.5395 11.4998 31.7533 8.87151 31.7862C8.57216 31.7895 8.2498 31.8125 8.01295 31.9934C7.70374 32.2302 7.63137 32.6579 7.58861 33.046C7.39782 34.7664 7.33203 36.5033 7.39782 38.2335C7.43072 39.1118 7.50308 40.0197 7.90111 40.8026C8.71361 42.4013 10.7268 43.0888 12.5097 42.8881C14.2926 42.6875 15.9077 41.7796 17.4702 40.8947C16.9636 44.4868 16.9899 48.1579 17.5557 51.7401C19.0294 47.6809 20.2597 43.5362 21.2399 39.3322C21.8419 36.7467 22.4274 33.9934 24.2662 32.0789C26.8353 29.4079 30.8616 29.2533 34.3123 28.9112C39.1906 28.4243 44.0919 28.2467 48.9932 28.3388C53.8715 28.4309 58.7498 28.5592 63.6182 28.8322C66.4998 28.9934 69.388 29.0493 72.2597 29.3618C74.6906 29.625 77.7301 29.7829 79.2761 31.9737C80.513 33.727 81.0524 35.9079 81.9669 37.8289C83.1478 40.2993 84.2958 42.8125 84.809 45.5197C85.3024 48.125 85.5294 50.9802 85.5524 53.6349C85.5327 51.3651 86.2136 42.3684 86.2268 40.102C88.4439 39.9243 90.6873 40.0921 92.8518 40.5921C93.536 40.75 94.2531 40.9408 94.9241 40.7401C96.1774 40.3651 96.6018 38.9441 96.7925 37.7993C96.9899 36.602 97.082 35.3092 96.911 34.0756L96.8978 34.0691Z" fill="#644319"/>
</g>
<path d="M51 101C78.6142 101 101 78.6142 101 51C101 23.3858 78.6142 1 51 1C23.3858 1 1 23.3858 1 51C1 78.6142 23.3858 101 51 101Z" stroke="black" stroke-width="1.31579" stroke-miterlimit="10"/>
</svg>
