<svg width="102" height="102" viewBox="0 0 102 102" fill="none" xmlns="http://www.w3.org/2000/svg">
<path d="M51 101C78.6142 101 101 78.6142 101 51C101 23.3858 78.6142 1 51 1C23.3858 1 1 23.3858 1 51C1 78.6142 23.3858 101 51 101Z" fill="white"/>
<mask id="mask0_2696_12643" style="mask-type:luminance" maskUnits="userSpaceOnUse" x="1" y="1" width="100" height="100">
<path d="M51 101C78.6142 101 101 78.6142 101 51C101 23.3858 78.6142 1 51 1C23.3858 1 1 23.3858 1 51C1 78.6142 23.3858 101 51 101Z" fill="white"/>
</mask>
<g mask="url(#mask0_2696_12643)">
<path d="M18.9665 58.6857C20.6545 57.7972 20.7539 54.6659 19.1885 51.6918C17.6231 48.7177 14.9856 47.0269 13.2976 47.9154C11.6096 48.8039 11.5102 51.9352 13.0757 54.9093C14.6411 57.8834 17.2785 59.5742 18.9665 58.6857Z" fill="white" stroke="#644319" stroke-width="0.986842" stroke-miterlimit="10"/>
<path d="M89.9004 54.9122C91.4658 51.9381 91.3665 48.8068 89.6784 47.9183C87.9904 47.0299 85.353 48.7206 83.7876 51.6947C82.2221 54.6688 82.3215 57.8001 84.0095 58.6886C85.6976 59.5771 88.335 57.8863 89.9004 54.9122Z" fill="white" stroke="#644319" stroke-width="0.986842" stroke-miterlimit="10"/>
<path d="M84.1418 32.1908C83.6977 31.0855 83.1648 30.0033 82.5332 28.9473C73.4115 13.7237 51.5727 10.4868 36.3918 16.2105C33.0496 17.4704 29.8687 19.2138 27.0661 21.4934C20.0825 27.1776 17.2898 35.4013 17.2207 44.421C17.2207 44.7763 17.2207 45.1316 17.2207 45.4901C17.2306 46.4375 17.2668 47.3848 17.3161 48.3322C17.9082 59.3454 18.8227 70.3717 20.9148 81.2006C22.326 88.5098 24.3161 95.8191 28.1253 102.224C29.8753 105.168 32.0793 107.964 35.0628 109.668C38.6549 111.717 42.9904 111.865 46.9839 112.112C53.5694 112.523 62.0595 113.086 68.0595 109.668C71.0464 107.967 73.247 105.168 74.997 102.224C78.8062 95.8158 80.7964 88.5066 82.2075 81.2006C83.5858 74.0723 84.451 66.8487 85.0529 59.6085C85.7931 50.6875 87.6122 40.852 84.1319 32.1941L84.1418 32.1908Z" fill="white" stroke="#644319" stroke-width="0.986842" stroke-miterlimit="10"/>
<path d="M54.7597 59.5922C54.7597 57.4211 46.8945 57.4211 46.8945 59.5922C46.8945 61.7632 48.6544 63.5231 50.8255 63.5231C52.9965 63.5231 54.7564 61.7632 54.7564 59.5922H54.7597Z" fill="#644319"/>
<path d="M54.3223 42.6054C54.3223 43.7435 66.7894 43.7435 66.7894 42.6054C66.7894 41.4672 63.9999 40.5461 60.5558 40.5461C57.1117 40.5461 54.3223 41.4672 54.3223 42.6054Z" fill="#644319"/>
<path d="M48.1215 42.6744C48.0327 43.8191 34.4438 43.5691 34.5327 42.4243C34.6215 41.2796 37.7333 40.4079 41.4866 40.477C45.2399 40.5461 48.2103 41.5296 48.1215 42.6711V42.6744Z" fill="#644319"/>
<path d="M58.6544 56.9738C60.8 56.9738 62.5393 54.8339 62.5393 52.1942C62.5393 49.5545 60.8 47.4146 58.6544 47.4146C56.5088 47.4146 54.7695 49.5545 54.7695 52.1942C54.7695 54.8339 56.5088 56.9738 58.6544 56.9738Z" fill="#644319"/>
<path d="M42.9474 56.9738C45.0929 56.9738 46.8322 54.8339 46.8322 52.1942C46.8322 49.5545 45.0929 47.4146 42.9474 47.4146C40.8018 47.4146 39.0625 49.5545 39.0625 52.1942C39.0625 54.8339 40.8018 56.9738 42.9474 56.9738Z" fill="#644319"/>
<path d="M27.6151 54.9013C27.3256 55.4244 27.4013 55.9803 27.4111 56.5527C27.421 57.1579 27.3454 57.7961 27.4309 58.398C27.5032 58.9178 27.8585 59.329 28.4144 59.3158C28.9704 59.3027 29.3519 58.8092 29.7697 58.5132C30.2763 58.1513 30.7829 57.7961 31.2631 57.398C31.4539 57.2402 31.671 57.125 31.8651 56.9737C31.9802 56.8849 31.9243 56.9803 31.8783 56.9277C31.9539 57.0132 32 57.1349 32.0559 57.2336C32.3223 57.7402 32.6019 58.273 32.9309 58.7434C33.2072 59.1415 33.4342 59.7171 33.921 59.898C34.5065 60.1152 34.9868 59.2862 35.2171 58.8717C35.3388 58.6513 35.4539 58.4277 35.5329 58.1842C35.6118 57.9408 35.6315 57.6151 35.796 57.4178C36.2006 56.9342 35.5065 56.2303 35.0986 56.7204C34.773 57.1086 34.7335 57.5592 34.5493 58.0132C34.4144 58.3487 34.1776 58.8323 33.8618 59.023H34.3585C34.171 58.9244 34.0789 58.7138 33.9736 58.5395C33.8454 58.329 33.694 58.1316 33.569 57.9178C33.3125 57.4803 33.0756 57.0296 32.8289 56.5888C32.625 56.2237 32.319 55.9375 31.875 55.9671C31.4046 56 30.9967 56.3487 30.648 56.6349C30.2401 56.9704 29.8157 57.2796 29.3848 57.5855C29.1579 57.7467 28.9375 57.9079 28.7269 58.0888C28.6513 58.1546 28.5559 58.2105 28.4868 58.2829C28.3585 58.4145 28.3552 58.2566 28.4407 58.3915C28.3552 58.2566 28.398 58.0066 28.4013 57.8619C28.4046 57.5724 28.4013 57.2829 28.4013 56.9902C28.4013 56.6974 28.3947 56.4112 28.3815 56.1217C28.3717 55.8783 28.3486 55.6217 28.4704 55.4046C28.7763 54.8487 27.9276 54.3487 27.6184 54.9079L27.6151 54.9013Z" fill="#F19A65"/>
<path d="M65.3388 55.7796C65.4704 56.2928 65.5592 56.7928 65.8322 57.2566C66.0263 57.5889 66.1414 57.8652 66.2237 58.2369C66.3553 58.8553 66.6184 59.704 67.3947 59.7073C68.171 59.7106 68.5724 58.8553 68.8553 58.2829C69.0099 57.9737 69.171 57.6612 69.296 57.3421C69.398 57.0856 69.4901 56.829 69.5987 56.5757C69.6743 56.3981 69.7204 56.1448 69.852 55.9968L69.5033 56.1415C69.6776 56.1579 69.8684 56.5494 69.9375 56.6777C70.0888 56.9474 70.2105 57.2336 70.3421 57.5099C70.5329 57.9079 70.8257 58.25 71.0197 58.6448C71.1776 58.9704 71.2566 59.329 71.5954 59.5231C71.9342 59.7171 72.3882 59.6612 72.648 59.352C72.8914 59.0625 72.9967 58.6152 73.1447 58.2731C73.3322 57.8323 73.3355 57.3422 73.5592 56.9178C73.7829 56.4935 73.9934 56.125 73.9901 55.6481C73.9901 55.0132 73 55.0132 73.0033 55.6481C73.0033 55.9573 72.8158 56.204 72.6776 56.4704C72.5164 56.7862 72.4441 57.0987 72.3717 57.4408C72.2993 57.7829 72.1546 58.0494 72.0329 58.3586C72.0066 58.4277 71.9079 58.5856 71.9211 58.6678L71.8816 58.7402L72.1283 58.7106C72.1283 58.7106 72.0428 58.5494 72.0329 58.5231C71.7928 57.9803 71.4375 57.5165 71.1842 56.9803C70.9901 56.5724 70.8158 56.1612 70.5428 55.7994C70.2697 55.4375 69.7336 54.954 69.2533 55.2237C69.0132 55.3586 68.8947 55.6678 68.8026 55.9079C68.6908 56.1974 68.5625 56.477 68.4572 56.7698C68.2961 57.2171 68.0822 57.6579 67.8553 58.0757C67.7533 58.2599 67.6513 58.454 67.5066 58.6119C67.4803 58.6415 67.4046 58.7106 67.3914 58.7237C67.4605 58.6612 67.4539 58.829 67.4178 58.7106C67.3618 58.5264 67.2664 58.3619 67.2204 58.1678C67.1743 57.9737 67.1447 57.7665 67.0888 57.5691C66.9901 57.2369 66.7928 56.9606 66.6316 56.6579C66.4408 56.3093 66.3947 55.9014 66.2993 55.5198C66.1414 54.9047 65.1908 55.1645 65.3487 55.7829L65.3388 55.7796Z" fill="#F19A65"/>
<path d="M44.947 53.1447C45.641 53.1447 46.2036 52.5822 46.2036 51.8882C46.2036 51.1942 45.641 50.6316 44.947 50.6316C44.253 50.6316 43.6904 51.1942 43.6904 51.8882C43.6904 52.5822 44.253 53.1447 44.947 53.1447Z" fill="white"/>
<path d="M60.6511 53.1447C61.3451 53.1447 61.9077 52.5822 61.9077 51.8882C61.9077 51.1942 61.3451 50.6316 60.6511 50.6316C59.9571 50.6316 59.3945 51.1942 59.3945 51.8882C59.3945 52.5822 59.9571 53.1447 60.6511 53.1447Z" fill="white"/>
<path d="M46.1738 66.967C46.233 67.3223 51.2001 76.3914 55.2824 67.2795" stroke="#644319" stroke-width="0.986842" stroke-miterlimit="10" stroke-linecap="round"/>
<path d="M34.582 100.579C34.582 100.579 36.4669 106.747 38.9801 109.059L34.582 100.579Z" fill="white"/>
<path d="M34.582 100.579C34.582 100.579 36.4669 106.747 38.9801 109.059" stroke="#644319" stroke-width="0.986842" stroke-linecap="round" stroke-linejoin="round"/>
<path d="M42.7207 101.27C42.7207 101.27 43.0628 106.326 44.9477 109.059L42.7207 101.27Z" fill="white"/>
<path d="M42.7207 101.27C42.7207 101.27 43.0628 106.326 44.9477 109.059" stroke="#644319" stroke-width="0.986842" stroke-linecap="round" stroke-linejoin="round"/>
<path d="M65.9937 101.207C65.9937 101.207 64.1089 106.918 61.5957 109.059L65.9937 101.207Z" fill="white"/>
<path d="M65.9937 101.207C65.9937 101.207 64.1089 106.918 61.5957 109.059" stroke="#644319" stroke-width="0.986842" stroke-linecap="round" stroke-linejoin="round"/>
<path d="M19.6015 76.5361C19.6015 76.5361 11.3811 89.4605 23.7101 94.2203L19.6015 76.5361Z" fill="#F19A65"/>
<path d="M19.6015 76.5361C19.6015 76.5361 11.3811 89.4605 23.7101 94.2203" stroke="#644319" stroke-width="0.986842" stroke-miterlimit="10" stroke-linecap="round"/>
<path d="M82.8556 76.5361C82.8556 76.5361 91.076 89.4605 78.7471 94.2203L82.8556 76.5361Z" fill="#F19A65"/>
<path d="M82.8556 76.5361C82.8556 76.5361 91.076 89.4605 78.7471 94.2203" stroke="#644319" stroke-width="0.986842" stroke-miterlimit="10" stroke-linecap="round"/>
<path d="M18.6644 72.5C18.6644 72.5 48.3815 84.0132 84.523 72.5C84.523 72.5 80.5065 94.7599 76.4901 98.5954C76.4901 98.5954 55.6085 105.503 26.694 98.5954C26.694 98.5954 21.0723 91.6875 18.6611 72.5H18.6644Z" fill="#F19A65" stroke="#644319" stroke-width="0.986842" stroke-linecap="round" stroke-linejoin="round"/>
<path d="M38.3486 62.885C38.3486 62.885 45.0855 71.0758 50.8256 63.5232" stroke="#644319" stroke-width="0.986842" stroke-miterlimit="10" stroke-linecap="round"/>
<path d="M50.8848 63.2139C50.8848 63.2139 57.6216 71.4047 63.3617 63.852" stroke="#644319" stroke-width="0.986842" stroke-miterlimit="10" stroke-linecap="round"/>
<path d="M34.582 100.579C34.582 100.579 36.4669 106.747 38.9801 109.059L34.582 100.579Z" fill="white"/>
<path d="M34.582 100.579C34.582 100.579 36.4669 106.747 38.9801 109.059" stroke="#644319" stroke-width="0.986842" stroke-linecap="round" stroke-linejoin="round"/>
<path d="M42.7207 101.27C42.7207 101.27 43.0628 106.326 44.9477 109.059L42.7207 101.27Z" fill="white"/>
<path d="M42.7207 101.27C42.7207 101.27 43.0628 106.326 44.9477 109.059" stroke="#644319" stroke-width="0.986842" stroke-linecap="round" stroke-linejoin="round"/>
<path d="M65.9937 101.207C65.9937 101.207 64.1089 106.918 61.5957 109.059L65.9937 101.207Z" fill="white"/>
<path d="M65.9937 101.207C65.9937 101.207 64.1089 106.918 61.5957 109.059" stroke="#644319" stroke-width="0.986842" stroke-linecap="round" stroke-linejoin="round"/>
<path d="M34.582 100.579C34.582 100.579 36.4669 106.747 38.9801 109.059L34.582 100.579Z" fill="white"/>
<path d="M34.582 100.579C34.582 100.579 36.4669 106.747 38.9801 109.059" stroke="#644319" stroke-width="0.986842" stroke-linecap="round" stroke-linejoin="round"/>
<path d="M38.9345 77.1711L34.5332 82.2238C34.5332 82.2238 40.2306 84.5823 42.9411 91.2929" fill="#F19A65"/>
<path d="M38.9345 77.1711L34.5332 82.2238C34.5332 82.2238 40.2306 84.5823 42.9411 91.2929" stroke="#644319" stroke-width="0.986842" stroke-linecap="round" stroke-linejoin="round"/>
<path d="M62.724 77.1711L67.1254 82.2238C67.1254 82.2238 61.7701 85.2402 59.0596 91.9507" fill="#F19A65"/>
<path d="M62.724 77.1711L67.1254 82.2238C67.1254 82.2238 61.7701 85.2402 59.0596 91.9507" stroke="#644319" stroke-width="0.986842" stroke-linecap="round" stroke-linejoin="round"/>
<path d="M42.8587 102.859L43.0758 90.7205L39.6416 77.5527L50.8784 83.9968L62.1153 77.5527L58.6811 90.7205L58.8982 102.859" fill="#F19A65"/>
<path d="M42.8587 102.859L43.0758 90.7205L39.6416 77.5527L50.8784 83.9968L62.1153 77.5527L58.6811 90.7205L58.8982 102.859" stroke="#644319" stroke-width="0.986842" stroke-linecap="round" stroke-linejoin="round"/>
<path d="M51.6575 13.5065C51.6575 13.5065 9.36799 11.8618 17.8877 55.6973C17.1509 51.9112 19.5884 45.2105 20.9371 41.6513C23.9963 33.5954 31.6312 28.7927 39.141 25.8651C40.7726 25.2302 42.6015 24.944 44.3022 24.5822C47.4239 23.9177 50.6246 23.5625 53.8121 23.7533C56.9733 23.944 60.0686 24.7204 63.1279 25.523C63.5226 25.625 63.9272 25.7171 64.3088 25.8651C71.9009 28.7927 79.6213 33.5954 82.7101 41.6513C84.0752 45.2072 86.5358 51.9112 85.7923 55.6973C94.4042 11.8618 51.6575 13.5065 51.6575 13.5065Z" fill="#644319"/>
<path d="M52.8087 85.0461H48.8613V101.494H52.8087V85.0461Z" fill="white" stroke="#644319" stroke-width="0.986842" stroke-linecap="round" stroke-linejoin="round"/>
<path d="M50.8844 84.7698L48.0686 91.5231L40.2988 78.5396" fill="white"/>
<path d="M50.8844 84.7698L48.0686 91.5231L40.2988 78.5396" stroke="#644319" stroke-width="0.986842" stroke-linecap="round" stroke-linejoin="round"/>
<path d="M61.4736 78.5396L53.7038 91.5231L50.8848 84.7698" fill="white"/>
<path d="M61.4736 78.5396L53.7038 91.5231L50.8848 84.7698" stroke="#644319" stroke-width="0.986842" stroke-linecap="round" stroke-linejoin="round"/>
<path d="M49.5266 75.2369C49.52 75.0856 48.3719 74.6317 48.2469 74.5724C47.2864 74.1152 46.2831 73.7073 45.2502 73.4507C44.3226 73.2205 43.2108 73.0297 42.2996 73.4211C40.3423 74.2567 40.1746 78.0034 40.7963 79.6876C41.6614 82.033 44.4739 81.4442 46.316 80.7797C46.7305 80.6284 49.691 79.5724 49.6779 79.2139C49.6779 79.2139 49.5298 75.2402 49.5298 75.2369H49.5266Z" fill="#644319"/>
<path d="M52.4736 75.2369C52.4802 75.0856 53.6282 74.6317 53.7532 74.5724C54.7138 74.1152 55.717 73.7073 56.7499 73.4507C57.6776 73.2205 58.7894 73.0297 59.7006 73.4211C61.6578 74.2567 61.8256 78.0034 61.2039 79.6876C60.3388 82.033 57.5263 81.4442 55.6842 80.7797C55.2697 80.6284 52.3092 79.5724 52.3223 79.2139C52.3223 79.2139 52.4703 75.2402 52.4703 75.2369H52.4736Z" fill="#644319"/>
<path d="M53.8389 76.2041C53.8389 76.2041 55.2862 75.0923 56.9277 76.2041" stroke="white" stroke-width="0.657895" stroke-miterlimit="10" stroke-linecap="round"/>
<path d="M53.6318 77.9736C53.6318 77.9736 55.2864 79.5624 56.9246 78.2763" stroke="white" stroke-width="0.657895" stroke-miterlimit="10" stroke-linecap="round"/>
<path d="M48.4902 76.2041C48.4902 76.2041 47.0428 75.0923 45.4014 76.2041" stroke="white" stroke-width="0.657895" stroke-miterlimit="10" stroke-linecap="round"/>
<path d="M48.6971 77.9736C48.6971 77.9736 47.0425 79.5624 45.4043 78.2763" stroke="white" stroke-width="0.657895" stroke-miterlimit="10" stroke-linecap="round"/>
<path d="M51.3649 74.3521H50.6379C49.2118 74.3521 48.0557 75.5082 48.0557 76.9343V77.6613C48.0557 79.0874 49.2118 80.2435 50.6379 80.2435H51.3649C52.791 80.2435 53.9471 79.0874 53.9471 77.6613V76.9343C53.9471 75.5082 52.791 74.3521 51.3649 74.3521Z" fill="#644319"/>
<path d="M37.4178 13.9178C36.5855 10.1382 43.3914 9.21712 45.7763 8.6612C47.7434 8.20396 49.4375 7.23028 51.3289 6.75331C54.3783 5.98357 57.5099 7.66778 60.5691 7.61515C62.1513 7.58883 63.8257 7.83554 65.1875 8.6908C67.0263 9.8487 67.5395 10.6711 69.7138 11.2105C71.0066 11.5329 72.2599 12.0888 73.398 12.7763C77.2533 15.0987 84.2237 24.0263 84.2237 32.25L80.9342 29.8388L53.7796 16.2007L38.4967 18.8257C38.4967 18.8257 37.4243 13.9605 37.4178 13.9211V13.9178Z" fill="#644319"/>
<path d="M38.3482 14.4869C38.3482 14.4869 17.7758 12.1843 17.1738 38.6284L17.4995 42.0034L38.3449 14.4869H38.3482Z" fill="#644319"/>
<path d="M37.7236 15.3125L40.4736 23.9836" stroke="white" stroke-width="0.657895" stroke-miterlimit="10" stroke-linecap="round"/>
<path d="M41.9863 15.7532C44.8712 12.8223 48.6705 13.4901 52.3021 13.7236C53.5982 13.8059 54.5192 12.6085 55.7067 12.2138C57.1146 11.7467 58.1936 12.569 59.4797 12.9671C63.4962 14.2138 68.4436 13.5625 70.3153 18.3782" stroke="white" stroke-width="0.657895" stroke-miterlimit="10" stroke-linecap="round"/>
<path d="M42.9736 20.6876C45.8585 17.7566 49.6578 18.4244 53.2894 18.658C54.5855 18.7402 55.5065 17.5428 56.694 17.1481C58.1019 16.681 59.1809 17.5034 60.4671 17.9014C64.4835 19.1481 69.4309 18.4968 71.3026 23.3126" stroke="white" stroke-width="0.657895" stroke-miterlimit="10" stroke-linecap="round"/>
<path d="M33.6745 18.375C33.6745 18.375 26.3292 19.75 24.3555 25.0132" stroke="white" stroke-width="0.657895" stroke-miterlimit="10" stroke-linecap="round"/>
<path d="M35.3191 22.9802C35.3191 22.9802 27.9737 24.3552 26 29.6184" stroke="white" stroke-width="0.657895" stroke-miterlimit="10" stroke-linecap="round"/>
</g>
<path d="M51 101C78.6142 101 101 78.6142 101 51C101 23.3858 78.6142 1 51 1C23.3858 1 1 23.3858 1 51C1 78.6142 23.3858 101 51 101Z" stroke="black" stroke-width="1.31579" stroke-miterlimit="10"/>
</svg>
