<svg width="102" height="102" viewBox="0 0 102 102" fill="none" xmlns="http://www.w3.org/2000/svg">
<path d="M51 101C78.6142 101 101 78.6142 101 51C101 23.3858 78.6142 1 51 1C23.3858 1 1 23.3858 1 51C1 78.6142 23.3858 101 51 101Z" fill="white"/>
<mask id="mask0_2696_12639" style="mask-type:luminance" maskUnits="userSpaceOnUse" x="1" y="1" width="100" height="100">
<path d="M51 101C78.6142 101 101 78.6142 101 51C101 23.3858 78.6142 1 51 1C23.3858 1 1 23.3858 1 51C1 78.6142 23.3858 101 51 101Z" fill="white"/>
</mask>
<g mask="url(#mask0_2696_12639)">
<path d="M16.1317 59.3881C18.0392 59.3881 19.5856 56.6635 19.5856 53.3026C19.5856 49.9416 18.0392 47.217 16.1317 47.217C14.2241 47.217 12.6777 49.9416 12.6777 53.3026C12.6777 56.6635 14.2241 59.3881 16.1317 59.3881Z" fill="white" stroke="#644319" stroke-width="0.986842" stroke-miterlimit="10"/>
<path d="M86.5262 59.3881C88.4338 59.3881 89.9802 56.6635 89.9802 53.3026C89.9802 49.9416 88.4338 47.217 86.5262 47.217C84.6187 47.217 83.0723 49.9416 83.0723 53.3026C83.0723 56.6635 84.6187 59.3881 86.5262 59.3881Z" fill="white" stroke="#644319" stroke-width="0.986842" stroke-miterlimit="10"/>
<path d="M84.1418 32.546C83.6977 31.4802 83.1648 30.4375 82.5332 29.4243C73.4115 14.7664 51.5727 11.6513 36.3918 17.1611C33.0496 18.375 29.8687 20.0526 27.0661 22.2467C20.0825 27.7171 17.2898 35.6348 17.2207 44.3223C17.2207 44.6644 17.2207 45.0065 17.2207 45.3486C17.2306 46.2598 17.2668 47.1743 17.3161 48.0855C17.9082 58.6875 18.8227 69.3026 20.9148 79.7302C22.326 86.7664 24.3161 93.8026 28.1253 99.9703C29.8753 102.806 32.0793 105.497 35.0628 107.135C38.6549 109.108 42.9904 109.25 46.9839 109.49C53.5694 109.885 62.0595 110.428 68.0595 107.135C71.0464 105.497 73.247 102.803 74.997 99.9703C78.8062 93.8026 80.7964 86.7631 82.2075 79.7302C83.5858 72.8684 84.451 65.9144 85.0529 58.944C85.7931 50.3552 87.6122 40.8881 84.1319 32.5493L84.1418 32.546Z" fill="white" stroke="#644319" stroke-width="0.986842" stroke-miterlimit="10"/>
<path d="M54.7597 59.5922C54.7597 57.4211 46.8945 57.4211 46.8945 59.5922C46.8945 61.7632 48.6544 63.5231 50.8255 63.5231C52.9965 63.5231 54.7564 61.7632 54.7564 59.5922H54.7597Z" fill="#644319"/>
<path d="M54.9932 42.2762C54.9932 43.4144 69.7497 43.4144 69.7497 42.2762C69.7497 41.1381 66.4471 40.217 62.3715 40.217C58.2958 40.217 54.9932 41.1381 54.9932 42.2762Z" fill="#644319"/>
<path d="M47.654 42.0164C47.5521 43.1611 31.4665 42.9111 31.5718 41.7664C31.6738 40.6217 35.358 39.7499 39.8021 39.819C44.2429 39.8881 47.7593 40.8717 47.6573 42.0131L47.654 42.0164Z" fill="#644319"/>
<path d="M58.6544 56.9738C60.8 56.9738 62.5393 54.8339 62.5393 52.1942C62.5393 49.5545 60.8 47.4146 58.6544 47.4146C56.5088 47.4146 54.7695 49.5545 54.7695 52.1942C54.7695 54.8339 56.5088 56.9738 58.6544 56.9738Z" fill="#644319"/>
<path d="M42.9474 56.9738C45.0929 56.9738 46.8322 54.8339 46.8322 52.1942C46.8322 49.5545 45.0929 47.4146 42.9474 47.4146C40.8018 47.4146 39.0625 49.5545 39.0625 52.1942C39.0625 54.8339 40.8018 56.9738 42.9474 56.9738Z" fill="#644319"/>
<path d="M23.9969 58.1909C23.7075 58.7139 23.7831 59.2698 23.793 59.8422C23.8028 60.4475 23.7272 61.0856 23.8127 61.6876C23.8851 62.2073 24.2403 62.6185 24.7963 62.6054C25.3522 62.5922 25.7338 62.0988 26.1515 61.8027C26.6581 61.4409 27.1647 61.0856 27.645 60.6876C27.8357 60.5297 28.0528 60.4146 28.2469 60.2633C28.3621 60.1744 28.3061 60.2698 28.2601 60.2172C28.3357 60.3027 28.3818 60.4244 28.4377 60.5231C28.7042 61.0297 28.9838 61.5626 29.3127 62.033C29.589 62.431 29.816 63.0067 30.3028 63.1876C30.8884 63.4047 31.3686 62.5758 31.5989 62.1613C31.7206 61.9409 31.8357 61.7172 31.9147 61.4738C31.9936 61.2304 32.0134 60.9047 32.1778 60.7073C32.5825 60.2238 31.8884 59.5198 31.4805 60.01C31.1548 60.3981 31.1153 60.8488 30.9311 61.3027C30.7963 61.6383 30.5594 62.1218 30.2436 62.3126H30.7403C30.5528 62.2139 30.4607 62.0034 30.3555 61.829C30.2272 61.6185 30.0759 61.4211 29.9509 61.2073C29.6943 60.7698 29.4575 60.3192 29.2107 59.8784C29.0068 59.5133 28.7009 59.2271 28.2568 59.2567C27.7864 59.2896 27.3785 59.6383 27.0298 59.9244C26.6219 60.26 26.1976 60.5692 25.7667 60.8751C25.5397 61.0363 25.3193 61.1975 25.1088 61.3784C25.0331 61.4442 24.9377 61.5001 24.8686 61.5725C24.7403 61.704 24.7371 61.5461 24.8226 61.681C24.7371 61.5461 24.7798 61.2961 24.7831 61.1514C24.7864 60.8619 24.7831 60.5725 24.7831 60.2797C24.7831 59.9869 24.7765 59.7008 24.7634 59.4113C24.7535 59.1679 24.7305 58.9113 24.8522 58.6942C25.1581 58.1383 24.3094 57.6383 24.0002 58.1975L23.9969 58.1909Z" fill="#F19A65"/>
<path d="M67.9706 60.056C68.1022 60.5692 68.191 61.0692 68.4641 61.533C68.6581 61.8652 68.7733 62.1415 68.8555 62.5133C68.9871 63.1317 69.2503 63.9804 70.0266 63.9836C70.8029 63.9869 71.2042 63.1317 71.4871 62.5593C71.6417 62.2501 71.8029 61.9376 71.9279 61.6185C72.0299 61.3619 72.122 61.1054 72.2305 60.8521C72.3062 60.6744 72.3522 60.4211 72.4838 60.2731L72.1351 60.4179C72.3095 60.4343 72.5003 60.8258 72.5693 60.954C72.7207 61.2238 72.8424 61.51 72.9739 61.7863C73.1647 62.1843 73.4575 62.5264 73.6516 62.9211C73.8095 63.2468 73.8884 63.6054 74.2272 63.7994C74.566 63.9935 75.02 63.9376 75.2799 63.6284C75.5233 63.3389 75.6285 62.8915 75.7766 62.5494C75.9641 62.1086 75.9674 61.6185 76.191 61.1942C76.4147 60.7698 76.6253 60.4014 76.622 59.9244C76.622 59.2896 75.6318 59.2896 75.6351 59.9244C75.6351 60.2336 75.4476 60.4804 75.3095 60.7468C75.1483 61.0626 75.0759 61.3751 75.0035 61.7172C74.9312 62.0593 74.7864 62.3258 74.6647 62.635C74.6384 62.704 74.5397 62.8619 74.5529 62.9442L74.5134 63.0165L74.7601 62.9869C74.7601 62.9869 74.6746 62.8258 74.6647 62.7994C74.4246 62.2567 74.0693 61.7929 73.816 61.2567C73.622 60.8488 73.4476 60.4376 73.1746 60.0758C72.9016 59.7139 72.3654 59.2304 71.8851 59.5001C71.645 59.635 71.5266 59.9442 71.4345 60.1843C71.3226 60.4738 71.1943 60.7534 71.0891 61.0461C70.9279 61.4935 70.7141 61.9343 70.4871 62.3521C70.3851 62.5363 70.2831 62.7304 70.1384 62.8883C70.1121 62.9179 70.0364 62.9869 70.0233 63.0001C70.0924 62.9376 70.0858 63.1054 70.0496 62.9869C69.9937 62.8027 69.8983 62.6383 69.8522 62.4442C69.8062 62.2501 69.7766 62.0429 69.7207 61.8455C69.622 61.5133 69.4246 61.2369 69.2634 60.9343C69.0726 60.5856 69.0266 60.1777 68.9312 59.7961C68.7733 59.181 67.8226 59.4409 67.9805 60.0593L67.9706 60.056Z" fill="#F19A65"/>
<path d="M44.947 53.1447C45.641 53.1447 46.2036 52.5822 46.2036 51.8882C46.2036 51.1942 45.641 50.6316 44.947 50.6316C44.253 50.6316 43.6904 51.1942 43.6904 51.8882C43.6904 52.5822 44.253 53.1447 44.947 53.1447Z" fill="white"/>
<path d="M60.6511 53.1447C61.3451 53.1447 61.9077 52.5822 61.9077 51.8882C61.9077 51.1942 61.3451 50.6316 60.6511 50.6316C59.9571 50.6316 59.3945 51.1942 59.3945 51.8882C59.3945 52.5822 59.9571 53.1447 60.6511 53.1447Z" fill="white"/>
<path d="M34.582 100.579C34.582 100.579 36.4669 106.747 38.9801 109.059L34.582 100.579Z" fill="white"/>
<path d="M34.582 100.579C34.582 100.579 36.4669 106.747 38.9801 109.059" stroke="#644319" stroke-width="0.986842" stroke-linecap="round" stroke-linejoin="round"/>
<path d="M42.7207 101.27C42.7207 101.27 43.0628 106.326 44.9477 109.059L42.7207 101.27Z" fill="white"/>
<path d="M42.7207 101.27C42.7207 101.27 43.0628 106.326 44.9477 109.059" stroke="#644319" stroke-width="0.986842" stroke-linecap="round" stroke-linejoin="round"/>
<path d="M65.9937 101.207C65.9937 101.207 64.1089 106.918 61.5957 109.059L65.9937 101.207Z" fill="white"/>
<path d="M65.9937 101.207C65.9937 101.207 64.1089 106.918 61.5957 109.059" stroke="#644319" stroke-width="0.986842" stroke-linecap="round" stroke-linejoin="round"/>
<path d="M19.6015 76.5361C19.6015 76.5361 11.3811 89.4605 23.7101 94.2203L19.6015 76.5361Z" fill="#F19A65"/>
<path d="M19.6015 76.5361C19.6015 76.5361 11.3811 89.4605 23.7101 94.2203" stroke="#644319" stroke-width="0.986842" stroke-miterlimit="10" stroke-linecap="round"/>
<path d="M82.8556 76.5361C82.8556 76.5361 91.076 89.4605 78.7471 94.2203L82.8556 76.5361Z" fill="#F19A65"/>
<path d="M82.8556 76.5361C82.8556 76.5361 91.076 89.4605 78.7471 94.2203" stroke="#644319" stroke-width="0.986842" stroke-miterlimit="10" stroke-linecap="round"/>
<path d="M18.6644 72.5C18.6644 72.5 48.3815 84.0132 84.523 72.5C84.523 72.5 80.5065 94.7599 76.4901 98.5954C76.4901 98.5954 55.6085 105.503 26.694 98.5954C26.694 98.5954 21.0723 91.6875 18.6611 72.5H18.6644Z" fill="#F19A65" stroke="#644319" stroke-width="0.986842" stroke-linecap="round" stroke-linejoin="round"/>
<path d="M43.6904 68.8191H57.8549" stroke="#644319" stroke-width="0.986842" stroke-miterlimit="10" stroke-linecap="round"/>
<path d="M42.7201 12.635C42.7201 12.635 43.2563 4.22052 48.5261 2.69092C48.5261 2.69092 45.23 9.98368 48.5261 11.658C48.5261 11.658 48.2991 7.91131 54.9964 5.02973C54.9964 5.02973 51.9175 10.1909 54.9964 11.2666C54.9964 11.2666 74.7497 13.3554 78.7465 21.4014C78.7465 21.4014 84.7168 23.6383 86.5261 20.6218C86.5261 20.6218 87.4636 23.5264 82.1412 24.8422C82.1412 24.8422 85.7037 29.9343 89.98 29.1975C89.98 29.1975 85.7037 33.8554 83.0721 30.3357C83.0721 30.3357 86.7004 36.0758 86.2037 44.4376C86.2037 44.4376 83.4011 34.3784 75.8353 29.4442C75.8353 29.4442 77.2958 33.7008 71.4668 37.658C71.4668 37.658 75.8353 31.4179 69.7497 24.8389C69.7497 24.8389 67.1576 34.3653 51.5951 43.9113C51.5951 43.9113 62.4866 32.4047 61.5951 27.635C61.5951 27.635 51.3221 40.4179 42.0326 41.3455C42.0326 41.3455 54.1247 33.3916 52.48 29.7732C52.48 29.7732 42.2201 37.6482 29.753 42.9212C29.753 42.9212 44.5984 31.9903 42.9471 28.4146C42.9471 28.4146 27.6247 44.2107 20.3155 44.3916C20.3155 44.3916 34.7465 32.4047 32.9076 28.9508C32.9076 28.9508 22.2004 31.0692 17.9307 42.9212C17.9307 42.9212 15.7991 31.8028 27.0655 22.237C27.0655 22.237 25.1741 17.9311 15.3057 21.5495C15.3057 21.5495 22.5425 15.6284 29.7793 16.9442C29.7793 16.9442 29.4504 12.01 25.832 11.6811C25.832 11.6811 30.8221 8.72052 34.5787 14.4771C34.5787 14.4771 39.5359 11.2699 42.7168 12.6251L42.7201 12.635Z" fill="#644319"/>
<path d="M40.6381 60.0461C44.8165 60.0461 48.2038 56.6588 48.2038 52.4803C48.2038 48.3019 44.8165 44.9146 40.6381 44.9146C36.4596 44.9146 33.0723 48.3019 33.0723 52.4803C33.0723 56.6588 36.4596 60.0461 40.6381 60.0461Z" stroke="#644319" stroke-width="0.986842" stroke-miterlimit="10" stroke-linecap="round"/>
<path d="M60.7035 60.0461C64.882 60.0461 68.2693 56.6588 68.2693 52.4803C68.2693 48.3019 64.882 44.9146 60.7035 44.9146C56.525 44.9146 53.1377 48.3019 53.1377 52.4803C53.1377 56.6588 56.525 60.0461 60.7035 60.0461Z" stroke="#644319" stroke-width="0.986842" stroke-miterlimit="10" stroke-linecap="round"/>
<path d="M48.2041 52.4802H53.1383" stroke="#644319" stroke-width="0.986842" stroke-miterlimit="10" stroke-linecap="round"/>
</g>
<path d="M51 101C78.6142 101 101 78.6142 101 51C101 23.3858 78.6142 1 51 1C23.3858 1 1 23.3858 1 51C1 78.6142 23.3858 101 51 101Z" stroke="black" stroke-width="1.31579" stroke-miterlimit="10"/>
</svg>
