<svg width="102" height="102" viewBox="0 0 102 102" fill="none" xmlns="http://www.w3.org/2000/svg">
<path d="M51 101.165C78.6142 101.165 101 78.7788 101 51.1646C101 23.5503 78.6142 1.16455 51 1.16455C23.3858 1.16455 1 23.5503 1 51.1646C1 78.7788 23.3858 101.165 51 101.165Z" fill="white"/>
<mask id="mask0_2696_12642" style="mask-type:luminance" maskUnits="userSpaceOnUse" x="1" y="1" width="100" height="101">
<path d="M51 101.165C78.6142 101.165 101 78.7788 101 51.1646C101 23.5503 78.6142 1.16455 51 1.16455C23.3858 1.16455 1 23.5503 1 51.1646C1 78.7788 23.3858 101.165 51 101.165Z" fill="white"/>
</mask>
<g mask="url(#mask0_2696_12642)">
<path d="M11.1969 64.9802C13.922 64.9802 16.1311 62.7711 16.1311 60.046C16.1311 57.3209 13.922 55.1118 11.1969 55.1118C8.47182 55.1118 6.2627 57.3209 6.2627 60.046C6.2627 62.7711 8.47182 64.9802 11.1969 64.9802Z" fill="#644319"/>
<path d="M89.8151 64.9802C92.5402 64.9802 94.7493 62.7711 94.7493 60.046C94.7493 57.3209 92.5402 55.1118 89.8151 55.1118C87.09 55.1118 84.8809 57.3209 84.8809 60.046C84.8809 62.7711 87.09 64.9802 89.8151 64.9802Z" fill="#644319"/>
<path d="M18.4339 63.9934C23.884 63.9934 28.3023 59.5752 28.3023 54.125C28.3023 48.6748 23.884 44.2566 18.4339 44.2566C12.9837 44.2566 8.56543 48.6748 8.56543 54.125C8.56543 59.5752 12.9837 63.9934 18.4339 63.9934Z" fill="#644319"/>
<path d="M82.2493 62.3487C87.6995 62.3487 92.1177 57.9304 92.1177 52.4802C92.1177 47.0301 87.6995 42.6118 82.2493 42.6118C76.7991 42.6118 72.3809 47.0301 72.3809 52.4802C72.3809 57.9304 76.7991 62.3487 82.2493 62.3487Z" fill="#644319"/>
<path d="M68.697 26.8751C72.8384 27.6974 77.697 27.9935 81.0588 30.8487C84.891 34.1053 84.9831 39.7007 84.743 44.5955C84.1476 56.7501 83.3022 68.9277 80.9042 80.8783C79.493 87.9145 77.5029 94.9507 73.6937 101.118C71.9437 103.954 69.7397 106.645 66.7562 108.283C60.7562 111.576 52.266 111.033 45.6805 110.638C41.6871 110.398 37.3549 110.257 33.7595 108.283C30.7726 106.645 28.572 103.951 26.822 101.118C23.0128 94.9507 21.0226 87.9112 19.6114 80.8783C17.2134 68.931 16.3647 56.7501 15.7726 44.5955C15.5325 39.7007 15.6279 34.102 19.4568 30.8455C22.8581 27.954 27.5226 27.0001 31.8285 26.4343C40.1937 25.3356 48.868 24.783 57.3779 25.3751C61.1772 25.6415 64.9634 26.1316 68.7002 26.8718L68.697 26.8751Z" fill="white" stroke="#644319" stroke-width="0.986842" stroke-miterlimit="10"/>
<path d="M54.4306 59.4276C54.4306 57.2566 46.5654 57.2566 46.5654 59.4276C46.5654 61.5987 48.3253 63.3585 50.4963 63.3585C52.6674 63.3585 54.4273 61.5987 54.4273 59.4276H54.4306Z" fill="#644319"/>
<path d="M53.9932 42.5394C53.9932 44.8618 66.4603 44.8618 66.4603 42.5394C66.4603 40.217 63.6708 38.3354 60.2267 38.3354C56.7826 38.3354 53.9932 40.217 53.9932 42.5394Z" fill="#644319"/>
<path d="M47.9007 74.7533C47.9007 75.7895 53.4698 75.7895 53.4698 74.7533C53.4698 73.7171 52.2231 72.875 50.6836 72.875C49.1442 72.875 47.8975 73.7171 47.8975 74.7533H47.9007Z" fill="#644319"/>
<path d="M47.7924 42.6776C47.7036 45.0131 34.1147 44.5033 34.2036 42.1677C34.2924 39.8322 37.4042 38.0559 41.1575 38.1973C44.9108 38.3388 47.8812 40.3454 47.7924 42.6776Z" fill="#644319"/>
<path d="M58.3253 56.8092C60.4709 56.8092 62.2102 54.6693 62.2102 52.0296C62.2102 49.3899 60.4709 47.25 58.3253 47.25C56.1797 47.25 54.4404 49.3899 54.4404 52.0296C54.4404 54.6693 56.1797 56.8092 58.3253 56.8092Z" fill="#644319"/>
<path d="M42.6183 56.8092C44.7638 56.8092 46.5031 54.6693 46.5031 52.0296C46.5031 49.3899 44.7638 47.25 42.6183 47.25C40.4727 47.25 38.7334 49.3899 38.7334 52.0296C38.7334 54.6693 40.4727 56.8092 42.6183 56.8092Z" fill="#644319"/>
<path d="M27.286 54.7368C26.9965 55.2598 27.0722 55.8157 27.082 56.3881C27.0919 56.9934 27.0163 57.6315 27.1018 58.2335C27.1741 58.7532 27.5294 59.1644 28.0853 59.1513C28.6413 59.1381 29.0228 58.6447 29.4406 58.3486C29.9472 57.9868 30.4538 57.6315 30.934 57.2335C31.1248 57.0756 31.3419 56.9605 31.536 56.8092C31.6511 56.7203 31.5952 56.8157 31.5491 56.7631C31.6248 56.8486 31.6709 56.9703 31.7268 57.069C31.9932 57.5756 32.2728 58.1085 32.6018 58.5789C32.8781 58.9769 33.1051 59.5526 33.5919 59.7335C34.1774 59.9506 34.6577 59.1217 34.888 58.7072C35.0097 58.4868 35.1248 58.2631 35.2038 58.0197C35.2827 57.7763 35.3024 57.4506 35.4669 57.2532C35.8715 56.7697 35.1774 56.0657 34.7695 56.5559C34.4439 56.944 34.4044 57.3947 34.2202 57.8486C34.0853 58.1842 33.8485 58.6677 33.5327 58.8585H34.0294C33.8419 58.7598 33.7498 58.5493 33.6445 58.3749C33.5163 58.1644 33.3649 57.967 33.2399 57.7532C32.9834 57.3157 32.7465 56.8651 32.4998 56.4243C32.2959 56.0592 31.9899 55.773 31.5459 55.8026C31.0755 55.8355 30.6676 56.1842 30.3189 56.4703C29.911 56.8059 29.4866 57.1151 29.0557 57.421C28.8288 57.5822 28.6084 57.7434 28.3978 57.9243C28.3222 57.9901 28.2268 58.046 28.1577 58.1184C28.0294 58.2499 28.0261 58.092 28.1116 58.2269C28.0261 58.092 28.0689 57.842 28.0722 57.6973C28.0755 57.4078 28.0722 57.1184 28.0722 56.8256C28.0722 56.5328 28.0656 56.2467 28.0524 55.9572C28.0426 55.7138 28.0195 55.4572 28.1413 55.2401C28.4472 54.6842 27.5985 54.1842 27.2893 54.7434L27.286 54.7368Z" fill="#F19A65"/>
<path d="M65.0097 55.6151C65.1413 56.1283 65.2301 56.6283 65.5031 57.0921C65.6972 57.4243 65.8123 57.7006 65.8946 58.0723C66.0262 58.6908 66.2893 59.5394 67.0656 59.5427C67.8419 59.546 68.2433 58.6908 68.5262 58.1184C68.6808 57.8092 68.8419 57.4967 68.9669 57.1776C69.0689 56.921 69.161 56.6644 69.2696 56.4111C69.3452 56.2335 69.3913 55.9802 69.5229 55.8322L69.1742 55.9769C69.3485 55.9934 69.5393 56.3848 69.6084 56.5131C69.7597 56.7829 69.8814 57.069 70.013 57.3454C70.2038 57.7434 70.4966 58.0855 70.6906 58.4802C70.8485 58.8059 70.9275 59.1644 71.2663 59.3585C71.6051 59.5526 72.0591 59.4967 72.3189 59.1875C72.5623 58.898 72.6676 58.4506 72.8156 58.1085C73.0031 57.6677 73.0064 57.1776 73.2301 56.7533C73.4538 56.3289 73.6643 55.9605 73.661 55.4835C73.661 54.8487 72.6709 54.8487 72.6742 55.4835C72.6742 55.7927 72.4867 56.0394 72.3485 56.3059C72.1873 56.6217 72.115 56.9342 72.0426 57.2763C71.9702 57.6184 71.8255 57.8848 71.7038 58.194C71.6775 58.2631 71.5788 58.421 71.592 58.5033L71.5525 58.5756L71.7992 58.546C71.7992 58.546 71.7137 58.3848 71.7038 58.3585C71.4637 57.8158 71.1084 57.3519 70.8551 56.8158C70.661 56.4079 70.4867 55.9967 70.2137 55.6348C69.9406 55.273 69.4045 54.7894 68.9242 55.0592C68.6841 55.194 68.5656 55.5033 68.4735 55.7434C68.3617 56.0329 68.2334 56.3125 68.1281 56.6052C67.967 57.0526 67.7531 57.4934 67.5262 57.9111C67.4242 58.0954 67.3222 58.2894 67.1775 58.4473C67.1512 58.4769 67.0755 58.546 67.0623 58.5592C67.1314 58.4967 67.1248 58.6644 67.0887 58.546C67.0327 58.3618 66.9373 58.1973 66.8913 58.0033C66.8452 57.8092 66.8156 57.6019 66.7597 57.4046C66.661 57.0723 66.4637 56.796 66.3025 56.4934C66.1117 56.1447 66.0656 55.7368 65.9702 55.3552C65.8123 54.7401 64.8617 55 65.0196 55.6184L65.0097 55.6151Z" fill="#F19A65"/>
<path d="M44.6179 52.9802C45.3119 52.9802 45.8745 52.4176 45.8745 51.7236C45.8745 51.0296 45.3119 50.467 44.6179 50.467C43.9239 50.467 43.3613 51.0296 43.3613 51.7236C43.3613 52.4176 43.9239 52.9802 44.6179 52.9802Z" fill="white"/>
<path d="M60.322 52.9802C61.016 52.9802 61.5786 52.4176 61.5786 51.7236C61.5786 51.0296 61.016 50.467 60.322 50.467C59.628 50.467 59.0654 51.0296 59.0654 51.7236C59.0654 52.4176 59.628 52.9802 60.322 52.9802Z" fill="white"/>
<path d="M45.8447 66.8025C45.9039 67.1578 50.871 76.2268 54.9533 67.115" stroke="#644319" stroke-width="0.986842" stroke-miterlimit="10" stroke-linecap="round"/>
<path d="M34.2529 100.415C34.2529 100.415 36.1378 106.582 38.651 108.895L34.2529 100.415Z" fill="white"/>
<path d="M34.2529 100.415C34.2529 100.415 36.1378 106.582 38.651 108.895" stroke="#644319" stroke-width="0.986842" stroke-linecap="round" stroke-linejoin="round"/>
<path d="M42.3916 101.105C42.3916 101.105 42.7337 106.161 44.6186 108.895L42.3916 101.105Z" fill="white"/>
<path d="M42.3916 101.105C42.3916 101.105 42.7337 106.161 44.6186 108.895" stroke="#644319" stroke-width="0.986842" stroke-linecap="round" stroke-linejoin="round"/>
<path d="M65.6646 101.043C65.6646 101.043 63.7798 106.753 61.2666 108.895L65.6646 101.043Z" fill="white"/>
<path d="M65.6646 101.043C65.6646 101.043 63.7798 106.753 61.2666 108.895" stroke="#644319" stroke-width="0.986842" stroke-linecap="round" stroke-linejoin="round"/>
<path d="M19.2724 76.3716C19.2724 76.3716 11.052 89.2959 23.381 94.0558L19.2724 76.3716Z" fill="#F19A65"/>
<path d="M19.2724 76.3716C19.2724 76.3716 11.052 89.2959 23.381 94.0558" stroke="#644319" stroke-width="0.986842" stroke-miterlimit="10" stroke-linecap="round"/>
<path d="M82.5265 76.3716C82.5265 76.3716 90.7469 89.2959 78.418 94.0558L82.5265 76.3716Z" fill="#F19A65"/>
<path d="M82.5265 76.3716C82.5265 76.3716 90.7469 89.2959 78.418 94.0558" stroke="#644319" stroke-width="0.986842" stroke-miterlimit="10" stroke-linecap="round"/>
<path d="M18.3353 72.3354C18.3353 72.3354 48.0524 83.8486 84.1939 72.3354C84.1939 72.3354 80.1774 94.5953 76.161 98.4308C76.161 98.4308 55.2794 105.339 26.3649 98.4308C26.3649 98.4308 20.7432 91.5229 18.332 72.3354H18.3353Z" fill="#F19A65" stroke="#644319" stroke-width="0.986842" stroke-linecap="round" stroke-linejoin="round"/>
<path d="M38.0195 62.7205C38.0195 62.7205 44.7564 70.9112 50.4965 63.3586" stroke="#644319" stroke-width="0.986842" stroke-miterlimit="10" stroke-linecap="round"/>
<path d="M50.5557 63.0493C50.5557 63.0493 57.2925 71.2401 63.0326 63.6875" stroke="#644319" stroke-width="0.986842" stroke-miterlimit="10" stroke-linecap="round"/>
<path d="M18.3352 72.3355L13.9404 67.1184C13.9404 67.1184 43.2661 76.9901 50.8253 77.4506C50.8253 77.4506 33.0687 77.6447 18.3352 72.3355Z" fill="#F19A65" stroke="#644319" stroke-width="0.986842" stroke-linecap="round" stroke-linejoin="round"/>
<path d="M84.0133 72.3355L88.5002 67.1184C88.5002 67.1184 58.5495 76.9901 50.8291 77.4506C50.8291 77.4506 68.964 77.6447 84.0133 72.3355Z" fill="#F19A65" stroke="#644319" stroke-width="0.986842" stroke-linecap="round" stroke-linejoin="round"/>
<path d="M15.2659 46.2334C14.5126 46.9703 11.2462 40.1545 11.1606 39.7466C9.89418 33.8848 12.7856 25.9703 18.9633 22.9242C21.9468 21.4538 24.5619 19.4933 26.8679 17.2762C29.21 15.0229 31.0225 12.5986 34.3317 11.3486C36.5718 10.5032 38.9633 10.0394 41.3777 9.82884C43.9863 9.60186 46.0126 9.217 48.5521 8.68739C54.029 7.54923 59.9402 7.97029 65.0685 10.0459C66.335 10.5591 67.108 11.3453 68.5422 11.5986C70.5883 11.9637 72.6343 11.5788 74.6837 12.069C76.9534 12.6117 79.0356 13.7203 80.7889 15.092C86.0916 19.24 91.5389 26.4045 92.3679 32.7367C92.6212 34.6775 92.3383 38.6611 90.0291 39.7795L84.6968 43.2598C84.6968 43.2598 43.8448 18.2598 15.2626 46.2236L15.2659 46.2334Z" fill="#F19A65" stroke="#644319" stroke-width="0.986842" stroke-miterlimit="10"/>
<path d="M22.2236 27.1809C22.2236 27.1809 23.0394 32.7434 25.671 34.0592" stroke="#644319" stroke-width="0.986842" stroke-miterlimit="10" stroke-linecap="round"/>
<path d="M38.0198 16.7336C38.0198 16.7336 35.7665 25.1218 40.9968 29.0132" stroke="#644319" stroke-width="0.986842" stroke-miterlimit="10" stroke-linecap="round"/>
<path d="M61.2661 15.7302C61.2661 15.7302 63.9471 21.5065 59.5293 29.0164" stroke="#644319" stroke-width="0.986842" stroke-miterlimit="10" stroke-linecap="round"/>
<path d="M81.8121 28.0396C81.8121 28.0396 81.6542 32.9935 78.4141 35.2534" stroke="#644319" stroke-width="0.986842" stroke-miterlimit="10" stroke-linecap="round"/>
<path d="M15.2666 46.2334C15.2666 46.2334 37.6416 18.763 84.7008 43.2696" stroke="#644319" stroke-width="2.96053" stroke-miterlimit="10" stroke-linecap="round"/>
<path d="M50.8291 77.4507V104.655" stroke="#644319" stroke-width="0.986842" stroke-miterlimit="10"/>
</g>
<path d="M51 101C78.6142 101 101 78.6142 101 51C101 23.3858 78.6142 1 51 1C23.3858 1 1 23.3858 1 51C1 78.6142 23.3858 101 51 101Z" stroke="black" stroke-width="1.31579" stroke-miterlimit="10"/>
</svg>
