<svg width="102" height="102" viewBox="0 0 102 102" fill="none" xmlns="http://www.w3.org/2000/svg">
<path d="M51 101C78.6142 101 101 78.6142 101 51C101 23.3858 78.6142 1 51 1C23.3858 1 1 23.3858 1 51C1 78.6142 23.3858 101 51 101Z" fill="white"/>
<mask id="mask0_2696_12638" style="mask-type:luminance" maskUnits="userSpaceOnUse" x="1" y="1" width="100" height="100">
<path d="M51 101C78.6142 101 101 78.6142 101 51C101 23.3858 78.6142 1 51 1C23.3858 1 1 23.3858 1 51C1 78.6142 23.3858 101 51 101Z" fill="white"/>
</mask>
<g mask="url(#mask0_2696_12638)">
<path d="M16.1317 59.3881C18.0392 59.3881 19.5856 56.6635 19.5856 53.3026C19.5856 49.9416 18.0392 47.217 16.1317 47.217C14.2241 47.217 12.6777 49.9416 12.6777 53.3026C12.6777 56.6635 14.2241 59.3881 16.1317 59.3881Z" fill="white" stroke="#644319" stroke-width="0.986842" stroke-miterlimit="10"/>
<path d="M86.5262 59.3881C88.4338 59.3881 89.9802 56.6635 89.9802 53.3026C89.9802 49.9416 88.4338 47.217 86.5262 47.217C84.6187 47.217 83.0723 49.9416 83.0723 53.3026C83.0723 56.6635 84.6187 59.3881 86.5262 59.3881Z" fill="white" stroke="#644319" stroke-width="0.986842" stroke-miterlimit="10"/>
<path d="M83.8127 30.5724C83.3686 29.5066 82.8357 28.4638 82.2041 27.4507C73.0824 12.7928 51.2436 9.67764 36.0627 15.1875C32.7205 16.4013 29.5396 18.079 26.737 20.273C19.7534 25.7434 16.9607 33.6612 16.8916 42.3487C16.8916 42.6908 16.8916 43.0329 16.8916 43.375C16.9015 44.2862 16.9377 45.2007 16.987 46.1118C17.5791 56.7138 18.4936 67.329 20.5857 77.7566C21.9969 84.7928 23.987 91.8289 27.7962 97.9967C29.5462 100.832 31.7502 103.523 34.7337 105.161C38.3258 107.135 42.6613 107.276 46.6548 107.516C53.2403 107.911 61.7304 108.454 67.7304 105.161C70.7173 103.523 72.9179 100.829 74.6679 97.9967C78.4771 91.8289 80.4673 84.7895 81.8784 77.7566C83.2567 70.8947 84.1219 63.9408 84.7238 56.9704C85.464 48.3816 87.2831 38.9145 83.8028 30.5757L83.8127 30.5724Z" fill="white" stroke="#644319" stroke-width="0.986842" stroke-miterlimit="10"/>
<path d="M54.7597 59.5922C54.7597 57.4211 46.8945 57.4211 46.8945 59.5922C46.8945 61.7632 48.6544 63.5231 50.8255 63.5231C52.9965 63.5231 54.7564 61.7632 54.7564 59.5922H54.7597Z" fill="#644319"/>
<path d="M54.3223 41.8059C54.3223 43.5691 66.7894 43.5691 66.7894 41.8059C66.7894 40.0427 63.9999 38.6118 60.5558 38.6118C57.1117 38.6118 54.3223 40.0427 54.3223 41.8059Z" fill="#644319"/>
<path d="M48.1215 41.9112C48.0327 43.6842 34.4438 43.2994 34.5327 41.523C34.6215 39.75 37.7333 38.398 41.4866 38.5066C45.2399 38.6151 48.2103 40.1382 48.1215 41.9112Z" fill="#644319"/>
<path d="M58.6544 56.9738C60.8 56.9738 62.5393 54.8339 62.5393 52.1942C62.5393 49.5545 60.8 47.4146 58.6544 47.4146C56.5088 47.4146 54.7695 49.5545 54.7695 52.1942C54.7695 54.8339 56.5088 56.9738 58.6544 56.9738Z" fill="#644319"/>
<path d="M42.9474 56.9738C45.0929 56.9738 46.8322 54.8339 46.8322 52.1942C46.8322 49.5545 45.0929 47.4146 42.9474 47.4146C40.8018 47.4146 39.0625 49.5545 39.0625 52.1942C39.0625 54.8339 40.8018 56.9738 42.9474 56.9738Z" fill="#644319"/>
<path d="M27.6151 54.9013C27.3256 55.4244 27.4013 55.9803 27.4111 56.5527C27.421 57.1579 27.3454 57.7961 27.4309 58.398C27.5032 58.9178 27.8585 59.329 28.4144 59.3158C28.9704 59.3027 29.3519 58.8092 29.7697 58.5132C30.2763 58.1513 30.7829 57.7961 31.2631 57.398C31.4539 57.2402 31.671 57.125 31.8651 56.9737C31.9802 56.8849 31.9243 56.9803 31.8783 56.9277C31.9539 57.0132 32 57.1349 32.0559 57.2336C32.3223 57.7402 32.6019 58.273 32.9309 58.7434C33.2072 59.1415 33.4342 59.7171 33.921 59.898C34.5065 60.1152 34.9868 59.2862 35.2171 58.8717C35.3388 58.6513 35.4539 58.4277 35.5329 58.1842C35.6118 57.9408 35.6315 57.6151 35.796 57.4178C36.2006 56.9342 35.5065 56.2303 35.0986 56.7204C34.773 57.1086 34.7335 57.5592 34.5493 58.0132C34.4144 58.3487 34.1776 58.8323 33.8618 59.023H34.3585C34.171 58.9244 34.0789 58.7138 33.9736 58.5395C33.8454 58.329 33.694 58.1316 33.569 57.9178C33.3125 57.4803 33.0756 57.0296 32.8289 56.5888C32.625 56.2237 32.319 55.9375 31.875 55.9671C31.4046 56 30.9967 56.3487 30.648 56.6349C30.2401 56.9704 29.8157 57.2796 29.3848 57.5855C29.1579 57.7467 28.9375 57.9079 28.7269 58.0888C28.6513 58.1546 28.5559 58.2105 28.4868 58.2829C28.3585 58.4145 28.3552 58.2566 28.4407 58.3915C28.3552 58.2566 28.398 58.0066 28.4013 57.8619C28.4046 57.5724 28.4013 57.2829 28.4013 56.9902C28.4013 56.6974 28.3947 56.4112 28.3815 56.1217C28.3717 55.8783 28.3486 55.6217 28.4704 55.4046C28.7763 54.8487 27.9276 54.3487 27.6184 54.9079L27.6151 54.9013Z" fill="#F19A65"/>
<path d="M65.3388 55.7796C65.4704 56.2928 65.5592 56.7928 65.8322 57.2566C66.0263 57.5889 66.1414 57.8652 66.2237 58.2369C66.3553 58.8553 66.6184 59.704 67.3947 59.7073C68.171 59.7106 68.5724 58.8553 68.8553 58.2829C69.0099 57.9737 69.171 57.6612 69.296 57.3421C69.398 57.0856 69.4901 56.829 69.5987 56.5757C69.6743 56.3981 69.7204 56.1448 69.852 55.9968L69.5033 56.1415C69.6776 56.1579 69.8684 56.5494 69.9375 56.6777C70.0888 56.9474 70.2105 57.2336 70.3421 57.5099C70.5329 57.9079 70.8257 58.25 71.0197 58.6448C71.1776 58.9704 71.2566 59.329 71.5954 59.5231C71.9342 59.7171 72.3882 59.6612 72.648 59.352C72.8914 59.0625 72.9967 58.6152 73.1447 58.2731C73.3322 57.8323 73.3355 57.3422 73.5592 56.9178C73.7829 56.4935 73.9934 56.125 73.9901 55.6481C73.9901 55.0132 73 55.0132 73.0033 55.6481C73.0033 55.9573 72.8158 56.204 72.6776 56.4704C72.5164 56.7862 72.4441 57.0987 72.3717 57.4408C72.2993 57.7829 72.1546 58.0494 72.0329 58.3586C72.0066 58.4277 71.9079 58.5856 71.9211 58.6678L71.8816 58.7402L72.1283 58.7106C72.1283 58.7106 72.0428 58.5494 72.0329 58.5231C71.7928 57.9803 71.4375 57.5165 71.1842 56.9803C70.9901 56.5724 70.8158 56.1612 70.5428 55.7994C70.2697 55.4375 69.7336 54.954 69.2533 55.2237C69.0132 55.3586 68.8947 55.6678 68.8026 55.9079C68.6908 56.1974 68.5625 56.477 68.4572 56.7698C68.2961 57.2171 68.0822 57.6579 67.8553 58.0757C67.7533 58.2599 67.6513 58.454 67.5066 58.6119C67.4803 58.6415 67.4046 58.7106 67.3914 58.7237C67.4605 58.6612 67.4539 58.829 67.4178 58.7106C67.3618 58.5264 67.2664 58.3619 67.2204 58.1678C67.1743 57.9737 67.1447 57.7665 67.0888 57.5691C66.9901 57.2369 66.7928 56.9606 66.6316 56.6579C66.4408 56.3093 66.3947 55.9014 66.2993 55.5198C66.1414 54.9047 65.1908 55.1645 65.3487 55.7829L65.3388 55.7796Z" fill="#F19A65"/>
<path d="M44.947 53.1447C45.641 53.1447 46.2036 52.5822 46.2036 51.8882C46.2036 51.1942 45.641 50.6316 44.947 50.6316C44.253 50.6316 43.6904 51.1942 43.6904 51.8882C43.6904 52.5822 44.253 53.1447 44.947 53.1447Z" fill="white"/>
<path d="M60.6511 53.1447C61.3451 53.1447 61.9077 52.5822 61.9077 51.8882C61.9077 51.1942 61.3451 50.6316 60.6511 50.6316C59.9571 50.6316 59.3945 51.1942 59.3945 51.8882C59.3945 52.5822 59.9571 53.1447 60.6511 53.1447Z" fill="white"/>
<path d="M45.8457 66.6382C45.9049 66.9934 50.872 76.0625 54.9543 66.9507" stroke="#644319" stroke-width="0.986842" stroke-miterlimit="10" stroke-linecap="round"/>
<path d="M19.6015 76.5361C19.6015 76.5361 11.3811 89.4605 23.7101 94.2203L19.6015 76.5361Z" fill="#F19A65"/>
<path d="M19.6015 76.5361C19.6015 76.5361 11.3811 89.4605 23.7101 94.2203" stroke="#644319" stroke-width="0.986842" stroke-miterlimit="10" stroke-linecap="round"/>
<path d="M82.8556 76.5361C82.8556 76.5361 91.076 89.4605 78.7471 94.2203L82.8556 76.5361Z" fill="#F19A65"/>
<path d="M82.8556 76.5361C82.8556 76.5361 91.076 89.4605 78.7471 94.2203" stroke="#644319" stroke-width="0.986842" stroke-miterlimit="10" stroke-linecap="round"/>
<path d="M18.6644 72.5C18.6644 72.5 48.3815 84.0132 84.523 72.5C84.523 72.5 80.5065 94.7599 76.4901 98.5954C76.4901 98.5954 55.6085 105.503 26.694 98.5954C26.694 98.5954 21.0723 91.6875 18.6611 72.5H18.6644Z" fill="#F19A65" stroke="#644319" stroke-width="0.986842" stroke-linecap="round" stroke-linejoin="round"/>
<path d="M42.1517 102.477L42.3688 90.3389L38.9346 77.1711C41.6681 78.3192 44.2997 79.7271 47.1418 80.6021C49.6023 81.3586 52.2767 81.0363 54.6385 80.0988C56.9181 79.1942 58.974 77.7139 61.405 77.2106C61.178 77.2106 59.8852 83.01 59.7536 83.51C59.1583 85.7863 58.5694 88.0626 57.974 90.3389L58.1911 102.477" fill="white"/>
<path d="M42.1517 102.477L42.3688 90.3389L38.9346 77.1711C41.6681 78.3192 44.2997 79.7271 47.1418 80.6021C49.6023 81.3586 52.2767 81.0363 54.6385 80.0988C56.9181 79.1942 58.974 77.7139 61.405 77.2106C61.178 77.2106 59.8852 83.01 59.7536 83.51C59.1583 85.7863 58.5694 88.0626 57.974 90.3389L58.1911 102.477" stroke="#644319" stroke-width="0.986842" stroke-linecap="round" stroke-linejoin="round"/>
<path d="M37.6904 62.885C37.6904 62.885 44.4273 71.0758 50.1674 63.5232" stroke="#644319" stroke-width="0.986842" stroke-miterlimit="10" stroke-linecap="round"/>
<path d="M50.2266 63.2139C50.2266 63.2139 56.9634 71.4047 62.7035 63.852" stroke="#644319" stroke-width="0.986842" stroke-miterlimit="10" stroke-linecap="round"/>
<path d="M22.3816 24.0264C22.3816 24.0264 14.4869 37.8422 17.3421 49.6645C17.3421 49.6645 21.0263 36.5264 29.2895 33.2369C29.2895 33.2369 26.9869 25.6711 22.3816 24.0264Z" fill="#644319"/>
<path d="M80.4274 24.8486C80.4274 24.8486 88.4998 33.5657 85.4669 50.4868C85.4669 50.4868 81.7827 37.3486 73.5195 34.0592C73.5195 34.0592 75.8222 26.4934 80.4274 24.8486Z" fill="#644319"/>
<path d="M42.3288 60.6416L40.6084 63.5265" stroke="#644319" stroke-width="0.986842" stroke-miterlimit="10" stroke-linecap="round"/>
<path d="M44.4968 61.418L42.7764 64.3028" stroke="#644319" stroke-width="0.986842" stroke-miterlimit="10" stroke-linecap="round"/>
<path d="M46.6641 62.1943L44.9404 65.0825" stroke="#644319" stroke-width="0.986842" stroke-miterlimit="10" stroke-linecap="round"/>
<path d="M59.0137 60.9705L60.7341 63.8553" stroke="#644319" stroke-width="0.986842" stroke-miterlimit="10" stroke-linecap="round"/>
<path d="M56.8457 61.7468L58.5661 64.6317" stroke="#644319" stroke-width="0.986842" stroke-miterlimit="10" stroke-linecap="round"/>
<path d="M54.6777 62.5232L56.4014 65.4114" stroke="#644319" stroke-width="0.986842" stroke-miterlimit="10" stroke-linecap="round"/>
<path d="M38.2763 77.1711L33.875 82.2238C33.875 82.2238 39.5724 84.5823 42.2829 91.2929" fill="#F19A65"/>
<path d="M38.2763 77.1711L33.875 82.2238C33.875 82.2238 39.5724 84.5823 42.2829 91.2929" stroke="#644319" stroke-width="0.986842" stroke-linecap="round" stroke-linejoin="round"/>
<path d="M62.0658 77.1711L66.4672 82.2238C66.4672 82.2238 61.1119 85.2402 58.4014 91.9507" fill="#F19A65"/>
<path d="M62.0658 77.1711L66.4672 82.2238C66.4672 82.2238 61.1119 85.2402 58.4014 91.9507" stroke="#644319" stroke-width="0.986842" stroke-linecap="round" stroke-linejoin="round"/>
<path d="M75.1778 86.3618H64.9805V94.9144H75.1778V86.3618Z" fill="#F19A65" stroke="#644319" stroke-width="0.986842" stroke-linecap="round" stroke-linejoin="round"/>
<path d="M64.9805 86.3618H75.1778L71.7239 89.8158H68.5989L64.9805 86.3618Z" fill="#F19A65" stroke="#644319" stroke-width="0.986842" stroke-linecap="round" stroke-linejoin="round"/>
<path d="M70.0788 88.829C70.4421 88.829 70.7367 88.5344 70.7367 88.1711C70.7367 87.8077 70.4421 87.5132 70.0788 87.5132C69.7154 87.5132 69.4209 87.8077 69.4209 88.1711C69.4209 88.5344 69.7154 88.829 70.0788 88.829Z" fill="#644319"/>
<path d="M38.9932 75.8357C38.9932 75.8357 40.1445 77.9738 48.5326 80.4409C48.5326 80.4409 54.6182 81.5922 60.8682 75.6712C66.5951 70.2468 39.6511 74.1909 39.6511 74.1909L38.9932 75.8357Z" fill="white"/>
</g>
<path d="M51 101C78.6142 101 101 78.6142 101 51C101 23.3858 78.6142 1 51 1C23.3858 1 1 23.3858 1 51C1 78.6142 23.3858 101 51 101Z" stroke="black" stroke-width="1.31579" stroke-miterlimit="10"/>
</svg>
