<svg width="102" height="102" viewBox="0 0 102 102" fill="none" xmlns="http://www.w3.org/2000/svg">
<path d="M51 101C78.6142 101 101 78.6142 101 51C101 23.3858 78.6142 1 51 1C23.3858 1 1 23.3858 1 51C1 78.6142 23.3858 101 51 101Z" fill="white"/>
<mask id="mask0_2696_12633" style="mask-type:luminance" maskUnits="userSpaceOnUse" x="1" y="1" width="100" height="100">
<path d="M51 101C78.6142 101 101 78.6142 101 51C101 23.3858 78.6142 1 51 1C23.3858 1 1 23.3858 1 51C1 78.6142 23.3858 101 51 101Z" fill="white"/>
</mask>
<g mask="url(#mask0_2696_12633)">
<path d="M15.8222 36.3916C15.8222 36.3916 10.9933 43.2502 15.8222 49.0988C15.8222 49.0988 10.138 55.0659 12.7169 59.7765C12.7169 59.7765 6.78602 67.0265 10.1479 72.8291C10.1479 72.8291 6.013 77.8686 7.61826 81.3752L16.1775 101.997L50.9966 109.224V72.8291" fill="#644319"/>
<path d="M87.8193 36.3916C87.8193 36.3916 92.6516 43.2502 87.8193 49.0988C87.8193 49.0988 93.5035 55.0659 90.9246 59.7765C90.9246 59.7765 96.8588 67.0265 93.4937 72.8291C93.4937 72.8291 97.6318 77.8686 96.0233 81.3752L87.4608 101.997L52.645 109.882L52.6318 72.8291" fill="#644319"/>
<path d="M13.0326 37.8454C13.0326 37.8454 11.2102 42.2369 17.7003 42.5889H26.5128L18.5918 36.3948L13.0358 37.8454H13.0326Z" fill="#644319"/>
<path d="M70.9997 26.0526C75.1411 26.8749 79.9997 27.171 83.3615 30.0262C87.1938 33.2828 87.2859 38.8782 87.0457 43.7729C86.4503 55.9276 85.605 68.1052 83.2069 80.0558C81.7957 87.092 79.8056 94.1282 75.9964 100.296C74.2464 103.131 72.0425 105.822 69.0589 107.46C63.0589 110.753 54.5688 110.21 47.9833 109.816C43.9898 109.576 39.6576 109.434 36.0622 107.46C33.0754 105.822 30.8747 103.128 29.1247 100.296C25.3155 94.1282 23.3254 87.0887 21.9142 80.0558C19.5161 68.1085 18.6675 55.9276 18.0754 43.7729C17.8352 38.8782 17.9306 33.2795 21.7596 30.0229C25.1609 27.1315 29.8254 26.1776 34.1313 25.6118C42.4964 24.5131 51.1707 23.9604 59.6806 24.5526C63.48 24.819 67.2661 25.3091 71.003 26.0493L70.9997 26.0526Z" fill="white" stroke="#644319" stroke-width="0.986842" stroke-miterlimit="10"/>
<path d="M55.747 59.921C55.747 57.75 47.8818 57.75 47.8818 59.921C47.8818 62.0921 49.6417 63.8519 51.8128 63.8519C53.9838 63.8519 55.7437 62.0921 55.7437 59.921H55.747Z" fill="#644319"/>
<path d="M54.3223 43.7466C54.3223 45.115 68.7631 45.115 68.7631 43.7466C68.7631 42.3782 65.5295 41.2664 61.5427 41.2664C57.5558 41.2664 54.3223 42.3749 54.3223 43.7466Z" fill="#644319"/>
<path d="M33.5986 43.7466C33.5986 45.115 48.0394 45.115 48.0394 43.7466C48.0394 42.3782 44.8059 41.2664 40.819 41.2664C36.8322 41.2664 33.5986 42.3749 33.5986 43.7466Z" fill="#644319"/>
<path d="M59.6417 57.3026C61.7873 57.3026 63.5266 55.1627 63.5266 52.523C63.5266 49.8833 61.7873 47.7434 59.6417 47.7434C57.4962 47.7434 55.7568 49.8833 55.7568 52.523C55.7568 55.1627 57.4962 57.3026 59.6417 57.3026Z" fill="#644319"/>
<path d="M43.9337 57.3026C46.0793 57.3026 47.8186 55.1627 47.8186 52.523C47.8186 49.8833 46.0793 47.7434 43.9337 47.7434C41.7881 47.7434 40.0488 49.8833 40.0488 52.523C40.0488 55.1627 41.7881 57.3026 43.9337 57.3026Z" fill="#644319"/>
<path d="M28.6014 55.2302C28.3119 55.7532 28.3876 56.3091 28.3975 56.8815C28.4073 57.4868 28.3317 58.1249 28.4172 58.7269C28.4896 59.2466 28.8448 59.6578 29.4008 59.6447C29.9567 59.6315 30.3383 59.1381 30.756 58.842C31.2626 58.4802 31.7692 58.1249 32.2494 57.7269C32.4402 57.569 32.6573 57.4539 32.8514 57.3026C32.9666 57.2137 32.9106 57.3091 32.8646 57.2565C32.9402 57.342 32.9863 57.4637 33.0422 57.5624C33.3087 58.069 33.5883 58.6019 33.9172 59.0723C34.1935 59.4703 34.4205 60.046 34.9073 60.2269C35.4929 60.444 35.9731 59.6151 36.2034 59.2006C36.3251 58.9802 36.4402 58.7565 36.5192 58.5131C36.5981 58.2697 36.6179 57.944 36.7823 57.7466C37.1869 57.2631 36.4929 56.5591 36.085 57.0493C35.7593 57.4374 35.7198 57.8881 35.5356 58.342C35.4008 58.6776 35.1639 59.1611 34.8481 59.3519H35.3448C35.1573 59.2532 35.0652 59.0427 34.96 58.8684C34.8317 58.6578 34.6804 58.4605 34.5554 58.2466C34.2988 57.8091 34.0619 57.3585 33.8152 56.9177C33.6113 56.5526 33.3054 56.2664 32.8613 56.296C32.3909 56.3289 31.983 56.6776 31.6343 56.9637C31.2264 57.2993 30.8021 57.6085 30.3712 57.9144C30.1442 58.0756 29.9238 58.2368 29.7133 58.4177C29.6376 58.4835 29.5422 58.5394 29.4731 58.6118C29.3448 58.7434 29.3416 58.5855 29.4271 58.7203C29.3416 58.5855 29.3843 58.3355 29.3876 58.1907C29.3909 57.9012 29.3876 57.6118 29.3876 57.319C29.3876 57.0262 29.381 56.7401 29.3679 56.4506C29.358 56.2072 29.335 55.9506 29.4567 55.7335C29.7626 55.1776 28.9139 54.6776 28.6047 55.2368L28.6014 55.2302Z" fill="#F19A65"/>
<path d="M66.3251 56.1085C66.4567 56.6217 66.5455 57.1217 66.8186 57.5855C67.0126 57.9177 67.1278 58.194 67.21 58.5657C67.3416 59.1842 67.6047 60.0328 68.3811 60.0361C69.1574 60.0394 69.5587 59.1842 69.8416 58.6118C69.9962 58.3026 70.1574 57.9901 70.2824 57.671C70.3844 57.4144 70.4765 57.1578 70.585 56.9046C70.6607 56.7269 70.7067 56.4736 70.8383 56.3256L70.4896 56.4703C70.664 56.4868 70.8547 56.8782 70.9238 57.0065C71.0751 57.2763 71.1969 57.5625 71.3284 57.8388C71.5192 58.2368 71.812 58.5789 72.0061 58.9736C72.164 59.2993 72.2429 59.6578 72.5817 59.8519C72.9205 60.046 73.3745 59.9901 73.6344 59.6809C73.8778 59.3914 73.983 58.944 74.1311 58.6019C74.3186 58.1611 74.3219 57.671 74.5455 57.2467C74.7692 56.8223 74.9797 56.4539 74.9765 55.9769C74.9765 55.3421 73.9863 55.3421 73.9896 55.9769C73.9896 56.2861 73.8021 56.5328 73.664 56.7993C73.5028 57.1151 73.4304 57.4276 73.358 57.7697C73.2857 58.1118 73.1409 58.3782 73.0192 58.6875C72.9929 58.7565 72.8942 58.9144 72.9074 58.9967L72.8679 59.069L73.1146 59.0394C73.1146 59.0394 73.0291 58.8782 73.0192 58.8519C72.7791 58.3092 72.4238 57.8453 72.1705 57.3092C71.9765 56.9013 71.8021 56.4901 71.5291 56.1282C71.2561 55.7664 70.7199 55.2828 70.2396 55.5526C69.9995 55.6875 69.8811 55.9967 69.789 56.2368C69.6771 56.5263 69.5488 56.8059 69.4436 57.0986C69.2824 57.546 69.0686 57.9868 68.8416 58.4046C68.7396 58.5888 68.6376 58.7828 68.4929 58.9407C68.4666 58.9703 68.3909 59.0394 68.3778 59.0526C68.4469 58.9901 68.4403 59.1578 68.4041 59.0394C68.3482 58.8552 68.2528 58.6907 68.2067 58.4967C68.1607 58.3026 68.1311 58.0953 68.0751 57.898C67.9765 57.5657 67.7791 57.2894 67.6179 56.9868C67.4271 56.6381 67.3811 56.2302 67.2857 55.8486C67.1278 55.2335 66.1771 55.4934 66.335 56.1118L66.3251 56.1085Z" fill="#F19A65"/>
<path d="M45.9343 53.4736C46.6283 53.4736 47.1909 52.911 47.1909 52.217C47.1909 51.523 46.6283 50.9604 45.9343 50.9604C45.2403 50.9604 44.6777 51.523 44.6777 52.217C44.6777 52.911 45.2403 53.4736 45.9343 53.4736Z" fill="white"/>
<path d="M61.6384 53.4739C62.3324 53.4739 62.895 52.9113 62.895 52.2173C62.895 51.5233 62.3324 50.9607 61.6384 50.9607C60.9444 50.9607 60.3818 51.5233 60.3818 52.2173C60.3818 52.9113 60.9444 53.4739 61.6384 53.4739Z" fill="white"/>
<path d="M19.6607 77.2104C19.6607 77.2104 12.0686 89.148 23.4567 93.546L19.6607 77.2104Z" fill="#F19A65"/>
<path d="M19.6607 77.2104C19.6607 77.2104 12.0686 89.148 23.4567 93.546" stroke="#644319" stroke-width="0.986842" stroke-miterlimit="10" stroke-linecap="round"/>
<path d="M84.7697 77.2104C84.7697 77.2104 92.3618 89.148 80.9736 93.546L84.7697 77.2104Z" fill="#F19A65"/>
<path d="M84.7697 77.2104C84.7697 77.2104 92.3618 89.148 80.9736 93.546" stroke="#644319" stroke-width="0.986842" stroke-miterlimit="10" stroke-linecap="round"/>
<path d="M46.832 67.625C46.8912 67.9803 51.8583 77.0493 55.9406 67.9375" stroke="#644319" stroke-width="0.986842" stroke-miterlimit="10" stroke-linecap="round"/>
<path d="M68.0163 73.6793C69.3937 72.0343 67.1363 67.8756 62.9743 64.3907C58.8122 60.9057 54.3216 59.4142 52.9442 61.0592C51.5668 62.7043 53.8242 66.8629 57.9862 70.3479C62.1482 73.8328 66.6389 75.3244 68.0163 73.6793Z" fill="#644319"/>
<path d="M45.6432 70.3549C49.8052 66.87 52.0626 62.7113 50.6852 61.0663C49.3078 59.4213 44.8172 60.9128 40.6552 64.3977C36.4931 67.8827 34.2358 72.0413 35.6132 73.6864C36.9906 75.3314 41.4812 73.8399 45.6432 70.3549Z" fill="#644319"/>
<path d="M19.6508 75.0132C19.6508 75.0132 49.3679 85.6645 85.5093 75.0132C85.5093 75.0132 81.4929 95.6053 77.4764 99.1546C77.4764 99.1546 56.5948 105.546 27.6804 99.1546C27.6804 99.1546 22.0586 92.7632 19.6475 75.0132H19.6508Z" fill="#F19A65" stroke="#644319" stroke-width="0.986842" stroke-linecap="round" stroke-linejoin="round"/>
<path d="M86.0757 68.7663C86.0757 68.7663 88.1086 64.5854 86.0757 59.9209C86.0757 59.9209 71.227 80.638 52.3158 78.8452C33.4047 80.6413 18.556 59.9209 18.556 59.9209C16.5231 64.5821 18.556 68.7663 18.556 68.7663C15.5099 73.7762 19.7007 81.9538 19.7007 81.9538C17.7994 94.615 28.9343 89.661 28.9343 89.661C29.1777 103.01 41.4145 95.217 41.4145 95.217C48.0626 102.674 52.3126 94.5492 52.3126 94.5492C52.3126 94.5492 56.5658 102.674 63.2106 95.217C63.2106 95.217 75.4507 103.01 75.6908 89.661C75.6908 89.661 86.8257 94.615 84.9244 81.9538C84.9244 81.9538 89.1152 73.7762 86.0691 68.7663H86.0757Z" fill="#644319"/>
<path d="M17.8877 33.8685C20.845 33.6382 17.2726 25.8652 17.1311 25.0626C16.72 22.6481 24.4009 18.3257 26.1344 17.3191C39.2956 9.64808 58.3976 10.8619 72.4601 15.0329C78.2002 16.7336 79.6443 21.5066 83.6706 25.2698C86.5555 27.9639 91.1015 28.0264 93.4634 31.4441C95.8417 34.8882 95.9634 41.25 92.8548 44.2961C90.7726 46.3356 83.7035 47.9244 81.4963 45.4968L67.5325 30.1579C67.5325 30.1579 18.1246 33.852 17.8877 33.8718V33.8685Z" fill="#F19A65" stroke="#644319" stroke-width="0.986842" stroke-linecap="round" stroke-linejoin="round"/>
<path d="M24.3058 37.8488C31.2597 37.7599 38.1676 36.7303 45.1018 36.2797C48.7334 36.0428 52.365 35.7501 55.967 35.2336C59.6183 34.7139 63.3387 33.5001 66.9505 34.852C73.5262 37.3126 75.5262 44.7797 78.3156 50.4639C80.4505 54.8159 83.9933 59.1514 88.8255 59.5395C90.3979 59.6646 92.342 59.0198 92.5821 57.4573C92.6643 56.9343 92.5295 56.4047 92.365 55.9014C91.6972 53.8619 90.5196 52.033 89.3222 50.2501C86.9242 46.6678 84.4045 43.1678 81.7762 39.7534C79.6183 36.9507 77.3551 34.181 74.5492 32.0264C69.2564 27.9573 62.0854 27.5823 55.6742 27.6415C46.0064 27.7303 35.5952 28.4738 26.2531 31.102C21.9045 32.3257 15.7466 33.9211 13.3584 38.1711C14.2202 36.6382 20.5196 37.806 21.8288 37.8356C22.6545 37.8553 23.4801 37.8553 24.3025 37.8455L24.3058 37.8488Z" fill="#F19A65" stroke="#644319" stroke-width="0.986842" stroke-linecap="round" stroke-linejoin="round"/>
</g>
<path d="M51 101C78.6142 101 101 78.6142 101 51C101 23.3858 78.6142 1 51 1C23.3858 1 1 23.3858 1 51C1 78.6142 23.3858 101 51 101Z" stroke="black" stroke-width="1.31579" stroke-miterlimit="10"/>
</svg>
