<svg width="102" height="102" viewBox="0 0 102 102" fill="none" xmlns="http://www.w3.org/2000/svg">
<path d="M51 101C78.6142 101 101 78.6142 101 51C101 23.3858 78.6142 1 51 1C23.3858 1 1 23.3858 1 51C1 78.6142 23.3858 101 51 101Z" fill="white"/>
<mask id="mask0_2696_12637" style="mask-type:luminance" maskUnits="userSpaceOnUse" x="1" y="1" width="100" height="100">
<path d="M51 101C78.6142 101 101 78.6142 101 51C101 23.3858 78.6142 1 51 1C23.3858 1 1 23.3858 1 51C1 78.6142 23.3858 101 51 101Z" fill="white"/>
</mask>
<g mask="url(#mask0_2696_12637)">
<path d="M16.1317 59.3881C18.0392 59.3881 19.5856 56.6635 19.5856 53.3026C19.5856 49.9416 18.0392 47.217 16.1317 47.217C14.2241 47.217 12.6777 49.9416 12.6777 53.3026C12.6777 56.6635 14.2241 59.3881 16.1317 59.3881Z" fill="white" stroke="#644319" stroke-width="0.986842" stroke-miterlimit="10"/>
<path d="M86.5262 59.3881C88.4338 59.3881 89.9802 56.6635 89.9802 53.3026C89.9802 49.9416 88.4338 47.217 86.5262 47.217C84.6187 47.217 83.0723 49.9416 83.0723 53.3026C83.0723 56.6635 84.6187 59.3881 86.5262 59.3881Z" fill="white" stroke="#644319" stroke-width="0.986842" stroke-miterlimit="10"/>
<path d="M70.0134 25.7237C74.1548 26.5461 79.0134 26.8421 82.3752 29.6974C86.2075 32.954 86.2995 38.5494 86.0594 43.4441C85.464 55.5987 84.6186 67.7763 82.2206 79.727C80.8094 86.7632 78.8193 93.7993 75.0101 99.9671C73.2601 102.803 71.0561 105.493 68.0726 107.132C62.0726 110.424 53.5825 109.882 46.9969 109.487C43.0035 109.247 38.6713 109.105 35.0759 107.132C32.089 105.493 29.8884 102.799 28.1384 99.9671C24.3292 93.7993 22.339 86.7599 20.9278 79.727C18.5298 67.7796 17.6811 55.5987 17.089 43.4441C16.8489 38.5494 16.9443 32.9507 20.7732 29.6941C24.1746 26.8026 28.839 25.8487 33.1449 25.2829C41.5101 24.1842 50.1844 23.6316 58.6943 24.2237C62.4936 24.4901 66.2798 24.9803 70.0167 25.7204L70.0134 25.7237Z" fill="white" stroke="#644319" stroke-width="0.986842" stroke-miterlimit="10"/>
<path d="M54.7597 59.5922C54.7597 57.4211 46.8945 57.4211 46.8945 59.5922C46.8945 61.7632 48.6544 63.5231 50.8255 63.5231C52.9965 63.5231 54.7564 61.7632 54.7564 59.5922H54.7597Z" fill="#644319"/>
<path d="M47.7168 44.0724C47.2431 45.8586 34.0984 42.3684 34.5721 40.5855C35.0458 38.8026 38.3714 38.1349 42.003 39.0954C45.6346 40.0559 48.1905 42.2862 47.7168 44.0724Z" fill="#644319"/>
<path d="M53.9402 44.0725C54.4139 45.8587 67.5587 42.3686 67.085 40.5857C66.6113 38.7995 63.2856 38.135 59.6541 39.0956C56.0258 40.0594 53.4666 42.2863 53.9402 44.0725Z" fill="#644319"/>
<path d="M58.6544 56.9738C60.8 56.9738 62.5393 54.8339 62.5393 52.1942C62.5393 49.5545 60.8 47.4146 58.6544 47.4146C56.5088 47.4146 54.7695 49.5545 54.7695 52.1942C54.7695 54.8339 56.5088 56.9738 58.6544 56.9738Z" fill="#644319"/>
<path d="M42.9474 56.9738C45.0929 56.9738 46.8322 54.8339 46.8322 52.1942C46.8322 49.5545 45.0929 47.4146 42.9474 47.4146C40.8018 47.4146 39.0625 49.5545 39.0625 52.1942C39.0625 54.8339 40.8018 56.9738 42.9474 56.9738Z" fill="#644319"/>
<path d="M27.6151 54.9013C27.3256 55.4244 27.4013 55.9803 27.4111 56.5527C27.421 57.1579 27.3454 57.7961 27.4309 58.398C27.5032 58.9178 27.8585 59.329 28.4144 59.3158C28.9704 59.3027 29.3519 58.8092 29.7697 58.5132C30.2763 58.1513 30.7829 57.7961 31.2631 57.398C31.4539 57.2402 31.671 57.125 31.8651 56.9737C31.9802 56.8849 31.9243 56.9803 31.8783 56.9277C31.9539 57.0132 32 57.1349 32.0559 57.2336C32.3223 57.7402 32.6019 58.273 32.9309 58.7434C33.2072 59.1415 33.4342 59.7171 33.921 59.898C34.5065 60.1152 34.9868 59.2862 35.2171 58.8717C35.3388 58.6513 35.4539 58.4277 35.5329 58.1842C35.6118 57.9408 35.6315 57.6151 35.796 57.4178C36.2006 56.9342 35.5065 56.2303 35.0986 56.7204C34.773 57.1086 34.7335 57.5592 34.5493 58.0132C34.4144 58.3487 34.1776 58.8323 33.8618 59.023H34.3585C34.171 58.9244 34.0789 58.7138 33.9736 58.5395C33.8454 58.329 33.694 58.1316 33.569 57.9178C33.3125 57.4803 33.0756 57.0296 32.8289 56.5888C32.625 56.2237 32.319 55.9375 31.875 55.9671C31.4046 56 30.9967 56.3487 30.648 56.6349C30.2401 56.9704 29.8157 57.2796 29.3848 57.5855C29.1579 57.7467 28.9375 57.9079 28.7269 58.0888C28.6513 58.1546 28.5559 58.2105 28.4868 58.2829C28.3585 58.4145 28.3552 58.2566 28.4407 58.3915C28.3552 58.2566 28.398 58.0066 28.4013 57.8619C28.4046 57.5724 28.4013 57.2829 28.4013 56.9902C28.4013 56.6974 28.3947 56.4112 28.3815 56.1217C28.3717 55.8783 28.3486 55.6217 28.4704 55.4046C28.7763 54.8487 27.9276 54.3487 27.6184 54.9079L27.6151 54.9013Z" fill="#F19A65"/>
<path d="M65.3388 55.7796C65.4704 56.2928 65.5592 56.7928 65.8322 57.2566C66.0263 57.5889 66.1414 57.8652 66.2237 58.2369C66.3553 58.8553 66.6184 59.704 67.3947 59.7073C68.171 59.7106 68.5724 58.8553 68.8553 58.2829C69.0099 57.9737 69.171 57.6612 69.296 57.3421C69.398 57.0856 69.4901 56.829 69.5987 56.5757C69.6743 56.3981 69.7204 56.1448 69.852 55.9968L69.5033 56.1415C69.6776 56.1579 69.8684 56.5494 69.9375 56.6777C70.0888 56.9474 70.2105 57.2336 70.3421 57.5099C70.5329 57.9079 70.8257 58.25 71.0197 58.6448C71.1776 58.9704 71.2566 59.329 71.5954 59.5231C71.9342 59.7171 72.3882 59.6612 72.648 59.352C72.8914 59.0625 72.9967 58.6152 73.1447 58.2731C73.3322 57.8323 73.3355 57.3422 73.5592 56.9178C73.7829 56.4935 73.9934 56.125 73.9901 55.6481C73.9901 55.0132 73 55.0132 73.0033 55.6481C73.0033 55.9573 72.8158 56.204 72.6776 56.4704C72.5164 56.7862 72.4441 57.0987 72.3717 57.4408C72.2993 57.7829 72.1546 58.0494 72.0329 58.3586C72.0066 58.4277 71.9079 58.5856 71.9211 58.6678L71.8816 58.7402L72.1283 58.7106C72.1283 58.7106 72.0428 58.5494 72.0329 58.5231C71.7928 57.9803 71.4375 57.5165 71.1842 56.9803C70.9901 56.5724 70.8158 56.1612 70.5428 55.7994C70.2697 55.4375 69.7336 54.954 69.2533 55.2237C69.0132 55.3586 68.8947 55.6678 68.8026 55.9079C68.6908 56.1974 68.5625 56.477 68.4572 56.7698C68.2961 57.2171 68.0822 57.6579 67.8553 58.0757C67.7533 58.2599 67.6513 58.454 67.5066 58.6119C67.4803 58.6415 67.4046 58.7106 67.3914 58.7237C67.4605 58.6612 67.4539 58.829 67.4178 58.7106C67.3618 58.5264 67.2664 58.3619 67.2204 58.1678C67.1743 57.9737 67.1447 57.7665 67.0888 57.5691C66.9901 57.2369 66.7928 56.9606 66.6316 56.6579C66.4408 56.3093 66.3947 55.9014 66.2993 55.5198C66.1414 54.9047 65.1908 55.1645 65.3487 55.7829L65.3388 55.7796Z" fill="#F19A65"/>
<path d="M44.947 53.1447C45.641 53.1447 46.2036 52.5822 46.2036 51.8882C46.2036 51.1942 45.641 50.6316 44.947 50.6316C44.253 50.6316 43.6904 51.1942 43.6904 51.8882C43.6904 52.5822 44.253 53.1447 44.947 53.1447Z" fill="white"/>
<path d="M60.6511 53.1447C61.3451 53.1447 61.9077 52.5822 61.9077 51.8882C61.9077 51.1942 61.3451 50.6316 60.6511 50.6316C59.9571 50.6316 59.3945 51.1942 59.3945 51.8882C59.3945 52.5822 59.9571 53.1447 60.6511 53.1447Z" fill="white"/>
<path d="M46.5029 67.2961C46.5621 67.6514 51.5292 76.7205 55.6115 67.6086" stroke="#644319" stroke-width="0.986842" stroke-miterlimit="10" stroke-linecap="round"/>
<path d="M19.6015 76.5361C19.6015 76.5361 11.3811 89.4605 23.7101 94.2203L19.6015 76.5361Z" fill="#F19A65"/>
<path d="M19.6015 76.5361C19.6015 76.5361 11.3811 89.4605 23.7101 94.2203" stroke="#644319" stroke-width="0.986842" stroke-miterlimit="10" stroke-linecap="round"/>
<path d="M82.8556 76.5361C82.8556 76.5361 91.076 89.4605 78.7471 94.2203L82.8556 76.5361Z" fill="#F19A65"/>
<path d="M82.8556 76.5361C82.8556 76.5361 91.076 89.4605 78.7471 94.2203" stroke="#644319" stroke-width="0.986842" stroke-miterlimit="10" stroke-linecap="round"/>
<path d="M18.6644 72.5C18.6644 72.5 48.3815 84.0132 84.523 72.5C84.523 72.5 80.5065 94.7599 76.4901 98.5954C76.4901 98.5954 55.6085 105.503 26.694 98.5954C26.694 98.5954 21.0723 91.6875 18.6611 72.5H18.6644Z" fill="#F19A65" stroke="#644319" stroke-width="0.986842" stroke-linecap="round" stroke-linejoin="round"/>
<path d="M18.2368 29.7828C17.8585 29.7828 20.0164 23.4243 20.171 23.1151C23.0559 17.273 28.1184 13.3782 33.2829 10.8124C45.1052 4.93743 66 3.09204 76.4934 13.3355C79.5164 16.2861 82.6842 22.9835 84.3881 27.1512L56.444 29.7828C56.444 29.7828 18.2598 29.7828 18.2401 29.7828H18.2368Z" fill="#F19A65" stroke="#644319" stroke-width="0.986842" stroke-linecap="round" stroke-linejoin="round"/>
<path d="M16.8127 44.4276C16.8127 44.4276 4.58245 38.2302 14.2798 31.046C14.2798 31.046 55.3028 10.5789 87.02 28.4703C87.02 28.4703 102.369 38.4999 85.7173 48.2072C85.7173 48.2072 83.089 12.6809 16.8127 44.4276Z" fill="#F19A65" stroke="#644319" stroke-width="0.986842" stroke-linecap="round" stroke-linejoin="round"/>
<path d="M37.6904 63.2139C37.6904 63.2139 44.4273 71.4047 50.1674 63.852" stroke="#644319" stroke-width="0.986842" stroke-miterlimit="10" stroke-linecap="round"/>
<path d="M50.8848 63.2139C50.8848 63.2139 57.6216 71.4047 63.3617 63.852" stroke="#644319" stroke-width="0.986842" stroke-miterlimit="10" stroke-linecap="round"/>
<path d="M48.9866 32.5197C48.5458 32.5921 48.4899 33.2861 48.4438 33.6282C48.2169 35.3157 48.6116 36.9868 50.1938 37.8519C52.0557 38.8684 55.207 38.8453 56.2333 36.6447C56.5195 36.0328 56.605 35.3453 56.7333 34.6874C55.9636 34.9506 55.059 35.2006 54.2794 34.8486C53.0919 34.3157 53.4669 32.6874 53.7728 31.7236C53.7728 31.7236 48.9965 32.5197 48.9833 32.5197H48.9866Z" fill="#644319"/>
</g>
<path d="M51 101C78.6142 101 101 78.6142 101 51C101 23.3858 78.6142 1 51 1C23.3858 1 1 23.3858 1 51C1 78.6142 23.3858 101 51 101Z" stroke="black" stroke-width="1.31579" stroke-miterlimit="10"/>
</svg>
