<svg width="102" height="102" viewBox="0 0 102 102" fill="none" xmlns="http://www.w3.org/2000/svg">
<path d="M51 101C78.6142 101 101 78.6142 101 51C101 23.3858 78.6142 1 51 1C23.3858 1 1 23.3858 1 51C1 78.6142 23.3858 101 51 101Z" fill="white"/>
<mask id="mask0_2696_12634" style="mask-type:luminance" maskUnits="userSpaceOnUse" x="1" y="1" width="100" height="100">
<path d="M51 101C78.6142 101 101 78.6142 101 51C101 23.3858 78.6142 1 51 1C23.3858 1 1 23.3858 1 51C1 78.6142 23.3858 101 51 101Z" fill="white"/>
</mask>
<g mask="url(#mask0_2696_12634)">
<path d="M20.2443 76.8223C20.2443 76.8223 12.8035 88.8716 24.1917 93.2696L20.2443 76.8223Z" fill="#F19A65"/>
<path d="M20.2443 76.8223C20.2443 76.8223 12.8035 88.8716 24.1917 93.2696" stroke="#644319" stroke-width="0.986842" stroke-miterlimit="10" stroke-linecap="round"/>
<path d="M83.7834 76.8813C83.7834 76.8813 91.3755 88.8188 79.9873 93.2169L83.7834 76.8813Z" fill="#F19A65"/>
<path d="M83.7834 76.8813C83.7834 76.8813 91.3755 88.8188 79.9873 93.2169" stroke="#644319" stroke-width="0.986842" stroke-miterlimit="10" stroke-linecap="round"/>
<path d="M16.7899 58.7301C18.6974 58.7301 20.2438 56.0056 20.2438 52.6446C20.2438 49.2837 18.6974 46.5591 16.7899 46.5591C14.8823 46.5591 13.3359 49.2837 13.3359 52.6446C13.3359 56.0056 14.8823 58.7301 16.7899 58.7301Z" fill="white" stroke="#644319" stroke-width="0.986842" stroke-miterlimit="10"/>
<path d="M87.1844 58.7301C89.092 58.7301 90.6384 56.0056 90.6384 52.6446C90.6384 49.2837 89.092 46.5591 87.1844 46.5591C85.2769 46.5591 83.7305 49.2837 83.7305 52.6446C83.7305 56.0056 85.2769 58.7301 87.1844 58.7301Z" fill="white" stroke="#644319" stroke-width="0.986842" stroke-miterlimit="10"/>
<path d="M84.4709 32.546C84.0268 31.4802 83.4939 30.4375 82.8623 29.4243C73.7406 14.7664 51.9018 11.6513 36.7209 17.1611C33.3787 18.375 30.1978 20.0526 27.3952 22.2467C20.4116 27.7171 17.6189 35.6348 17.5498 44.3223C17.5498 44.6644 17.5498 45.0065 17.5498 45.3486C17.5597 46.2598 17.5959 47.1743 17.6452 48.0855C18.2373 58.6875 19.1518 69.3026 21.2439 79.7302C22.6551 86.7664 24.6452 93.8026 28.4544 99.9703C30.2044 102.806 32.4084 105.497 35.3919 107.135C38.984 109.108 43.3195 109.25 47.313 109.49C53.8985 109.885 62.3886 110.428 68.3886 107.135C71.3755 105.497 73.5761 102.803 75.3261 99.9703C79.1353 93.8026 81.1255 86.7631 82.5366 79.7302C83.9149 72.8684 84.7801 65.9144 85.382 58.944C86.1222 50.3552 87.9413 40.8881 84.461 32.5493L84.4709 32.546Z" fill="white" stroke="#644319" stroke-width="0.986842" stroke-miterlimit="10"/>
<path d="M55.0888 59.5922C55.0888 57.4211 47.2236 57.4211 47.2236 59.5922C47.2236 61.7632 48.9835 63.5231 51.1546 63.5231C53.3256 63.5231 55.0855 61.7632 55.0855 59.5922H55.0888Z" fill="#644319"/>
<path d="M55.2735 44.6742C55.8853 46.1611 63.1551 43.1611 62.5432 41.6775C61.9314 40.1907 59.8064 39.6578 57.7998 40.4867C55.7932 41.3157 54.6617 43.1907 55.2735 44.6742Z" fill="#644319"/>
<path d="M47.8424 44.6742C47.2305 46.1611 39.9608 43.1611 40.5727 41.6775C41.1845 40.1907 43.3095 39.6578 45.3161 40.4867C47.3227 41.3157 48.4542 43.1907 47.8424 44.6742Z" fill="#644319"/>
<path d="M19.915 72.4999C19.915 72.4999 47.9183 83.7302 84.0598 72.217C84.0598 72.217 80.8394 94.7598 76.8229 98.5953C76.8229 98.5953 55.9414 105.503 27.0269 98.5953C27.0269 98.5953 22.3229 91.6874 19.915 72.4999Z" fill="#F19A65" stroke="#644319" stroke-width="0.986842" stroke-linecap="round" stroke-linejoin="round"/>
<path d="M58.9835 56.9738C61.1291 56.9738 62.8684 54.8339 62.8684 52.1942C62.8684 49.5545 61.1291 47.4146 58.9835 47.4146C56.8379 47.4146 55.0986 49.5545 55.0986 52.1942C55.0986 54.8339 56.8379 56.9738 58.9835 56.9738Z" fill="#644319"/>
<path d="M43.2765 56.9738C45.422 56.9738 47.1613 54.8339 47.1613 52.1942C47.1613 49.5545 45.422 47.4146 43.2765 47.4146C41.1309 47.4146 39.3916 49.5545 39.3916 52.1942C39.3916 54.8339 41.1309 56.9738 43.2765 56.9738Z" fill="#644319"/>
<path d="M27.9442 54.9013C27.6547 55.4244 27.7304 55.9803 27.7402 56.5527C27.7501 57.1579 27.6745 57.7961 27.76 58.398C27.8324 58.9178 28.1876 59.329 28.7435 59.3158C29.2995 59.3027 29.681 58.8092 30.0988 58.5132C30.6054 58.1513 31.112 57.7961 31.5922 57.398C31.783 57.2402 32.0001 57.125 32.1942 56.9737C32.3093 56.8849 32.2534 56.9803 32.2074 56.9277C32.283 57.0132 32.3291 57.1349 32.385 57.2336C32.6514 57.7402 32.931 58.273 33.26 58.7434C33.5363 59.1415 33.7633 59.7171 34.2501 59.898C34.8356 60.1152 35.3159 59.2862 35.5462 58.8717C35.6679 58.6513 35.783 58.4277 35.862 58.1842C35.9409 57.9408 35.9606 57.6151 36.1251 57.4178C36.5297 56.9342 35.8356 56.2303 35.4277 56.7204C35.1021 57.1086 35.0626 57.5592 34.8784 58.0132C34.7435 58.3487 34.5067 58.8323 34.1909 59.023H34.6876C34.5001 58.9244 34.408 58.7138 34.3027 58.5395C34.1745 58.329 34.0231 58.1316 33.8981 57.9178C33.6416 57.4803 33.4047 57.0296 33.158 56.5888C32.9541 56.2237 32.6481 55.9375 32.2041 55.9671C31.7337 56 31.3258 56.3487 30.9771 56.6349C30.5692 56.9704 30.1449 57.2796 29.7139 57.5855C29.487 57.7467 29.2666 57.9079 29.056 58.0888C28.9804 58.1546 28.885 58.2105 28.8159 58.2829C28.6876 58.4145 28.6843 58.2566 28.7699 58.3915C28.6843 58.2566 28.7271 58.0066 28.7304 57.8619C28.7337 57.5724 28.7304 57.2829 28.7304 56.9902C28.7304 56.6974 28.7238 56.4112 28.7106 56.1217C28.7008 55.8783 28.6777 55.6217 28.7995 55.4046C29.1054 54.8487 28.2567 54.3487 27.9475 54.9079L27.9442 54.9013Z" fill="#F19A65"/>
<path d="M65.6679 55.7796C65.7995 56.2928 65.8883 56.7928 66.1613 57.2566C66.3554 57.5889 66.4705 57.8652 66.5528 58.2369C66.6844 58.8553 66.9475 59.704 67.7238 59.7073C68.5002 59.7106 68.9015 58.8553 69.1844 58.2829C69.339 57.9737 69.5002 57.6612 69.6252 57.3421C69.7271 57.0856 69.8192 56.829 69.9278 56.5757C70.0034 56.3981 70.0495 56.1448 70.1811 55.9968L69.8324 56.1415C70.0067 56.1579 70.1975 56.5494 70.2666 56.6777C70.4179 56.9474 70.5396 57.2336 70.6712 57.5099C70.862 57.9079 71.1548 58.25 71.3488 58.6448C71.5067 58.9704 71.5857 59.329 71.9245 59.5231C72.2633 59.7171 72.7173 59.6612 72.9771 59.352C73.2205 59.0625 73.3258 58.6152 73.4738 58.2731C73.6613 57.8323 73.6646 57.3422 73.8883 56.9178C74.112 56.4935 74.3225 56.125 74.3192 55.6481C74.3192 55.0132 73.3291 55.0132 73.3324 55.6481C73.3324 55.9573 73.1449 56.204 73.0067 56.4704C72.8455 56.7862 72.7732 57.0987 72.7008 57.4408C72.6284 57.7829 72.4837 58.0494 72.362 58.3586C72.3357 58.4277 72.237 58.5856 72.2502 58.6678L72.2107 58.7402L72.4574 58.7106C72.4574 58.7106 72.3719 58.5494 72.362 58.5231C72.1219 57.9803 71.7666 57.5165 71.5133 56.9803C71.3192 56.5724 71.1449 56.1612 70.8719 55.7994C70.5988 55.4375 70.0627 54.954 69.5824 55.2237C69.3423 55.3586 69.2238 55.6678 69.1317 55.9079C69.0199 56.1974 68.8916 56.477 68.7863 56.7698C68.6252 57.2171 68.4113 57.6579 68.1844 58.0757C68.0824 58.2599 67.9804 58.454 67.8357 58.6119C67.8094 58.6415 67.7337 58.7106 67.7205 58.7237C67.7896 58.6612 67.783 58.829 67.7469 58.7106C67.6909 58.5264 67.5955 58.3619 67.5495 58.1678C67.5034 57.9737 67.4738 57.7665 67.4179 57.5691C67.3192 57.2369 67.1219 56.9606 66.9607 56.6579C66.7699 56.3093 66.7238 55.9014 66.6284 55.5198C66.4705 54.9047 65.5199 55.1645 65.6778 55.7829L65.6679 55.7796Z" fill="#F19A65"/>
<path d="M45.2771 53.1447C45.9711 53.1447 46.5337 52.5822 46.5337 51.8882C46.5337 51.1942 45.9711 50.6316 45.2771 50.6316C44.5831 50.6316 44.0205 51.1942 44.0205 51.8882C44.0205 52.5822 44.5831 53.1447 45.2771 53.1447Z" fill="white"/>
<path d="M60.9802 53.1447C61.6742 53.1447 62.2368 52.5822 62.2368 51.8882C62.2368 51.1942 61.6742 50.6316 60.9802 50.6316C60.2862 50.6316 59.7236 51.1942 59.7236 51.8882C59.7236 52.5822 60.2862 53.1447 60.9802 53.1447Z" fill="white"/>
<path d="M46.833 67.6249C46.8922 67.9802 52.0172 76.0624 56.0995 66.9539" stroke="#644319" stroke-width="0.986842" stroke-miterlimit="10" stroke-linecap="round"/>
<path d="M34.9111 100.579C34.9111 100.579 36.796 106.747 39.3092 109.059L34.9111 100.579Z" fill="white"/>
<path d="M34.9111 100.579C34.9111 100.579 36.796 106.747 39.3092 109.059" stroke="#644319" stroke-width="0.986842" stroke-linecap="round" stroke-linejoin="round"/>
<path d="M43.0498 101.27C43.0498 101.27 43.3919 106.326 45.2768 109.059L43.0498 101.27Z" fill="white"/>
<path d="M43.0498 101.27C43.0498 101.27 43.3919 106.326 45.2768 109.059" stroke="#644319" stroke-width="0.986842" stroke-linecap="round" stroke-linejoin="round"/>
<path d="M66.3228 101.207C66.3228 101.207 64.438 106.918 61.9248 109.059L66.3228 101.207Z" fill="white"/>
<path d="M66.3228 101.207C66.3228 101.207 64.438 106.918 61.9248 109.059" stroke="#644319" stroke-width="0.986842" stroke-linecap="round" stroke-linejoin="round"/>
<path d="M60.1974 15.5394C52.3191 13.9571 43.9573 14.5394 36.4408 17.3815C31.0559 19.421 26.0198 22.6512 22.5066 27.2104C18.9934 31.7696 17.1283 37.7433 18.1546 43.4078C18.0066 42.2236 18.6678 41.1019 19.3388 40.115C26.1151 30.1282 36.648 21.9999 48.8487 20.1841C61.0494 18.3683 71.0461 24.2565 78.6908 32.7367C80.2895 34.5131 81.8388 36.3321 83.4408 38.1052C84.8717 39.6907 86.5461 41.5065 86.2204 43.8223C86.2138 43.8716 86.2138 43.8749 86.2204 43.8387C86.8125 39.9506 86.0823 35.7927 84.5033 32.2203C80.9211 24.1085 72.9112 19.2992 64.7566 16.7104C63.2632 16.2367 61.7402 15.8453 60.2007 15.5361L60.1974 15.5394Z" fill="#644319"/>
<path d="M20.8623 78.2764C20.8623 78.2764 46.9972 87.2961 82.7998 78.9343L81.9248 84.2237C81.9248 84.2237 65.3393 93.0001 22.563 85.0757L20.8623 78.2764Z" fill="#644319"/>
<path d="M23.1318 90.7302L24.7799 94.6973C24.7799 94.6973 52.7634 100.895 79.1845 94.6973L81.2634 88.8289C81.2634 88.8289 76.3292 96.0657 23.1318 90.7302Z" fill="#644319"/>
<path d="M45.2771 58.7302C45.2771 58.7302 41.9547 59.3881 39.3955 60.7434" stroke="#644319" stroke-width="0.328947" stroke-linecap="round" stroke-linejoin="round"/>
<path d="M57.3818 58.7302C57.3818 58.7302 60.7042 59.3881 63.2634 60.7434" stroke="#644319" stroke-width="0.328947" stroke-linecap="round" stroke-linejoin="round"/>
<path d="M38.0205 63.2139C38.0205 63.2139 44.7573 71.4047 50.4975 63.852" stroke="#644319" stroke-width="0.986842" stroke-miterlimit="10" stroke-linecap="round"/>
<path d="M51.2148 63.2139C51.2148 63.2139 57.9517 71.4047 63.6918 63.852" stroke="#644319" stroke-width="0.986842" stroke-miterlimit="10" stroke-linecap="round"/>
</g>
<path d="M51 101C78.6142 101 101 78.6142 101 51C101 23.3858 78.6142 1 51 1C23.3858 1 1 23.3858 1 51C1 78.6142 23.3858 101 51 101Z" stroke="black" stroke-width="1.31579" stroke-miterlimit="10"/>
</svg>
