<svg width="102" height="102" viewBox="0 0 102 102" fill="none" xmlns="http://www.w3.org/2000/svg">
<path d="M51 101C78.6142 101 101 78.6142 101 51C101 23.3858 78.6142 1 51 1C23.3858 1 1 23.3858 1 51C1 78.6142 23.3858 101 51 101Z" fill="white"/>
<mask id="mask0_2696_12636" style="mask-type:luminance" maskUnits="userSpaceOnUse" x="1" y="1" width="100" height="100">
<path d="M51 101C78.6142 101 101 78.6142 101 51C101 23.3858 78.6142 1 51 1C23.3858 1 1 23.3858 1 51C1 78.6142 23.3858 101 51 101Z" fill="white"/>
</mask>
<g mask="url(#mask0_2696_12636)">
<path d="M16.1317 59.3881C18.0392 59.3881 19.5856 56.6635 19.5856 53.3026C19.5856 49.9416 18.0392 47.217 16.1317 47.217C14.2241 47.217 12.6777 49.9416 12.6777 53.3026C12.6777 56.6635 14.2241 59.3881 16.1317 59.3881Z" fill="white" stroke="#644319" stroke-width="0.986842" stroke-miterlimit="10"/>
<path d="M86.5262 59.3881C88.4338 59.3881 89.9802 56.6635 89.9802 53.3026C89.9802 49.9416 88.4338 47.217 86.5262 47.217C84.6187 47.217 83.0723 49.9416 83.0723 53.3026C83.0723 56.6635 84.6187 59.3881 86.5262 59.3881Z" fill="white" stroke="#644319" stroke-width="0.986842" stroke-miterlimit="10"/>
<path d="M70.0134 25.7237C74.1548 26.5461 79.0134 26.8421 82.3752 29.6974C86.2075 32.954 86.2995 38.5494 86.0594 43.4441C85.464 55.5987 84.6186 67.7763 82.2206 79.727C80.8094 86.7632 78.8193 93.7993 75.0101 99.9671C73.2601 102.803 71.0561 105.493 68.0726 107.132C62.0726 110.424 53.5825 109.882 46.9969 109.487C43.0035 109.247 38.6713 109.105 35.0759 107.132C32.089 105.493 29.8884 102.799 28.1384 99.9671C24.3292 93.7993 22.339 86.7599 20.9278 79.727C18.5298 67.7796 17.6811 55.5987 17.089 43.4441C16.8489 38.5494 16.9443 32.9507 20.7732 29.6941C24.1746 26.8026 28.839 25.8487 33.1449 25.2829C41.5101 24.1842 50.1844 23.6316 58.6943 24.2237C62.4936 24.4901 66.2798 24.9803 70.0167 25.7204L70.0134 25.7237Z" fill="white" stroke="#644319" stroke-width="0.986842" stroke-miterlimit="10"/>
<path d="M84.1418 31.2301C83.6977 30.1643 83.1648 29.1215 82.5332 28.1084C73.4115 13.4505 51.5727 10.3354 36.3918 15.8452C33.0496 17.059 29.8687 18.7367 27.0661 20.9307C20.0825 26.4011 17.2898 34.3189 17.2207 43.0064C17.2207 43.3485 17.2207 43.6906 17.2207 44.0327C17.2306 44.9439 17.2668 45.8584 17.3161 46.7696C17.9082 57.3715 18.8227 67.9867 20.9148 78.4143C22.326 85.4505 24.3161 92.4867 28.1253 98.6544C29.8753 101.49 32.0793 104.181 35.0628 105.819C38.6549 107.793 42.9904 107.934 46.9839 108.174C53.5694 108.569 62.0595 109.112 68.0595 105.819C71.0464 104.181 73.247 101.487 74.997 98.6544C78.8062 92.4867 80.7964 85.4472 82.2075 78.4143C83.5858 71.5525 84.451 64.5985 85.0529 57.6281C85.7931 49.0393 87.6122 39.5722 84.1319 31.2334L84.1418 31.2301Z" fill="white" stroke="#644319" stroke-width="0.986842" stroke-miterlimit="10"/>
<path d="M54.7597 59.5922C54.7597 57.4211 46.8945 57.4211 46.8945 59.5922C46.8945 61.7632 48.6544 63.5231 50.8255 63.5231C52.9965 63.5231 54.7564 61.7632 54.7564 59.5922H54.7597Z" fill="#644319"/>
<path d="M47.0192 41.9275C47.0192 42.3979 45.9962 41.9604 45.7889 41.9078C44.4073 41.5525 42.9994 41.4111 41.5751 41.4769C39.96 41.5525 38.3284 41.8453 36.8185 42.4308C35.779 42.8354 34.8383 43.4571 33.7922 43.8551C33.3383 44.0262 32.8481 44.194 32.358 44.1874C32.0981 44.1841 31.4435 44.1084 31.904 43.7762C32.9402 43.0295 34.108 42.4176 35.2264 41.8091C36.8777 40.9078 38.8646 39.8157 40.8021 39.8157C44.2462 39.8157 47.0192 40.7598 47.0192 41.9275Z" fill="#644319"/>
<path d="M54.6377 41.9275C54.6377 42.3979 55.6607 41.9604 55.868 41.9078C57.2495 41.5525 58.6574 41.4111 60.0818 41.4769C61.6969 41.5525 63.3285 41.8453 64.8384 42.4308C65.8778 42.8354 66.8186 43.4571 67.8647 43.8551C68.3186 44.0262 68.8088 44.194 69.2989 44.1874C69.5588 44.1841 70.2134 44.1084 69.7528 43.7762C68.7166 43.0295 67.5489 42.4176 66.4305 41.8091C64.7791 40.9078 62.7923 39.8157 60.8548 39.8157C57.4107 39.8157 54.6377 40.7598 54.6377 41.9275Z" fill="#644319"/>
<path d="M58.6544 56.9735C60.8 56.9735 62.5393 54.8336 62.5393 52.1939C62.5393 49.5542 60.8 47.4143 58.6544 47.4143C56.5088 47.4143 54.7695 49.5542 54.7695 52.1939C54.7695 54.8336 56.5088 56.9735 58.6544 56.9735Z" fill="#644319"/>
<path d="M42.9474 56.9735C45.0929 56.9735 46.8322 54.8336 46.8322 52.1939C46.8322 49.5542 45.0929 47.4143 42.9474 47.4143C40.8018 47.4143 39.0625 49.5542 39.0625 52.1939C39.0625 54.8336 40.8018 56.9735 42.9474 56.9735Z" fill="#644319"/>
<path d="M27.6151 54.9013C27.3256 55.4244 27.4013 55.9803 27.4111 56.5527C27.421 57.1579 27.3454 57.7961 27.4309 58.398C27.5032 58.9178 27.8585 59.329 28.4144 59.3158C28.9704 59.3027 29.3519 58.8092 29.7697 58.5132C30.2763 58.1513 30.7829 57.7961 31.2631 57.398C31.4539 57.2402 31.671 57.125 31.8651 56.9737C31.9802 56.8849 31.9243 56.9803 31.8783 56.9277C31.9539 57.0132 32 57.1349 32.0559 57.2336C32.3223 57.7402 32.6019 58.273 32.9309 58.7434C33.2072 59.1415 33.4342 59.7171 33.921 59.898C34.5065 60.1152 34.9868 59.2862 35.2171 58.8717C35.3388 58.6513 35.4539 58.4277 35.5329 58.1842C35.6118 57.9408 35.6315 57.6151 35.796 57.4178C36.2006 56.9342 35.5065 56.2303 35.0986 56.7204C34.773 57.1086 34.7335 57.5592 34.5493 58.0132C34.4144 58.3487 34.1776 58.8323 33.8618 59.023H34.3585C34.171 58.9244 34.0789 58.7138 33.9736 58.5395C33.8454 58.329 33.694 58.1316 33.569 57.9178C33.3125 57.4803 33.0756 57.0296 32.8289 56.5888C32.625 56.2237 32.319 55.9375 31.875 55.9671C31.4046 56 30.9967 56.3487 30.648 56.6349C30.2401 56.9704 29.8157 57.2796 29.3848 57.5855C29.1579 57.7467 28.9375 57.9079 28.7269 58.0888C28.6513 58.1546 28.5559 58.2105 28.4868 58.2829C28.3585 58.4145 28.3552 58.2566 28.4407 58.3915C28.3552 58.2566 28.398 58.0066 28.4013 57.8619C28.4046 57.5724 28.4013 57.2829 28.4013 56.9902C28.4013 56.6974 28.3947 56.4112 28.3815 56.1217C28.3717 55.8783 28.3486 55.6217 28.4704 55.4046C28.7763 54.8487 27.9276 54.3487 27.6184 54.9079L27.6151 54.9013Z" fill="#F19A65"/>
<path d="M65.3388 55.7796C65.4704 56.2928 65.5592 56.7928 65.8322 57.2566C66.0263 57.5889 66.1414 57.8652 66.2237 58.2369C66.3553 58.8553 66.6184 59.704 67.3947 59.7073C68.171 59.7106 68.5724 58.8553 68.8553 58.2829C69.0099 57.9737 69.171 57.6612 69.296 57.3421C69.398 57.0856 69.4901 56.829 69.5987 56.5757C69.6743 56.3981 69.7204 56.1448 69.852 55.9968L69.5033 56.1415C69.6776 56.1579 69.8684 56.5494 69.9375 56.6777C70.0888 56.9474 70.2105 57.2336 70.3421 57.5099C70.5329 57.9079 70.8257 58.25 71.0197 58.6448C71.1776 58.9704 71.2566 59.329 71.5954 59.5231C71.9342 59.7171 72.3882 59.6612 72.648 59.352C72.8914 59.0625 72.9967 58.6152 73.1447 58.2731C73.3322 57.8323 73.3355 57.3422 73.5592 56.9178C73.7829 56.4935 73.9934 56.125 73.9901 55.6481C73.9901 55.0132 73 55.0132 73.0033 55.6481C73.0033 55.9573 72.8158 56.204 72.6776 56.4704C72.5164 56.7862 72.4441 57.0987 72.3717 57.4408C72.2993 57.7829 72.1546 58.0494 72.0329 58.3586C72.0066 58.4277 71.9079 58.5856 71.9211 58.6678L71.8816 58.7402L72.1283 58.7106C72.1283 58.7106 72.0428 58.5494 72.0329 58.5231C71.7928 57.9803 71.4375 57.5165 71.1842 56.9803C70.9901 56.5724 70.8158 56.1612 70.5428 55.7994C70.2697 55.4375 69.7336 54.954 69.2533 55.2237C69.0132 55.3586 68.8947 55.6678 68.8026 55.9079C68.6908 56.1974 68.5625 56.477 68.4572 56.7698C68.2961 57.2171 68.0822 57.6579 67.8553 58.0757C67.7533 58.2599 67.6513 58.454 67.5066 58.6119C67.4803 58.6415 67.4046 58.7106 67.3914 58.7237C67.4605 58.6612 67.4539 58.829 67.4178 58.7106C67.3618 58.5264 67.2664 58.3619 67.2204 58.1678C67.1743 57.9737 67.1447 57.7665 67.0888 57.5691C66.9901 57.2369 66.7928 56.9606 66.6316 56.6579C66.4408 56.3093 66.3947 55.9014 66.2993 55.5198C66.1414 54.9047 65.1908 55.1645 65.3487 55.7829L65.3388 55.7796Z" fill="#F19A65"/>
<path d="M44.947 53.1447C45.641 53.1447 46.2036 52.5822 46.2036 51.8882C46.2036 51.1942 45.641 50.6316 44.947 50.6316C44.253 50.6316 43.6904 51.1942 43.6904 51.8882C43.6904 52.5822 44.253 53.1447 44.947 53.1447Z" fill="white"/>
<path d="M60.6511 53.1447C61.3451 53.1447 61.9077 52.5822 61.9077 51.8882C61.9077 51.1942 61.3451 50.6316 60.6511 50.6316C59.9571 50.6316 59.3945 51.1942 59.3945 51.8882C59.3945 52.5822 59.9571 53.1447 60.6511 53.1447Z" fill="white"/>
<path d="M45.8457 67.2959C45.9049 67.6512 50.872 76.7202 54.9543 67.6084" stroke="#644319" stroke-width="0.986842" stroke-miterlimit="10" stroke-linecap="round"/>
<path d="M34.582 100.579C34.582 100.579 36.4669 106.747 38.9801 109.059L34.582 100.579Z" fill="white"/>
<path d="M34.582 100.579C34.582 100.579 36.4669 106.747 38.9801 109.059" stroke="#644319" stroke-width="0.986842" stroke-linecap="round" stroke-linejoin="round"/>
<path d="M42.7207 101.27C42.7207 101.27 43.0628 106.326 44.9477 109.059L42.7207 101.27Z" fill="white"/>
<path d="M42.7207 101.27C42.7207 101.27 43.0628 106.326 44.9477 109.059" stroke="#644319" stroke-width="0.986842" stroke-linecap="round" stroke-linejoin="round"/>
<path d="M65.9937 101.207C65.9937 101.207 64.1089 106.918 61.5957 109.059L65.9937 101.207Z" fill="white"/>
<path d="M65.9937 101.207C65.9937 101.207 64.1089 106.918 61.5957 109.059" stroke="#644319" stroke-width="0.986842" stroke-linecap="round" stroke-linejoin="round"/>
<path d="M19.6015 76.5361C19.6015 76.5361 11.3811 89.4605 23.7101 94.2203L19.6015 76.5361Z" fill="#F19A65"/>
<path d="M19.6015 76.5361C19.6015 76.5361 11.3811 89.4605 23.7101 94.2203" stroke="#644319" stroke-width="0.986842" stroke-miterlimit="10" stroke-linecap="round"/>
<path d="M82.8556 76.5361C82.8556 76.5361 91.076 89.4605 78.7471 94.2203L82.8556 76.5361Z" fill="#F19A65"/>
<path d="M82.8556 76.5361C82.8556 76.5361 91.076 89.4605 78.7471 94.2203" stroke="#644319" stroke-width="0.986842" stroke-miterlimit="10" stroke-linecap="round"/>
<path d="M18.6644 72.5C18.6644 72.5 48.3815 84.0132 84.523 72.5C84.523 72.5 80.5065 94.7599 76.4901 98.5954C76.4901 98.5954 55.6085 105.503 26.694 98.5954C26.694 98.5954 21.0723 91.6875 18.6611 72.5H18.6644Z" fill="#F19A65" stroke="#644319" stroke-width="0.986842" stroke-linecap="round" stroke-linejoin="round"/>
<path d="M76.3291 31.2632C76.3291 31.2632 85.8455 50.6316 85.5396 54.2895C85.2337 57.9474 86.3982 38.0263 86.3982 38.0263L76.3291 31.2632Z" fill="#644319"/>
<path d="M37.3613 63.2139C37.3613 63.2139 44.0982 71.4047 49.8383 63.852" stroke="#644319" stroke-width="0.986842" stroke-miterlimit="10" stroke-linecap="round"/>
<path d="M50.5557 63.5427C50.5557 63.5427 57.2925 71.7335 63.0326 64.1809" stroke="#644319" stroke-width="0.986842" stroke-miterlimit="10" stroke-linecap="round"/>
<path d="M55.3818 48.3684C55.3818 48.3684 58.7009 44.421 62.2535 48.3684" stroke="#644319" stroke-width="0.328947" stroke-linecap="round" stroke-linejoin="round"/>
<path d="M39.5918 48.3684C39.5918 48.3684 42.9109 44.421 46.4635 48.3684" stroke="#644319" stroke-width="0.328947" stroke-linecap="round" stroke-linejoin="round"/>
<path d="M47.2728 61.2202C44.9208 61.3386 42.3518 60.5492 40.4833 59.2334C39.1544 58.2959 37.9044 57.2597 36.7399 56.1413C34.3781 53.8682 32.3814 51.2465 30.809 48.4143C30.7794 48.3584 30.7465 48.3025 30.7169 48.2465C30.5886 48.0097 30.4603 47.7728 30.332 47.5327C32.9965 52.5393 35.9208 58.1873 41.4669 60.7334C43.2202 61.536 45.411 61.4867 47.2695 61.2235L47.2728 61.2202Z" fill="#644319"/>
<path d="M53.7402 61.2202C56.0922 61.3386 58.6613 60.5492 60.5297 59.2334C61.8587 58.2959 63.1087 57.2597 64.2731 56.1413C66.635 53.8682 68.6317 51.2465 70.2041 48.4143C70.2337 48.3584 70.2666 48.3025 70.2962 48.2465C70.4244 48.0097 70.5527 47.7728 70.681 47.5327C68.0166 52.5393 65.0922 58.1873 59.5462 60.7334C57.7929 61.536 55.6021 61.4867 53.7435 61.2235L53.7402 61.2202Z" fill="#644319"/>
<path d="M23.7107 39.1774C23.7107 39.1774 17.1647 48.9866 17.4706 53.1872C17.7765 57.3879 16.918 37.1807 16.918 37.1807L23.7107 39.1741V39.1774Z" fill="#644319"/>
<path d="M24.0397 39.1774C25.0002 37.3781 25.9837 35.5919 26.9541 33.7991C27.9245 32.0064 28.464 31.1906 26.1252 31.1906C27.0693 29.8452 28.0101 28.5031 28.9541 27.1577C30.4574 25.013 31.4278 23.0919 33.7897 21.7728C38.5956 19.0952 45.8752 17.2893 51.1548 19.4866C51.2403 19.5228 51.4607 15.6774 51.4344 15.4077C51.1943 13.0031 50.0002 10.8912 47.5133 10.309C44.5232 9.60835 41.5693 10.707 38.8423 11.8485C36.2864 12.9208 33.7206 13.6939 31.1054 14.5755C28.8291 15.3386 26.5561 16.2136 24.5133 17.4932C22.2041 18.9373 20.9114 20.8485 19.5561 23.1741C17.6219 26.4998 15.862 29.5162 15.1087 33.3583C14.1186 38.4176 14.4278 42.5426 16.1285 47.3814" fill="#644319"/>
<path d="M78.6016 39.1777C78.6016 39.1777 85.845 48.4409 85.5391 52.6449C85.2331 56.8488 85.3943 37.1843 85.3943 37.1843L78.6016 39.1777Z" fill="#644319"/>
<path d="M78.2729 39.1777C77.3124 37.3783 76.3288 35.5921 75.3584 33.7994C74.388 32.0066 73.8485 31.1908 76.1874 31.1908C75.2433 29.8454 74.3025 28.5033 73.3584 27.1579C71.8551 25.0132 70.8847 23.0921 68.5229 21.7731C63.717 19.0954 56.4374 17.2895 51.1577 19.4869C51.0722 19.5231 50.8518 15.6777 50.8781 15.4079C51.1183 13.0033 52.3124 10.8915 54.7992 10.3092C57.7893 9.60859 60.7433 10.7073 63.4702 11.8487C66.0262 12.9211 68.592 13.6941 71.2071 14.5757C73.4834 15.3389 75.7564 16.2139 77.7992 17.4935C80.1084 18.9375 81.4012 20.8487 82.7564 23.1744C84.6906 26.5 86.4505 29.5165 87.2038 33.3586C88.1939 38.4178 87.5558 43.6941 85.8551 48.5329" fill="#644319"/>
<path d="M45.4307 10.0952C45.4307 10.0952 50.2136 7.01957 57.0228 10.0952L54.6511 14.7202L48.5261 14.2334L45.434 10.0985L45.4307 10.0952Z" fill="#644319"/>
<path d="M48.2597 16.7038C48.2597 16.7038 48.7466 13.9636 46.4209 12.4143" stroke="white" stroke-width="0.328947" stroke-linecap="round" stroke-linejoin="round"/>
<path d="M54.0561 16.7038C54.0561 16.7038 53.5692 13.9636 55.8949 12.4143" stroke="white" stroke-width="0.328947" stroke-linecap="round" stroke-linejoin="round"/>
<path d="M51 16.7039V11.7236" stroke="white" stroke-width="0.328947" stroke-linecap="round" stroke-linejoin="round"/>
<path d="M42.8089 102.477L43.026 90.3387L39.5918 77.1709L50.8286 83.615L62.0655 77.1709L58.6313 90.3387L58.8484 102.477" fill="#F19A65"/>
<path d="M42.8089 102.477L43.026 90.3387L39.5918 77.1709L50.8286 83.615L62.0655 77.1709L58.6313 90.3387L58.8484 102.477" stroke="#644319" stroke-width="0.986842" stroke-linecap="round" stroke-linejoin="round"/>
<path d="M50.8355 84.388L48.0164 91.1413L40.25 78.1577" fill="white"/>
<path d="M50.8355 84.388L48.0164 91.1413L40.25 78.1577" stroke="#644319" stroke-width="0.986842" stroke-linecap="round" stroke-linejoin="round"/>
<path d="M61.4205 78.1577L53.654 91.1413L50.835 84.388" fill="white"/>
<path d="M61.4205 78.1577L53.654 91.1413L50.835 84.388" stroke="#644319" stroke-width="0.986842" stroke-linecap="round" stroke-linejoin="round"/>
<path d="M49.1904 88.9934L50.8286 91.898L52.151 88.6644L50.6707 85.0493L49.1904 88.9934Z" fill="#644319"/>
<path d="M48.6973 95.2434L50.8815 98.148L52.6446 94.9144L50.6709 91.2993L48.6973 95.2434Z" fill="#644319"/>
</g>
<path d="M51 101C78.6142 101 101 78.6142 101 51C101 23.3858 78.6142 1 51 1C23.3858 1 1 23.3858 1 51C1 78.6142 23.3858 101 51 101Z" stroke="black" stroke-width="1.31579" stroke-miterlimit="10"/>
</svg>
