<svg width="102" height="102" viewBox="0 0 102 102" fill="none" xmlns="http://www.w3.org/2000/svg">
<path d="M51 101C78.6142 101 101 78.6142 101 51C101 23.3858 78.6142 1 51 1C23.3858 1 1 23.3858 1 51C1 78.6142 23.3858 101 51 101Z" fill="white"/>
<mask id="mask0_2696_12632" style="mask-type:luminance" maskUnits="userSpaceOnUse" x="1" y="1" width="100" height="100">
<path d="M51 101C78.6142 101 101 78.6142 101 51C101 23.3858 78.6142 1 51 1C23.3858 1 1 23.3858 1 51C1 78.6142 23.3858 101 51 101Z" fill="white"/>
</mask>
<g mask="url(#mask0_2696_12632)">
<path d="M15.8026 59.059C17.7101 59.059 19.2565 56.3344 19.2565 52.9735C19.2565 49.6125 17.7101 46.8879 15.8026 46.8879C13.895 46.8879 12.3486 49.6125 12.3486 52.9735C12.3486 56.3344 13.895 59.059 15.8026 59.059Z" fill="white" stroke="#644319" stroke-width="0.986842" stroke-miterlimit="10"/>
<path d="M86.1971 59.059C88.1047 59.059 89.6511 56.3344 89.6511 52.9735C89.6511 49.6125 88.1047 46.8879 86.1971 46.8879C84.2895 46.8879 82.7432 49.6125 82.7432 52.9735C82.7432 56.3344 84.2895 59.059 86.1971 59.059Z" fill="white" stroke="#644319" stroke-width="0.986842" stroke-miterlimit="10"/>
<path d="M83.4836 32.8749C83.0395 31.8091 82.5066 30.7663 81.875 29.7532C72.7533 15.0953 50.9145 11.9801 35.7336 17.49C32.3914 18.7038 29.2105 20.3814 26.4079 22.5755C19.4243 28.0459 16.6316 35.9637 16.5625 44.6512C16.5625 44.9933 16.5625 45.3354 16.5625 45.6775C16.5724 46.5887 16.6086 47.5032 16.6579 48.4143C17.25 59.0163 18.1645 69.6314 20.2566 80.0591C21.6678 87.0953 23.6579 94.1314 27.4671 100.299C29.2171 103.135 31.4211 105.826 34.4046 107.464C37.9967 109.437 42.3322 109.579 46.3257 109.819C52.9112 110.214 61.4013 110.756 67.4013 107.464C70.3882 105.826 72.5888 103.131 74.3388 100.299C78.148 94.1314 80.1382 87.092 81.5493 80.0591C82.9276 73.1972 83.7928 66.2433 84.3947 59.2729C85.1349 50.6841 86.9539 41.217 83.4737 32.8782L83.4836 32.8749Z" fill="white" stroke="#644319" stroke-width="0.986842" stroke-miterlimit="10"/>
<path d="M54.6514 43.569C54.6514 45.1743 66.4606 45.1743 66.4606 43.569C66.4606 41.9638 63.8158 40.6611 60.556 40.6611C57.2961 40.6611 54.6514 41.9638 54.6514 43.569Z" fill="#F19A65"/>
<path d="M46.8193 43.569C46.8193 45.1743 34.8818 45.1743 34.8818 43.569C34.8818 41.9638 37.5529 40.6611 40.8522 40.6611C44.1483 40.6611 46.8226 41.9638 46.8226 43.569H46.8193Z" fill="#F19A65"/>
<path d="M57.9962 57.3026C60.1417 57.3026 61.8811 55.1627 61.8811 52.523C61.8811 49.8833 60.1417 47.7434 57.9962 47.7434C55.8506 47.7434 54.1113 49.8833 54.1113 52.523C54.1113 55.1627 55.8506 57.3026 57.9962 57.3026Z" fill="#644319"/>
<path d="M42.2892 57.3026C44.4347 57.3026 46.174 55.1627 46.174 52.523C46.174 49.8833 44.4347 47.7434 42.2892 47.7434C40.1436 47.7434 38.4043 49.8833 38.4043 52.523C38.4043 55.1627 40.1436 57.3026 42.2892 57.3026Z" fill="#644319"/>
<path d="M26.9569 55.2302C26.6674 55.7532 26.7431 56.3091 26.7529 56.8815C26.7628 57.4868 26.6872 58.1249 26.7727 58.7269C26.845 59.2466 27.2003 59.6578 27.7562 59.6447C28.3122 59.6315 28.6937 59.1381 29.1115 58.842C29.6181 58.4802 30.1247 58.1249 30.6049 57.7269C30.7957 57.569 31.0128 57.4539 31.2069 57.3026C31.322 57.2137 31.2661 57.3091 31.22 57.2565C31.2957 57.342 31.3418 57.4637 31.3977 57.5624C31.6641 58.069 31.9437 58.6019 32.2727 59.0723C32.549 59.4703 32.776 60.046 33.2628 60.2269C33.8483 60.444 34.3286 59.6151 34.5589 59.2006C34.6806 58.9802 34.7957 58.7565 34.8747 58.5131C34.9536 58.2697 34.9733 57.944 35.1378 57.7466C35.5424 57.2631 34.8483 56.5591 34.4404 57.0493C34.1148 57.4374 34.0753 57.8881 33.8911 58.342C33.7562 58.6776 33.5194 59.1611 33.2036 59.3519H33.7003C33.5128 59.2532 33.4207 59.0427 33.3154 58.8684C33.1872 58.6578 33.0358 58.4605 32.9108 58.2466C32.6543 57.8091 32.4174 57.3585 32.1707 56.9177C31.9668 56.5526 31.6608 56.2664 31.2168 56.296C30.7464 56.3289 30.3385 56.6776 29.9898 56.9637C29.5819 57.2993 29.1575 57.6085 28.7266 57.9144C28.4997 58.0756 28.2793 58.2368 28.0687 58.4177C27.9931 58.4835 27.8977 58.5394 27.8286 58.6118C27.7003 58.7434 27.697 58.5855 27.7825 58.7203C27.697 58.5855 27.7398 58.3355 27.7431 58.1907C27.7464 57.9012 27.7431 57.6118 27.7431 57.319C27.7431 57.0262 27.7365 56.7401 27.7233 56.4506C27.7135 56.2072 27.6904 55.9506 27.8122 55.7335C28.1181 55.1776 27.2694 54.6776 26.9602 55.2368L26.9569 55.2302Z" fill="#F19A65"/>
<path d="M64.6806 56.1085C64.8122 56.6217 64.901 57.1217 65.174 57.5855C65.3681 57.9177 65.4832 58.194 65.5655 58.5657C65.6971 59.1842 65.9602 60.0328 66.7365 60.0361C67.5128 60.0394 67.9142 59.1842 68.1971 58.6118C68.3517 58.3026 68.5128 57.9901 68.6378 57.671C68.7398 57.4144 68.8319 57.1578 68.9405 56.9046C69.0161 56.7269 69.0622 56.4736 69.1938 56.3256L68.8451 56.4703C69.0194 56.4868 69.2102 56.8782 69.2793 57.0065C69.4306 57.2763 69.5523 57.5625 69.6839 57.8388C69.8747 58.2368 70.1675 58.5789 70.3615 58.9736C70.5194 59.2993 70.5984 59.6578 70.9372 59.8519C71.276 60.046 71.73 59.9901 71.9898 59.6809C72.2332 59.3914 72.3385 58.944 72.4865 58.6019C72.674 58.1611 72.6773 57.671 72.901 57.2467C73.1247 56.8223 73.3352 56.4539 73.3319 55.9769C73.3319 55.3421 72.3418 55.3421 72.3451 55.9769C72.3451 56.2861 72.1576 56.5328 72.0194 56.7993C71.8582 57.1151 71.7859 57.4276 71.7135 57.7697C71.6411 58.1118 71.4964 58.3782 71.3747 58.6875C71.3484 58.7565 71.2497 58.9144 71.2629 58.9967L71.2234 59.069L71.4701 59.0394C71.4701 59.0394 71.3846 58.8782 71.3747 58.8519C71.1346 58.3092 70.7793 57.8453 70.526 57.3092C70.3319 56.9013 70.1576 56.4901 69.8846 56.1282C69.6115 55.7664 69.0753 55.2828 68.5951 55.5526C68.355 55.6875 68.2365 55.9967 68.1444 56.2368C68.0326 56.5263 67.9043 56.8059 67.799 57.0986C67.6379 57.546 67.424 57.9868 67.1971 58.4046C67.0951 58.5888 66.9931 58.7828 66.8484 58.9407C66.8221 58.9703 66.7464 59.0394 66.7332 59.0526C66.8023 58.9901 66.7957 59.1578 66.7596 59.0394C66.7036 58.8552 66.6082 58.6907 66.5622 58.4967C66.5161 58.3026 66.4865 58.0953 66.4306 57.898C66.3319 57.5657 66.1346 57.2894 65.9734 56.9868C65.7826 56.6381 65.7365 56.2302 65.6411 55.8486C65.4832 55.2335 64.5326 55.4934 64.6905 56.1118L64.6806 56.1085Z" fill="#F19A65"/>
<path d="M44.2898 53.4736C44.9838 53.4736 45.5464 52.911 45.5464 52.217C45.5464 51.523 44.9838 50.9604 44.2898 50.9604C43.5958 50.9604 43.0332 51.523 43.0332 52.217C43.0332 52.911 43.5958 53.4736 44.2898 53.4736Z" fill="white"/>
<path d="M59.9929 53.4736C60.6869 53.4736 61.2495 52.911 61.2495 52.217C61.2495 51.523 60.6869 50.9604 59.9929 50.9604C59.2989 50.9604 58.7363 51.523 58.7363 52.217C58.7363 52.911 59.2989 53.4736 59.9929 53.4736Z" fill="white"/>
<path d="M45.5166 67.2959C45.5758 67.6512 50.5429 76.7202 54.6252 67.6084" stroke="#644319" stroke-width="0.986842" stroke-miterlimit="10" stroke-linecap="round"/>
<path d="M48.5267 60.5493C48.5267 60.5493 38.6649 61.6908 38.3359 69.2566C38.3359 69.2566 50.0136 63.8289 62.5629 69.8059C62.5629 69.8059 62.8261 59.898 48.5267 60.5493Z" fill="#F19A65"/>
<path d="M54.1015 59.921C54.1015 57.75 46.2363 57.75 46.2363 59.921C46.2363 62.0921 47.9962 63.8519 50.1672 63.8519C52.3383 63.8519 54.0982 62.0921 54.0982 59.921H54.1015Z" fill="#644319"/>
<path d="M17.4473 40.1446C17.4473 40.1446 25.4144 32.6808 29.7367 34.3584C29.7367 34.3584 45.5854 37.1676 55.1183 28.7038C55.1183 28.7038 85.3749 30.9341 84.5525 54.9473L85.5394 42.7762C85.5394 42.7762 85.3354 14.9999 46.3946 14.8157C46.3946 14.8157 18.7631 17.7762 17.4473 40.1446Z" fill="#F19A65"/>
<path d="M18.2002 61.6216C18.2002 68.6907 25.3285 73.319 30.0226 77.49C29.5884 77.1051 26.5587 77.8124 25.8318 77.8683C24.0884 77.9999 22.3449 78.1117 20.6015 78.217C20.4403 78.2268 20.2627 78.2334 20.1278 78.1446C19.9502 78.0295 19.9041 77.7959 19.8712 77.5854C19.0587 72.3617 18.2002 66.9209 18.2002 61.6216Z" fill="#F19A65"/>
<path d="M83.5662 62.5129C83.5662 69.582 76.3425 72.9899 71.6484 77.161C72.0826 76.7761 75.1123 77.4833 75.8392 77.5393C77.5826 77.6708 79.3261 77.7827 81.0695 77.8879C81.2307 77.8978 81.4083 77.9044 81.5432 77.8156C81.7208 77.7004 81.7669 77.4669 81.7998 77.2564C82.655 71.7498 83.5629 67.4932 83.5629 62.5129H83.5662Z" fill="#F19A65"/>
<path d="M20.7265 78.5261C20.7265 78.5261 12.5061 91.4505 24.8351 96.2103L20.7265 78.5261Z" fill="#F19A65"/>
<path d="M20.7265 78.5261C20.7265 78.5261 12.5061 91.4505 24.8351 96.2103" stroke="#644319" stroke-width="0.986842" stroke-miterlimit="10" stroke-linecap="round"/>
<path d="M80.6906 79.842C80.6906 79.842 88.911 92.7664 76.582 97.5263L80.6906 79.842Z" fill="#F19A65"/>
<path d="M80.6906 79.842C80.6906 79.842 88.911 92.7664 76.582 97.5263" stroke="#644319" stroke-width="0.986842" stroke-miterlimit="10" stroke-linecap="round"/>
<path d="M18.9668 72.8289C18.9668 72.8289 47.8188 84.342 82.9076 72.8289C82.9076 72.8289 79.0096 95.0887 75.1115 98.9243C75.1115 98.9243 54.8385 105.832 26.7661 98.9243C26.7661 98.9243 21.3089 92.0164 18.9701 72.8289H18.9668Z" fill="#F19A65" stroke="#644319" stroke-width="0.986842" stroke-linecap="round" stroke-linejoin="round"/>
<path d="M49.832 77.3649C49.832 77.3649 35.4504 70.1741 39.0458 82.1577C39.0458 82.1577 41.4438 91.7465 49.832 77.3649Z" fill="#644319"/>
<path d="M49.832 77.3649C49.832 77.3649 64.2136 70.1741 60.6182 82.1577C60.6182 82.1577 58.2202 91.7465 49.832 77.3649Z" fill="#644319"/>
<path d="M83.0724 73.2038C83.7303 65.3091 84.0198 66.2499 84.6185 59.2828C85.3586 50.694 87.1777 41.2269 83.6974 32.888C83.2533 31.8223 82.7204 30.7795 82.0889 29.7663C72.9672 15.1084 51.1283 11.9933 35.9474 17.5032C32.6053 18.717 29.4244 20.3946 26.6218 22.5887C19.6382 28.0591 16.8454 35.9769 16.7764 44.6644C16.7764 45.0065 16.7764 45.3486 16.7764 45.6907C16.7862 46.6019 16.8224 47.5163 16.8718 48.4275C17.4639 59.0295 17.1579 62.7828 19.2501 73.2071" stroke="#644319" stroke-width="0.986842" stroke-miterlimit="10"/>
</g>
<path d="M51 101C78.6142 101 101 78.6142 101 51C101 23.3858 78.6142 1 51 1C23.3858 1 1 23.3858 1 51C1 78.6142 23.3858 101 51 101Z" stroke="black" stroke-width="1.31579" stroke-miterlimit="10"/>
</svg>
