<svg width="102" height="102" viewBox="0 0 102 102" fill="none" xmlns="http://www.w3.org/2000/svg">
<path d="M51 101C78.6142 101 101 78.6142 101 51C101 23.3858 78.6142 1 51 1C23.3858 1 1 23.3858 1 51C1 78.6142 23.3858 101 51 101Z" fill="white"/>
<mask id="mask0_2696_12635" style="mask-type:luminance" maskUnits="userSpaceOnUse" x="1" y="1" width="100" height="100">
<path d="M51 101C78.6142 101 101 78.6142 101 51C101 23.3858 78.6142 1 51 1C23.3858 1 1 23.3858 1 51C1 78.6142 23.3858 101 51 101Z" fill="white"/>
</mask>
<g mask="url(#mask0_2696_12635)">
<path d="M28.9602 28.3027C33.3203 28.3027 36.8549 24.7681 36.8549 20.4079C36.8549 16.0478 33.3203 12.5132 28.9602 12.5132C24.6 12.5132 21.0654 16.0478 21.0654 20.4079C21.0654 24.7681 24.6 28.3027 28.9602 28.3027Z" fill="#644319"/>
<path d="M36.8547 22.7104C41.2148 22.7104 44.7494 19.1758 44.7494 14.8156C44.7494 10.4555 41.2148 6.9209 36.8547 6.9209C32.4946 6.9209 28.96 10.4555 28.96 14.8156C28.96 19.1758 32.4946 22.7104 36.8547 22.7104Z" fill="#644319"/>
<path d="M15.4733 49.0264C18.1984 49.0264 20.4075 46.8173 20.4075 44.0922C20.4075 41.3671 18.1984 39.158 15.4733 39.158C12.7482 39.158 10.5391 41.3671 10.5391 44.0922C10.5391 46.8173 12.7482 49.0264 15.4733 49.0264Z" fill="#644319"/>
<path d="M88.1705 49.3552C90.8956 49.3552 93.1047 47.1461 93.1047 44.421C93.1047 41.6959 90.8956 39.4868 88.1705 39.4868C85.4454 39.4868 83.2363 41.6959 83.2363 44.421C83.2363 47.1461 85.4454 49.3552 88.1705 49.3552Z" fill="#644319"/>
<path d="M86.8551 43.7632C89.5802 43.7632 91.7893 41.5541 91.7893 38.829C91.7893 36.1039 89.5802 33.8948 86.8551 33.8948C84.13 33.8948 81.9209 36.1039 81.9209 38.829C81.9209 41.5541 84.13 43.7632 86.8551 43.7632Z" fill="#644319"/>
<path d="M86.6911 39.4868C89.8704 39.4868 92.4477 36.9095 92.4477 33.7302C92.4477 30.5509 89.8704 27.9736 86.6911 27.9736C83.5119 27.9736 80.9346 30.5509 80.9346 33.7302C80.9346 36.9095 83.5119 39.4868 86.6911 39.4868Z" fill="#644319"/>
<path d="M16.1317 59.717C18.0392 59.717 19.5856 56.9924 19.5856 53.6314C19.5856 50.2705 18.0392 47.5459 16.1317 47.5459C14.2241 47.5459 12.6777 50.2705 12.6777 53.6314C12.6777 56.9924 14.2241 59.717 16.1317 59.717Z" fill="white" stroke="#644319" stroke-width="0.986842" stroke-miterlimit="10"/>
<path d="M86.5262 59.717C88.4338 59.717 89.9802 56.9924 89.9802 53.6314C89.9802 50.2705 88.4338 47.5459 86.5262 47.5459C84.6187 47.5459 83.0723 50.2705 83.0723 53.6314C83.0723 56.9924 84.6187 59.717 86.5262 59.717Z" fill="white" stroke="#644319" stroke-width="0.986842" stroke-miterlimit="10"/>
<path d="M69.6315 26.0526C73.717 26.8749 78.5131 27.171 81.8256 30.0262C85.6052 33.2828 85.6973 38.8782 85.4605 43.7729C84.8749 55.9276 84.0361 68.1052 81.671 80.0558C80.2795 87.092 78.3157 94.1282 74.5558 100.296C72.8289 103.131 70.6545 105.822 67.7105 107.46C61.7894 110.753 53.4144 110.21 46.9144 109.816C42.9736 109.576 38.7006 109.434 35.1545 107.46C32.2072 105.822 30.0361 103.128 28.3091 100.296C24.5493 94.1282 22.5855 87.0887 21.194 80.0558C18.8289 68.1085 17.9901 55.9276 17.4045 43.7729C17.1677 38.8782 17.2598 33.2795 21.0394 30.0229C24.398 27.1315 28.9966 26.1776 33.2466 25.6118C41.4999 24.5131 50.0591 23.9604 58.4539 24.5526C62.2039 24.819 65.9374 25.3091 69.6249 26.0493L69.6315 26.0526Z" fill="white" stroke="#644319" stroke-width="0.986842" stroke-miterlimit="10"/>
<path d="M84.1418 29.5856C83.6977 28.5198 83.1648 27.477 82.5332 26.4638C73.4115 11.806 51.5727 8.69082 36.3918 14.2007C33.0496 15.4145 29.8687 17.0921 27.0661 19.2862C20.0825 24.7566 17.2898 32.6744 17.2207 41.3619C17.2207 41.704 17.2207 42.0461 17.2207 42.3882C17.2306 43.2994 17.2668 44.2138 17.3161 45.125C17.9082 55.727 18.8227 66.3421 20.9148 76.7698C22.326 83.806 24.3161 90.8421 28.1253 97.0099C29.8753 99.8454 32.0793 102.536 35.0628 104.174C38.6549 106.148 42.9904 106.289 46.9839 106.53C53.5694 106.924 62.0595 107.467 68.0595 104.174C71.0464 102.536 73.247 99.8421 74.997 97.0099C78.8062 90.8421 80.7964 83.8027 82.2075 76.7698C83.5858 69.9079 84.451 62.954 85.0529 55.9836C85.7931 47.3948 87.6122 37.9277 84.1319 29.5888L84.1418 29.5856Z" fill="white" stroke="#644319" stroke-width="0.986842" stroke-miterlimit="10"/>
<path d="M58.6544 57.3026C60.8 57.3026 62.5393 55.1627 62.5393 52.523C62.5393 49.8833 60.8 47.7434 58.6544 47.7434C56.5088 47.7434 54.7695 49.8833 54.7695 52.523C54.7695 55.1627 56.5088 57.3026 58.6544 57.3026Z" fill="#644319"/>
<path d="M42.9474 57.3026C45.0929 57.3026 46.8322 55.1627 46.8322 52.523C46.8322 49.8833 45.0929 47.7434 42.9474 47.7434C40.8018 47.7434 39.0625 49.8833 39.0625 52.523C39.0625 55.1627 40.8018 57.3026 42.9474 57.3026Z" fill="#644319"/>
<path d="M44.947 53.4736C45.641 53.4736 46.2036 52.911 46.2036 52.217C46.2036 51.523 45.641 50.9604 44.947 50.9604C44.253 50.9604 43.6904 51.523 43.6904 52.217C43.6904 52.911 44.253 53.4736 44.947 53.4736Z" fill="white"/>
<path d="M60.6511 53.4736C61.3451 53.4736 61.9077 52.911 61.9077 52.217C61.9077 51.523 61.3451 50.9604 60.6511 50.9604C59.9571 50.9604 59.3945 51.523 59.3945 52.217C59.3945 52.911 59.9571 53.4736 60.6511 53.4736Z" fill="white"/>
<path d="M34.582 100.908C34.582 100.908 36.4669 107.076 38.9801 109.388L34.582 100.908Z" fill="white"/>
<path d="M34.582 100.908C34.582 100.908 36.4669 107.076 38.9801 109.388" stroke="#644319" stroke-width="0.986842" stroke-linecap="round" stroke-linejoin="round"/>
<path d="M65.9937 101.536C65.9937 101.536 64.1089 107.247 61.5957 109.388L65.9937 101.536Z" fill="white"/>
<path d="M65.9937 101.536C65.9937 101.536 64.1089 107.247 61.5957 109.388" stroke="#644319" stroke-width="0.986842" stroke-linecap="round" stroke-linejoin="round"/>
<path d="M19.6015 76.865C19.6015 76.865 11.3811 89.7893 23.7101 94.5492L19.6015 76.865Z" fill="#F19A65"/>
<path d="M19.6015 76.865C19.6015 76.865 11.3811 89.7893 23.7101 94.5492" stroke="#644319" stroke-width="0.986842" stroke-miterlimit="10" stroke-linecap="round"/>
<path d="M82.8556 76.865C82.8556 76.865 91.076 89.7893 78.7471 94.5492L82.8556 76.865Z" fill="#F19A65"/>
<path d="M82.8556 76.865C82.8556 76.865 91.076 89.7893 78.7471 94.5492" stroke="#644319" stroke-width="0.986842" stroke-miterlimit="10" stroke-linecap="round"/>
<path d="M55.3818 48.6973C55.3818 48.6973 58.7009 44.7499 62.2535 48.6973" stroke="#644319" stroke-width="0.328947" stroke-linecap="round" stroke-linejoin="round"/>
<path d="M39.5918 48.6973C39.5918 48.6973 42.9109 44.7499 46.4635 48.6973" stroke="#644319" stroke-width="0.328947" stroke-linecap="round" stroke-linejoin="round"/>
<path d="M29.6182 65.1448C33.0699 65.1448 35.8682 62.3466 35.8682 58.8948C35.8682 55.443 33.0699 52.6448 29.6182 52.6448C26.1664 52.6448 23.3682 55.443 23.3682 58.8948C23.3682 62.3466 26.1664 65.1448 29.6182 65.1448Z" fill="#F19A65"/>
<path d="M72.0391 65.1448C75.4908 65.1448 78.2891 62.3466 78.2891 58.8948C78.2891 55.443 75.4908 52.6448 72.0391 52.6448C68.5873 52.6448 65.7891 55.443 65.7891 58.8948C65.7891 62.3466 68.5873 65.1448 72.0391 65.1448Z" fill="#F19A65"/>
<path d="M39.1845 39.9078C37.6187 39.8749 36.0464 40.0065 34.5266 40.2959C31.2437 40.9209 27.2766 42.2597 25.6582 44.819C25.701 44.7499 26.9871 44.5097 27.1812 44.4374C29.8293 43.4407 32.5102 42.9604 35.4279 43.217C38.9444 43.5262 42.4937 43.5657 46.02 43.3354C46.5793 43.2992 47.2503 43.1874 47.4345 42.763C47.5891 42.4078 47.3029 42.0295 46.9674 41.7696C46.395 41.3255 45.6582 41.0459 44.9181 40.8157C43.0891 40.2466 41.145 39.9505 39.1911 39.9078H39.1845Z" fill="#644319"/>
<path d="M62.4698 39.9078C64.0356 39.8749 65.608 40.0065 67.1277 40.2959C70.4106 40.9209 74.3777 42.2597 75.9962 44.819C75.9534 44.7499 74.6672 44.5097 74.4731 44.4374C71.8251 43.4407 69.1442 42.9604 66.2264 43.217C62.71 43.5262 59.1606 43.5657 55.6343 43.3354C55.0751 43.2992 54.404 43.1874 54.2198 42.763C54.0652 42.4078 54.3514 42.0295 54.6869 41.7696C55.2593 41.3255 55.9962 41.0459 56.7363 40.8157C58.5652 40.2466 60.5093 39.9505 62.4633 39.9078H62.4698Z" fill="#644319"/>
<path d="M15.8027 59.717V66.4605" stroke="#644319" stroke-width="0.986842" stroke-miterlimit="10"/>
<path d="M15.474 72.3814C17.2908 72.3814 18.7635 70.9087 18.7635 69.092C18.7635 67.2752 17.2908 65.8025 15.474 65.8025C13.6573 65.8025 12.1846 67.2752 12.1846 69.092C12.1846 70.9087 13.6573 72.3814 15.474 72.3814Z" fill="#644319"/>
<path d="M86.8555 59.717V66.4605" stroke="#644319" stroke-width="0.986842" stroke-miterlimit="10"/>
<path d="M86.8549 72.3814C88.6716 72.3814 90.1444 70.9087 90.1444 69.092C90.1444 67.2752 88.6716 65.8025 86.8549 65.8025C85.0382 65.8025 83.5654 67.2752 83.5654 69.092C83.5654 70.9087 85.0382 72.3814 86.8549 72.3814Z" fill="#644319"/>
<path d="M44.9476 67.2138C44.9476 67.2138 44.7107 62.5362 50.6713 63.5C50.6713 63.5 49.7502 67.6414 44.9476 67.2138Z" fill="#F19A65"/>
<path d="M56.7107 67.2138C56.7107 67.2138 57.2896 62.5362 51.3291 63.5C51.3291 63.5 51.908 67.6414 56.7107 67.2138Z" fill="#F19A65"/>
<path d="M54.7597 59.921C54.7597 57.75 46.8945 57.75 46.8945 59.921C46.8945 62.0921 48.6544 63.8519 50.8255 63.8519C52.9965 63.8519 54.7564 62.0921 54.7564 59.921H54.7597Z" fill="#644319"/>
<path d="M55.9336 67.4473C56.4073 70.1249 54.4435 74.296 51.3284 74.3552C47.9073 74.421 45.6803 70.7664 45.7692 67.7697C45.7692 67.7499 45.7692 67.7302 45.7692 67.7072C45.7692 67.7072 48.6935 72.2302 51.3251 71.9769C51.3251 71.9769 54.8218 70.6019 55.8678 67.217L55.9303 67.4506L55.9336 67.4473Z" fill="#F19A65"/>
<path d="M38.3486 63.5427C38.3486 63.5427 45.0855 71.7335 50.8256 64.1809" stroke="#644319" stroke-width="0.986842" stroke-miterlimit="10" stroke-linecap="round"/>
<path d="M50.8848 63.8716C50.8848 63.8716 57.6216 72.0624 63.3617 64.5097" stroke="#644319" stroke-width="0.986842" stroke-miterlimit="10" stroke-linecap="round"/>
<path d="M46.1738 67.625C46.233 67.9803 51.2001 77.0493 55.2824 67.9375" stroke="#644319" stroke-width="0.986842" stroke-miterlimit="10" stroke-linecap="round"/>
<path d="M17.4077 45.4075C17.4077 45.4075 26.7268 16.9206 52.6775 21.3088V11.5489C52.6775 11.5489 15.0656 10.5127 17.4077 45.4075Z" fill="#644319"/>
<path d="M86.4244 45.4075C86.4244 45.4075 77.51 16.9206 52.6777 21.3088V11.5489C52.6777 11.5489 88.6646 10.5127 86.4244 45.4075Z" fill="#644319"/>
<path d="M15.1442 42.1184C17.8693 42.1184 20.0784 39.9093 20.0784 37.1842C20.0784 34.4591 17.8693 32.25 15.1442 32.25C12.4191 32.25 10.21 34.4591 10.21 37.1842C10.21 39.9093 12.4191 42.1184 15.1442 42.1184Z" fill="#644319"/>
<path d="M17.776 33.8948C20.5011 33.8948 22.7102 31.6857 22.7102 28.9606C22.7102 26.2355 20.5011 24.0264 17.776 24.0264C15.0509 24.0264 12.8418 26.2355 12.8418 28.9606C12.8418 31.6857 15.0509 33.8948 17.776 33.8948Z" fill="#644319"/>
<path d="M83.2369 30.2764C85.962 30.2764 88.1712 28.0673 88.1712 25.3422C88.1712 22.6171 85.962 20.408 83.2369 20.408C80.5119 20.408 78.3027 22.6171 78.3027 25.3422C78.3027 28.0673 80.5119 30.2764 83.2369 30.2764Z" fill="#644319"/>
<path d="M22.3815 29.2893C25.1066 29.2893 27.3157 27.0802 27.3157 24.3551C27.3157 21.63 25.1066 19.4209 22.3815 19.4209C19.6564 19.4209 17.4473 21.63 17.4473 24.3551C17.4473 27.0802 19.6564 29.2893 22.3815 29.2893Z" fill="#644319"/>
<path d="M49.0261 19.421C52.8412 19.421 55.934 16.3282 55.934 12.5131C55.934 8.69799 52.8412 5.60522 49.0261 5.60522C45.2109 5.60522 42.1182 8.69799 42.1182 12.5131C42.1182 16.3282 45.2109 19.421 49.0261 19.421Z" fill="#644319"/>
<path d="M58.5661 18.4342C62.3812 18.4342 65.474 15.3414 65.474 11.5263C65.474 7.71118 62.3812 4.61841 58.5661 4.61841C54.751 4.61841 51.6582 7.71118 51.6582 11.5263C51.6582 15.3414 54.751 18.4342 58.5661 18.4342Z" fill="#644319"/>
<path d="M68.7634 21.3946C72.5785 21.3946 75.6713 18.3019 75.6713 14.4868C75.6713 10.6716 72.5785 7.57886 68.7634 7.57886C64.9482 7.57886 61.8555 10.6716 61.8555 14.4868C61.8555 18.3019 64.9482 21.3946 68.7634 21.3946Z" fill="#644319"/>
<path d="M41.1315 16.4605C43.8566 16.4605 46.0657 14.2513 46.0657 11.5263C46.0657 8.80116 43.8566 6.59204 41.1315 6.59204C38.4064 6.59204 36.1973 8.80116 36.1973 11.5263C36.1973 14.2513 38.4064 16.4605 41.1315 16.4605Z" fill="#644319"/>
<path d="M76.6578 23.6973C79.3829 23.6973 81.5921 21.4882 81.5921 18.7631C81.5921 16.038 79.3829 13.8289 76.6578 13.8289C73.9328 13.8289 71.7236 16.038 71.7236 18.7631C71.7236 21.4882 73.9328 23.6973 76.6578 23.6973Z" fill="#644319"/>
<path d="M59.5724 13.4999C59.5724 13.4999 40.7435 9.61171 28.7139 21.2597C28.7139 21.2597 42.1645 13.0689 60.5395 17.0689" fill="#F19A65"/>
<path d="M67.0694 15.7729C67.0694 15.7729 78.8293 17.6315 81.645 29.2269C81.645 29.2269 76.8885 19.8223 65.3457 18.1578" fill="#F19A65"/>
<path d="M78.0755 17.9372C78.0755 15.9668 76.4768 14.3681 74.5064 14.3681C74.0854 14.3681 73.6841 14.4437 73.3091 14.5786C73.2104 12.6937 71.6577 11.197 69.7498 11.197C67.9735 11.197 66.5031 12.4964 66.2301 14.197C65.8452 14.0523 65.4275 13.97 64.99 13.97C63.0196 13.97 61.4209 15.5687 61.4209 17.5391C61.4209 19.2003 62.5558 20.5885 64.092 20.9898C63.661 21.5786 63.4045 22.3056 63.4045 23.0918C63.4045 25.0622 65.0031 26.6608 66.9735 26.6608C68.2137 26.6608 69.3091 26.026 69.9472 25.0622C70.5854 26.026 71.6775 26.6608 72.9209 26.6608C74.8913 26.6608 76.49 25.0622 76.49 23.0918C76.49 22.3977 76.2893 21.7497 75.9439 21.2036C77.1972 20.651 78.0755 19.3977 78.0755 17.9404V17.9372ZM70.9472 18.1214C70.9801 18.7464 71.1709 19.3253 71.4834 19.8253C70.8551 20.1016 70.3222 20.5523 69.9472 21.1181C69.467 20.3977 68.7334 19.8615 67.8716 19.6378C68.1972 19.1937 68.4209 18.6707 68.5097 18.1049C68.8946 18.2497 69.3123 18.3319 69.7498 18.3319C70.1873 18.3319 70.5722 18.2562 70.9472 18.1214Z" fill="#F19A65" stroke="#644319" stroke-width="0.986842" stroke-miterlimit="10"/>
<path d="M70.1474 21.901C71.6807 21.901 72.9237 20.658 72.9237 19.1247C72.9237 17.5914 71.6807 16.3484 70.1474 16.3484C68.6141 16.3484 67.3711 17.5914 67.3711 19.1247C67.3711 20.658 68.6141 21.901 70.1474 21.901Z" fill="#644319"/>
<path d="M61.7297 17.6578C61.7297 16.4407 60.7429 15.4571 59.529 15.4571C59.2692 15.4571 59.0225 15.5032 58.7889 15.5887C58.7297 14.4275 57.7692 13.5032 56.5948 13.5032C55.4994 13.5032 54.5915 14.3058 54.4238 15.3551C54.1869 15.2663 53.9271 15.217 53.6606 15.217C52.4435 15.217 51.46 16.2038 51.46 17.4176C51.46 18.4407 52.1606 19.2992 53.108 19.5459C52.8415 19.9111 52.6836 20.3584 52.6836 20.842C52.6836 22.0591 53.6705 23.0426 54.8843 23.0426C55.6508 23.0426 56.3251 22.6512 56.7198 22.0558C57.1146 22.6479 57.7889 23.0426 58.5554 23.0426C59.7725 23.0426 60.756 22.0558 60.756 20.842C60.756 20.4144 60.631 20.013 60.4205 19.6775C61.1935 19.3354 61.7363 18.5624 61.7363 17.6644L61.7297 17.6578ZM57.3317 17.7729C57.3514 18.1578 57.4698 18.5163 57.6639 18.8255C57.2758 18.9966 56.9468 19.2762 56.7165 19.6249C56.4205 19.1808 55.9665 18.8519 55.4369 18.7137C55.6376 18.4407 55.7758 18.1183 55.8317 17.7663C56.0685 17.8551 56.3284 17.9045 56.5948 17.9045C56.8613 17.9045 57.1014 17.8584 57.335 17.7729H57.3317Z" fill="#F19A65" stroke="#644319" stroke-width="0.657895" stroke-miterlimit="10"/>
<path d="M56.8349 20.1051C57.7814 20.1051 58.5487 19.3378 58.5487 18.3913C58.5487 17.4448 57.7814 16.6775 56.8349 16.6775C55.8884 16.6775 55.1211 17.4448 55.1211 18.3913C55.1211 19.3378 55.8884 20.1051 56.8349 20.1051Z" fill="#644319"/>
<path d="M67.7754 10.2894C67.7754 8.80917 66.5747 7.6118 65.0978 7.6118C64.782 7.6118 64.4793 7.67101 64.1964 7.7697C64.1241 6.35522 62.9563 5.23022 61.5254 5.23022C60.1899 5.23022 59.0879 6.2072 58.8839 7.48351C58.5945 7.37496 58.282 7.31575 57.953 7.31575C56.4728 7.31575 55.2754 8.51641 55.2754 9.99338C55.2754 11.2401 56.1274 12.2829 57.2787 12.5822C56.9563 13.0263 56.7622 13.569 56.7622 14.1579C56.7622 15.6381 57.9629 16.8355 59.4399 16.8355C60.3708 16.8355 61.1932 16.3585 61.6734 15.6348C62.1537 16.3585 62.9728 16.8355 63.907 16.8355C65.3872 16.8355 66.5846 15.6348 66.5846 14.1579C66.5846 13.6348 66.4333 13.1513 66.1767 12.7401C67.1175 12.3256 67.7754 11.3848 67.7754 10.2894ZM62.4267 10.4276C62.4497 10.8947 62.5945 11.3322 62.828 11.7072C62.3576 11.9144 61.9563 12.2533 61.6734 12.6776C61.3149 12.1348 60.7622 11.7335 60.1142 11.5658C60.3576 11.2335 60.5254 10.8421 60.5945 10.4144C60.8839 10.523 61.1964 10.5822 61.5254 10.5822C61.8543 10.5822 62.1438 10.523 62.4267 10.4243V10.4276Z" fill="#F19A65" stroke="#644319" stroke-width="0.657895" stroke-miterlimit="10"/>
<path d="M61.8215 13.2631C62.9715 13.2631 63.9037 12.3309 63.9037 11.1809C63.9037 10.0309 62.9715 9.09863 61.8215 9.09863C60.6715 9.09863 59.7393 10.0309 59.7393 11.1809C59.7393 12.3309 60.6715 13.2631 61.8215 13.2631Z" fill="#644319"/>
<path d="M63.6647 86.6907H39.9805V106.428H63.6647V86.6907Z" fill="#F19A65" stroke="#644319" stroke-width="0.986842" stroke-linecap="round" stroke-linejoin="round"/>
<path d="M40.9668 80.4177C40.9668 80.4177 49.5194 86.5625 60.3747 80.5427" stroke="#F19A65" stroke-width="2.63158" stroke-linecap="round" stroke-linejoin="round"/>
<path d="M40.7726 77.6348C40.7529 77.6052 40.7299 77.5789 40.7068 77.5493C39.8516 76.5328 38.2529 76.6578 37.0621 76.6348C32.9437 76.546 28.8614 75.7269 24.8845 74.7104C24.3746 74.5789 18.743 73.4341 18.6641 72.8289C21.072 92.0164 26.697 98.9243 26.697 98.9243C31.72 100.125 36.4963 100.905 40.9667 101.381C40.2266 101.26 40.7595 93.5657 40.7792 92.8914C40.8779 89.4769 40.9141 86.0262 41.2496 82.6249C41.4108 80.9769 41.8417 79.0821 40.7726 77.6348Z" fill="#F19A65" stroke="#644319" stroke-width="0.986842" stroke-linecap="round" stroke-linejoin="round"/>
<path d="M60.6543 77.8881C60.5687 77.9637 60.4898 78.0427 60.4108 78.1315C59.4043 79.2927 59.5885 81.2894 59.8286 82.7071C60.1773 84.7729 63.9141 101.421 60.3747 101.694C70.4536 100.921 76.4931 98.9243 76.4931 98.9243C80.5095 95.0854 84.526 72.8289 84.526 72.8289C84.4701 73.2104 79.2957 74.2302 78.697 74.3848C75.6214 75.1874 72.526 75.9407 69.3845 76.4374C67.7102 76.7006 66.0227 76.8946 64.3286 76.9769C63.0983 77.0361 61.628 77.0262 60.6543 77.8881Z" fill="#F19A65" stroke="#644319" stroke-width="0.986842" stroke-linecap="round" stroke-linejoin="round"/>
</g>
<path d="M51 101C78.6142 101 101 78.6142 101 51C101 23.3858 78.6142 1 51 1C23.3858 1 1 23.3858 1 51C1 78.6142 23.3858 101 51 101Z" stroke="black" stroke-width="1.31579" stroke-miterlimit="10"/>
</svg>
