<svg width="102" height="102" viewBox="0 0 102 102" fill="none" xmlns="http://www.w3.org/2000/svg">
<path d="M51 101C78.6142 101 101 78.6142 101 51C101 23.3858 78.6142 1 51 1C23.3858 1 1 23.3858 1 51C1 78.6142 23.3858 101 51 101Z" fill="white"/>
<mask id="mask0_2696_12631" style="mask-type:luminance" maskUnits="userSpaceOnUse" x="1" y="1" width="100" height="100">
<path d="M51 101C78.6142 101 101 78.6142 101 51C101 23.3858 78.6142 1 51 1C23.3858 1 1 23.3858 1 51C1 78.6142 23.3858 101 51 101Z" fill="white"/>
</mask>
<g mask="url(#mask0_2696_12631)">
<path d="M16.1317 59.3881C18.0392 59.3881 19.5856 56.6635 19.5856 53.3026C19.5856 49.9416 18.0392 47.217 16.1317 47.217C14.2241 47.217 12.6777 49.9416 12.6777 53.3026C12.6777 56.6635 14.2241 59.3881 16.1317 59.3881Z" fill="white" stroke="#644319" stroke-width="0.986842" stroke-miterlimit="10"/>
<path d="M86.5262 59.3881C88.4338 59.3881 89.9802 56.6635 89.9802 53.3026C89.9802 49.9416 88.4338 47.217 86.5262 47.217C84.6187 47.217 83.0723 49.9416 83.0723 53.3026C83.0723 56.6635 84.6187 59.3881 86.5262 59.3881Z" fill="white" stroke="#644319" stroke-width="0.986842" stroke-miterlimit="10"/>
<path d="M70.0134 25.7235C74.1548 26.5458 79.0134 26.8419 82.3752 29.6971C86.2075 32.9537 86.2995 38.5491 86.0594 43.4438C85.464 55.5985 84.6186 67.7761 82.2206 79.7267C80.8094 86.7629 78.8193 93.7991 75.0101 99.9669C73.2601 102.802 71.0561 105.493 68.0726 107.131C62.0726 110.424 53.5825 109.881 46.9969 109.487C43.0035 109.246 38.6713 109.105 35.0759 107.131C32.089 105.493 29.8884 102.799 28.1384 99.9669C24.3292 93.7991 22.339 86.7596 20.9278 79.7267C18.5298 67.7794 17.6811 55.5985 17.089 43.4438C16.8489 38.5491 16.9443 32.9504 20.7732 29.6938C24.1746 26.8024 28.839 25.8484 33.1449 25.2827C41.5101 24.184 50.1844 23.6313 58.6943 24.2234C62.4936 24.4899 66.2798 24.98 70.0167 25.7202L70.0134 25.7235Z" fill="white" stroke="#644319" stroke-width="0.986842" stroke-miterlimit="10"/>
<path d="M54.7597 59.5922C54.7597 57.4211 46.8945 57.4211 46.8945 59.5922C46.8945 61.7632 48.6544 63.5231 50.8255 63.5231C52.9965 63.5231 54.7564 61.7632 54.7564 59.5922H54.7597Z" fill="#644319"/>
<path d="M54.3223 42.7037C54.3223 45.0261 66.7894 45.0261 66.7894 42.7037C66.7894 40.3813 63.9999 38.4998 60.5558 38.4998C57.1117 38.4998 54.3223 40.3813 54.3223 42.7037Z" fill="#644319"/>
<path d="M48.1225 42.8422C48.0336 45.1777 34.4448 44.6678 34.5336 42.3323C34.6225 39.9968 37.7343 38.2205 41.4876 38.3619C45.2409 38.5033 48.2113 40.5099 48.1225 42.8422Z" fill="#644319"/>
<path d="M58.6544 56.9733C60.8 56.9733 62.5393 54.8334 62.5393 52.1937C62.5393 49.554 60.8 47.4141 58.6544 47.4141C56.5088 47.4141 54.7695 49.554 54.7695 52.1937C54.7695 54.8334 56.5088 56.9733 58.6544 56.9733Z" fill="#644319"/>
<path d="M42.9474 56.9733C45.0929 56.9733 46.8322 54.8334 46.8322 52.1937C46.8322 49.554 45.0929 47.4141 42.9474 47.4141C40.8018 47.4141 39.0625 49.554 39.0625 52.1937C39.0625 54.8334 40.8018 56.9733 42.9474 56.9733Z" fill="#644319"/>
<path d="M46.4288 69.6397C49.6585 67.9397 51.4666 65.0225 50.4673 63.1239C49.4679 61.2253 46.0396 61.0643 42.8099 62.7642C39.5801 64.4642 37.772 67.3814 38.7714 69.28C39.7707 71.1786 43.199 71.3397 46.4288 69.6397Z" fill="#644319"/>
<path d="M62.1616 69.2845C63.1609 67.3859 61.3528 64.4687 58.1231 62.7687C54.8934 61.0688 51.465 61.2298 50.4657 63.1284C49.4664 65.027 51.2745 67.9443 54.5042 69.6442C57.7339 71.3442 61.1623 71.1831 62.1616 69.2845Z" fill="#644319"/>
<path d="M27.6151 54.9008C27.3256 55.4239 27.4013 55.9798 27.4111 56.5522C27.421 57.1574 27.3454 57.7956 27.4309 58.3976C27.5032 58.9173 27.8585 59.3285 28.4144 59.3153C28.9704 59.3022 29.3519 58.8087 29.7697 58.5127C30.2763 58.1508 30.7829 57.7956 31.2631 57.3976C31.4539 57.2397 31.671 57.1245 31.8651 56.9732C31.9802 56.8844 31.9243 56.9798 31.8783 56.9272C31.9539 57.0127 32 57.1344 32.0559 57.2331C32.3223 57.7397 32.6019 58.2726 32.9309 58.743C33.2072 59.141 33.4342 59.7166 33.921 59.8976C34.5065 60.1147 34.9868 59.2857 35.2171 58.8712C35.3388 58.6508 35.4539 58.4272 35.5329 58.1837C35.6118 57.9403 35.6315 57.6147 35.796 57.4173C36.2006 56.9337 35.5065 56.2298 35.0986 56.7199C34.773 57.1081 34.7335 57.5587 34.5493 58.0127C34.4144 58.3482 34.1776 58.8318 33.8618 59.0226H34.3585C34.171 58.9239 34.0789 58.7133 33.9736 58.539C33.8454 58.3285 33.694 58.1311 33.569 57.9173C33.3125 57.4798 33.0756 57.0291 32.8289 56.5883C32.625 56.2232 32.319 55.937 31.875 55.9666C31.4046 55.9995 30.9967 56.3482 30.648 56.6344C30.2401 56.9699 29.8157 57.2791 29.3848 57.5851C29.1579 57.7462 28.9375 57.9074 28.7269 58.0883C28.6513 58.1541 28.5559 58.2101 28.4868 58.2824C28.3585 58.414 28.3552 58.2561 28.4407 58.391C28.3552 58.2561 28.398 58.0061 28.4013 57.8614C28.4046 57.5719 28.4013 57.2824 28.4013 56.9897C28.4013 56.6969 28.3947 56.4107 28.3815 56.1212C28.3717 55.8778 28.3486 55.6212 28.4704 55.4041C28.7763 54.8482 27.9276 54.3482 27.6184 54.9074L27.6151 54.9008Z" fill="#F19A65"/>
<path d="M65.3388 55.7794C65.4704 56.2926 65.5592 56.7926 65.8322 57.2564C66.0263 57.5886 66.1414 57.8649 66.2237 58.2366C66.3553 58.8551 66.6184 59.7037 67.3947 59.707C68.171 59.7103 68.5724 58.8551 68.8553 58.2827C69.0099 57.9735 69.171 57.661 69.296 57.3419C69.398 57.0853 69.4901 56.8287 69.5987 56.5755C69.6743 56.3978 69.7204 56.1445 69.852 55.9965L69.5033 56.1412C69.6776 56.1577 69.8684 56.5491 69.9375 56.6774C70.0888 56.9472 70.2105 57.2333 70.3421 57.5097C70.5329 57.9077 70.8257 58.2498 71.0197 58.6445C71.1776 58.9702 71.2566 59.3287 71.5954 59.5228C71.9342 59.7169 72.3882 59.661 72.648 59.3518C72.8914 59.0623 72.9967 58.6149 73.1447 58.2728C73.3322 57.832 73.3355 57.3419 73.5592 56.9176C73.7829 56.4932 73.9934 56.1248 73.9901 55.6478C73.9901 55.013 73 55.013 73.0033 55.6478C73.0033 55.957 72.8158 56.2037 72.6776 56.4702C72.5164 56.786 72.4441 57.0985 72.3717 57.4406C72.2993 57.7827 72.1546 58.0491 72.0329 58.3584C72.0066 58.4274 71.9079 58.5853 71.9211 58.6676L71.8816 58.7399L72.1283 58.7103C72.1283 58.7103 72.0428 58.5491 72.0329 58.5228C71.7928 57.9801 71.4375 57.5162 71.1842 56.9801C70.9901 56.5722 70.8158 56.161 70.5428 55.7991C70.2697 55.4373 69.7336 54.9537 69.2533 55.2235C69.0132 55.3584 68.8947 55.6676 68.8026 55.9077C68.6908 56.1972 68.5625 56.4768 68.4572 56.7695C68.2961 57.2169 68.0822 57.6577 67.8553 58.0755C67.7533 58.2597 67.6513 58.4537 67.5066 58.6116C67.4803 58.6412 67.4046 58.7103 67.3914 58.7235C67.4605 58.661 67.4539 58.8287 67.4178 58.7103C67.3618 58.5261 67.2664 58.3616 67.2204 58.1676C67.1743 57.9735 67.1447 57.7662 67.0888 57.5689C66.9901 57.2366 66.7928 56.9603 66.6316 56.6577C66.4408 56.309 66.3947 55.9011 66.2993 55.5195C66.1414 54.9044 65.1908 55.1643 65.3487 55.7827L65.3388 55.7794Z" fill="#F19A65"/>
<path d="M44.947 53.1447C45.641 53.1447 46.2036 52.5822 46.2036 51.8882C46.2036 51.1942 45.641 50.6316 44.947 50.6316C44.253 50.6316 43.6904 51.1942 43.6904 51.8882C43.6904 52.5822 44.253 53.1447 44.947 53.1447Z" fill="white"/>
<path d="M60.6511 53.1447C61.3451 53.1447 61.9077 52.5822 61.9077 51.8882C61.9077 51.1942 61.3451 50.6316 60.6511 50.6316C59.9571 50.6316 59.3945 51.1942 59.3945 51.8882C59.3945 52.5822 59.9571 53.1447 60.6511 53.1447Z" fill="white"/>
<path d="M45.8457 67.625C45.9049 67.9803 50.872 77.0493 54.9543 67.9375" stroke="#644319" stroke-width="0.986842" stroke-miterlimit="10" stroke-linecap="round"/>
<path d="M34.582 100.579C34.582 100.579 36.4669 106.747 38.9801 109.059L34.582 100.579Z" fill="white"/>
<path d="M34.582 100.579C34.582 100.579 36.4669 106.747 38.9801 109.059" stroke="#644319" stroke-width="0.986842" stroke-linecap="round" stroke-linejoin="round"/>
<path d="M42.7207 101.269C42.7207 101.269 43.0628 106.325 44.9477 109.059L42.7207 101.269Z" fill="white"/>
<path d="M42.7207 101.269C42.7207 101.269 43.0628 106.325 44.9477 109.059" stroke="#644319" stroke-width="0.986842" stroke-linecap="round" stroke-linejoin="round"/>
<path d="M65.9937 101.207C65.9937 101.207 64.1089 106.917 61.5957 109.059L65.9937 101.207Z" fill="white"/>
<path d="M65.9937 101.207C65.9937 101.207 64.1089 106.917 61.5957 109.059" stroke="#644319" stroke-width="0.986842" stroke-linecap="round" stroke-linejoin="round"/>
<path d="M19.6025 76.5361C19.6025 76.5361 11.3821 89.4605 23.711 94.2203L19.6025 76.5361Z" fill="#F19A65"/>
<path d="M19.6025 76.5361C19.6025 76.5361 11.3821 89.4605 23.711 94.2203" stroke="#644319" stroke-width="0.986842" stroke-miterlimit="10" stroke-linecap="round"/>
<path d="M82.8556 76.5361C82.8556 76.5361 91.076 89.4605 78.7471 94.2203L82.8556 76.5361Z" fill="#F19A65"/>
<path d="M82.8556 76.5361C82.8556 76.5361 91.076 89.4605 78.7471 94.2203" stroke="#644319" stroke-width="0.986842" stroke-miterlimit="10" stroke-linecap="round"/>
<path d="M18.6644 72.5C18.6644 72.5 48.3815 84.0132 84.523 72.5C84.523 72.5 80.5065 94.7599 76.4901 98.5954C76.4901 98.5954 55.6085 105.503 26.694 98.5954C26.694 98.5954 21.0723 91.6875 18.6611 72.5H18.6644Z" fill="#F19A65" stroke="#644319" stroke-width="0.986842" stroke-linecap="round" stroke-linejoin="round"/>
<path d="M85.4175 66.4638C85.4175 66.4638 87.4504 62.2829 85.4175 57.6184C85.4175 57.6184 70.5688 78.3355 51.6576 76.5427C32.7465 78.3388 17.8978 57.6184 17.8978 57.6184C15.8649 62.2796 17.8978 66.4638 17.8978 66.4638C14.8517 71.4737 19.0425 79.6513 19.0425 79.6513C17.1412 92.3125 28.2761 87.3585 28.2761 87.3585C28.5195 100.707 40.7563 92.9145 40.7563 92.9145C47.4044 100.372 51.6544 92.2467 51.6544 92.2467C51.6544 92.2467 55.9076 100.372 62.5524 92.9145C62.5524 92.9145 74.7925 100.707 75.0326 87.3585C75.0326 87.3585 86.1675 92.3125 84.2662 79.6513C84.2662 79.6513 88.457 71.4737 85.4109 66.4638H85.4175Z" fill="#644319"/>
<path d="M23.7107 38.4441C23.7107 38.4441 17.1647 46.977 17.4706 50.6316C17.7765 54.2862 16.918 36.7073 16.918 36.7073L23.7107 38.4408V38.4441Z" fill="#644319"/>
<path d="M76.3291 31.2627C76.3291 31.2627 85.8455 50.6311 85.5396 54.289C85.2337 57.9469 86.3982 38.0259 86.3982 38.0259L76.3291 31.2627Z" fill="#644319"/>
<path d="M18.5659 25.8319C18.1876 25.8319 20.3455 20.4569 20.5001 20.197C23.385 15.2595 28.4475 11.9667 33.612 9.79897C45.4343 4.83187 60.5396 3.69371 71.0363 12.3549C74.0593 14.8516 76.4376 18.0391 78.1416 21.5621L56.7764 25.8352C56.7764 25.8352 18.5922 25.8352 18.5725 25.8352L18.5659 25.8319Z" fill="#F19A65" stroke="#644319" stroke-width="0.986842" stroke-linecap="round" stroke-linejoin="round"/>
<path d="M17.1418 41.4635C17.1418 41.4635 4.91155 35.2661 14.6089 28.0819C14.6089 28.0819 55.632 7.61478 87.3491 25.5062C87.3491 25.5062 102.698 35.5358 86.0464 45.2431C86.0464 45.2431 83.4181 9.71675 17.1418 41.4635Z" fill="#F19A65" stroke="#644319" stroke-width="0.986842" stroke-linecap="round" stroke-linejoin="round"/>
</g>
<path d="M51 101C78.6142 101 101 78.6142 101 51C101 23.3858 78.6142 1 51 1C23.3858 1 1 23.3858 1 51C1 78.6142 23.3858 101 51 101Z" stroke="black" stroke-width="1.31579" stroke-miterlimit="10"/>
</svg>
