<svg width="102" height="102" viewBox="0 0 102 102" fill="none" xmlns="http://www.w3.org/2000/svg">
<path d="M51 101C78.6142 101 101 78.6142 101 51C101 23.3858 78.6142 1 51 1C23.3858 1 1 23.3858 1 51C1 78.6142 23.3858 101 51 101Z" fill="white"/>
<mask id="mask0_2696_12645" style="mask-type:luminance" maskUnits="userSpaceOnUse" x="1" y="1" width="100" height="100">
<path d="M51 101C78.6142 101 101 78.6142 101 51C101 23.3858 78.6142 1 51 1C23.3858 1 1 23.3858 1 51C1 78.6142 23.3858 101 51 101Z" fill="white"/>
</mask>
<g mask="url(#mask0_2696_12645)">
<path d="M81.0619 62.0197C83.9487 62.0197 86.2889 57.896 86.2889 52.8092C86.2889 47.7223 83.9487 43.5986 81.0619 43.5986C78.1752 43.5986 75.835 47.7223 75.835 52.8092C75.835 57.896 78.1752 62.0197 81.0619 62.0197Z" fill="white" stroke="#644319" stroke-width="0.986842" stroke-miterlimit="10"/>
<path d="M21.852 62.0197C24.7388 62.0197 27.0789 57.896 27.0789 52.8092C27.0789 47.7223 24.7388 43.5986 21.852 43.5986C18.9652 43.5986 16.625 47.7223 16.625 52.8092C16.625 57.896 18.9652 62.0197 21.852 62.0197Z" fill="white" stroke="#644319" stroke-width="0.986842" stroke-miterlimit="10"/>
<path d="M79.4965 31.5593C79.1149 30.5264 78.6609 29.5165 78.1182 28.5297C70.2958 14.3093 51.5721 11.2863 38.5557 16.6316C35.6905 17.8093 32.9603 19.4343 30.559 21.5659C24.5721 26.8751 22.1774 34.556 22.1182 42.9836C22.1182 43.3159 22.1182 43.6481 22.1182 43.9803C22.128 44.8652 22.1576 45.7501 22.2004 46.6349C22.7103 56.9211 23.4932 67.2205 25.2859 77.3356C26.4965 84.1612 28.2037 90.9902 31.4701 96.9738C32.9701 99.7238 34.8583 102.336 37.4208 103.924C40.503 105.839 44.2168 105.977 47.6412 106.207C53.2892 106.589 60.5688 107.118 65.7136 103.924C68.2728 102.336 70.1609 99.7238 71.6642 96.9738C74.9307 90.9902 76.6379 84.1612 77.8484 77.3356C79.0293 70.6777 79.7728 63.931 80.2892 57.1678C80.9241 48.8356 82.4833 39.6481 79.4997 31.5593H79.4965Z" fill="white" stroke="#644319" stroke-width="0.986842" stroke-miterlimit="10"/>
<path d="M54.7597 58.6053C54.7597 56.4343 46.8945 56.4343 46.8945 58.6053C46.8945 60.7764 48.6544 62.5363 50.8255 62.5363C52.9965 62.5363 54.7564 60.7764 54.7564 58.6053H54.7597Z" fill="#644319"/>
<path d="M54.3223 42.7928C54.3223 43.6809 66.7894 43.6809 66.7894 42.7928C66.7894 41.9046 63.9999 41.1875 60.5558 41.1875C57.1117 41.1875 54.3223 41.9079 54.3223 42.7928Z" fill="#644319"/>
<path d="M48.1215 42.8453C48.0327 43.7368 34.4438 43.5427 34.5327 42.6513C34.6215 41.7598 37.7333 41.0789 41.4866 41.1348C45.2399 41.1874 48.2103 41.9539 48.1215 42.8453Z" fill="#644319"/>
<path d="M58.6544 56.9738C60.8 56.9738 62.5393 54.8339 62.5393 52.1942C62.5393 49.5545 60.8 47.4146 58.6544 47.4146C56.5088 47.4146 54.7695 49.5545 54.7695 52.1942C54.7695 54.8339 56.5088 56.9738 58.6544 56.9738Z" fill="#644319"/>
<path d="M42.9474 56.9738C45.0929 56.9738 46.8322 54.8339 46.8322 52.1942C46.8322 49.5545 45.0929 47.4146 42.9474 47.4146C40.8018 47.4146 39.0625 49.5545 39.0625 52.1942C39.0625 54.8339 40.8018 56.9738 42.9474 56.9738Z" fill="#644319"/>
<path d="M27.6151 54.9013C27.3256 55.4244 27.4013 55.9803 27.4111 56.5527C27.421 57.1579 27.3454 57.7961 27.4309 58.398C27.5032 58.9178 27.8585 59.329 28.4144 59.3158C28.9704 59.3027 29.3519 58.8092 29.7697 58.5132C30.2763 58.1513 30.7829 57.7961 31.2631 57.398C31.4539 57.2402 31.671 57.125 31.8651 56.9737C31.9802 56.8849 31.9243 56.9803 31.8783 56.9277C31.9539 57.0132 32 57.1349 32.0559 57.2336C32.3223 57.7402 32.6019 58.273 32.9309 58.7434C33.2072 59.1415 33.4342 59.7171 33.921 59.898C34.5065 60.1152 34.9868 59.2862 35.2171 58.8717C35.3388 58.6513 35.4539 58.4277 35.5329 58.1842C35.6118 57.9408 35.6315 57.6151 35.796 57.4178C36.2006 56.9342 35.5065 56.2303 35.0986 56.7204C34.773 57.1086 34.7335 57.5592 34.5493 58.0132C34.4144 58.3487 34.1776 58.8323 33.8618 59.023H34.3585C34.171 58.9244 34.0789 58.7138 33.9736 58.5395C33.8454 58.329 33.694 58.1316 33.569 57.9178C33.3125 57.4803 33.0756 57.0296 32.8289 56.5888C32.625 56.2237 32.319 55.9375 31.875 55.9671C31.4046 56 30.9967 56.3487 30.648 56.6349C30.2401 56.9704 29.8157 57.2796 29.3848 57.5855C29.1579 57.7467 28.9375 57.9079 28.7269 58.0888C28.6513 58.1546 28.5559 58.2105 28.4868 58.2829C28.3585 58.4145 28.3552 58.2566 28.4407 58.3915C28.3552 58.2566 28.398 58.0066 28.4013 57.8619C28.4046 57.5724 28.4013 57.2829 28.4013 56.9902C28.4013 56.6974 28.3947 56.4112 28.3815 56.1217C28.3717 55.8783 28.3486 55.6217 28.4704 55.4046C28.7763 54.8487 27.9276 54.3487 27.6184 54.9079L27.6151 54.9013Z" fill="#F19A65"/>
<path d="M65.3388 55.7796C65.4704 56.2928 65.5592 56.7928 65.8322 57.2566C66.0263 57.5889 66.1414 57.8652 66.2237 58.2369C66.3553 58.8553 66.6184 59.704 67.3947 59.7073C68.171 59.7106 68.5724 58.8553 68.8553 58.2829C69.0099 57.9737 69.171 57.6612 69.296 57.3421C69.398 57.0856 69.4901 56.829 69.5987 56.5757C69.6743 56.3981 69.7204 56.1448 69.852 55.9968L69.5033 56.1415C69.6776 56.1579 69.8684 56.5494 69.9375 56.6777C70.0888 56.9474 70.2105 57.2336 70.3421 57.5099C70.5329 57.9079 70.8257 58.25 71.0197 58.6448C71.1776 58.9704 71.2566 59.329 71.5954 59.5231C71.9342 59.7171 72.3882 59.6612 72.648 59.352C72.8914 59.0625 72.9967 58.6152 73.1447 58.2731C73.3322 57.8323 73.3355 57.3422 73.5592 56.9178C73.7829 56.4935 73.9934 56.125 73.9901 55.6481C73.9901 55.0132 73 55.0132 73.0033 55.6481C73.0033 55.9573 72.8158 56.204 72.6776 56.4704C72.5164 56.7862 72.4441 57.0987 72.3717 57.4408C72.2993 57.7829 72.1546 58.0494 72.0329 58.3586C72.0066 58.4277 71.9079 58.5856 71.9211 58.6678L71.8816 58.7402L72.1283 58.7106C72.1283 58.7106 72.0428 58.5494 72.0329 58.5231C71.7928 57.9803 71.4375 57.5165 71.1842 56.9803C70.9901 56.5724 70.8158 56.1612 70.5428 55.7994C70.2697 55.4375 69.7336 54.954 69.2533 55.2237C69.0132 55.3586 68.8947 55.6678 68.8026 55.9079C68.6908 56.1974 68.5625 56.477 68.4572 56.7698C68.2961 57.2171 68.0822 57.6579 67.8553 58.0757C67.7533 58.2599 67.6513 58.454 67.5066 58.6119C67.4803 58.6415 67.4046 58.7106 67.3914 58.7237C67.4605 58.6612 67.4539 58.829 67.4178 58.7106C67.3618 58.5264 67.2664 58.3619 67.2204 58.1678C67.1743 57.9737 67.1447 57.7665 67.0888 57.5691C66.9901 57.2369 66.7928 56.9606 66.6316 56.6579C66.4408 56.3093 66.3947 55.9014 66.2993 55.5198C66.1414 54.9047 65.1908 55.1645 65.3487 55.7829L65.3388 55.7796Z" fill="#F19A65"/>
<path d="M44.947 53.1447C45.641 53.1447 46.2036 52.5822 46.2036 51.8882C46.2036 51.1942 45.641 50.6316 44.947 50.6316C44.253 50.6316 43.6904 51.1942 43.6904 51.8882C43.6904 52.5822 44.253 53.1447 44.947 53.1447Z" fill="white"/>
<path d="M60.6511 53.1447C61.3451 53.1447 61.9077 52.5822 61.9077 51.8882C61.9077 51.1942 61.3451 50.6316 60.6511 50.6316C59.9571 50.6316 59.3945 51.1942 59.3945 51.8882C59.3945 52.5822 59.9571 53.1447 60.6511 53.1447Z" fill="white"/>
<path d="M46.5029 68.612C46.5621 68.9673 51.5292 77.3784 55.6115 68.2666" stroke="#644319" stroke-width="0.986842" stroke-miterlimit="10" stroke-linecap="round"/>
<path d="M24.1582 76.5361C24.1582 76.5361 17.1121 89.4605 27.6812 94.2203L24.1582 76.5361Z" fill="#F19A65"/>
<path d="M24.1582 76.5361C24.1582 76.5361 17.1121 89.4605 27.6812 94.2203" stroke="#644319" stroke-width="0.986842" stroke-miterlimit="10" stroke-linecap="round"/>
<path d="M78.3951 76.5361C78.3951 76.5361 85.4411 89.4605 74.8721 94.2203L78.3951 76.5361Z" fill="#F19A65"/>
<path d="M78.3951 76.5361C78.3951 76.5361 85.4411 89.4605 74.8721 94.2203" stroke="#644319" stroke-width="0.986842" stroke-miterlimit="10" stroke-linecap="round"/>
<path d="M23.3549 72.5C23.3549 72.5 48.8351 84.0132 79.8252 72.5C79.8252 72.5 76.3812 94.7599 72.9371 98.5954C72.9371 98.5954 55.0325 105.503 30.2397 98.5954C30.2397 98.5954 25.4206 91.6875 23.3516 72.5H23.3549Z" fill="#F19A65" stroke="#644319" stroke-width="0.986842" stroke-linecap="round" stroke-linejoin="round"/>
<path d="M79.595 62.1941C79.595 62.1941 75.1246 74.875 64.6509 69.352C64.6509 69.352 56.5753 61.5428 51.0786 62.5658C45.8154 61.5428 38.0753 69.352 38.0753 69.352C28.0391 74.875 23.7562 62.1941 23.7562 62.1941C20.3878 69.7697 23.391 69.2697 23.391 69.2697C20.6707 78 27.2233 78.5099 27.2233 78.5099C26.6476 82.1382 29.0128 83.0987 31.7035 84.5329C33.4338 85.4573 32.9174 85.1349 33.1904 87.3323C33.4141 89.1382 34.2332 90.6645 35.7858 91.7237C36.1049 91.9408 39.2891 93.0197 39.3121 93.1119C41.4601 101.47 49.595 97.0954 51.0917 96.2072C51.6641 96.5559 60.9667 102.043 63.3614 93.1119C63.3878 93.0197 66.7101 91.9408 67.0424 91.7237C68.6641 90.6645 69.516 89.1382 69.7496 87.3323C70.0358 85.1316 69.4963 85.454 71.3022 84.5329C74.1114 83.0954 76.5786 82.1382 75.9799 78.5099C75.9799 78.5099 82.8187 78 79.9799 69.2697C79.9799 69.2697 83.1147 69.7665 79.5983 62.1941H79.595ZM51.2035 75.852C49.1509 75.7698 46.2858 74.4967 44.947 72.8882C43.8384 71.5559 44.4799 69.9178 45.6674 68.8882C47.0621 67.6776 49.1443 67.375 50.9305 67.4342V67.4507C50.9305 67.4507 50.9832 67.4474 51.0753 67.4408C51.1641 67.4441 51.2134 67.4507 51.2134 67.4507V67.4375C51.2463 67.0954 54.9108 67.9178 55.1805 68.023C56.3549 68.4737 57.6937 69.4737 58.0424 70.7434C58.8055 73.5395 54.4667 75.4046 52.4042 75.7763C51.9963 75.8487 51.595 75.875 51.2003 75.8586L51.2035 75.852Z" fill="#644319"/>
<path d="M44.6287 59.1909C44.6287 59.1909 41.3063 59.8488 38.7471 61.2041" stroke="#644319" stroke-width="0.328947" stroke-linecap="round" stroke-linejoin="round"/>
<path d="M56.7363 59.1909C56.7363 59.1909 60.0587 59.8488 62.6179 61.2041" stroke="#644319" stroke-width="0.328947" stroke-linecap="round" stroke-linejoin="round"/>
<path d="M51.9867 13.6415V13.5C51.9867 13.5 18.763 11.1974 22.3946 50.8356C22.3946 50.8356 24.2433 36.1974 30.0558 35.704C29.6841 35.7369 31.4341 30.4047 31.6413 30.0658C32.5591 28.5593 33.9045 27.3915 35.5591 26.7632C38.2696 25.7303 41.4176 26.1283 44.2597 26.1119C48.2071 26.0889 52.1578 26.1316 56.1051 26.1974C62.4571 26.3027 70.5591 24.806 72.7992 32.7369C73.0689 33.6875 73.263 34.7106 73.2597 35.704C79.1479 36.1974 81.0229 50.8356 81.0229 50.8356C84.342 12.5132 51.99 13.6415 51.99 13.6415H51.9867Z" fill="#644319"/>
</g>
<path d="M51 101C78.6142 101 101 78.6142 101 51C101 23.3858 78.6142 1 51 1C23.3858 1 1 23.3858 1 51C1 78.6142 23.3858 101 51 101Z" stroke="black" stroke-width="1.31579" stroke-miterlimit="10"/>
</svg>
