<svg width="105" height="97" viewBox="0 0 105 97" fill="none" xmlns="http://www.w3.org/2000/svg">
<path d="M19.7954 96.2018C30.6131 96.2018 39.3826 87.4323 39.3826 76.6146C39.3826 65.7968 30.6131 57.0273 19.7954 57.0273C8.97763 57.0273 0.208126 65.7968 0.208126 76.6146C0.208126 87.4323 8.97763 96.2018 19.7954 96.2018Z" fill="white"/>
<path d="M50.5491 39.82C61.3668 39.82 70.1363 31.0505 70.1363 20.2327C70.1363 9.41501 61.3668 0.645508 50.5491 0.645508C39.7314 0.645508 30.9619 9.41501 30.9619 20.2327C30.9619 31.0505 39.7314 39.82 50.5491 39.82Z" fill="white"/>
<path d="M85.3301 96.2018C96.1478 96.2018 104.917 87.4323 104.917 76.6146C104.917 65.7968 96.1478 57.0273 85.3301 57.0273C74.5124 57.0273 65.7429 65.7968 65.7429 76.6146C65.7429 87.4323 74.5124 96.2018 85.3301 96.2018Z" fill="white"/>
<path d="M102.049 66.1801L70.1363 89.2455L34.9891 31.033L68.6718 13.0933L102.049 66.1801Z" fill="white"/>
<path d="M30.9618 20.4158L34.9891 56.1731C34.9891 56.1731 34.9891 62.8853 26.9345 58.3698L22.5411 74.601L39.3825 77.1638L38.2841 50.0712C38.2841 50.0712 39.3825 43.4811 44.8742 47.3863V35.0604L30.9618 20.4158Z" fill="white"/>
</svg>
