<svg width="56" height="56" viewBox="0 0 56 56" fill="none" xmlns="http://www.w3.org/2000/svg">
<g clip-path="url(#clip0_2899_7997)">
<path d="M27.1857 17.3904C27.1857 17.3904 32.0053 8.2982 43.5006 10.2868C43.5006 10.2868 43.5858 25.584 35.3479 27.6491L27.1951 17.3904H27.1857Z" fill="#CA78FF"/>
<path d="M33.8992 23.5093C33.8992 23.5093 43.3018 19.5034 51 28.3471C51 28.3471 41.5311 40.2884 33.8329 36.6553L33.8897 23.4998L33.8992 23.5093Z" fill="#CA78FF"/>
<path d="M23.436 37.8216C27.7189 37.8216 31.191 34.3159 31.191 29.9914C31.191 25.6668 27.7189 22.1611 23.436 22.1611C19.153 22.1611 15.6809 25.6668 15.6809 29.9914C15.6809 34.3159 19.153 37.8216 23.436 37.8216Z" fill="#FFB378"/>
<path d="M23.436 26.4827C27.7189 26.4827 31.191 22.977 31.191 18.6525C31.191 14.328 27.7189 10.8223 23.436 10.8223C19.153 10.8223 15.6809 14.328 15.6809 18.6525C15.6809 22.977 19.153 26.4827 23.436 26.4827Z" fill="#FFB378"/>
<path d="M12.755 34.3226C17.038 34.3226 20.5101 30.8169 20.5101 26.4923C20.5101 22.1678 17.038 18.6621 12.755 18.6621C8.47205 18.6621 5 22.1678 5 26.4923C5 30.8169 8.47205 34.3226 12.755 34.3226Z" fill="#FFB378"/>
<path d="M16.8361 47.0001C21.1191 47.0001 24.5911 43.4944 24.5911 39.1698C24.5911 34.8453 21.1191 31.3396 16.8361 31.3396C12.5531 31.3396 9.08105 34.8453 9.08105 39.1698C9.08105 43.4944 12.5531 47.0001 16.8361 47.0001Z" fill="#FFB378"/>
<path d="M30.0358 47.0001C34.3188 47.0001 37.7908 43.4944 37.7908 39.1698C37.7908 34.8453 34.3188 31.3396 30.0358 31.3396C25.7528 31.3396 22.2808 34.8453 22.2808 39.1698C22.2808 43.4944 25.7528 47.0001 30.0358 47.0001Z" fill="#FFB378"/>
<path d="M34.1169 34.3226C38.3999 34.3226 41.8719 30.8169 41.8719 26.4923C41.8719 22.1678 38.3999 18.6621 34.1169 18.6621C29.8339 18.6621 26.3618 22.1678 26.3618 26.4923C26.3618 30.8169 29.8339 34.3226 34.1169 34.3226Z" fill="#FFB378"/>
</g>
<defs>
<clipPath id="clip0_2899_7997">
<rect width="46" height="37" fill="white" transform="translate(5 10)"/>
</clipPath>
</defs>
</svg>
