<svg width="56" height="56" viewBox="0 0 56 56" fill="none" xmlns="http://www.w3.org/2000/svg">
<g clip-path="url(#clip0_2899_7958)">
<path d="M42.3973 41.155L12.2628 29.5051C12.2628 29.5051 4.97429 27.097 2.00006 31.6009C2.00006 31.6009 1.57517 34.7893 13.9079 38.2007C13.9079 38.2007 33.9649 45.6478 42.6588 46.2944L50.492 46.3836C50.492 46.3836 52.0281 44.4549 48.8687 43.4739L42.3973 41.155Z" fill="#FFB378"/>
<path d="M10.3671 30.1406C8.15551 29.2599 5.91122 29.7282 5.35559 31.1997L9.35391 32.8051L10.378 30.1406H10.3671Z" fill="white"/>
<path d="M20.4745 37.7262L15.2295 35.8499C14.7411 35.6751 14.2067 35.9386 14.0359 36.4385L13.3563 38.4275C13.1856 38.9273 13.4431 39.4742 13.9316 39.6489L19.1765 41.5253C19.665 41.7 20.1994 41.4365 20.3702 40.9366L21.0497 38.9477C21.2205 38.4478 20.963 37.901 20.4745 37.7262Z" fill="#CA78FF"/>
<path d="M21.1201 34.1874L38.301 35.1908C38.301 35.1908 39.434 35.5252 38.3445 36.1607L30.4786 38.8808L21.2727 36.5843C21.2727 36.5843 19.4751 35.3468 21.131 34.1763L21.1201 34.1874Z" fill="#CA78FF"/>
<path d="M38.9437 42.203L51.1348 36.1272L54.0001 36.8407L47.1909 45.3245L38.9437 42.203Z" fill="#CA78FF"/>
<path d="M52.1971 47.4347L40.4683 44.5134L40.3343 45.0767L52.0631 47.998L52.1971 47.4347Z" fill="#FFB378"/>
<path d="M49.2826 17.2865C49.0212 15.9376 47.8554 14.9231 46.4718 14.9231C45.7419 14.9231 45.0773 15.213 44.5653 15.6812C44.0532 15.213 43.3995 14.9231 42.6587 14.9231C41.3187 14.9231 40.2074 15.8707 39.8915 17.1416C39.8588 17.1416 39.8261 17.1416 39.7934 17.1416C38.2028 17.1416 36.9172 18.4571 36.9172 20.0847C36.9172 21.7124 38.2028 23.0279 39.7934 23.0279C39.9568 23.0279 40.1094 23.0056 40.2728 22.9833C40.7848 23.7748 41.6673 24.3099 42.6696 24.3099C43.1925 24.3099 43.6828 24.1539 44.1077 23.8975C44.5326 24.1539 45.0228 24.3099 45.5458 24.3099C46.5481 24.3099 47.4305 23.786 47.9426 22.9833C48.0951 23.0056 48.2585 23.0279 48.422 23.0279C50.0126 23.0279 51.2981 21.7124 51.2981 20.0847C51.2981 18.7804 50.4592 17.6879 49.3153 17.3088L49.2826 17.2865Z" fill="#FFB378"/>
<path d="M26.0118 10.3634C25.7503 9.01449 24.5846 8 23.2009 8C22.471 8 21.8064 8.28986 21.2944 8.75808C20.7823 8.28986 20.1287 8 19.3878 8C18.0478 8 16.9365 8.9476 16.6206 10.2185C16.5879 10.2185 16.5552 10.2185 16.5225 10.2185C14.9319 10.2185 13.6464 11.534 13.6464 13.1616C13.6464 14.7893 14.9319 16.1048 16.5225 16.1048C16.686 16.1048 16.8385 16.0825 17.0019 16.0602C17.514 16.8517 18.3964 17.3868 19.3987 17.3868C19.9217 17.3868 20.4119 17.2308 20.8368 16.9744C21.2617 17.2308 21.752 17.3868 22.2749 17.3868C23.2772 17.3868 24.1597 16.8629 24.6717 16.0602C24.8242 16.0825 24.9877 16.1048 25.1511 16.1048C26.7417 16.1048 28.0273 14.7893 28.0273 13.1616C28.0273 11.8573 27.1884 10.7648 26.0444 10.3857L26.0118 10.3634Z" fill="#FFB378"/>
</g>
<defs>
<clipPath id="clip0_2899_7958">
<rect width="52" height="40" fill="white" transform="translate(2 8)"/>
</clipPath>
</defs>
</svg>
