<svg width="56" height="56" viewBox="0 0 56 56" fill="none" xmlns="http://www.w3.org/2000/svg">
<g clip-path="url(#clip0_2899_7979)">
<path d="M6 26.0299C6 26.0299 14.31 15.8399 25.83 20.4199C25.83 20.4199 29.89 9.5099 41.65 9.8699C41.65 9.8699 37.41 6.0499 31.97 7.2299C31.97 7.2299 24.89 8.7199 23.78 14.7799C23.78 14.7799 13.88 13.9899 11.33 17.0399C11.33 17.0399 7.12 19.9799 6.01 26.0399L6 26.0299Z" fill="#EDEDED"/>
<path d="M6 26.0298C6 26.0298 7.39 24.3298 9.82 22.6298L7.83 21.0898C7.06 22.4098 6.36 24.0498 6 26.0298Z" fill="#CA78FF"/>
<path d="M41.6501 9.87996C41.6501 9.87996 40.1701 8.55996 37.8601 7.70996L37.0601 10.36C38.4401 10.01 39.9701 9.81996 41.6601 9.87996H41.6501Z" fill="#CA78FF"/>
<path fill-rule="evenodd" clip-rule="evenodd" d="M33.3623 48.4731L43.1023 22.7231L44.0376 23.0769L34.2976 48.8269L33.3623 48.4731Z" fill="#CA78FF"/>
<path d="M49.9 40.0101C52.14 33.8601 49.03 27.0401 42.89 24.7201C36.75 22.4001 29.9 25.4601 27.51 31.5501L49.89 40.0201L49.9 40.0101Z" fill="#FFB378"/>
</g>
<defs>
<clipPath id="clip0_2899_7979">
<rect width="44.62" height="41.83" fill="white" transform="translate(6 7)"/>
</clipPath>
</defs>
</svg>
