<svg width="56" height="56" viewBox="0 0 56 56" fill="none" xmlns="http://www.w3.org/2000/svg">
<g clip-path="url(#clip0_2899_8020)">
<path fill-rule="evenodd" clip-rule="evenodd" d="M32.687 21.776C32.6869 21.7759 32.6867 21.7758 32.3602 22.1544C32.0336 22.533 32.0334 22.5328 32.0331 22.5326L32.0305 22.5303L32.0241 22.5247L32.0018 22.505C31.9829 22.4881 31.9558 22.4638 31.9215 22.4321C31.8528 22.3687 31.7549 22.2761 31.6342 22.1559C31.393 21.9156 31.0598 21.5641 30.6866 21.1145C29.9418 20.2171 29.0286 18.9183 28.3712 17.3219C27.7128 15.7234 27.3071 13.8169 27.5939 11.7172C27.8812 9.6139 28.8584 7.35355 30.9078 5.04443L31.6557 5.70822C29.7217 7.88732 28.8421 9.96834 28.5847 11.8525C28.3269 13.7402 28.6887 15.4672 29.2958 16.9411C29.9038 18.4172 30.754 19.6299 31.4561 20.4758C31.8064 20.8978 32.1177 21.226 32.3399 21.4474C32.451 21.558 32.5397 21.6418 32.5996 21.6971C32.6296 21.7248 32.6523 21.7453 32.6671 21.7585L32.6832 21.7727L32.687 21.776Z" fill="#CA78FF"/>
<path d="M36.5348 19.8277C35.352 16.3033 31.9775 13.7598 28 13.7598C24.0225 13.7598 20.648 16.3033 19.4652 19.8277C14.4093 22.7362 11 28.1084 11 34.279C11 43.5178 18.6071 51 28 51C37.3929 51 45 43.5178 45 34.279C45 28.1084 41.5907 22.7362 36.5348 19.8391V19.8277Z" fill="#FFB378"/>
<path d="M35.2708 12.9384C31.7688 13.235 28.6958 10.9082 28.6958 10.9082C28.6958 10.9082 31.3049 8.09091 34.807 7.78295C38.309 7.4864 41.382 9.8132 41.382 9.8132C41.382 9.8132 38.7729 12.6305 35.2708 12.9384Z" fill="#CA78FF"/>
</g>
<defs>
<clipPath id="clip0_2899_8020">
<rect width="34" height="46" fill="white" transform="translate(11 5)"/>
</clipPath>
</defs>
</svg>
