<svg width="56" height="56" viewBox="0 0 56 56" fill="none" xmlns="http://www.w3.org/2000/svg">
<g clip-path="url(#clip0_2899_8009)">
<path d="M4 20.0911V31.5924C4 33.4078 11.443 34.873 20.6281 34.873C29.8131 34.873 37.2561 33.4078 37.2561 31.5924V20.0911H4Z" fill="#CA78FF"/>
<path d="M20.6281 24.9924C29.8115 24.9924 37.2561 22.798 37.2561 20.0911C37.2561 17.3841 29.8115 15.1897 20.6281 15.1897C11.4446 15.1897 4 17.3841 4 20.0911C4 22.798 11.4446 24.9924 20.6281 24.9924Z" fill="#FFB378"/>
<path d="M22.3041 34.4063L37.0978 12C37.0978 12 49.4764 15.4491 53 22.3473L22.3041 34.4193V34.4063Z" fill="#CA78FF"/>
<path d="M22.3041 34.4064V45.0001L53 33.6673V22.3474L22.3041 34.4064Z" fill="#FFB378"/>
<path d="M41.7299 24.811C41.7299 22.8141 43.3795 21.1933 45.4118 21.1933C47.1274 21.1933 48.5659 22.3603 48.9618 23.9293L53 22.3344C49.4764 15.4491 37.0978 12 37.0978 12L31.9774 19.767C33.0199 20.4024 33.7062 21.5305 33.7062 22.8271C33.7062 24.824 32.0566 26.4448 30.0242 26.4448C29.272 26.4448 28.5594 26.2244 27.9787 25.8354L22.3041 34.4322L42.2182 26.6004C41.9146 26.0688 41.7299 25.4723 41.7299 24.824V24.811Z" fill="#FFB378"/>
<path d="M35.369 37.1163C36.6299 37.1163 37.6521 36.112 37.6521 34.8731C37.6521 33.6342 36.6299 32.6299 35.369 32.6299C34.1081 32.6299 33.0859 33.6342 33.0859 34.8731C33.0859 36.112 34.1081 37.1163 35.369 37.1163Z" fill="#FFB378"/>
<path d="M34.8015 37.2848C36.1572 37.2848 37.2562 36.205 37.2562 34.873C37.2562 33.541 36.1572 32.4612 34.8015 32.4612C33.4459 32.4612 32.3469 33.541 32.3469 34.873C32.3469 36.205 33.4459 37.2848 34.8015 37.2848Z" fill="#CA78FF"/>
</g>
<defs>
<clipPath id="clip0_2899_8009">
<rect width="49" height="33" fill="white" transform="translate(4 12)"/>
</clipPath>
</defs>
</svg>
