<svg width="56" height="56" viewBox="0 0 56 56" fill="none" xmlns="http://www.w3.org/2000/svg">
<g clip-path="url(#clip0_2899_7948)">
<path d="M54 43.9999L48.9063 30.6111H7.09368L2 43.9999H10.4441V38.6751C10.4441 36.6143 12.0514 34.9503 14.0418 34.9503C16.0323 34.9503 17.6396 36.6143 17.6396 38.6751V43.9999H23.611V39.6351C23.611 37.1263 25.5768 35.1039 27.9876 35.1039C30.3985 35.1039 32.3642 37.1391 32.3642 39.6351V43.9999H38.3357V38.6751C38.3357 36.6143 39.9429 34.9503 41.9334 34.9503C43.9239 34.9503 45.5311 36.6143 45.5311 38.6751V43.9999H53.9753H54Z" fill="#FFB378"/>
<path d="M48.7332 27.8081H6.9082V30.6241H48.7332V27.8081Z" fill="#CA78FF"/>
<path d="M47.2373 18.2336H8.49072V23.2H47.2373V18.2336Z" fill="#CA78FF"/>
<path d="M51.0452 27.808H4.59631L8.46602 23.2H47.1879L51.0452 27.808Z" fill="#FFB378"/>
<path d="M16.4404 12C16.4404 12 14.0913 17.0176 4.10181 18.9248C4.10181 18.9248 19.3828 20.6016 27.827 20.3712V14.048C27.827 14.048 20.2606 14.432 16.4404 12Z" fill="#FFB378"/>
<path d="M39.2135 12C39.2135 12 41.5625 17.0176 51.5521 18.9248C51.5521 18.9248 36.271 20.6016 27.8269 20.3712V14.048C27.8269 14.048 35.3932 14.432 39.2135 12Z" fill="#FFB378"/>
</g>
<defs>
<clipPath id="clip0_2899_7948">
<rect width="52" height="32" fill="white" transform="translate(2 12)"/>
</clipPath>
</defs>
</svg>
