<svg width="390" height="532" viewBox="0 0 390 532" fill="none" xmlns="http://www.w3.org/2000/svg">
<g clip-path="url(#clip0_3948_10345)">
<rect width="390" height="532" fill="white"/>
<path d="M302.201 460.816C308.582 466.765 319.14 475.589 327.767 477.66C345.099 481.819 365.986 474.522 382.193 468.944C392.017 465.559 402.78 462.185 410.384 454.692C416.705 448.464 420.315 440.119 422.71 431.73C427.91 413.457 425.476 396.584 424.061 377.788" stroke="#644319" stroke-width="3.6" stroke-miterlimit="10"/>
<path d="M422.687 365.631C422.687 365.631 373.806 405.608 275.211 401.616C275.211 401.616 290.051 454.228 302.796 461.152C302.796 461.152 357.821 464.871 425.347 427.253C425.347 427.253 430.166 415.87 422.687 365.631Z" fill="#F19A65" stroke="#644319" stroke-width="3.6" stroke-linecap="round" stroke-linejoin="round"/>
<path d="M353.371 484.353C348.681 481.06 342.403 479.425 336.778 479.426C330.993 479.435 325.464 481.335 320.715 484.618C315.745 488.072 310.482 492.479 307.621 497.963C303.269 506.296 308.382 509.236 316.054 507.866C322.679 506.679 328.972 504.166 335.414 502.32C339.738 501.064 344.113 500.12 348.279 498.362C354.46 495.771 361.497 490.053 353.375 484.37L353.371 484.353Z" fill="#644319"/>
<path d="M395.107 470.66C397.424 465.418 401.957 460.778 406.776 457.875C411.594 454.973 417.451 453.672 423.213 454.033C429.253 454.425 436.036 455.483 441.316 458.704C449.344 463.595 446.482 468.752 439.205 471.539C432.917 473.941 426.231 475.037 419.76 476.781C415.408 477.936 411.174 479.386 406.698 480.031C400.067 481.002 391.088 479.737 395.111 470.677L395.107 470.66Z" fill="#644319"/>
<path d="M387.121 445.167C387.121 445.167 389.83 458.207 387.031 466.436Z" fill="white"/>
<path d="M387.121 445.167C387.121 445.167 389.83 458.207 387.031 466.436" stroke="#644319" stroke-width="3.6" stroke-linecap="round" stroke-linejoin="round"/>
<path d="M328.798 461.2C328.798 461.2 337.539 474.344 345.334 478.01Z" fill="white"/>
<path d="M328.798 461.2C328.798 461.2 337.539 474.344 345.334 478.01" stroke="#644319" stroke-width="3.6" stroke-linecap="round" stroke-linejoin="round"/>
<path d="M349.657 457.291C349.657 457.291 353.781 468.829 360.271 473.876Z" fill="white"/>
<path d="M349.657 457.291C349.657 457.291 353.781 468.829 360.271 473.876" stroke="#644319" stroke-width="3.6" stroke-linecap="round" stroke-linejoin="round"/>
<path d="M369.572 452.445L374.435 469.938" stroke="#644319" stroke-width="3.6" stroke-linecap="round" stroke-linejoin="round"/>
<path d="M300.619 424.501C300.619 424.501 296.514 446.464 271.641 426.429C266.782 422.528 263.376 417.388 259.402 412.659C254.918 407.327 250.387 401.954 247.93 395.314C246.52 391.472 246.56 386.572 251.403 385.698C258.765 384.378 262.081 392.234 265.937 397.249C267.007 398.642 274.91 410.001 277.297 406.884" fill="#F19A65"/>
<path d="M300.619 424.501C300.619 424.501 296.514 446.464 271.641 426.429C266.782 422.528 263.376 417.388 259.402 412.659C254.918 407.327 250.387 401.954 247.93 395.314C246.52 391.472 246.56 386.572 251.403 385.698C258.765 384.378 262.081 392.234 265.937 397.249C267.007 398.642 274.91 410.001 277.297 406.884" stroke="#644319" stroke-width="3.6" stroke-miterlimit="10" stroke-linecap="round"/>
<path d="M350.647 389.415C350.647 389.415 377.272 365.131 376.79 393.395C376.79 393.395 377.424 415.717 350.647 389.415Z" fill="#644319"/>
<path d="M350.647 389.415C350.647 389.415 315.309 382.358 330.309 406.318C330.309 406.318 341.287 425.763 350.647 389.415Z" fill="#644319"/>
<mask id="mask0_3948_10345" style="mask-type:luminance" maskUnits="userSpaceOnUse" x="216" y="207" width="233" height="233">
<path d="M363.186 434.834C424.893 417.679 461.01 353.748 443.854 292.041C426.699 230.333 362.768 194.217 301.06 211.372C239.353 228.527 203.236 292.458 220.392 354.166C237.547 415.873 301.478 451.99 363.186 434.834Z" fill="white"/>
</mask>
<g mask="url(#mask0_3948_10345)">
<path d="M259.417 363.509C263.679 362.324 265.442 355.275 263.354 347.765C261.266 340.254 256.118 335.127 251.855 336.312C247.593 337.497 245.83 344.546 247.918 352.056C250.006 359.567 255.154 364.695 259.417 363.509Z" fill="white" stroke="#644319" stroke-width="2.84211" stroke-miterlimit="10"/>
<path d="M358.908 254.807C368.674 254.072 379.715 251.715 389.001 256.007C399.588 260.903 403.27 273.35 405.774 284.437C411.995 311.968 417.671 339.705 419.737 367.9C420.954 384.5 420.878 401.46 416.198 417.609C414.049 425.032 410.796 432.415 405.146 437.929C393.784 449.014 374.475 453.076 359.513 456.285C350.44 458.23 340.671 460.605 331.411 458.428C323.719 456.623 317.127 451.97 311.457 446.728C299.113 435.312 290.293 420.818 282.77 405.979C269.989 380.77 260.525 354.078 251.651 327.285C248.074 316.496 244.809 303.926 251.342 294.27C257.146 285.695 266.977 280.666 276.247 276.727C294.258 269.075 313.298 262.451 332.683 258.487C341.338 256.722 350.103 255.465 358.914 254.798L358.908 254.807Z" fill="white" stroke="#644319" stroke-width="2.84211" stroke-miterlimit="10"/>
<path d="M345.863 339.967C344.514 335.116 326.938 340.002 328.287 344.853C329.636 349.705 334.662 352.544 339.513 351.196C344.365 349.847 347.204 344.821 345.855 339.969L345.863 339.967Z" fill="#644319"/>
<path d="M334.394 302.5C335.837 307.689 363.696 299.944 362.253 294.754C360.81 289.565 353.408 287.093 345.712 289.233C338.016 291.373 332.951 297.31 334.394 302.5Z" fill="#644319"/>
<path d="M320.624 306.661C321.876 311.935 291.194 319.238 289.941 313.964C288.689 308.69 294.539 302.787 303.014 300.771C311.489 298.756 319.373 301.394 320.624 306.661Z" fill="#644319"/>
<path d="M352.94 331.695C357.734 330.362 360.292 324.5 358.652 318.601C357.012 312.702 351.796 309.001 347.001 310.334C342.207 311.667 339.649 317.529 341.289 323.428C342.929 329.327 348.145 333.028 352.94 331.695Z" fill="#644319"/>
<path d="M317.84 341.453C322.635 340.12 325.192 334.258 323.552 328.359C321.912 322.46 316.696 318.759 311.901 320.092C307.107 321.425 304.55 327.287 306.19 333.186C307.829 339.085 313.046 342.786 317.84 341.453Z" fill="#644319"/>
<path d="M333.488 367.596C339.649 361.79 341.877 354.148 338.465 350.526C335.052 346.905 327.291 348.675 321.13 354.48C314.969 360.285 312.741 367.927 316.153 371.549C319.566 375.171 327.327 373.401 333.488 367.596Z" fill="#644319"/>
<path d="M368.426 357.028C369.479 352.165 363.627 346.769 355.353 344.977C347.08 343.184 339.519 345.674 338.465 350.538C337.412 355.401 343.264 360.797 351.538 362.589C359.811 364.381 367.372 361.892 368.426 357.028Z" fill="#644319"/>
<path d="M282.29 346.348C281.968 347.696 282.482 348.892 282.86 350.165C283.258 351.511 283.485 352.984 284.051 354.276C284.535 355.393 285.584 356.091 286.819 355.716C288.053 355.341 288.599 354.002 289.348 353.08C290.256 351.957 291.167 350.849 291.993 349.661C292.321 349.189 292.735 348.797 293.074 348.338C293.277 348.068 293.211 348.316 293.075 348.227C293.297 348.372 293.476 348.615 293.662 348.801C294.572 349.767 295.528 350.784 296.556 351.631C297.42 352.349 298.285 353.494 299.485 353.596C300.929 353.717 301.487 351.567 301.744 350.497C301.879 349.929 301.997 349.358 302.023 348.765C302.048 348.172 301.89 347.432 302.134 346.889C302.738 345.557 300.75 344.415 300.143 345.764C299.656 346.833 299.848 347.865 299.718 348.994C299.625 349.827 299.397 351.055 298.81 351.678L299.919 351.369C299.439 351.265 299.103 350.852 298.759 350.528C298.342 350.137 297.881 349.79 297.469 349.39C296.623 348.571 295.814 347.711 294.989 346.88C294.307 346.19 293.445 345.741 292.471 346.083C291.44 346.449 290.746 347.481 290.144 348.338C289.441 349.341 288.685 350.295 287.912 351.247C287.505 351.748 287.113 352.245 286.755 352.78C286.626 352.974 286.448 353.158 286.339 353.363C286.134 353.737 286.028 353.386 286.303 353.634C286.028 353.386 285.968 352.801 285.886 352.475C285.713 351.826 285.526 351.181 285.344 350.527C285.162 349.873 284.97 349.238 284.761 348.599C284.587 348.061 284.377 347.502 284.514 346.941C284.852 345.509 282.645 344.919 282.301 346.361L282.29 346.348Z" fill="#F19A65"/>
<path d="M367.134 324.875C367.747 325.94 368.256 327.002 369.154 327.869C369.794 328.491 370.223 329.037 370.638 329.816C371.316 331.117 372.432 332.85 374.168 332.375C375.905 331.9 376.271 329.739 376.547 328.285C376.701 327.497 376.867 326.699 376.948 325.908C377.016 325.272 377.063 324.641 377.148 324.008C377.207 323.564 377.152 322.969 377.354 322.557L376.665 323.097C377.065 323.025 377.734 323.781 377.968 324.025C378.474 324.534 378.924 325.098 379.39 325.633C380.063 326.404 380.93 326.987 381.609 327.748C382.164 328.378 382.563 329.13 383.441 329.353C384.319 329.577 385.298 329.17 385.687 328.317C386.051 327.519 386.008 326.454 386.126 325.598C386.272 324.496 385.974 323.399 386.211 322.312C386.447 321.224 386.688 320.27 386.385 319.207C385.99 317.788 383.778 318.403 384.18 319.82C384.372 320.511 384.106 321.178 383.963 321.86C383.799 322.665 383.831 323.409 383.882 324.218C383.933 325.028 383.775 325.713 383.695 326.479C383.679 326.65 383.557 327.064 383.637 327.24L383.594 327.426L384.127 327.207C384.127 327.207 383.836 326.9 383.797 326.847C382.923 325.783 381.841 324.968 380.942 323.927C380.255 323.136 379.61 322.325 378.775 321.686C377.94 321.047 376.442 320.3 375.536 321.201C375.083 321.652 375.011 322.416 374.954 323.01C374.884 323.726 374.771 324.431 374.718 325.15C374.635 326.25 374.432 327.368 374.184 328.443C374.07 328.918 373.963 329.415 373.738 329.857C373.697 329.94 373.571 330.141 373.55 330.179C373.666 329.996 373.755 330.375 373.601 330.133C373.361 329.756 373.046 329.448 372.822 329.043C372.599 328.638 372.404 328.193 372.156 327.787C371.729 327.106 371.117 326.611 370.569 326.035C369.926 325.374 369.569 324.491 369.119 323.698C368.384 322.421 366.421 323.593 367.158 324.876L367.134 324.875Z" fill="#F19A65"/>
<path d="M319.93 331.656C321.481 331.224 322.389 329.618 321.958 328.067C321.527 326.516 319.92 325.609 318.369 326.04C316.818 326.471 315.911 328.077 316.342 329.628C316.773 331.179 318.38 332.087 319.93 331.656Z" fill="white"/>
<path d="M355.023 321.9C356.573 321.469 357.481 319.862 357.05 318.311C356.619 316.76 355.012 315.853 353.461 316.284C351.91 316.715 351.003 318.322 351.434 319.872C351.865 321.423 353.472 322.331 355.023 321.9Z" fill="white"/>
<path d="M330.933 363.456C331.286 364.213 348.019 381.393 351.481 358.496" stroke="#644319" stroke-width="2.84211" stroke-miterlimit="10" stroke-linecap="round"/>
<path d="M344.851 440.58C344.851 440.58 348.757 451.665 354.667 456.603Z" fill="white"/>
<path d="M344.851 440.58C344.851 440.58 348.757 451.665 354.667 456.603" stroke="#644319" stroke-width="2.84211" stroke-linecap="round" stroke-linejoin="round"/>
<path d="M396.819 425.982C396.819 425.982 396.155 439.913 391.869 446.26Z" fill="white"/>
<path d="M396.819 425.982C396.819 425.982 396.155 439.913 391.869 446.26" stroke="#644319" stroke-width="2.84211" stroke-linecap="round" stroke-linejoin="round"/>
<path d="M379.063 432.581C379.063 432.581 381.186 443.18 378.536 449.967Z" fill="white"/>
<path d="M379.063 432.581C379.063 432.581 381.186 443.18 378.536 449.967" stroke="#644319" stroke-width="2.84211" stroke-linecap="round" stroke-linejoin="round"/>
<path d="M361.605 438.037L365.899 453.481" stroke="#644319" stroke-width="2.84211" stroke-linecap="round" stroke-linejoin="round"/>
<path d="M420.391 350.321C346.781 398.502 273.222 391.236 273.222 391.236L273.215 391.238L293.245 432.211L309.31 441.286L368.852 440.782L418.653 413.625C425.245 402.559 420.391 350.321 420.391 350.321Z" fill="#F19A65"/>
<path d="M263.341 311.999C263.341 311.999 254.014 335.133 256.968 343.11C259.922 351.086 247.083 312.337 247.083 312.337L263.339 311.991L263.341 311.999Z" fill="#644319"/>
<path d="M376.462 263.262C376.462 263.262 409.761 300.631 411.35 308.995C412.938 317.359 403.165 272.119 403.165 272.119L376.462 263.262Z" fill="#644319"/>
<path d="M244.009 287.011C243.164 287.246 244.647 273.895 244.831 273.218C248.21 260.392 257.477 249.889 267.671 241.836C291.004 223.392 324.052 211.465 352.889 224.298C361.195 227.999 368.49 233.644 374.486 240.459L329.398 263.28C329.398 263.28 244.07 287.002 244.026 287.015L244.009 287.011Z" fill="#F19A65" stroke="#644319" stroke-width="2.84211" stroke-linecap="round" stroke-linejoin="round"/>
<path d="M250.537 322.827C250.537 322.827 219.357 316.576 236.564 294.497C236.564 294.497 315.519 223.275 397.51 243.552C397.51 243.552 438.04 256.429 406.861 288.465C406.861 288.465 378.917 210.71 250.537 322.827Z" fill="#F19A65" stroke="#644319" stroke-width="2.84211" stroke-linecap="round" stroke-linejoin="round"/>
<path d="M418.641 336.276C418.641 336.276 420.586 325.671 413.146 316.51C413.146 316.51 392.835 372.03 349.462 379.772C308.318 395.535 262.264 358.457 262.264 358.457C260.617 370.136 267.76 378.223 267.76 378.223C264.065 391.311 278.51 406.981 278.51 406.981C282.128 436.455 303.932 418.468 303.932 418.468C312.769 448.146 335.272 423.13 335.272 423.13C354.761 435.664 359.211 414.867 359.211 414.867C359.211 414.867 373.763 430.381 383.978 409.589C383.978 409.589 416.172 419.398 408.416 389.42C408.416 389.42 436.375 393.573 424.261 366.461C424.261 366.461 428.545 345.583 418.626 336.28L418.641 336.276Z" fill="#644319"/>
</g>
<g filter="url(#filter0_d_3948_10345)">
<path d="M187.229 184L172.929 165.245L201.528 165.245L187.229 184Z" fill="#FFFFE1"/>
<rect x="26" y="70" width="338" height="95.6129" rx="20" fill="#FFFFE1"/>
<path d="M77.0667 99.375H79.6058V100.938H77.0667V107.012H75.2112V94.1406H77.0667V99.375ZM63.5901 99.707C63.5836 98.8737 63.7822 98.1283 64.1858 97.4707C64.596 96.8066 65.1559 96.2891 65.8655 95.918C66.5752 95.5404 67.3662 95.3516 68.2386 95.3516C69.111 95.3516 69.902 95.5404 70.6116 95.918C71.3213 96.2891 71.8779 96.8066 72.2815 97.4707C72.6917 98.1283 72.9 98.8737 72.9065 99.707C72.9 100.54 72.6917 101.289 72.2815 101.953C71.8779 102.617 71.3213 103.135 70.6116 103.506C69.902 103.877 69.111 104.062 68.2386 104.062C67.3662 104.062 66.5752 103.877 65.8655 103.506C65.1559 103.135 64.596 102.617 64.1858 101.953C63.7822 101.289 63.5836 100.54 63.5901 99.707ZM65.4065 99.707C65.4 100.241 65.5205 100.716 65.7679 101.133C66.0153 101.543 66.3538 101.865 66.7835 102.1C67.2197 102.327 67.7047 102.441 68.2386 102.441C68.7724 102.441 69.2542 102.327 69.6839 102.1C70.1201 101.865 70.4619 101.543 70.7093 101.133C70.9632 100.716 71.0901 100.241 71.0901 99.707C71.0901 99.1732 70.9632 98.7012 70.7093 98.291C70.4619 97.8743 70.1201 97.5521 69.6839 97.3242C69.2542 97.0898 68.7724 96.9727 68.2386 96.9727C67.7047 96.9727 67.2197 97.0898 66.7835 97.3242C66.3538 97.5521 66.0153 97.8743 65.7679 98.291C65.5205 98.7012 65.4 99.1732 65.4065 99.707ZM65.973 105.664H67.8284V109.785H77.8089V111.289H65.973V105.664ZM83.392 102.246C84.8634 102.24 86.1459 102.194 87.2397 102.109C88.3334 102.018 89.4337 101.862 90.5405 101.641L90.7553 103.145C89.616 103.379 88.4832 103.542 87.3569 103.633C86.2306 103.724 84.9252 103.77 83.4408 103.77H82.8842H81.517V95.1758H83.392V102.246ZM83.2944 108.34C83.2944 107.643 83.5287 107.044 83.9975 106.543C84.4727 106.035 85.1531 105.648 86.0385 105.381C86.9304 105.114 87.9884 104.98 89.2123 104.98C90.4298 104.98 91.4812 105.114 92.3666 105.381C93.252 105.648 93.9324 106.035 94.4076 106.543C94.8894 107.044 95.1303 107.643 95.1303 108.34C95.1303 109.03 94.8894 109.622 94.4076 110.117C93.9324 110.618 93.252 110.999 92.3666 111.26C91.4812 111.527 90.4298 111.66 89.2123 111.66C87.9884 111.66 86.9304 111.527 86.0385 111.26C85.1531 110.999 84.4727 110.618 83.9975 110.117C83.5287 109.622 83.2944 109.03 83.2944 108.34ZM85.1303 108.34C85.1238 108.919 85.4786 109.372 86.1947 109.697C86.9174 110.016 87.9233 110.176 89.2123 110.176C90.4884 110.176 91.4845 110.016 92.2006 109.697C92.9233 109.372 93.2878 108.919 93.2944 108.34C93.2878 107.741 92.9265 107.279 92.2104 106.953C91.4942 106.621 90.4949 106.452 89.2123 106.445C87.9233 106.452 86.9174 106.621 86.1947 106.953C85.4786 107.279 85.1238 107.741 85.1303 108.34ZM88.4506 99.1602H93.2162V97.5195H88.4506V96.0742H93.2162V94.1602H95.0717V104.824H93.2162V100.586H88.4506V99.1602ZM111.28 101.25H114.092V102.793H111.28V111.66H109.444V94.1602H111.28V101.25ZM97.5494 96.8945H101.866V94.3945H103.721V96.8945H107.92V98.418H97.5494V96.8945ZM98.4478 103.77C98.4478 102.988 98.6333 102.288 99.0044 101.67C99.382 101.051 99.8996 100.57 100.557 100.225C101.221 99.8796 101.97 99.707 102.803 99.707C103.63 99.707 104.372 99.8796 105.03 100.225C105.694 100.57 106.215 101.051 106.592 101.67C106.97 102.288 107.159 102.988 107.159 103.77C107.159 104.557 106.97 105.26 106.592 105.879C106.215 106.497 105.694 106.982 105.03 107.334C104.372 107.679 103.63 107.852 102.803 107.852C101.97 107.852 101.221 107.679 100.557 107.334C99.8996 106.982 99.382 106.497 99.0044 105.879C98.6333 105.26 98.4478 104.557 98.4478 103.77ZM100.225 103.77C100.225 104.271 100.333 104.714 100.547 105.098C100.769 105.482 101.075 105.778 101.465 105.986C101.863 106.195 102.308 106.296 102.803 106.289C103.292 106.296 103.731 106.195 104.122 105.986C104.512 105.778 104.818 105.482 105.04 105.098C105.267 104.714 105.381 104.271 105.381 103.77C105.381 103.281 105.267 102.845 105.04 102.461C104.818 102.077 104.512 101.777 104.122 101.562C103.731 101.341 103.292 101.23 102.803 101.23C102.308 101.23 101.863 101.341 101.465 101.562C101.075 101.777 100.769 102.077 100.547 102.461C100.333 102.845 100.225 103.281 100.225 103.77ZM120.144 98.9453C120.144 99.8958 120.278 100.837 120.545 101.768C120.812 102.692 121.209 103.538 121.736 104.307C122.263 105.075 122.905 105.69 123.66 106.152L122.625 107.578C121.83 107.103 121.15 106.455 120.584 105.635C120.024 104.808 119.588 103.87 119.275 102.822C118.95 103.962 118.484 104.977 117.879 105.869C117.28 106.761 116.563 107.461 115.73 107.969L114.578 106.582C115.379 106.1 116.062 105.459 116.629 104.658C117.201 103.857 117.631 102.972 117.918 102.002C118.211 101.025 118.354 100.033 118.347 99.0234V95.7617H120.144V98.9453ZM121.765 100.312H124.48V94.4922H126.238V110.801H124.48V101.855H121.765V100.312ZM128.093 94.1602H129.871V111.66H128.093V94.1602ZM147.993 109.473H131.977V107.93H135.805V103.359C135.07 102.956 134.5 102.445 134.096 101.826C133.693 101.208 133.494 100.514 133.501 99.7461C133.501 98.8411 133.774 98.0436 134.321 97.3535C134.868 96.6634 135.63 96.1296 136.606 95.752C137.589 95.3678 138.703 95.1758 139.946 95.1758C141.19 95.1758 142.303 95.3678 143.286 95.752C144.269 96.1296 145.034 96.6634 145.581 97.3535C146.134 98.0436 146.411 98.8411 146.411 99.7461C146.411 100.508 146.216 101.195 145.825 101.807C145.434 102.412 144.881 102.917 144.165 103.32V107.93H147.993V109.473ZM135.298 99.7461C135.298 100.365 135.493 100.908 135.884 101.377C136.274 101.846 136.821 102.21 137.524 102.471C138.227 102.725 139.035 102.852 139.946 102.852C140.851 102.852 141.655 102.721 142.358 102.461C143.068 102.201 143.621 101.839 144.018 101.377C144.415 100.908 144.614 100.365 144.614 99.7461C144.614 99.1276 144.415 98.5872 144.018 98.125C143.621 97.6562 143.068 97.2949 142.358 97.041C141.655 96.7871 140.851 96.6602 139.946 96.6602C139.035 96.6602 138.227 96.7871 137.524 97.041C136.821 97.2949 136.274 97.6562 135.884 98.125C135.493 98.5872 135.298 99.1276 135.298 99.7461ZM142.29 107.93V104.043C141.561 104.212 140.779 104.297 139.946 104.297C139.126 104.297 138.358 104.212 137.641 104.043V107.93H142.29ZM168.632 111.66H166.757V94.1602H168.632V111.66ZM153.788 102.402C156.926 102.389 159.426 102.337 161.288 102.246C161.477 101.211 161.607 100.273 161.679 99.4336C161.757 98.5938 161.806 97.7734 161.825 96.9727H155.312V95.4688H163.671V96.2695C163.664 97.2201 163.632 98.138 163.573 99.0234C163.521 99.9023 163.391 100.941 163.183 102.139C164.029 102.08 164.83 102.012 165.585 101.934L165.702 103.32C164.127 103.522 162.369 103.678 160.429 103.789V110.645H158.573V103.877C157.089 103.923 155.578 103.945 154.042 103.945L153.788 102.402ZM175.817 95.4688C176.611 95.4753 177.324 95.6966 177.955 96.1328C178.593 96.5625 179.108 97.1745 179.498 97.9688H183.824V94.1602H185.66V111.699H183.824V104.98H179.625C179.248 105.866 178.727 106.553 178.063 107.041C177.405 107.523 176.656 107.76 175.817 107.754C174.951 107.754 174.179 107.503 173.502 107.002C172.832 106.501 172.307 105.785 171.93 104.854C171.559 103.923 171.376 102.839 171.383 101.602C171.376 100.378 171.559 99.3034 171.93 98.3789C172.307 97.4479 172.832 96.7318 173.502 96.2305C174.179 95.7227 174.951 95.4688 175.817 95.4688ZM173.141 101.602C173.141 102.513 173.251 103.307 173.473 103.984C173.701 104.661 174.016 105.182 174.42 105.547C174.824 105.911 175.289 106.094 175.817 106.094C176.344 106.094 176.809 105.911 177.213 105.547C177.617 105.182 177.929 104.661 178.151 103.984C178.378 103.307 178.492 102.513 178.492 101.602C178.492 100.703 178.378 99.9186 178.151 99.248C177.923 98.571 177.607 98.0501 177.203 97.6855C176.806 97.3145 176.344 97.1289 175.817 97.1289C175.289 97.1289 174.824 97.3145 174.42 97.6855C174.023 98.0501 173.71 98.571 173.483 99.248C173.255 99.9186 173.141 100.703 173.141 101.602ZM180.026 99.4922C180.175 100.195 180.25 100.898 180.25 101.602C180.25 102.259 180.192 102.878 180.074 103.457H183.824V99.4922H180.026ZM204.232 104.434H197.298V107.832H195.423V104.434H188.216V102.93H204.232V104.434ZM189.974 98.125C189.974 97.4023 190.228 96.7741 190.736 96.2402C191.25 95.7064 191.976 95.2962 192.913 95.0098C193.857 94.7168 194.954 94.5703 196.204 94.5703C197.454 94.5703 198.548 94.7168 199.486 95.0098C200.423 95.2962 201.146 95.7064 201.654 96.2402C202.161 96.7741 202.415 97.4023 202.415 98.125C202.415 98.8411 202.158 99.4661 201.644 100C201.136 100.534 200.413 100.944 199.476 101.23C198.538 101.517 197.448 101.66 196.204 101.66C194.961 101.66 193.867 101.517 192.923 101.23C191.979 100.944 191.25 100.534 190.736 100C190.228 99.4661 189.974 98.8411 189.974 98.125ZM190.228 106.152H192.083V109.766H202.454V111.289H190.228V106.152ZM191.966 98.125C191.96 98.5417 192.129 98.903 192.474 99.209C192.826 99.515 193.32 99.7493 193.958 99.9121C194.603 100.075 195.352 100.156 196.204 100.156C197.057 100.156 197.803 100.075 198.441 99.9121C199.085 99.7493 199.583 99.515 199.935 99.209C200.286 98.903 200.462 98.5417 200.462 98.125C200.462 97.6953 200.286 97.3275 199.935 97.0215C199.583 96.709 199.085 96.4714 198.441 96.3086C197.803 96.1393 197.057 96.0547 196.204 96.0547C195.352 96.0612 194.603 96.1458 193.958 96.3086C193.32 96.4714 192.826 96.709 192.474 97.0215C192.129 97.334 191.96 97.7018 191.966 98.125ZM225.183 111.66H223.406V94.1602H225.183V111.66ZM209.91 106.836C210.71 106.354 211.391 105.703 211.951 104.883C212.517 104.062 212.94 103.151 213.22 102.148C213.507 101.139 213.653 100.104 213.66 99.043V97.6367H210.437V96.1328H218.445V97.6367H215.437V99.043C215.437 100.059 215.574 101.045 215.847 102.002C216.127 102.959 216.541 103.825 217.087 104.6C217.641 105.374 218.315 105.99 219.109 106.445L217.996 107.812C217.182 107.331 216.485 106.667 215.906 105.82C215.333 104.974 214.887 104.007 214.568 102.92C214.249 104.098 213.79 105.146 213.191 106.064C212.592 106.982 211.876 107.702 211.043 108.223L209.91 106.836ZM217.156 100.352H219.871V94.5312H221.628V110.781H219.871V101.875H217.156V100.352ZM240.962 101.133H243.676V102.676H240.962V111.641H239.106V94.1602H240.962V101.133ZM227.348 106.973C229.536 105.879 231.225 104.544 232.417 102.969C233.615 101.393 234.308 99.5833 234.497 97.5391H228.227V95.9961H236.391C236.378 98.6654 235.73 101.064 234.448 103.193C233.165 105.316 231.144 107.057 228.383 108.418L227.348 106.973ZM263.026 98.7695H265.526V100.293H263.026V104.785H261.171V94.1797H263.026V98.7695ZM249.237 102.676C250.923 102.676 252.408 102.656 253.69 102.617V101.162C252.994 101.071 252.382 100.882 251.854 100.596C251.327 100.303 250.92 99.9316 250.634 99.4824C250.354 99.0267 250.214 98.5221 250.214 97.9688C250.214 97.3242 250.393 96.7546 250.751 96.2598C251.115 95.765 251.627 95.3841 252.284 95.1172C252.948 94.8438 253.71 94.707 254.569 94.707C255.416 94.707 256.168 94.8438 256.825 95.1172C257.489 95.3841 258.007 95.765 258.378 96.2598C258.749 96.7546 258.938 97.3242 258.944 97.9688C258.938 98.5156 258.791 99.0137 258.505 99.4629C258.225 99.9056 257.828 100.273 257.313 100.566C256.806 100.853 256.216 101.045 255.546 101.143V102.549C257.356 102.445 258.873 102.298 260.097 102.109L260.253 103.438C258.619 103.73 256.916 103.923 255.145 104.014C253.375 104.098 251.47 104.141 249.433 104.141L249.237 102.676ZM249.823 110.059C250.559 109.824 251.184 109.495 251.698 109.072C252.219 108.643 252.61 108.158 252.87 107.617C253.137 107.077 253.274 106.517 253.28 105.938V105.527H255.077V105.938C255.084 106.686 255.282 107.409 255.673 108.105C256.07 108.802 256.649 109.372 257.411 109.814C258.166 109.365 258.746 108.789 259.149 108.086C259.553 107.383 259.758 106.667 259.765 105.938V105.527H261.561V105.938C261.555 106.53 261.685 107.096 261.952 107.637C262.225 108.177 262.623 108.659 263.143 109.082C263.671 109.505 264.309 109.831 265.058 110.059L264.14 111.445C263.306 111.165 262.593 110.762 262.001 110.234C261.415 109.707 260.966 109.092 260.653 108.389C260.36 109.118 259.944 109.762 259.403 110.322C258.863 110.882 258.202 111.309 257.421 111.602C256.633 111.309 255.966 110.882 255.419 110.322C254.878 109.769 254.465 109.128 254.179 108.398C253.86 109.095 253.407 109.704 252.821 110.225C252.242 110.752 251.548 111.159 250.741 111.445L249.823 110.059ZM251.952 97.9688C251.946 98.3398 252.05 98.6686 252.265 98.9551C252.479 99.235 252.785 99.4531 253.183 99.6094C253.586 99.7656 254.048 99.8438 254.569 99.8438C255.084 99.8438 255.536 99.7656 255.927 99.6094C256.324 99.4531 256.633 99.235 256.854 98.9551C257.076 98.6686 257.186 98.3398 257.186 97.9688C257.186 97.5911 257.076 97.2624 256.854 96.9824C256.64 96.696 256.337 96.4779 255.946 96.3281C255.556 96.1719 255.106 96.0938 254.599 96.0938C254.071 96.0938 253.606 96.1719 253.202 96.3281C252.798 96.4779 252.486 96.6927 252.265 96.9727C252.05 97.2526 251.946 97.5846 251.952 97.9688ZM270.23 106.504H278.453V104.648H280.309V111.445H268.395V104.648H270.23V106.504ZM266.422 102.012H282.379V103.555H266.422V102.012ZM267.281 99.4727C268.401 99.3294 269.433 99.043 270.377 98.6133C271.321 98.1771 272.07 97.653 272.623 97.041C273.176 96.4225 273.453 95.7747 273.453 95.0977V94.3555H275.348V95.0977C275.348 95.7552 275.628 96.3965 276.188 97.0215C276.747 97.64 277.496 98.1706 278.434 98.6133C279.378 99.0495 280.4 99.3359 281.5 99.4727L280.836 100.938C279.892 100.807 279 100.576 278.16 100.244C277.32 99.9121 276.578 99.4987 275.934 99.0039C275.289 98.5026 274.781 97.946 274.41 97.334C274.039 97.9525 273.528 98.5091 272.877 99.0039C272.232 99.4987 271.49 99.9121 270.65 100.244C269.811 100.576 268.922 100.807 267.984 100.938L267.281 99.4727ZM278.453 109.961V107.949H270.23V109.961H278.453ZM298.118 111.66H296.263V94.1602H298.118V111.66ZM284.661 95.8594H286.497V105.605C289.271 105.592 291.953 105.326 294.544 104.805L294.798 106.367C293.314 106.673 291.862 106.891 290.443 107.021C289.023 107.152 287.584 107.214 286.126 107.207H284.661V95.8594ZM314.385 100.938H317.197V102.461H314.385V111.699H312.529V94.1602H314.385V100.938ZM301.494 95.8398H309.678V97.3438H303.35V105.801C304.899 105.794 306.26 105.749 307.432 105.664C308.604 105.579 309.789 105.43 310.986 105.215L311.221 106.777C309.984 106.999 308.77 107.148 307.578 107.227C306.393 107.305 304.984 107.344 303.35 107.344H302.901H301.494V95.8398ZM319.909 110.137C319.662 110.137 319.431 110.075 319.216 109.951C319.008 109.827 318.838 109.661 318.708 109.453C318.585 109.245 318.523 109.017 318.523 108.77C318.523 108.516 318.585 108.281 318.708 108.066C318.832 107.852 318.998 107.682 319.206 107.559C319.421 107.428 319.656 107.363 319.909 107.363C320.157 107.363 320.385 107.425 320.593 107.549C320.808 107.673 320.977 107.842 321.101 108.057C321.231 108.271 321.296 108.503 321.296 108.75C321.296 108.997 321.231 109.229 321.101 109.443C320.977 109.652 320.808 109.821 320.593 109.951C320.385 110.075 320.157 110.137 319.909 110.137ZM142.669 145.699H140.814V135.973H137.201V134.449H140.814V128.16H142.669V145.699ZM127.865 140.816C128.743 140.4 129.528 139.785 130.218 138.971C130.915 138.15 131.458 137.226 131.849 136.197C132.24 135.162 132.435 134.124 132.435 133.082V131.441H128.568V129.918H138.197V131.441H134.31V133.082C134.31 134.065 134.502 135.048 134.886 136.031C135.277 137.014 135.817 137.896 136.507 138.678C137.197 139.452 137.982 140.035 138.861 140.426L137.747 141.91C136.758 141.428 135.882 140.712 135.12 139.762C134.365 138.811 133.789 137.727 133.392 136.51C132.995 137.799 132.412 138.954 131.644 139.977C130.876 140.992 129.993 141.754 128.997 142.262L127.865 140.816ZM159.385 134.762H147.334V128.785H149.17V133.277H159.385V134.762ZM145.206 136.969H161.221V138.453H145.206V136.969ZM147.198 140.113H149.053V143.727H159.502V145.25H147.198V140.113ZM183.11 136.891H176.04V138.414H181.098V142.516H170.903V144.059H181.587V145.484H169.087V141.168H179.262V139.84H169.067V138.414H174.184V136.891H167.153V135.406H183.11V136.891ZM169.204 128.727H181.059V134.117H169.204V128.727ZM179.204 132.652V130.191H171.02V132.652H179.204ZM198.068 132.281H200.607V133.824H198.068V138.043H196.213V128.16H198.068V132.281ZM184.24 136.812C185.627 136.448 186.821 135.969 187.824 135.377C188.833 134.778 189.624 134.091 190.197 133.316C190.77 132.535 191.115 131.689 191.232 130.777H185.06V129.254H193.244C193.244 130.732 192.918 132.066 192.267 133.258C191.616 134.449 190.676 135.471 189.445 136.324C188.215 137.171 186.727 137.828 184.982 138.297L184.24 136.812ZM186.857 138.785H198.068V145.426H186.857V138.785ZM196.232 143.941V140.328H188.713V143.941H196.232ZM215.976 145.699H214.12V128.16H215.976V145.699ZM202.089 135.602C202.089 134.378 202.281 133.303 202.665 132.379C203.049 131.448 203.583 130.732 204.267 130.23C204.957 129.723 205.741 129.469 206.62 129.469C207.486 129.469 208.261 129.723 208.944 130.23C209.628 130.732 210.162 131.448 210.546 132.379C210.936 133.303 211.132 134.378 211.132 135.602C211.132 136.839 210.936 137.923 210.546 138.854C210.162 139.785 209.628 140.501 208.944 141.002C208.261 141.503 207.486 141.754 206.62 141.754C205.741 141.754 204.957 141.503 204.267 141.002C203.583 140.501 203.049 139.785 202.665 138.854C202.281 137.923 202.089 136.839 202.089 135.602ZM203.886 135.602C203.886 136.513 204 137.307 204.228 137.984C204.455 138.661 204.774 139.182 205.185 139.547C205.601 139.911 206.08 140.094 206.62 140.094C207.154 140.094 207.626 139.911 208.036 139.547C208.446 139.182 208.765 138.661 208.993 137.984C209.221 137.307 209.335 136.513 209.335 135.602C209.335 134.703 209.221 133.919 208.993 133.248C208.765 132.571 208.446 132.05 208.036 131.686C207.626 131.314 207.154 131.129 206.62 131.129C206.08 131.129 205.601 131.314 205.185 131.686C204.774 132.05 204.455 132.571 204.228 133.248C204 133.919 203.886 134.703 203.886 135.602ZM233.707 145.66H231.93V128.16H233.707V145.66ZM218.844 135.719C218.844 134.469 218.997 133.382 219.303 132.457C219.615 131.526 220.055 130.813 220.621 130.318C221.194 129.817 221.858 129.566 222.613 129.566C223.316 129.566 223.938 129.778 224.479 130.201C225.025 130.624 225.462 131.236 225.787 132.037C226.119 132.831 226.321 133.772 226.393 134.859H228.375V128.492H230.152V144.801H228.375V136.363H226.402C226.35 137.496 226.162 138.479 225.836 139.312C225.511 140.139 225.071 140.777 224.518 141.227C223.964 141.669 223.33 141.891 222.613 141.891C221.858 141.891 221.194 141.643 220.621 141.148C220.055 140.647 219.615 139.931 219.303 139C218.997 138.062 218.844 136.969 218.844 135.719ZM220.563 135.719C220.563 136.637 220.644 137.428 220.807 138.092C220.976 138.756 221.214 139.264 221.52 139.615C221.832 139.96 222.197 140.133 222.613 140.133C223.043 140.133 223.414 139.96 223.727 139.615C224.039 139.264 224.28 138.756 224.449 138.092C224.619 137.428 224.703 136.637 224.703 135.719C224.703 134.794 224.619 134.003 224.449 133.346C224.28 132.682 224.039 132.177 223.727 131.832C223.414 131.48 223.043 131.305 222.613 131.305C222.197 131.305 221.832 131.48 221.52 131.832C221.214 132.177 220.976 132.682 220.807 133.346C220.644 134.01 220.563 134.801 220.563 135.719ZM251.829 143.473H235.814V141.93H239.642V137.359C238.906 136.956 238.336 136.445 237.933 135.826C237.529 135.208 237.331 134.514 237.337 133.746C237.337 132.841 237.611 132.044 238.157 131.354C238.704 130.663 239.466 130.13 240.443 129.752C241.426 129.368 242.539 129.176 243.782 129.176C245.026 129.176 246.139 129.368 247.122 129.752C248.105 130.13 248.87 130.663 249.417 131.354C249.971 132.044 250.247 132.841 250.247 133.746C250.247 134.508 250.052 135.195 249.661 135.807C249.271 136.412 248.717 136.917 248.001 137.32V141.93H251.829V143.473ZM239.134 133.746C239.134 134.365 239.329 134.908 239.72 135.377C240.111 135.846 240.657 136.21 241.361 136.471C242.064 136.725 242.871 136.852 243.782 136.852C244.687 136.852 245.491 136.721 246.195 136.461C246.904 136.201 247.458 135.839 247.855 135.377C248.252 134.908 248.45 134.365 248.45 133.746C248.45 133.128 248.252 132.587 247.855 132.125C247.458 131.656 246.904 131.295 246.195 131.041C245.491 130.787 244.687 130.66 243.782 130.66C242.871 130.66 242.064 130.787 241.361 131.041C240.657 131.295 240.111 131.656 239.72 132.125C239.329 132.587 239.134 133.128 239.134 133.746ZM246.126 141.93V138.043C245.397 138.212 244.616 138.297 243.782 138.297C242.962 138.297 242.194 138.212 241.478 138.043V141.93H246.126ZM256.026 139.918H254.092L253.916 129.859H256.202L256.026 139.918ZM253.682 142.77C253.682 142.516 253.744 142.281 253.868 142.066C253.991 141.852 254.157 141.682 254.366 141.559C254.58 141.428 254.815 141.363 255.069 141.363C255.316 141.363 255.544 141.425 255.752 141.549C255.967 141.673 256.136 141.842 256.26 142.057C256.39 142.271 256.455 142.503 256.455 142.75C256.455 142.997 256.39 143.229 256.26 143.443C256.136 143.652 255.967 143.821 255.752 143.951C255.544 144.075 255.316 144.137 255.069 144.137C254.821 144.137 254.59 144.075 254.375 143.951C254.167 143.827 253.998 143.661 253.868 143.453C253.744 143.245 253.682 143.017 253.682 142.77Z" fill="#393939"/>
</g>
</g>
<defs>
<filter id="filter0_d_3948_10345" x="-0.5" y="55.5" width="375" height="151" filterUnits="userSpaceOnUse" color-interpolation-filters="sRGB">
<feFlood flood-opacity="0" result="BackgroundImageFix"/>
<feColorMatrix in="SourceAlpha" type="matrix" values="0 0 0 0 0 0 0 0 0 0 0 0 0 0 0 0 0 0 127 0" result="hardAlpha"/>
<feOffset dx="-8" dy="4"/>
<feGaussianBlur stdDeviation="9.25"/>
<feComposite in2="hardAlpha" operator="out"/>
<feColorMatrix type="matrix" values="0 0 0 0 0.692318 0 0 0 0 0.692318 0 0 0 0 0.692318 0 0 0 0.25 0"/>
<feBlend mode="normal" in2="BackgroundImageFix" result="effect1_dropShadow_3948_10345"/>
<feBlend mode="normal" in="SourceGraphic" in2="effect1_dropShadow_3948_10345" result="shape"/>
</filter>
<clipPath id="clip0_3948_10345">
<rect width="390" height="532" fill="white"/>
</clipPath>
</defs>
</svg>
