<svg width="98" height="93" viewBox="0 0 98 93" fill="none" xmlns="http://www.w3.org/2000/svg">
<rect x="2.5" y="1.5" width="71.4" height="78.6" rx="5.7" fill="#FFFFF0"/>
<rect x="2.5" y="1.5" width="71.4" height="78.6" rx="5.7" stroke="#CA78FF" stroke-width="3"/>
<path d="M23.7558 18.7156H30.705V20.1687H28.1035V27.2H26.3574V20.1687H23.7558V18.7156ZM31.7229 18.7156H37.4182V20.1687H33.4807V22.2312H37.1252V23.6843H33.4807V25.7468H37.4299V27.2H31.7229V18.7156ZM43.3227 21.1414C43.2876 20.8054 43.1411 20.5437 42.8833 20.3562C42.6294 20.1687 42.2876 20.075 41.8579 20.075C41.5649 20.075 41.313 20.1179 41.102 20.2039C40.895 20.2859 40.7368 20.4011 40.6274 20.5496C40.518 20.698 40.4634 20.866 40.4634 21.0535C40.4634 21.3347 40.5845 21.5574 40.8266 21.7214C41.0727 21.8816 41.4048 22.0085 41.8227 22.1023L42.5845 22.2898C43.3696 22.4695 43.9887 22.7625 44.4419 23.1687C44.895 23.571 45.1235 24.1062 45.1274 24.7742C45.1274 25.2898 44.9966 25.739 44.7348 26.1218C44.4731 26.5046 44.0962 26.7996 43.604 27.0066C43.1118 27.2136 42.5259 27.3171 41.8462 27.3171C41.1587 27.321 40.563 27.2175 40.0591 27.0066C39.5552 26.7957 39.1626 26.4832 38.8813 26.0691C38.6001 25.655 38.4516 25.1492 38.436 24.5515H40.147C40.1743 24.9695 40.3384 25.2898 40.6391 25.5125C40.9438 25.7312 41.3384 25.8406 41.8227 25.8406C42.1274 25.8406 42.395 25.7957 42.6255 25.7058C42.8559 25.616 43.0337 25.491 43.1587 25.3308C43.2837 25.1707 43.3462 24.9851 43.3462 24.7742C43.3462 24.5007 43.227 24.2839 42.9887 24.1238C42.7544 23.9597 42.3891 23.8171 41.893 23.696L40.9673 23.4734C39.4282 23.0945 38.6587 22.325 38.6587 21.1648C38.6587 20.6609 38.7954 20.2156 39.0688 19.8289C39.3462 19.4382 39.727 19.1355 40.2114 18.9207C40.6997 18.7058 41.2524 18.5984 41.8696 18.5984C42.4868 18.5984 43.0317 18.7058 43.5044 18.9207C43.977 19.1355 44.3442 19.4363 44.6059 19.823C44.8677 20.2058 45.0024 20.6453 45.0102 21.1414H43.3227ZM45.8757 18.7156H52.825V20.1687H50.2234V27.2H48.4773V20.1687H45.8757V18.7156Z" fill="#111111"/>
<path d="M10 40.8H66.4" stroke="#616161" stroke-width="2"/>
<path d="M10 50.4001H66.4" stroke="#616161" stroke-width="2"/>
<path d="M10 60H50.8" stroke="#616161" stroke-width="2"/>
<rect x="24.5" y="10.5" width="71.4" height="78.6" rx="5.7" fill="#FFFFF0"/>
<rect x="24.5" y="10.5" width="71.4" height="78.6" rx="5.7" stroke="#CA78FF" stroke-width="3"/>
<path d="M45.5558 28.5156H52.5051V29.9688H49.9035V37H48.1574V29.9688H45.5558V28.5156ZM53.5229 28.5156H59.2182V29.9688H55.2807V32.0312H58.9252V33.4844H55.2807V35.5469H59.2299V37H53.5229V28.5156ZM65.1228 30.9414C65.0876 30.6055 64.9411 30.3438 64.6833 30.1562C64.4294 29.9688 64.0876 29.875 63.6579 29.875C63.365 29.875 63.113 29.918 62.9021 30.0039C62.695 30.0859 62.5368 30.2012 62.4275 30.3496C62.3181 30.498 62.2634 30.666 62.2634 30.8535C62.2634 31.1348 62.3845 31.3574 62.6267 31.5215C62.8728 31.6816 63.2048 31.8086 63.6228 31.9023L64.3845 32.0898C65.1697 32.2695 65.7888 32.5625 66.2419 32.9688C66.695 33.3711 66.9236 33.9062 66.9275 34.5742C66.9275 35.0898 66.7966 35.5391 66.5349 35.9219C66.2732 36.3047 65.8962 36.5996 65.404 36.8066C64.9118 37.0137 64.3259 37.1172 63.6462 37.1172C62.9587 37.1211 62.363 37.0176 61.8591 36.8066C61.3552 36.5957 60.9626 36.2832 60.6814 35.8691C60.4001 35.4551 60.2517 34.9492 60.2361 34.3516H61.947C61.9743 34.7695 62.1384 35.0898 62.4392 35.3125C62.7439 35.5312 63.1384 35.6406 63.6228 35.6406C63.9275 35.6406 64.195 35.5957 64.4255 35.5059C64.656 35.416 64.8337 35.291 64.9587 35.1309C65.0837 34.9707 65.1462 34.7852 65.1462 34.5742C65.1462 34.3008 65.0271 34.084 64.7888 33.9238C64.5544 33.7598 64.1892 33.6172 63.6931 33.4961L62.7673 33.2734C61.2282 32.8945 60.4587 32.125 60.4587 30.9648C60.4587 30.4609 60.5954 30.0156 60.8689 29.6289C61.1462 29.2383 61.5271 28.9355 62.0115 28.7207C62.4997 28.5059 63.0525 28.3984 63.6697 28.3984C64.2868 28.3984 64.8318 28.5059 65.3044 28.7207C65.7771 28.9355 66.1443 29.2363 66.406 29.623C66.6677 30.0059 66.8025 30.4453 66.8103 30.9414H65.1228ZM67.6758 28.5156H74.625V29.9688H72.0234V37H70.2773V29.9688H67.6758V28.5156Z" fill="#111111"/>
<path d="M32 49.8H88.4" stroke="#616161" stroke-width="2"/>
<path d="M32 59.4001H88.4" stroke="#616161" stroke-width="2"/>
<path d="M32 69H72.8" stroke="#616161" stroke-width="2"/>
</svg>
