<svg width="179" height="59" viewBox="0 0 179 59" fill="none" xmlns="http://www.w3.org/2000/svg">
<g clip-path="url(#clip0_744_7541)">
<path d="M-90.1071 -31.7673L-103.409 -52.5476L-90.9618 -60.5433L-89.5329 -58.311L-99.4666 -51.9301L-94.9719 -44.9086L-85.9707 -50.6905L-84.5417 -48.4583L-93.5429 -42.6764L-87.5932 -33.382L-90.1071 -31.7673ZM-68.0022 2.76381L-81.3046 -18.0165L-74.2902 -22.5222C-72.6683 -23.564 -71.1595 -24.1418 -69.7638 -24.2556C-68.3723 -24.3762 -67.1192 -24.1168 -66.0042 -23.4774C-64.8892 -22.8381 -63.9399 -21.9063 -63.1561 -20.6819C-62.3724 -19.4575 -61.9274 -18.2112 -61.8212 -16.943C-61.7151 -15.6748 -62.0057 -14.438 -62.6932 -13.2327C-63.3851 -12.0342 -64.5352 -10.9184 -66.1435 -9.88527L-71.8199 -6.23902L-73.2749 -8.51187L-67.6795 -12.106C-66.5713 -12.8179 -65.7832 -13.5532 -65.3153 -14.312C-64.8406 -15.0751 -64.6417 -15.852 -64.7187 -16.6426C-64.7932 -17.4443 -65.0968 -18.2612 -65.6294 -19.0932C-66.162 -19.9252 -66.783 -20.5525 -67.4922 -20.9752C-68.2014 -21.3979 -69.0056 -21.5591 -69.9046 -21.4589C-70.808 -21.3655 -71.8205 -20.9585 -72.9423 -20.2379L-77.3618 -17.399L-65.4884 1.14904L-68.0022 2.76381ZM-64.2063 -12.8479L-53.1219 -6.79456L-56.0412 -4.91935L-67.0446 -11.0247L-64.2063 -12.8479ZM-56.6859 14.8998L-43.3835 35.6801L-45.8974 37.2949L-59.1998 16.5146L-56.6859 14.8998ZM-23.7926 71.826L-37.0949 51.0456L-24.5663 42.9978L-23.1373 45.2301L-33.1521 51.6631L-28.6574 58.6846L-19.2913 52.6683L-17.8623 54.9006L-27.2284 60.9169L-22.7077 67.9789L-12.5307 61.4417L-11.1017 63.674L-23.7926 71.826ZM1.47153 75.0026L14.7739 95.7829L12.3412 97.3456L-9.4156 88.2962L-9.61833 88.4265L0.826121 104.742L-1.68773 106.357L-14.9901 85.5767L-12.5574 84.014L9.26594 93.0779L9.46866 92.9477L-1.00177 76.5913L1.47153 75.0026ZM26.8234 136.773L20.4171 140.888L7.11472 120.108L13.8048 115.81C15.8186 114.517 17.8081 113.826 19.7733 113.738C21.7342 113.643 23.5923 114.125 25.3475 115.183C27.0984 116.235 28.6624 117.836 30.0394 119.987C31.4251 122.152 32.2328 124.263 32.4627 126.32C32.6883 128.371 32.333 130.289 31.3968 132.074C30.4562 133.852 28.9318 135.419 26.8234 136.773ZM21.502 137.041L25.2322 134.645C26.9487 133.542 28.159 132.297 28.8631 130.909C29.5673 129.522 29.8046 128.038 29.5749 126.457C29.3453 124.877 28.6892 123.241 27.6066 121.55C26.5327 119.873 25.3346 118.604 24.0121 117.745C22.6853 116.879 21.27 116.471 19.7664 116.52C18.2583 116.563 16.6934 117.105 15.0716 118.147L11.0575 120.725L21.502 137.041ZM42.5219 175.419L29.2196 154.639L31.7334 153.024L43.6068 171.572L53.2567 165.374L54.6857 167.606L42.5219 175.419ZM49.5404 190.316L52.4191 188.467L64.3862 194.469L64.6294 194.312L64.1774 180.914L67.0562 179.065L67.3756 196.099L72.8576 204.663L70.3437 206.278L64.8617 197.714L49.5404 190.316Z" fill="#644319"/>
<path d="M22.3643 50.2005C33.4432 50.2005 42.4244 41.2038 42.4244 30.1059C42.4244 19.0079 33.4432 10.0112 22.3643 10.0112C11.2854 10.0112 2.3042 19.0079 2.3042 30.1059C2.3042 41.2038 11.2854 50.2005 22.3643 50.2005Z" fill="#FF8745"/>
<path d="M15.2359 40.3192C17.7889 40.3192 19.8585 38.2461 19.8585 35.6887C19.8585 33.1313 17.7889 31.0581 15.2359 31.0581C12.6829 31.0581 10.6133 33.1313 10.6133 35.6887C10.6133 38.2461 12.6829 40.3192 15.2359 40.3192Z" fill="white"/>
<path d="M22.4937 26.9901C25.0467 26.9901 27.1163 24.917 27.1163 22.3596C27.1163 19.8022 25.0467 17.729 22.4937 17.729C19.9407 17.729 17.8711 19.8022 17.8711 22.3596C17.8711 24.917 19.9407 26.9901 22.4937 26.9901Z" fill="white"/>
<path d="M30.7022 40.3192C33.2552 40.3192 35.3248 38.2461 35.3248 35.6887C35.3248 33.1313 33.2552 31.0581 30.7022 31.0581C28.1492 31.0581 26.0796 33.1313 26.0796 35.6887C26.0796 38.2461 28.1492 40.3192 30.7022 40.3192Z" fill="white"/>
<path d="M34.6478 33.222L27.1163 38.6748L18.8215 24.913L26.7707 20.6719L34.6478 33.222Z" fill="white"/>
<path d="M17.8713 22.4028L18.8218 30.8561C18.8218 30.8561 18.8218 32.4429 16.9209 31.3754L15.884 35.2126L19.8586 35.8185L19.5994 29.4136C19.5994 29.4136 19.8586 27.8556 21.1547 28.7789V25.8649L17.8713 22.4028Z" fill="white"/>
<path d="M48.7605 36.6409L53.8871 21.4653H58.6105L63.7372 36.6409H59.9066L56.3064 25.2159H56.1768L52.5767 36.6409H48.7605ZM60.3242 30.6543V33.3952H52.1158V30.6543H60.3242Z" fill="#000111"/>
<path d="M65.3357 25.2593H68.7486V27.3077H68.8782C69.0799 26.5864 69.4111 26.0382 69.8863 25.6632C70.3471 25.2881 70.9087 25.1006 71.5424 25.1006C71.9456 25.1006 72.2768 25.1439 72.5504 25.2304V28.3175C72.3776 28.2598 72.1616 28.2165 71.9024 28.1876C71.6288 28.1588 71.384 28.1299 71.1536 28.1299C70.7215 28.1299 70.3327 28.2309 69.9871 28.4184C69.6415 28.6204 69.3679 28.88 69.1663 29.2263C68.9647 29.5725 68.8639 29.962 68.8639 30.4091V36.6409H65.3357V25.2593Z" fill="#000111"/>
<path d="M80.2836 27.8557H73.1985V25.2591H80.2836V27.8557ZM78.2387 22.5327V33.0633C78.2387 33.2941 78.2819 33.4816 78.3539 33.6259C78.4259 33.7557 78.5267 33.8567 78.6707 33.9288C78.8147 33.9865 78.9876 34.0298 79.1892 34.0298C79.2756 34.0298 79.4052 34.0442 79.5636 34.0298C79.722 34.0298 79.8804 34.0154 80.0388 34.0009L80.442 33.9721V36.6696C79.938 36.7562 79.3476 36.7995 78.6995 36.7995C77.8499 36.7995 77.1299 36.6841 76.5394 36.4388C75.949 36.1936 75.4882 35.833 75.1714 35.3425C74.8546 34.852 74.7106 34.2317 74.7106 33.4816V22.5327H78.2387Z" fill="#000111"/>
<path d="M89.3415 31.8517H82.3572V29.1108H89.3415V31.8517Z" fill="#000111"/>
<path d="M91.8616 21.4653H102.129V24.3793H95.4185V27.5961H101.481V30.4956H95.4185V36.6409H91.8616V21.4653Z" fill="#000111"/>
<path d="M103.944 25.2593H107.357V27.3077H107.486C107.688 26.5864 108.019 26.0382 108.494 25.6632C108.955 25.2881 109.517 25.1006 110.151 25.1006C110.554 25.1006 110.885 25.1439 111.159 25.2304V28.3175C110.986 28.2598 110.77 28.2165 110.511 28.1876C110.237 28.1588 109.992 28.1299 109.762 28.1299C109.33 28.1299 108.941 28.2309 108.595 28.4184C108.25 28.6204 107.976 28.88 107.774 29.2263C107.573 29.5725 107.472 29.962 107.472 30.4091V36.6409H103.944V25.2593Z" fill="#000111"/>
<path d="M113.434 23.6724C113.16 23.5137 112.93 23.3117 112.771 23.0665C112.613 22.8213 112.512 22.5327 112.512 22.2154C112.512 21.9125 112.599 21.6239 112.771 21.3643C112.944 21.1046 113.16 20.8882 113.434 20.744C113.707 20.5853 114.01 20.5132 114.355 20.5132C114.687 20.5132 114.989 20.5853 115.263 20.744C115.536 20.9027 115.767 21.1046 115.925 21.3643C116.098 21.6239 116.17 21.9125 116.17 22.2154C116.17 22.5327 116.084 22.8213 115.925 23.0665C115.767 23.3117 115.536 23.5281 115.263 23.6724C114.989 23.831 114.687 23.9032 114.355 23.9032C114.01 23.9032 113.707 23.8166 113.434 23.6724ZM112.584 25.2592H116.112V36.6408H112.584V25.2592Z" fill="#000111"/>
<path d="M120.591 36.1504C119.727 35.6888 119.064 35.0108 118.604 34.1309C118.143 33.2509 117.912 32.2123 117.912 31.0005C117.912 29.8465 118.143 28.8079 118.604 27.9135C119.064 27.0191 119.727 26.3267 120.576 25.8507C121.426 25.3746 122.405 25.1294 123.543 25.1294C124.609 25.1294 125.559 25.3458 126.366 25.793C127.186 26.2402 127.834 26.9037 128.295 27.7692C128.756 28.6348 129.001 29.6878 129.001 30.914V31.8228H119.194V29.7311H125.718C125.718 29.3272 125.617 28.981 125.429 28.6636C125.242 28.3463 124.997 28.101 124.681 27.9279C124.364 27.7548 124.004 27.6683 123.601 27.6683C123.183 27.6683 122.809 27.7548 122.477 27.9424C122.146 28.1299 121.873 28.3751 121.685 28.7069C121.498 29.0387 121.397 29.3993 121.383 29.7888V31.8805C121.383 32.371 121.484 32.7893 121.671 33.1499C121.858 33.5106 122.132 33.7847 122.477 33.9866C122.823 34.1886 123.226 34.2895 123.701 34.2895C124.018 34.2895 124.306 34.2463 124.565 34.1597C124.825 34.0732 125.055 33.9433 125.228 33.7847C125.415 33.626 125.545 33.4384 125.646 33.2221H128.943C128.799 33.9578 128.497 34.5925 128.036 35.1406C127.575 35.6888 126.97 36.1071 126.222 36.4101C125.473 36.6986 124.609 36.8428 123.644 36.8428C122.477 36.8428 121.455 36.612 120.591 36.1504Z" fill="#000111"/>
<path d="M134.344 36.6409H130.815V25.2593H134.156V27.3221H134.272C134.531 26.6297 134.963 26.0959 135.568 25.692C136.172 25.3025 136.893 25.1006 137.728 25.1006C138.52 25.1006 139.211 25.2737 139.801 25.6343C140.392 25.9805 140.853 26.4854 141.184 27.1346C141.515 27.7837 141.674 28.5194 141.674 29.3705V36.6409H138.145V30.0629C138.145 29.6446 138.073 29.284 137.929 28.9666C137.785 28.6637 137.569 28.4184 137.296 28.2598C137.022 28.1011 136.676 28.0145 136.288 28.0145C135.899 28.0145 135.553 28.1011 135.265 28.2742C134.977 28.4473 134.747 28.6925 134.588 29.0099C134.43 29.3272 134.344 29.7023 134.344 30.1351V36.6409Z" fill="#000111"/>
<path d="M145.749 36.1216C145.058 35.6744 144.525 35.0108 144.122 34.1309C143.718 33.2509 143.517 32.1978 143.517 30.9428C143.517 29.659 143.718 28.5915 144.136 27.7115C144.554 26.8316 145.101 26.1824 145.778 25.7497C146.455 25.3169 147.218 25.115 148.053 25.115C148.586 25.115 149.061 25.2015 149.479 25.3746C149.896 25.5477 150.242 25.7785 150.501 26.0526C150.775 26.3267 150.991 26.6585 151.164 27.0191C151.178 27.0624 151.192 27.0912 151.207 27.1057C151.207 27.1201 151.221 27.1634 151.25 27.2067H151.336V21.4653H154.865V36.6409H151.38V34.8089H151.25L151.192 34.9387C151.02 35.2993 150.789 35.6167 150.516 35.8908C150.242 36.1648 149.896 36.3812 149.479 36.5543C149.061 36.7274 148.6 36.814 148.067 36.814C147.218 36.7996 146.44 36.5832 145.749 36.1216ZM150.429 33.6548C150.76 33.3952 151.005 33.0345 151.178 32.5729C151.351 32.1113 151.437 31.5631 151.452 30.9428C151.452 30.3081 151.351 29.7744 151.178 29.3128C151.005 28.8511 150.76 28.5049 150.429 28.2597C150.098 28.0145 149.709 27.8991 149.263 27.8991C148.816 27.8991 148.427 28.0289 148.111 28.2741C147.794 28.5194 147.549 28.88 147.376 29.3416C147.203 29.8032 147.117 30.337 147.117 30.9717C147.117 31.6064 147.203 32.1401 147.376 32.6018C147.549 33.0634 147.794 33.424 148.111 33.6837C148.427 33.9433 148.816 34.0732 149.263 34.0732C149.709 34.0443 150.098 33.9145 150.429 33.6548Z" fill="#000111"/>
<path d="M160.682 36.6409H157.154V21.4653H160.682V36.6409Z" fill="#000111"/>
<path d="M163.217 40.8532V38.17C163.519 38.1845 163.98 38.1989 164.614 38.2133C164.83 38.2133 165.031 38.1989 165.19 38.1556C165.348 38.1123 165.492 38.0402 165.607 37.9248C165.722 37.8094 165.838 37.6363 165.938 37.3911L166.082 37.0304L162.036 25.2593H165.722L167.883 33.4241H168.012L170.172 25.2593H173.888L169.596 37.7517C169.251 38.7615 168.718 39.5404 167.983 40.0886C167.263 40.6368 166.27 40.9109 165.002 40.9253C164.124 40.8964 163.534 40.882 163.217 40.8532Z" fill="#000111"/>
</g>
<defs>
<clipPath id="clip0_744_7541">
<rect width="179" height="59" fill="white"/>
</clipPath>
</defs>
</svg>
